<svg width="1440" height="1024" viewBox="0 0 1440 1024" fill="none" xmlns="http://www.w3.org/2000/svg">
<g filter="url(#filter0_f_594_11580)">
<rect opacity="0.241379" x="1257.67" y="-690.99" width="1312.58" height="1580.75" transform="rotate(71.3773 1257.67 -690.99)" stroke="black" stroke-width="0.33"/>
<rect opacity="0.517241" x="1566.66" y="-396.005" width="1312.58" height="1580.75" transform="rotate(95.3773 1566.66 -396.005)" stroke="black" stroke-width="0.33"/>
<rect opacity="0.0344828" x="959.168" y="-814.891" width="1312.58" height="1580.75" transform="rotate(53.3773 959.168 -814.891)" stroke="black" stroke-width="0.33"/>
<rect opacity="0.0689655" x="1011.08" y="-800.813" width="1312.58" height="1580.75" transform="rotate(56.3773 1011.08 -800.813)" stroke="black" stroke-width="0.33"/>
<rect opacity="0.103448" x="1062.18" y="-784.038" width="1312.58" height="1580.75" transform="rotate(59.3773 1062.18 -784.038)" stroke="black" stroke-width="0.33"/>
<rect opacity="0.172414" x="1161.41" y="-742.594" width="1312.58" height="1580.75" transform="rotate(65.3773 1161.41 -742.594)" stroke="black" stroke-width="0.33"/>
<rect opacity="0.241379" x="1255.75" y="-690.991" width="1312.58" height="1580.75" transform="rotate(71.3773 1255.75 -690.991)" stroke="black" stroke-width="0.33"/>
<rect opacity="0.310345" x="1344.18" y="-629.818" width="1312.58" height="1580.75" transform="rotate(77.3773 1344.18 -629.818)" stroke="black" stroke-width="0.33"/>
<rect opacity="0.37931" x="1425.75" y="-559.741" width="1312.58" height="1580.75" transform="rotate(83.3773 1425.75 -559.741)" stroke="black" stroke-width="0.33"/>
<rect opacity="0.448276" x="1499.53" y="-481.516" width="1312.58" height="1580.75" transform="rotate(89.3773 1499.53 -481.516)" stroke="black" stroke-width="0.33"/>
<rect opacity="0.517241" x="1564.73" y="-396.005" width="1312.58" height="1580.75" transform="rotate(95.3773 1564.73 -396.005)" stroke="black" stroke-width="0.33"/>
<rect opacity="0.586207" x="1620.64" y="-304.151" width="1312.58" height="1580.75" transform="rotate(101.377 1620.64 -304.151)" stroke="black" stroke-width="0.33"/>
<rect opacity="0.655172" x="1666.64" y="-206.952" width="1312.58" height="1580.75" transform="rotate(107.377 1666.64 -206.952)" stroke="black" stroke-width="0.33"/>
<rect opacity="0.724138" x="1702.24" y="-105.477" width="1312.58" height="1580.75" transform="rotate(113.377 1702.24 -105.477)" stroke="black" stroke-width="0.33"/>
<rect opacity="0.793103" x="1727.02" y="-0.847072" width="1312.58" height="1580.75" transform="rotate(119.377 1727.02 -0.847072)" stroke="black" stroke-width="0.33"/>
<rect opacity="0.862069" x="1740.73" y="105.808" width="1312.58" height="1580.75" transform="rotate(125.377 1740.73 105.808)" stroke="black" stroke-width="0.33"/>
<rect opacity="0.931035" x="1743.23" y="213.314" width="1312.58" height="1580.75" transform="rotate(131.377 1743.23 213.314)" stroke="black" stroke-width="0.33"/>
<rect x="1734.48" y="320.489" width="1312.58" height="1580.75" transform="rotate(137.377 1734.48 320.489)" stroke="black" stroke-width="0.33"/>
</g>
<rect opacity="0.241379" x="1257.62" y="-690.883" width="1312.41" height="1580.58" transform="rotate(71.3773 1257.62 -690.883)" stroke="url(#paint0_linear_594_11580)" stroke-width="0.5"/>
<rect opacity="0.517241" x="1566.57" y="-395.929" width="1312.41" height="1580.58" transform="rotate(95.3773 1566.57 -395.929)" stroke="url(#paint1_linear_594_11580)" stroke-width="0.5"/>
<rect opacity="0.0344828" x="959.151" y="-814.773" width="1312.41" height="1580.58" transform="rotate(53.3773 959.151 -814.773)" stroke="black" stroke-width="0.5"/>
<rect opacity="0.0689655" x="1011.05" y="-800.695" width="1312.41" height="1580.58" transform="rotate(56.3773 1011.05 -800.695)" stroke="black" stroke-width="0.5"/>
<rect opacity="0.103448" x="1062.15" y="-783.921" width="1312.41" height="1580.58" transform="rotate(59.3773 1062.15 -783.921)" stroke="black" stroke-width="0.5"/>
<rect opacity="0.172414" x="1161.36" y="-742.482" width="1312.41" height="1580.58" transform="rotate(65.3773 1161.36 -742.482)" stroke="black" stroke-width="0.5"/>
<rect opacity="0.241379" x="1255.69" y="-690.883" width="1312.41" height="1580.58" transform="rotate(71.3773 1255.69 -690.883)" stroke="black" stroke-width="0.5"/>
<rect opacity="0.310345" x="1344.12" y="-629.717" width="1312.41" height="1580.58" transform="rotate(77.3773 1344.12 -629.717)" stroke="black" stroke-width="0.5"/>
<rect opacity="0.37931" x="1425.67" y="-559.646" width="1312.41" height="1580.58" transform="rotate(83.3773 1425.67 -559.646)" stroke="black" stroke-width="0.5"/>
<rect opacity="0.448276" x="1499.44" y="-481.43" width="1312.41" height="1580.58" transform="rotate(89.3773 1499.44 -481.43)" stroke="black" stroke-width="0.5"/>
<rect opacity="0.517241" x="1564.64" y="-395.929" width="1312.41" height="1580.58" transform="rotate(95.3773 1564.64 -395.929)" stroke="black" stroke-width="0.5"/>
<rect opacity="0.586207" x="1620.54" y="-304.085" width="1312.41" height="1580.58" transform="rotate(101.377 1620.54 -304.085)" stroke="black" stroke-width="0.5"/>
<rect opacity="0.655172" x="1666.53" y="-206.896" width="1312.41" height="1580.58" transform="rotate(107.377 1666.53 -206.896)" stroke="black" stroke-width="0.5"/>
<rect opacity="0.724138" x="1702.13" y="-105.433" width="1312.41" height="1580.58" transform="rotate(113.377 1702.13 -105.433)" stroke="black" stroke-width="0.5"/>
<rect opacity="0.793103" x="1725.89" y="-0.529062" width="1310.91" height="1579.08" transform="rotate(119.377 1725.89 -0.529062)" stroke="url(#paint2_linear_594_11580)" stroke-width="2"/>
<rect opacity="0.862069" x="1740.61" y="105.828" width="1312.41" height="1580.58" transform="rotate(125.377 1740.61 105.828)" stroke="black" stroke-width="0.5"/>
<rect opacity="0.931035" x="1743.11" y="213.321" width="1312.41" height="1580.58" transform="rotate(131.377 1743.11 213.321)" stroke="black" stroke-width="0.5"/>
<rect x="1734.36" y="320.484" width="1312.41" height="1580.58" transform="rotate(137.377 1734.36 320.484)" stroke="black" stroke-width="0.5"/>
<circle cx="644.652" cy="1006.42" r="8.74346" transform="rotate(-180 644.652 1006.42)" fill="black" stroke="black"/>
<circle cx="699.195" cy="922.303" r="13.3652" transform="rotate(-180 699.195 922.303)" fill="black" stroke="black"/>
<circle cx="5.94048" cy="547.018" r="13.3652" transform="rotate(-180 5.94048 547.018)" fill="black" stroke="black"/>
<circle cx="1129.01" cy="945.411" r="8.74346" transform="rotate(-180 1129.01 945.411)" fill="black" stroke="black"/>
<circle cx="1349.93" cy="767.013" r="13.3652" transform="rotate(-180 1349.93 767.013)" fill="black" stroke="black"/>
<circle cx="1044.89" cy="955.579" r="13.3652" transform="rotate(-180 1044.89 955.579)" fill="black" stroke="black"/>
<circle cx="1438.67" cy="691.216" r="4.12173" transform="rotate(-180 1438.67 691.216)" fill="black" stroke="black"/>
<circle cx="1268.59" cy="892.723" r="4.12173" transform="rotate(-180 1268.59 892.723)" fill="black" stroke="black"/>
<circle cx="1192.79" cy="922.303" r="4.12173" transform="rotate(-180 1192.79 922.303)" fill="black" stroke="black"/>
<circle cx="1242.71" cy="913.059" r="4.12173" transform="rotate(-180 1242.71 913.059)" fill="black" stroke="black"/>
<circle cx="1174.31" cy="937.092" r="4.12173" transform="rotate(-180 1174.31 937.092)" fill="black" stroke="black"/>
<circle cx="1146.58" cy="935.244" r="4.12173" transform="rotate(-180 1146.58 935.244)" fill="black" stroke="black"/>
<circle cx="1074.48" cy="953.731" r="4.12173" transform="rotate(-180 1074.48 953.731)" fill="black" stroke="black"/>
<circle cx="1035.65" cy="1020.28" r="4.12173" transform="rotate(-180 1035.65 1020.28)" fill="black" stroke="black"/>
<circle cx="1067.08" cy="1018.43" r="4.12173" transform="rotate(-180 1067.08 1018.43)" fill="black" stroke="black"/>
<circle cx="1244.56" cy="717.098" r="4.12173" transform="rotate(-180 1244.56 717.098)" fill="black" stroke="black"/>
<circle cx="127.949" cy="794.742" r="13.3652" transform="rotate(-180 127.949 794.742)" fill="black" stroke="black"/>
<circle cx="242.559" cy="779.953" r="13.3652" transform="rotate(-180 242.559 779.953)" fill="black" stroke="black"/>
<circle cx="484.743" cy="940.789" r="13.3652" transform="rotate(-180 484.743 940.789)" fill="black" stroke="black"/>
<circle cx="417.263" cy="969.444" r="8.74346" transform="rotate(-180 417.263 969.444)" fill="black" stroke="black"/>
<circle cx="250.888" cy="926.924" r="8.74346" transform="rotate(-180 250.888 926.924)" fill="black" stroke="black"/>
<circle cx="493.987" cy="1025.83" r="4.12173" transform="rotate(-180 493.987 1025.83)" fill="black" stroke="black"/>
<circle cx="466.245" cy="1009.19" r="4.12173" transform="rotate(-180 466.245 1009.19)" fill="black" stroke="black"/>
<circle cx="381.212" cy="946.336" r="4.12173" transform="rotate(-180 381.212 946.336)" fill="black" stroke="black"/>
<circle cx="310.96" cy="975.914" r="4.12173" transform="rotate(-180 310.96 975.914)" fill="black" stroke="black"/>
<circle cx="78.0306" cy="820.625" r="4.12173" transform="rotate(-180 78.0306 820.625)" fill="black" stroke="black"/>
<circle cx="172.312" cy="680.124" r="4.12173" transform="rotate(-180 172.312 680.124)" fill="black" stroke="black"/>
<circle cx="336.847" cy="985.158" r="4.12173" transform="rotate(-180 336.847 985.158)" fill="black" stroke="black"/>
<circle cx="390.459" cy="944.487" r="4.12173" transform="rotate(-180 390.459 944.487)" fill="black" stroke="black"/>
<circle cx="482.893" cy="1011.04" r="4.12173" transform="rotate(-180 482.893 1011.04)" fill="black" stroke="black"/>
<circle cx="746.337" cy="1032.3" r="8.74346" transform="rotate(-180 746.337 1032.3)" fill="black" stroke="black"/>
<defs>
<filter id="filter0_f_594_11580" x="-322.797" y="-854.908" width="2078.26" height="2076.47" filterUnits="userSpaceOnUse" color-interpolation-filters="sRGB">
<feFlood flood-opacity="0" result="BackgroundImageFix"/>
<feBlend mode="normal" in="SourceGraphic" in2="BackgroundImageFix" result="shape"/>
<feGaussianBlur stdDeviation="6" result="effect1_foregroundBlur_594_11580"/>
</filter>
<linearGradient id="paint0_linear_594_11580" x1="1397.39" y1="939.559" x2="2634.6" y2="-457.798" gradientUnits="userSpaceOnUse">
<stop stop-color="#FF3F3F"/>
<stop offset="0.213542" stop-color="#FEEB3C"/>
<stop offset="0.416667" stop-color="#71FF3F"/>
<stop offset="0.619792" stop-color="#3E8BFF"/>
<stop offset="0.8125" stop-color="#E43EFF"/>
<stop offset="0.984375" stop-color="#FF3E3E"/>
</linearGradient>
<linearGradient id="paint1_linear_594_11580" x1="1706.46" y1="1234.6" x2="2943.67" y2="-162.753" gradientUnits="userSpaceOnUse">
<stop stop-color="#FF3F3F"/>
<stop offset="0.213542" stop-color="#FEEB3C"/>
<stop offset="0.416667" stop-color="#71FF3F"/>
<stop offset="0.619792" stop-color="#3E8BFF"/>
<stop offset="0.8125" stop-color="#E43EFF"/>
<stop offset="0.984375" stop-color="#FF3E3E"/>
</linearGradient>
<linearGradient id="paint2_linear_594_11580" x1="1866.86" y1="1629.85" x2="3104.07" y2="232.491" gradientUnits="userSpaceOnUse">
<stop stop-color="#FF3F3F"/>
<stop offset="0.213542" stop-color="#FEEB3C"/>
<stop offset="0.416667" stop-color="#71FF3F"/>
<stop offset="0.619792" stop-color="#3E8BFF"/>
<stop offset="0.8125" stop-color="#E43EFF"/>
<stop offset="0.984375" stop-color="#FF3E3E"/>
</linearGradient>
</defs>
</svg>
