<svg width="1505" height="1505" viewBox="0 0 1505 1505" fill="none" xmlns="http://www.w3.org/2000/svg">
<g class="banner-rects">
<rect opacity="0.0344828" x="626.618" y="1269.68" width="680.034" height="819.036" transform="rotate(-126.623 626.618 1269.68)" stroke="black" stroke-width="0.5"/>
<rect opacity="0.0689655" x="599.724" y="1262.39" width="680.034" height="819.036" transform="rotate(-123.623 599.724 1262.39)" stroke="black" stroke-width="0.5"/>
<rect opacity="0.103448" x="573.246" y="1253.69" width="680.034" height="819.036" transform="rotate(-120.623 573.246 1253.69)" stroke="black" stroke-width="0.5"/>
<rect opacity="0.172414" x="521.838" y="1232.22" width="680.034" height="819.036" transform="rotate(-114.623 521.838 1232.22)" stroke="black" stroke-width="0.5"/>
<rect opacity="0.241379" x="472.96" y="1205.48" width="680.034" height="819.036" transform="rotate(-108.623 472.96 1205.48)" stroke="black" stroke-width="0.5"/>
<rect opacity="0.310345" x="427.14" y="1173.78" width="680.034" height="819.036" transform="rotate(-102.623 427.14 1173.78)" stroke="black" stroke-width="0.5"/>
<rect opacity="0.37931" x="384.882" y="1137.47" width="680.034" height="819.036" transform="rotate(-96.6227 384.882 1137.47)" stroke="black" stroke-width="0.5"/>
<rect opacity="0.448276" x="346.657" y="1096.94" width="680.034" height="819.036" transform="rotate(-90.6227 346.657 1096.94)" stroke="black" stroke-width="0.5"/>
<rect opacity="0.517241" x="312.876" y="1052.64" width="680.034" height="819.036" transform="rotate(-84.6227 312.876 1052.64)" stroke="black" stroke-width="0.5"/>
<rect opacity="0.586207" x="283.91" y="1005.05" width="680.034" height="819.036" transform="rotate(-78.6227 283.91 1005.05)" stroke="black" stroke-width="0.5"/>
<rect opacity="0.655172" x="260.081" y="954.685" width="680.034" height="819.036" transform="rotate(-72.6227 260.081 954.685)" stroke="black" stroke-width="0.5"/>
<rect opacity="0.724138" x="241.639" y="902.109" width="680.034" height="819.036" transform="rotate(-66.6227 241.639 902.109)" stroke="black" stroke-width="0.5"/>
<rect opacity="0.793103" x="229.821" y="847.612" width="678.534" height="817.536" transform="rotate(-60.6227 229.821 847.612)" stroke="black" stroke-width="0.5"/>
<rect opacity="0.862069" x="221.698" y="792.638" width="680.034" height="819.036" transform="rotate(-54.6227 221.698 792.638)" stroke="black" stroke-width="0.5"/>
<rect opacity="0.931035" x="220.408" y="736.938" width="680.034" height="819.036" transform="rotate(-48.6227 220.408 736.938)" stroke="black" stroke-width="0.5"/>
<rect x="224.945" y="681.409" width="680.034" height="819.036" transform="rotate(-42.6227 224.945 681.409)" stroke="black" stroke-width="0.5"/>
</g>
<g filter="url(#filter0_f_594_8655)">
<rect opacity="0.241379" x="471.906" y="1205.59" width="680.204" height="819.206" transform="rotate(-108.623 471.906 1205.59)" stroke="black" stroke-width="0.33"/>
<rect opacity="0.517241" x="311.783" y="1052.71" width="680.204" height="819.206" transform="rotate(-84.6227 311.783 1052.71)" stroke="black" stroke-width="0.33"/>
<rect opacity="0.0344828" x="626.6" y="1269.8" width="680.204" height="819.206" transform="rotate(-126.623 626.6 1269.8)" stroke="black" stroke-width="0.33"/>
<rect opacity="0.0689655" x="599.7" y="1262.5" width="680.203" height="819.206" transform="rotate(-123.623 599.7 1262.5)" stroke="black" stroke-width="0.33"/>
<rect opacity="0.103448" x="573.216" y="1253.81" width="680.204" height="819.206" transform="rotate(-120.623 573.216 1253.81)" stroke="black" stroke-width="0.33"/>
<rect opacity="0.172414" x="521.796" y="1232.33" width="680.204" height="819.206" transform="rotate(-114.623 521.796 1232.33)" stroke="black" stroke-width="0.33"/>
<rect opacity="0.241379" x="472.906" y="1205.59" width="680.204" height="819.206" transform="rotate(-108.623 472.906 1205.59)" stroke="black" stroke-width="0.33"/>
<rect opacity="0.310345" x="427.076" y="1173.89" width="680.204" height="819.206" transform="rotate(-102.623 427.076 1173.89)" stroke="black" stroke-width="0.33"/>
<rect opacity="0.37931" x="384.807" y="1137.57" width="680.204" height="819.206" transform="rotate(-96.6227 384.807 1137.57)" stroke="black" stroke-width="0.33"/>
<rect opacity="0.448276" x="346.573" y="1097.03" width="680.203" height="819.206" transform="rotate(-90.6227 346.573 1097.03)" stroke="black" stroke-width="0.33"/>
<rect opacity="0.517241" x="312.783" y="1052.71" width="680.204" height="819.206" transform="rotate(-84.6227 312.783 1052.71)" stroke="black" stroke-width="0.33"/>
<rect opacity="0.586207" x="283.81" y="1005.11" width="680.204" height="819.206" transform="rotate(-78.6227 283.81 1005.11)" stroke="black" stroke-width="0.33"/>
<rect opacity="0.655172" x="259.974" y="954.741" width="680.203" height="819.206" transform="rotate(-72.6227 259.974 954.741)" stroke="black" stroke-width="0.33"/>
<rect opacity="0.724138" x="241.527" y="902.153" width="680.204" height="819.206" transform="rotate(-66.6227 241.527 902.153)" stroke="black" stroke-width="0.33"/>
<rect opacity="0.793103" x="228.684" y="847.93" width="680.204" height="819.206" transform="rotate(-60.6227 228.684 847.93)" stroke="black" stroke-width="0.33"/>
<rect opacity="0.862069" x="221.58" y="792.658" width="680.203" height="819.206" transform="rotate(-54.6227 221.58 792.658)" stroke="black" stroke-width="0.33"/>
<rect opacity="0.931035" x="220.288" y="736.946" width="680.204" height="819.206" transform="rotate(-48.6227 220.288 736.946)" stroke="black" stroke-width="0.33"/>
<rect x="224.825" y="681.404" width="680.204" height="819.206" transform="rotate(-42.6227 224.825 681.404)" stroke="black" stroke-width="0.33"/>
</g>
<rect opacity="0.241379" x="471.96" y="1205.48" width="680.034" height="819.036" transform="rotate(-108.623 471.96 1205.48)" stroke="url(#paint0_linear_594_8655)" stroke-width="0.5"/>
<rect opacity="0.517241" x="311.876" y="1052.64" width="680.034" height="819.036" transform="rotate(-84.6227 311.876 1052.64)" stroke="url(#paint1_linear_594_8655)" stroke-width="0.5"/>
<g class="banner-circles">
<circle cx="1139.85" cy="518.944" r="6.68686" fill="black" stroke="black"/>
<circle cx="789.61" cy="325.857" r="4.29124" fill="black" stroke="black"/>
<circle cx="1161.41" cy="604.707" r="4.29124" fill="black" stroke="black"/>
<circle cx="1199.74" cy="658.369" r="4.29124" fill="black" stroke="black"/>
<circle cx="1226.09" cy="762.339" r="1.89562" fill="black" stroke="black"/>
<circle cx="761.337" cy="369.457" r="6.68686" fill="black" stroke="black"/>
<circle cx="1192.07" cy="604.707" r="4.29124" fill="black" stroke="black"/>
<circle cx="1120.68" cy="563.981" r="6.68686" fill="black" stroke="black"/>
<circle cx="741.214" cy="283.215" r="6.68686" fill="black" stroke="black"/>
<circle cx="654.494" cy="1225.65" r="4.29124" fill="black" stroke="black"/>
<circle cx="534.715" cy="1164.32" r="4.29124" fill="black" stroke="black"/>
<circle cx="681.806" cy="1202.17" r="6.68686" fill="black" stroke="black"/>
<circle cx="555.318" cy="1168.64" r="6.68686" fill="black" stroke="black"/>
<circle cx="300.423" cy="775.754" r="6.68686" fill="black" stroke="black"/>
<circle cx="581.191" cy="1194.51" r="1.89562" fill="black" stroke="black"/>
<circle cx="595.564" cy="1196.42" r="1.89562" fill="black" stroke="black"/>
<circle cx="355.044" cy="749.881" r="1.89562" fill="black" stroke="black"/>
<circle cx="310.966" cy="625.309" r="1.89562" fill="black" stroke="black"/>
<circle cx="389.061" cy="1027.29" r="4.29124" fill="black" stroke="black"/>
<circle cx="324.86" cy="923.803" r="4.29124" fill="black" stroke="black"/>
<circle cx="355.999" cy="1026.81" r="6.68686" fill="black" stroke="black"/>
<circle cx="338.753" cy="943.447" r="6.68686" fill="black" stroke="black"/>
<circle cx="341.628" cy="973.153" r="1.89562" fill="black" stroke="black"/>
<circle cx="333.962" cy="962.612" r="1.89562" fill="black" stroke="black"/>
<circle cx="324.382" cy="949.197" r="1.89562" fill="black" stroke="black"/>
<circle cx="312.878" cy="894.577" r="1.89562" fill="black" stroke="black"/>
<circle cx="292.759" cy="830.374" r="1.89562" fill="black" stroke="black"/>
<circle cx="303.778" cy="941.052" r="4.29124" fill="black" stroke="black"/>
<circle cx="295.634" cy="898.41" r="1.89562" fill="black" stroke="black"/>
<circle cx="332.524" cy="538.588" r="4.29124" fill="black" stroke="black"/>
<circle cx="538.551" cy="357.479" r="4.29124" fill="black" stroke="black"/>
<circle cx="642.994" cy="307.65" r="4.29124" fill="black" stroke="black"/>
<circle cx="612.33" cy="311.483" r="4.29124" fill="black" stroke="black"/>
<circle cx="424.036" cy="449.95" r="6.68686" fill="black" stroke="black"/>
<circle cx="582.15" cy="352.208" r="6.68686" fill="black" stroke="black"/>
<circle cx="342.585" cy="568.772" r="1.89562" fill="black" stroke="black"/>
<circle cx="344.503" cy="555.357" r="1.89562" fill="black" stroke="black"/>
<circle cx="352.167" cy="515.11" r="1.89562" fill="black" stroke="black"/>
<circle cx="378.042" cy="489.238" r="1.89562" fill="black" stroke="black"/>
<circle cx="466.2" cy="384.789" r="1.89562" fill="black" stroke="black"/>
<circle cx="505.487" cy="369.457" r="1.89562" fill="black" stroke="black"/>
<circle cx="479.614" cy="374.248" r="1.89562" fill="black" stroke="black"/>
<circle cx="515.069" cy="361.791" r="1.89562" fill="black" stroke="black"/>
<circle cx="529.444" cy="362.749" r="1.89562" fill="black" stroke="black"/>
<circle cx="566.816" cy="353.167" r="1.89562" fill="black" stroke="black"/>
<circle cx="586.941" cy="318.67" r="1.89562" fill="black" stroke="black"/>
<circle cx="600.355" cy="312.92" r="1.89562" fill="black" stroke="black"/>
<circle cx="570.65" cy="319.628" r="1.89562" fill="black" stroke="black"/>
<circle cx="325.337" cy="548.649" r="1.89562" fill="black" stroke="black"/>
<circle cx="334.923" cy="579.313" r="1.89562" fill="black" stroke="black"/>
<circle cx="313.839" cy="610.935" r="1.89562" fill="black" stroke="black"/>
<circle cx="301.382" cy="632.975" r="1.89562" fill="black" stroke="black"/>
<circle cx="282.696" cy="675.617" r="4.29124" fill="black" stroke="black"/>
<circle cx="341.628" cy="589.854" r="6.68686" fill="black" stroke="black"/>
<circle cx="478.655" cy="475.822" r="1.89562" fill="black" stroke="black"/>
<circle cx="326.296" cy="606.144" r="1.89562" fill="black" stroke="black"/>
<circle cx="299.464" cy="642.557" r="1.89562" fill="black" stroke="black"/>
<circle cx="1154.22" cy="879.244" r="6.68686" fill="black" stroke="black"/>
<circle cx="1048.81" cy="1089.1" r="6.68686" fill="black" stroke="black"/>
<circle cx="1026.3" cy="1101.08" r="4.29124" fill="black" stroke="black"/>
<circle cx="1141.76" cy="1013.4" r="6.68686" fill="black" stroke="black"/>
<circle cx="945.322" cy="1180.13" r="6.68686" fill="black" stroke="black"/>
<circle cx="1186.8" cy="888.827" r="1.89562" fill="black" stroke="black"/>
<circle cx="1182.97" cy="922.366" r="1.89562" fill="black" stroke="black"/>
<circle cx="1172.43" cy="966.445" r="1.89562" fill="black" stroke="black"/>
<circle cx="1152.31" cy="942.489" r="1.89562" fill="black" stroke="black"/>
<circle cx="1148.47" cy="976.986" r="1.89562" fill="black" stroke="black"/>
<circle cx="1007.61" cy="1123.6" r="1.89562" fill="black" stroke="black"/>
<circle cx="893.577" cy="1186.84" r="1.89562" fill="black" stroke="black"/>
<circle cx="948.199" cy="1136.06" r="6.68686" fill="black" stroke="black"/>
<circle cx="879.684" cy="1197.86" r="4.29124" fill="black" stroke="black"/>
<circle cx="1184.4" cy="804.981" r="4.29124" fill="black" stroke="black"/>
<circle cx="908.907" cy="1184.93" r="1.89562" fill="black" stroke="black"/>
<circle cx="1086.18" cy="1100.6" r="1.89562" fill="black" stroke="black"/>
<circle cx="1057.44" cy="435.576" r="6.68686" fill="black" stroke="black"/>
<circle cx="998.031" cy="443.242" r="6.68686" fill="black" stroke="black"/>
<circle cx="872.497" cy="359.874" r="6.68686" fill="black" stroke="black"/>
<circle cx="907.475" cy="345.022" r="4.29124" fill="black" stroke="black"/>
<circle cx="993.713" cy="367.061" r="4.29124" fill="black" stroke="black"/>
<circle cx="854.292" cy="313.879" r="1.89562" fill="black" stroke="black"/>
<circle cx="867.706" cy="315.795" r="1.89562" fill="black" stroke="black"/>
<circle cx="882.085" cy="324.419" r="1.89562" fill="black" stroke="black"/>
<circle cx="926.161" cy="357" r="1.89562" fill="black" stroke="black"/>
<circle cx="962.575" cy="341.668" r="1.89562" fill="black" stroke="black"/>
<circle cx="1083.31" cy="422.16" r="1.89562" fill="black" stroke="black"/>
<circle cx="1034.44" cy="494.987" r="1.89562" fill="black" stroke="black"/>
<circle cx="949.157" cy="336.876" r="1.89562" fill="black" stroke="black"/>
<circle cx="921.368" cy="357.958" r="1.89562" fill="black" stroke="black"/>
<circle cx="873.456" cy="323.461" r="1.89562" fill="black" stroke="black"/>
<circle cx="736.903" cy="312.441" r="4.29124" fill="black" stroke="black"/>
</g>

<defs>
<filter id="filter0_f_594_8655" x="208.055" y="208.559" width="1088.8" height="1087.87" filterUnits="userSpaceOnUse" color-interpolation-filters="sRGB">
<feFlood flood-opacity="0" result="BackgroundImageFix"/>
<feBlend mode="normal" in="SourceGraphic" in2="BackgroundImageFix" result="shape"/>
<feGaussianBlur stdDeviation="6" result="effect1_foregroundBlur_594_8655"/>
</filter>
<linearGradient id="paint0_linear_594_8655" x1="544.171" y1="2051.08" x2="1185.46" y2="1326.78" gradientUnits="userSpaceOnUse">
<stop stop-color="#FF3F3F"/>
<stop offset="0.213542" stop-color="#FEEB3C"/>
<stop offset="0.416667" stop-color="#71FF3F"/>
<stop offset="0.619792" stop-color="#3E8BFF"/>
<stop offset="0.8125" stop-color="#E43EFF"/>
<stop offset="0.984375" stop-color="#FF3E3E"/>
</linearGradient>
<linearGradient id="paint1_linear_594_8655" x1="383.971" y1="1898.15" x2="1025.27" y2="1173.84" gradientUnits="userSpaceOnUse">
<stop stop-color="#FF3F3F"/>
<stop offset="0.213542" stop-color="#FEEB3C"/>
<stop offset="0.416667" stop-color="#71FF3F"/>
<stop offset="0.619792" stop-color="#3E8BFF"/>
<stop offset="0.8125" stop-color="#E43EFF"/>
<stop offset="0.984375" stop-color="#FF3E3E"/>
</linearGradient>
<linearGradient id="paint2_linear_594_8655" x1="300.827" y1="1693.28" x2="942.121" y2="968.974" gradientUnits="userSpaceOnUse">
<stop stop-color="#FF3F3F"/>
<stop offset="0.213542" stop-color="#FEEB3C"/>
<stop offset="0.416667" stop-color="#71FF3F"/>
<stop offset="0.619792" stop-color="#3E8BFF"/>
<stop offset="0.8125" stop-color="#E43EFF"/>
<stop offset="0.984375" stop-color="#FF3E3E"/>
</linearGradient>
</defs>
</svg>
