<svg width="1440" height="279" viewBox="0 0 1440 279" fill="none" xmlns="http://www.w3.org/2000/svg">
<g clip-path="url(#clip0_594_8588)">
<g filter="url(#filter0_f_594_8588)">
<path fill-rule="evenodd" clip-rule="evenodd" d="M-67.3267 583.207C-64.1295 572.261 -61.3116 560.529 -58.9767 547.953C-69.5477 541.921 -79.6693 535.845 -89.3459 529.745C-91.0634 542.514 -93.1616 554.422 -95.5077 565.532C-86.7103 571.529 -77.3285 577.425 -67.3267 583.207ZM-95.7756 565.349C-93.4331 554.241 -91.3386 542.336 -89.625 529.569C-99.8979 523.087 -109.669 516.578 -118.943 510.067C-119.656 522.908 -120.554 534.933 -121.473 546.201C-113.52 552.685 -104.967 559.072 -95.7756 565.349ZM-89.3021 529.418C-79.6218 535.523 -69.4956 541.604 -58.9188 547.64C-48.7289 492.507 -47.8135 421.166 -64.8582 328.637C-80.7438 242.401 -88.3792 185.87 -88.8677 150.001C-89.1118 132.068 -87.5701 119.284 -84.3708 110.531C-83.5713 108.344 -82.6678 106.407 -81.6626 104.704C-83.8123 105.966 -85.9409 107.244 -88.0486 108.537C-97.8231 119.3 -104.297 136.046 -107.218 160.674C-111.564 197.311 -108.043 251.35 -95.8652 328.976C-81.7173 412.575 -82.418 477.98 -89.3021 529.418ZM-88.9371 109.083C-98.3948 119.93 -104.657 136.539 -107.516 160.639C-111.867 197.319 -108.34 251.392 -96.1614 329.024L-96.161 329.026C-82.031 412.519 -82.7178 477.852 -89.5812 529.242C-99.864 522.751 -109.643 516.233 -118.923 509.715C-116.286 461.941 -116.227 402.879 -127.165 329.371C-135.635 260.356 -135.048 208.785 -125.869 171.35C-119.419 145.045 -108.728 125.725 -93.9589 112.236C-92.2985 111.176 -90.6245 110.125 -88.9371 109.083ZM-87.2919 107.722C-85.3248 106.523 -83.3395 105.337 -81.3361 104.165L-81.2756 104.068C-83.2611 105.225 -85.2249 106.399 -87.1669 107.591C-87.2086 107.635 -87.2502 107.679 -87.2919 107.722ZM-88.1409 108.192C-88.1749 108.229 -88.2091 108.267 -88.243 108.304C-89.6996 109.198 -91.1461 110.098 -92.5826 111.006L-92.5519 110.979C-91.0944 110.04 -89.6239 109.111 -88.1409 108.192ZM-86.301 106.71C-84.5248 105.63 -82.7305 104.564 -80.9181 103.514C-80.8832 103.461 -80.8481 103.409 -80.813 103.356C-82.6008 104.39 -84.3663 105.445 -86.1097 106.522C-86.1736 106.585 -86.2374 106.647 -86.301 106.71ZM-87.218 107.211C-87.2648 107.26 -87.3115 107.308 -87.3582 107.357C-88.4874 108.05 -89.6094 108.75 -90.7239 109.456C-89.5656 108.698 -88.3969 107.949 -87.218 107.211ZM-85.0669 105.531C-83.5326 104.597 -81.9811 103.68 -80.4127 102.779C-80.3571 102.702 -80.3011 102.624 -80.245 102.548C-81.7893 103.439 -83.3114 104.355 -84.8113 105.297C-84.8967 105.375 -84.9819 105.452 -85.0669 105.531ZM-86.1697 106.161C-86.2124 106.202 -86.255 106.244 -86.2976 106.285C-86.7618 106.572 -87.2246 106.861 -87.6857 107.15C-87.1829 106.818 -86.6776 106.488 -86.1697 106.161ZM-83.4165 104.081C-83.3245 104.004 -83.2321 103.927 -83.1395 103.851C-81.9537 103.076 -80.7476 102.329 -79.5208 101.61C-79.6079 101.717 -79.6946 101.826 -79.7806 101.935C-81.0065 102.635 -82.2184 103.35 -83.4165 104.081ZM-80.5792 101.89C-79.9362 101.433 -79.2826 100.994 -78.6187 100.572C-78.7268 100.689 -78.8341 100.807 -78.9407 100.927C-79.491 101.243 -80.0371 101.564 -80.5792 101.89ZM-77.7306 99.6719C-79.6813 100.839 -81.5449 102.149 -83.3207 103.611C-85.2891 104.898 -87.2009 106.263 -89.0559 107.707C-91.0841 109.08 -93.0695 110.502 -95.012 111.974C-97.1229 113.428 -99.1984 114.916 -101.238 116.438C-103.399 117.941 -105.529 119.468 -107.63 121.018C-194.468 181.795 -241.124 268.122 -252.668 330.927C-256.234 348.134 -250.084 371.257 -233.698 397.668C-226.078 409.95 -216.241 422.948 -204.131 436.399C-195.417 459.17 -182.785 481.739 -164.9 503.632C-161.048 514.679 -156.489 525.335 -151.048 535.598C-148.059 541.236 -144.803 546.756 -141.253 552.157C-140.414 556.915 -139.476 561.548 -138.421 566.059C-135.404 578.956 -131.431 590.863 -126.077 601.871C-127.05 621.735 -126.523 638.255 -122.507 652.161C-123 653.435 -123.485 654.687 -123.961 655.917L-123.964 655.924L-123.973 655.946C-125.046 658.716 -126.077 661.376 -127.055 663.933C-131.049 674.382 -134.145 683.096 -135.563 690.444C-136.342 694.479 -136.616 698.109 -136.252 701.392C-142.397 707.399 -148.169 712.447 -153.261 716.714C-156.01 719.016 -158.563 721.092 -160.87 722.969L-160.871 722.97C-164.629 726.026 -167.736 728.553 -169.977 730.665C-171.785 732.369 -173.049 733.82 -173.635 735.077C-173.929 735.708 -174.058 736.3 -173.99 736.855C-173.922 737.413 -173.659 737.919 -173.199 738.379L-172.987 738.167C-173.408 737.746 -173.634 737.3 -173.692 736.819C-173.751 736.336 -173.642 735.802 -173.363 735.204C-172.803 734.003 -171.577 732.585 -169.771 730.883C-167.539 728.78 -164.45 726.267 -160.706 723.222L-160.704 723.221L-160.702 723.219L-160.7 723.218L-160.698 723.216L-160.697 723.215L-160.695 723.213C-158.386 721.335 -155.828 719.255 -153.069 716.944C-148.017 712.712 -142.297 707.71 -136.208 701.767C-135.884 704.317 -135.166 706.656 -133.99 708.812C-131.255 713.827 -126.056 717.824 -117.654 721.196L-117.542 720.917C-125.913 717.559 -131.039 713.597 -133.727 708.669C-134.917 706.487 -135.632 704.11 -135.937 701.504C-128.203 693.934 -119.883 684.848 -111.586 673.896C-101.814 686.326 -86.249 696.005 -62.1486 703.983L-62.0542 703.698C-86.1631 695.718 -101.678 686.046 -111.399 673.649C-107.651 668.689 -103.909 663.349 -100.229 657.595C-97.6051 653.492 -95.0123 649.179 -92.4716 644.644C-72.4557 661.345 -44.8835 675.153 -6.6499 686.768L-6.56262 686.481C-44.8014 674.864 -72.3446 661.06 -92.3226 644.378C-87.2629 635.323 -82.4108 625.387 -77.9271 614.477C-46.3733 635.561 -5.18604 653.919 48.8467 669.553L48.9301 669.264C-5.11047 653.628 -46.2823 635.271 -77.8109 614.194C-73.9458 604.761 -70.3563 594.602 -67.146 583.658C-23.0168 609.123 33.1387 632.373 104.345 652.337L104.426 652.048C33.2024 632.079 -22.948 608.826 -67.0593 583.361C-63.8595 572.415 -61.0389 560.684 -58.7008 548.11C10.1025 587.331 97.9204 624.648 206.011 654.294L206.09 654.004C97.9729 624.351 10.1493 587.024 -58.6428 547.798C-48.4276 492.61 -47.5022 421.2 -64.5631 328.583C-80.4489 242.346 -88.0796 185.838 -88.5676 149.997C-88.8118 132.075 -87.2694 119.335 -84.0891 110.634C-83.2205 108.257 -82.23 106.183 -81.1207 104.387C-80.7878 104.192 -80.4545 103.998 -80.1206 103.804L-79.9016 103.677L-79.5524 103.474C-74.3088 100.441 -68.9415 97.4996 -63.4495 94.6599C-58.4756 94.6036 -52.8033 95.7429 -46.4709 97.722C-37.2542 100.603 -26.6648 105.254 -14.8333 110.549C-13.8673 110.981 -12.8931 111.418 -11.9108 111.858C11.1653 122.199 38.75 134.562 69.8538 140.945C93.5161 146.936 123.482 145.851 157.406 140.115C180.938 142.354 207.04 141.31 234.791 137.949C260.815 140.348 288.535 140.089 317.208 137.964C345.64 140.991 375.016 141.805 404.732 141.073C435.457 145.223 466.412 147.485 497.127 148.407C529.866 154.226 562.109 158.378 593.557 161.268C690.703 184.142 777.912 194.332 854.142 196.142C858.385 201.875 862.534 207.406 866.588 212.675C876.94 226.126 886.679 237.874 895.79 246.921C904.898 255.965 913.39 262.323 921.249 264.975L921.345 264.691C913.553 262.061 905.1 255.743 896.001 246.708C886.905 237.676 877.175 225.94 866.826 212.492C862.817 207.282 858.715 201.816 854.522 196.151C872.378 196.569 889.632 196.527 906.268 196.081C908.406 198.401 910.518 200.667 912.601 202.871C922.661 213.512 932.09 222.725 940.871 229.685C949.65 236.645 957.793 241.363 965.282 243.002L965.347 242.709C957.924 241.085 949.823 236.399 941.057 229.45C932.293 222.503 922.876 213.303 912.819 202.665C910.794 200.522 908.743 198.322 906.666 196.07C924.786 195.577 942.174 194.604 958.812 193.223C968.509 200.988 977.563 207.609 985.96 212.452C994.41 217.325 1002.2 220.404 1009.32 221.029L1009.35 220.73C1002.29 220.111 994.543 217.056 986.11 212.192C977.804 207.401 968.846 200.863 959.247 193.186C977.817 191.636 995.452 189.577 1012.13 187.11C1027.91 194.926 1041.69 199.726 1053.36 199.053L1053.34 198.753C1041.85 199.416 1028.26 194.729 1012.65 187.033C1032.14 184.137 1050.31 180.683 1067.13 176.832C1078.55 178.662 1088.66 178.997 1097.4 177.073L1097.34 176.78C1088.83 178.652 1079.01 178.375 1067.92 176.652C1090.68 171.41 1110.96 165.441 1128.65 159.145C1133.23 158.018 1137.5 156.677 1141.44 155.089L1141.33 154.811C1138.34 156.016 1135.16 157.079 1131.79 158.013C1153.99 149.926 1171.95 141.344 1185.48 133.102L1185.33 132.846C1171.18 141.461 1152.18 150.45 1128.56 158.858C1119.26 161.145 1108.63 162.552 1096.72 163.359C1078.95 164.561 1058.32 164.425 1034.95 163.878C1028.71 163.732 1022.27 163.556 1015.64 163.369C1013.25 162.652 1010.83 161.922 1008.37 161.182C1001.65 159.156 994.68 157.056 987.465 154.945C969.4 149.662 949.802 144.317 928.723 139.934C905.787 127.803 880.694 116.32 853.538 108.369C832.474 94.4003 809.936 82.2899 785.982 74.4479C778.348 68.7024 770.548 63.3576 762.584 58.5386C749.959 50.8997 736.92 44.5811 723.476 40.0819C720.355 37.5241 717.209 35.0579 714.039 32.6926C683.97 10.2601 651.667 -3.10913 617.262 0.574341C582.891 4.25421 539.085 16.7766 490.822 33.0032C460.573 43.1731 428.567 54.8005 396.028 66.6212C380.244 72.3553 364.335 78.1348 348.44 83.8155C173.439 27.0369 39.8761 43.411 -56.592 90.8649C-57.3585 91.2205 -58.1223 91.5786 -58.8833 91.9393C-59.5879 92.248 -60.2896 92.5598 -60.9884 92.8744C-61.5844 93.1143 -62.1776 93.3573 -62.7682 93.6032C-63.0199 93.691 -63.271 93.7796 -63.5215 93.869C-63.7659 93.9562 -64.0096 94.0443 -64.2527 94.1332C-64.6442 94.2343 -65.0331 94.3391 -65.4197 94.4475C-66.9847 94.5719 -68.4775 94.8278 -69.8965 95.228C-72.8356 96.057 -75.4512 97.5031 -77.7306 99.6719ZM-77.5483 99.9127C-77.7279 100.084 -77.9053 100.26 -78.0807 100.441C-76.4801 99.5468 -74.8457 98.6983 -73.1776 97.8946C-71.3528 97.0154 -69.4879 96.1898 -67.5829 95.4166C-68.8943 95.8447 -70.1759 96.3184 -71.4276 96.8393C-73.5541 97.7243 -75.5947 98.746 -77.5483 99.9127ZM-67.0549 94.9328C-68.5907 95.4141 -70.0868 95.9564 -71.5428 96.5623C-73.2211 97.2607 -74.8458 98.0436 -76.4164 98.9147C-74.4417 97.3106 -72.2384 96.2002 -69.8152 95.5168C-68.9253 95.2658 -68.005 95.0721 -67.0549 94.9328ZM-61.9637 93.8957C-62.2648 94.0497 -62.5654 94.2041 -62.8658 94.3588C-57.9863 94.3935 -52.4763 95.5308 -46.3816 97.4357C-37.1448 100.323 -26.5389 104.981 -14.7107 110.275L-14.1602 110.522L-12.054 111.465L-11.7944 111.581L-11.7933 111.582L-11.7911 111.583L-11.79 111.584L-11.7878 111.585L-11.7867 111.585L-11.7845 111.586C11.2952 121.929 38.8502 134.276 69.9175 140.652L69.9241 140.654C93.2766 146.567 122.806 145.575 156.26 140.003C144.554 138.831 133.493 136.837 123.191 133.901C102.192 128.171 82.4222 122.192 63.9639 116.609L60.6042 115.593C41.1901 109.724 23.2595 104.345 6.90698 100.229C-20.7382 93.2708 -43.8438 89.9279 -61.9637 93.8957ZM158.551 139.92C181.37 141.984 206.59 140.993 233.379 137.816C220.533 136.581 208.105 134.692 196.185 132.052C193.239 132.764 190.312 133.451 187.408 134.113C177.525 136.364 167.889 138.316 158.551 139.92ZM236.206 137.775C261.31 139.994 287.977 139.761 315.546 137.784C301.915 136.29 288.504 134.282 275.381 131.688C265.566 133.491 255.889 135.082 246.386 136.425C242.97 136.908 239.576 137.358 236.206 137.775ZM274.582 131.529C265.026 133.275 255.603 134.819 246.344 136.128C242.461 136.677 238.608 137.184 234.786 137.647C221.677 136.437 209 134.552 196.85 131.891C209.348 128.859 222.209 125.388 235.339 121.575C248.071 125.56 261.176 128.852 274.582 131.529ZM276.183 131.54C289.585 134.164 303.285 136.179 317.213 137.663C330.969 136.643 344.946 135.193 359.061 133.402C344.733 130.493 330.508 127.104 316.434 123.177C302.826 126.285 289.381 129.102 276.183 131.54ZM315.828 123.007C302.152 126.124 288.641 128.946 275.383 131.382C261.879 128.711 248.681 125.418 235.86 121.423C248.414 117.771 261.212 113.807 274.173 109.616C277.17 110.646 280.183 111.697 283.211 112.769L283.211 112.769C293.975 116.528 304.855 119.932 315.828 123.007ZM317.048 123.036C331.225 126.978 345.555 130.374 359.99 133.283C374.094 131.479 388.335 129.335 402.631 126.939C387.652 122.747 372.63 118.142 357.593 113.089C343.976 116.627 330.435 119.971 317.048 123.036ZM357.073 112.914C343.425 116.456 329.854 119.803 316.442 122.867C305.294 119.754 294.242 116.303 283.311 112.486C280.41 111.459 277.522 110.451 274.648 109.462C286.91 105.493 299.317 101.321 311.799 97.0187C319.952 99.7598 328.203 102.661 336.554 105.725L336.606 105.585L336.554 105.726C343.395 108.217 350.236 110.612 357.073 112.914ZM358.124 112.95C373.217 118.014 388.294 122.625 403.327 126.822C417.666 124.411 432.059 121.748 446.424 118.92C430.704 113.592 414.778 107.942 398.65 101.956C397.302 102.335 395.955 102.712 394.608 103.088C382.427 106.489 370.246 109.796 358.124 112.95ZM398.172 101.779C396.957 102.12 395.742 102.46 394.527 102.799C382.198 106.241 369.87 109.587 357.603 112.776C350.624 110.43 343.641 107.987 336.657 105.444C328.43 102.424 320.299 99.564 312.264 96.8585C320.711 93.9453 329.191 90.9725 337.685 87.9622C341.27 86.6917 344.857 85.4146 348.445 84.1324C362.012 88.5359 375.828 93.3793 389.896 98.6821C392.66 99.7242 395.419 100.756 398.172 101.779ZM399.141 101.818C415.304 107.813 431.263 113.47 447.016 118.804C448.502 118.511 449.987 118.216 451.473 117.919C485.126 111.204 518.566 103.643 550.736 96.3689L550.738 96.3685C565.765 92.9709 580.514 89.636 594.879 86.4792C639.993 76.5647 681.31 68.4066 715.476 65.5872C727.829 64.5678 739.887 64.9592 751.644 66.5184C742.446 57.0991 733.007 48.2831 723.329 40.3489C705.083 34.2496 686.098 31.5109 666.396 33.3792C632.157 36.626 589.618 46.9594 542.93 60.0297C520.37 66.3455 496.843 73.2996 472.818 80.4011L472.817 80.4013L470.315 81.1409C446.902 88.0611 423.033 95.1047 399.141 101.818ZM722.678 39.8171C704.628 33.88 685.85 31.2331 666.368 33.0805C632.099 36.3301 589.538 46.6702 542.849 59.7408C520.286 66.0574 496.757 73.0124 472.731 80.114L472.727 80.1152L470.23 80.8532C446.688 87.8117 422.685 94.8944 398.663 101.641C395.782 100.572 392.895 99.492 390.002 98.4013C376.057 93.145 362.36 88.34 348.907 83.9671C364.628 78.3471 380.36 72.632 395.97 66.9613L395.979 66.9582L396.03 66.9395L396.047 66.9333L396.108 66.9115L396.133 66.9022L396.135 66.9014L396.136 66.9012C428.671 55.0817 460.672 43.4566 490.918 33.2875C539.18 17.0613 582.958 4.54871 617.294 0.872681C651.596 -2.7998 683.824 10.5256 713.859 32.933C716.821 35.1421 719.76 37.4393 722.678 39.8171ZM724.13 40.6189C733.697 48.5075 743.031 57.2522 752.126 66.583C763.396 68.1093 774.389 70.707 785.1 74.1615C777.698 68.6213 770.14 63.4613 762.428 58.7952C750.053 51.3075 737.284 45.0924 724.13 40.6189ZM785.841 74.7175C775.003 71.1724 763.877 68.5028 752.466 66.9323C761.874 76.6046 771.026 86.9014 779.919 97.5233C792.304 97.469 804.364 98.3953 816.092 100.111C806.32 91.1129 796.235 82.543 785.841 74.7175ZM816.484 100.472C804.711 98.7289 792.604 97.781 780.169 97.8224C786.047 104.851 791.811 112.021 797.46 119.245C800.523 123.163 803.553 127.097 806.549 131.034C808.952 130.881 811.331 130.736 813.688 130.6C824.841 129.956 835.734 129.805 846.361 130.064C845.826 129.502 845.29 128.94 844.753 128.379C835.646 118.864 826.221 109.457 816.484 100.472ZM846.785 130.074C846.181 129.44 845.576 128.805 844.97 128.172C835.961 118.759 826.64 109.451 817.011 100.55C829.525 102.43 841.66 105.205 853.41 108.644C865.008 116.336 876.161 124.594 886.861 133.015C873.958 131.465 860.596 130.424 846.785 130.074ZM846.653 130.371C835.939 130.103 824.955 130.25 813.705 130.9C811.414 131.032 809.102 131.172 806.767 131.32C815.239 142.459 823.44 153.614 831.362 164.471C842.159 164.031 852.645 163.565 862.796 163.107C867.296 162.904 871.752 162.726 876.164 162.572C866.74 152.03 856.901 141.146 846.653 130.371ZM876.554 162.558C867.143 152.029 857.314 141.152 847.078 130.382C860.946 130.744 874.361 131.802 887.314 133.372C888.984 134.688 890.642 136.008 892.289 137.331C902.457 145.492 912.2 153.741 921.51 161.716C907.086 161.77 892.097 162.019 876.554 162.558ZM876.424 162.863C871.932 163.019 867.394 163.199 862.809 163.406C852.721 163.862 842.302 164.325 831.575 164.763C832.368 165.85 833.158 166.934 833.946 168.014C835.254 169.81 836.555 171.596 837.847 173.371L837.854 173.381C843.482 181.11 848.963 188.637 854.296 195.846C872.137 196.267 889.375 196.229 905.998 195.788C898.935 188.117 891.577 179.86 883.93 171.278C882.804 170.014 881.672 168.743 880.533 167.467C879.173 165.94 877.803 164.405 876.424 162.863ZM906.396 195.777C899.281 188.054 891.866 179.732 884.154 171.077L884.152 171.076C883.302 170.122 882.449 169.165 881.593 168.204L880.757 167.267C879.451 165.802 878.137 164.329 876.814 162.849C892.39 162.312 907.408 162.066 921.859 162.014C923.713 163.603 925.551 165.181 927.371 166.745L929.143 168.268C939.489 177.161 949.271 185.567 958.472 192.95C941.855 194.323 924.491 195.289 906.396 195.777ZM816.619 100.189C806.961 91.2794 796.994 82.7841 786.724 75.0087C810.03 82.7455 831.994 94.515 852.566 108.086C840.957 104.729 828.973 102.022 816.619 100.189ZM157.395 139.812C145.295 138.659 133.879 136.635 123.271 133.612L123.27 133.611C102.275 127.883 82.5081 121.904 64.0488 116.321L60.6912 115.306C41.2781 109.437 23.3407 104.057 6.98022 99.9384C-20.1121 93.119 -42.9088 89.7521 -60.942 93.3749C-60.8051 93.3054 -60.6681 93.2358 -60.531 93.1664C-36.5083 85.3569 -6.6969 84.9304 28.6404 89.9049C70.3939 95.7827 119.841 109.197 176.53 126.857C182.699 128.773 189.034 130.45 195.52 131.904C192.776 132.564 190.049 133.204 187.341 133.82C177.071 136.159 167.071 138.175 157.395 139.812ZM-135.979 701.124C-128.286 693.582 -120.02 684.539 -111.777 673.652C-114.104 670.66 -116.099 667.509 -117.798 664.185C-119.659 660.548 -121.165 656.704 -122.369 652.635C-122.813 653.784 -123.252 654.916 -123.683 656.029L-123.684 656.031C-124.761 658.81 -125.795 661.478 -126.774 664.04C-130.769 674.491 -133.856 683.182 -135.269 690.501C-136.026 694.422 -136.3 697.942 -135.979 701.124ZM-122.191 652.175C-120.975 656.366 -119.44 660.317 -117.531 664.048C-115.853 667.331 -113.885 670.445 -111.589 673.404C-107.863 668.468 -104.142 663.156 -100.482 657.433C-97.8516 653.321 -95.2527 648.996 -92.7058 644.448C-95.2657 642.303 -97.7017 640.111 -100.02 637.869C-104.417 633.616 -108.391 629.188 -111.986 624.574C-112.276 625.412 -112.565 626.243 -112.854 627.067C-116.089 636.282 -119.27 644.619 -122.191 652.175ZM-111.869 624.235C-108.25 628.895 -104.247 633.364 -99.8114 637.653C-97.5116 639.877 -95.0955 642.053 -92.5568 644.182C-87.5044 635.136 -82.6589 625.208 -78.1815 614.307C-87.1754 608.283 -95.3846 602.037 -102.884 595.569C-105.796 605.951 -108.847 615.48 -111.869 624.235ZM-103.135 595.353C-106.036 605.708 -109.076 615.214 -112.088 623.952C-117.451 617.004 -121.962 609.635 -125.773 601.809C-125.688 600.075 -125.591 598.316 -125.485 596.53C-125.076 589.701 -124.52 582.489 -123.889 574.867C-117.655 581.926 -110.763 588.755 -103.135 595.353ZM-103.046 595.033C-110.699 588.405 -117.609 581.545 -123.855 574.452C-123.539 570.643 -123.205 566.732 -122.862 562.716L-122.861 562.711L-122.853 562.61C-122.411 557.439 -121.954 552.093 -121.503 546.564C-113.558 553.033 -105.018 559.405 -95.8428 565.666C-98.0608 576.148 -100.499 585.919 -103.046 595.033ZM-102.795 595.25C-100.243 586.126 -97.7985 576.344 -95.5748 565.849C-86.782 571.839 -77.4066 577.728 -67.4135 583.503C-70.6196 594.443 -74.2048 604.596 -78.0653 614.024C-87.0723 607.988 -95.2902 601.731 -102.795 595.25ZM-112.205 624.291C-112.516 625.191 -112.827 626.084 -113.138 626.968C-116.318 636.03 -119.447 644.241 -122.328 651.698C-126.194 638.049 -126.732 621.865 -125.803 602.43C-122.006 610.149 -117.522 617.426 -112.205 624.291ZM-126.16 171.279C-119.876 145.651 -109.568 126.621 -95.3749 113.145C-96.6127 113.943 -97.8429 114.746 -99.0656 115.554C-146.661 154.659 -166.702 225.32 -158.466 329.77C-152.844 376.905 -150.881 418.361 -149.151 454.897L-149.149 454.939L-149.144 455.036C-148.979 458.526 -148.816 461.971 -148.652 465.371C-148.269 473.308 -147.881 481.003 -147.45 488.466C-138.612 495.461 -129.202 502.487 -119.213 509.511C-116.586 461.783 -116.541 402.804 -127.462 329.415L-127.463 329.411C-135.934 260.382 -135.352 208.767 -126.16 171.279ZM-79.0641 101.529C-78.9598 101.405 -78.8547 101.283 -78.7488 101.163C-76.8944 100.102 -74.9938 99.1027 -73.0474 98.1649C-71.5336 97.4355 -69.9919 96.7431 -68.4226 96.087C-70.5898 97.0901 -72.7192 98.1362 -74.8108 99.2254C-76.2465 99.9731 -77.6642 100.741 -79.0641 101.529ZM402.854 140.817C374.358 141.457 346.189 140.66 318.882 137.838C332.399 136.804 346.124 135.359 359.979 133.587C374.187 136.45 388.494 138.841 402.854 140.817ZM404.748 140.773C390.065 138.789 375.435 136.374 360.909 133.468C374.938 131.66 389.098 129.518 403.311 127.129C418.542 131.38 433.728 135.206 448.84 138.644C434.108 139.676 419.386 140.412 404.748 140.773ZM449.874 138.571C434.65 135.123 419.352 131.283 404.008 127.012C418.313 124.6 432.669 121.938 446.995 119.113C463.177 124.592 479.141 129.729 494.883 134.541C479.921 136.133 464.893 137.505 449.874 138.571ZM495.644 134.46C479.848 129.639 463.827 124.49 447.587 118.997C448.902 118.737 450.217 118.476 451.531 118.214C485.189 111.497 518.636 103.935 550.809 96.6602C565.834 93.2628 580.582 89.9283 594.943 86.7722C640.057 76.8576 681.357 68.7038 715.5 65.8862C727.964 64.8577 740.127 65.2679 751.984 66.8665C761.422 76.5541 770.606 86.8743 779.529 97.5254C774.598 97.5552 769.616 97.7406 764.582 98.0937C730.52 100.483 690.446 106.459 646.907 113.218C642.558 113.893 638.175 114.576 633.759 115.264L633.644 115.282C593.885 121.476 551.528 128.075 508.417 133.04C504.166 133.53 499.908 134.004 495.644 134.46ZM892.477 137.097C902.745 145.339 912.579 153.668 921.969 161.714C937.854 161.658 953.051 161.838 967.544 162.125C958.72 156.969 949.48 151.61 939.831 146.283C936.153 144.252 932.416 142.227 928.62 140.219C915.602 137.513 902.021 135.173 887.887 133.442C889.427 134.657 890.957 135.876 892.477 137.097ZM958.81 192.836L958.906 192.914C977.428 191.374 995.019 189.328 1011.66 186.876C1009.36 185.735 1007.03 184.53 1004.65 183.271C995.172 178.25 985.021 172.345 974.214 166.025C973.481 165.596 972.745 165.166 972.005 164.733L971.998 164.729C970.7 163.97 969.392 163.205 968.076 162.435C953.528 162.145 938.27 161.96 922.318 162.013C924.083 163.525 925.832 165.028 927.566 166.517L929.337 168.04C939.741 176.981 949.569 185.428 958.81 192.836ZM854.382 108.93C865.84 116.569 876.861 124.751 887.434 133.084C901.385 134.778 914.8 137.065 927.665 139.715C905.251 127.907 880.795 116.755 854.382 108.93ZM176.62 126.57C182.969 128.543 189.495 130.262 196.182 131.744C208.726 128.712 221.637 125.236 234.822 121.413C233.165 120.891 231.515 120.358 229.871 119.813L229.87 119.813C161.046 96.6516 101.169 83.102 50.3667 79.5782C7.64111 76.6147 -28.6593 80.743 -58.4648 92.2037C-34.7599 85.0305 -5.62292 84.7786 28.6821 89.6078C70.4613 95.4892 119.927 108.91 176.62 126.57ZM-123.16 562.678C-122.71 557.414 -122.245 551.968 -121.785 546.334C-129.997 539.634 -137.571 532.83 -144.551 525.939C-143.594 535.039 -142.432 543.733 -140.968 552.044C-135.969 559.643 -130.383 567.008 -124.13 574.139C-123.821 570.425 -123.496 566.614 -123.162 562.703L-123.16 562.684L-123.16 562.678ZM-144.601 525.469C-137.6 532.396 -130.001 539.235 -121.755 545.971C-120.838 534.708 -119.942 522.693 -119.232 509.864C-129.203 502.856 -138.6 495.846 -147.427 488.866C-146.68 501.747 -145.803 513.933 -144.601 525.469ZM-125.784 596.512C-125.37 589.594 -124.805 582.284 -124.164 574.554C-130.344 567.527 -135.876 560.272 -140.836 552.788C-140.029 557.302 -139.132 561.701 -138.128 565.99C-135.161 578.677 -131.268 590.399 -126.046 601.247C-125.967 599.689 -125.88 598.111 -125.784 596.512ZM-144.937 525.136C-146.129 513.621 -147 501.463 -147.742 488.617C-149.587 487.156 -151.408 485.696 -153.203 484.238C-160.938 477.956 -168.211 471.704 -175.028 465.505C-172.265 478.642 -168.879 491.301 -164.634 503.483C-164.383 503.791 -164.13 504.099 -163.876 504.407C-163.73 504.583 -163.584 504.76 -163.438 504.936C-157.797 511.74 -151.643 518.478 -144.937 525.136ZM-101.343 117.072C-147.547 156.606 -166.883 226.845 -158.765 329.796L-158.765 329.802C-153.144 376.928 -151.181 418.377 -149.45 454.915L-149.447 454.979L-149.44 455.127L-149.424 455.466C-149.266 458.814 -149.109 462.12 -148.951 465.385C-148.573 473.227 -148.19 480.835 -147.765 488.216C-149.538 486.811 -151.287 485.407 -153.014 484.005C-160.861 477.632 -168.232 471.291 -175.133 465.004C-182.729 428.644 -185.587 388.628 -188.706 344.948C-189.055 340.067 -189.407 335.14 -189.769 330.168C-191.618 239.436 -163.22 164.503 -103.536 118.555C-102.808 118.059 -102.077 117.565 -101.343 117.072ZM-79.5811 102.167C-79.644 102.248 -79.7068 102.329 -79.7692 102.411C-78.6688 101.785 -77.5602 101.166 -76.4431 100.555C-74.1915 99.3248 -71.9062 98.1274 -69.587 96.9637C-71.3064 97.7788 -73.0015 98.6213 -74.6722 99.4915C-76.3324 100.356 -77.9688 101.248 -79.5811 102.167ZM406.629 141.024C436.052 144.924 465.677 147.104 495.095 148.044C480.107 145.351 465.016 142.306 449.852 138.873C435.413 139.897 420.983 140.639 406.629 141.024ZM450.886 138.799C466.398 142.295 481.832 145.384 497.157 148.108C512.657 148.573 528.095 148.698 543.414 148.551C527.718 144.289 511.784 139.699 495.615 134.765C480.748 136.354 465.814 137.726 450.886 138.799ZM496.376 134.683C512.663 139.646 528.712 144.259 544.519 148.54C551.494 148.468 558.444 148.34 565.363 148.162C623.542 146.671 679.508 141.709 729.89 137.242C757.134 134.826 782.745 132.556 806.189 131.057C803.234 127.174 800.245 123.294 797.223 119.43C791.525 112.142 785.709 104.911 779.779 97.824C774.773 97.8489 769.714 98.0344 764.603 98.3929C730.556 100.781 690.494 106.755 646.953 113.514C642.567 114.195 638.145 114.884 633.691 115.578L633.683 115.579L633.674 115.581C593.92 121.774 551.562 128.372 508.452 133.339C504.433 133.801 500.407 134.25 496.376 134.683ZM1012.18 186.8C1009.76 185.603 1007.3 184.336 1004.79 183.006C995.319 177.988 985.173 172.086 974.365 165.766L972.154 164.473L972.15 164.47C971.005 163.8 969.852 163.126 968.692 162.448C982.692 162.731 996.033 163.111 1008.7 163.472L1008.72 163.473L1008.73 163.473L1008.77 163.474C1011.07 163.54 1013.34 163.604 1015.59 163.668C1028.23 167.458 1039.93 170.882 1050.69 173.469C1056.15 174.783 1061.37 175.882 1066.34 176.704C1049.61 180.515 1031.54 183.933 1012.18 186.8ZM968.16 162.137C959.195 156.898 949.797 151.443 939.976 146.02C936.593 144.153 933.16 142.289 929.677 140.44C950.36 144.781 969.61 150.036 987.381 155.233C994.589 157.342 1001.55 159.441 1008.27 161.466L1008.28 161.468C1010.37 162.099 1012.44 162.722 1014.49 163.337L1011.38 163.248L1008.79 163.175L1008.74 163.173H1008.74H1008.74H1008.74C995.902 162.807 982.37 162.421 968.16 162.137ZM235.342 121.262C233.543 120.698 231.75 120.12 229.966 119.528C161.127 96.3625 101.224 82.8051 50.3875 79.2789C9.38867 76.4352 -25.7194 80.1155 -54.8632 90.5471C21.4517 58.7372 130.591 60.3564 273.7 109.453C260.722 113.647 247.909 117.611 235.342 121.262ZM-141.384 551.41C-142.812 543.188 -143.949 534.594 -144.888 525.607C-151.702 518.859 -157.948 512.027 -163.669 505.128C-163.895 504.855 -164.12 504.582 -164.345 504.309C-160.555 515.066 -156.089 525.449 -150.783 535.458C-147.906 540.885 -144.781 546.202 -141.384 551.41ZM-190.069 330.178C-191.881 241.28 -164.676 167.489 -107.436 121.249L-107.454 121.261C-179.471 174.388 -216.372 254.052 -221.069 330.57C-221.447 365.11 -217.377 400.92 -203.871 436.24C-195.509 445.525 -186.062 455.027 -175.511 464.659C-183.049 428.384 -185.898 388.491 -189.004 344.992V344.991C-189.353 340.101 -189.705 335.166 -190.068 330.186L-190.069 330.178ZM-80.3203 103.168C-80.2826 103.114 -80.2448 103.061 -80.2068 103.007C-78.9158 102.266 -77.6133 101.537 -76.2992 100.819C-74.5613 99.8687 -72.8032 98.9387 -71.0249 98.0287C-73.4031 99.2889 -75.7522 100.575 -78.0723 101.885C-78.8247 102.31 -79.574 102.738 -80.3203 103.168ZM591.457 160.772C561.335 157.953 530.493 153.969 499.189 148.467C514.367 148.894 529.482 148.996 544.481 148.841C560.386 153.148 576.046 157.12 591.457 160.772ZM593.605 160.971C577.858 157.263 561.85 153.222 545.585 148.829C552.205 148.755 558.802 148.631 565.371 148.462C623.554 146.971 679.546 142.006 729.938 137.539L729.939 137.539C757.255 135.117 782.926 132.841 806.408 131.343C814.879 142.477 823.078 153.628 831.002 164.486C762.279 167.281 681.012 169.003 593.605 160.971ZM1125.97 159.773C1108.71 165.796 1089.07 171.5 1067.12 176.527C1061.94 175.695 1056.49 174.555 1050.76 173.177C1040.31 170.664 1028.97 167.362 1016.75 163.7C1022.98 163.876 1029.05 164.04 1034.94 164.178C1058.31 164.725 1078.95 164.862 1096.74 163.658C1107.54 162.927 1117.29 161.702 1125.97 159.773ZM-50.7434 88.5524C25.5159 58.4693 133.473 60.9661 274.176 109.3C286.438 105.333 298.847 101.164 311.333 96.8621C155.131 44.4335 35.3306 50.7155 -50.7434 88.5524ZM-203.571 437.02C-194.963 459.296 -182.586 481.372 -165.187 502.804C-169.354 490.723 -172.684 478.175 -175.406 465.161C-185.868 455.627 -195.25 446.218 -203.571 437.02ZM-115.697 127.195C-182.488 180.259 -216.847 256.867 -221.369 330.557L-221.369 330.565C-221.745 364.897 -217.729 400.493 -204.428 435.62C-216.289 422.387 -225.942 409.599 -233.443 397.51C-249.813 371.124 -255.917 348.083 -252.374 330.988L-252.374 330.985C-241.215 270.272 -197.192 187.514 -115.697 127.195ZM-80.707 103.738L-80.7704 103.835C-80.415 103.628 -80.0591 103.421 -79.7026 103.215C-77.5084 101.945 -75.2926 100.692 -73.0551 99.4555C-74.6923 100.34 -76.3154 101.237 -77.9247 102.147C-78.8568 102.673 -79.7843 103.204 -80.707 103.738ZM595.701 161.463C691.897 183.968 778.307 194.025 853.916 195.837C848.624 188.681 843.186 181.214 837.606 173.55L837.604 173.547L835.848 171.135C835.135 170.156 834.42 169.175 833.703 168.191C832.877 167.057 832.047 165.919 831.215 164.778C763.003 167.555 682.407 169.283 595.701 161.463ZM311.798 96.7018C158.135 45.0535 39.6245 50.1703 -46.2511 86.2937C49.2092 42.6992 179.314 29.3394 347.977 83.9808C345.855 84.7392 343.733 85.4958 341.611 86.2502L340.291 86.7193C339.389 87.0398 338.487 87.3598 337.585 87.6794C328.968 90.7333 320.365 93.7484 311.798 96.7018Z" fill="black"/>
</g>
<g filter="url(#filter1_f_594_8588)">
<ellipse cx="-55.3208" cy="92.2818" rx="26.2153" ry="26.2153" transform="rotate(-180 -55.3208 92.2818)" fill="white"/>
</g>
<path d="M920.514 264.833C857.91 243.704 753.91 -13.9882 616.495 0.723697C479.08 15.4356 190.659 171.579 69.104 140.799C-60.5377 114.193 -129.037 -16.3358 -65.4938 328.61C-1.95111 673.556 -187.962 724.187 -173.876 738.273" stroke="url(#paint0_linear_594_8588)" stroke-width="0.5"/>
<path d="M1140.61 154.95C1092.79 174.199 997.442 157.139 862.021 163.257C726.601 169.374 531.504 176.84 335.824 105.585C-36.6239 -31.0998 -211.397 157.759 -222 330.567C-223.257 445.227 -175.504 573.938 103.604 652.193" stroke="url(#paint1_linear_594_8588)" stroke-width="0.5"/>
<g class="shape-paths">
<path d="M1008.55 220.88C951.86 215.902 851.322 54.4628 714.705 65.7369C578.088 77.011 326.997 173.684 175.792 126.713C-50.9725 56.0757 -161.981 53.302 -128.097 329.393C-90.4737 582.225 -182.979 664.088 -62.8846 703.841" stroke="black" stroke-width="0.5"/>
<path d="M-252.521 330.958L-252.277 331.008L-252.276 331.003L-252.521 330.958ZM1185.28 132.76C1095.63 187.357 810.997 256.989 390.037 98.3077L389.86 98.7756C810.92 257.494 1095.72 187.886 1185.54 133.187L1185.28 132.76ZM390.037 98.3077C179.475 18.9361 25.1354 42.44 -79.7529 103.128C-184.629 163.809 -240.038 261.651 -252.767 330.912L-252.276 331.003C-239.572 261.884 -184.251 164.168 -79.5026 103.561C25.2335 42.9609 179.413 19.4469 389.86 98.7756L390.037 98.3077ZM-252.766 330.907C-256.339 348.149 -250.371 371.298 -234.273 397.719C-218.17 424.148 -191.91 453.884 -154.833 484.315C-80.6769 545.177 36.771 608.839 202.854 654.39L202.986 653.908C36.9569 608.371 -80.4241 544.738 -154.515 483.928C-191.561 453.523 -217.779 423.828 -233.846 397.459C-249.918 371.082 -255.812 348.068 -252.277 331.008L-252.766 330.907Z" fill="black"/>
<path d="M69.8872 140.799L69.9487 140.557L69.9375 140.554L69.8872 140.799ZM921.377 264.596C913.607 261.974 905.168 255.669 896.072 246.637C886.98 237.609 877.253 225.878 866.905 212.431C856.557 198.984 845.594 183.829 834.027 167.956C822.46 152.083 810.292 135.494 797.539 119.184C772.033 86.5665 744.178 55.0528 714.099 32.6125C684.018 10.1717 651.691 -3.21204 617.251 0.475098L617.305 0.97229C651.572 -2.69647 683.776 10.6144 713.8 33.0134C743.825 55.413 771.647 86.8845 797.145 119.492C809.892 135.795 822.056 152.378 833.622 168.25C845.187 184.121 856.156 199.282 866.509 212.736C876.861 226.188 886.604 237.941 895.719 246.992C904.831 256.039 913.336 262.41 921.217 265.07L921.377 264.596ZM617.251 0.475098C582.868 4.15625 539.054 16.6818 490.79 32.9086C442.526 49.1356 389.782 69.0745 337.552 87.5854C285.315 106.099 233.584 123.187 187.319 133.723C141.046 144.261 100.277 148.237 69.9486 140.557L69.8259 141.042C100.275 148.752 141.142 144.752 187.43 134.211C233.725 123.667 285.479 106.571 337.719 88.0566C389.965 69.5402 442.689 49.6083 490.95 33.3825C539.211 17.1564 582.98 4.64709 617.305 0.97229L617.251 0.475098ZM69.9375 140.554C37.5585 133.909 8.99451 120.775 -14.6699 110.184C-26.497 104.891 -37.1083 100.229 -46.3517 97.3404C-55.5897 94.4531 -63.5043 93.3214 -69.9237 95.132C-76.3666 96.9492 -81.2549 101.715 -84.4647 110.497C-87.6703 119.267 -89.2119 132.065 -88.9677 150.003C-88.479 185.881 -80.842 242.42 -64.9565 328.656L-64.4647 328.565C-80.3505 242.328 -87.9797 185.828 -88.4677 149.996C-88.7117 132.078 -87.1692 119.353 -83.9951 110.669C-80.8254 101.996 -76.0386 97.3762 -69.788 95.6132C-63.5138 93.8436 -55.7164 94.9373 -46.5009 97.8176C-37.2906 100.696 -26.7067 105.345 -14.8741 110.64C8.78107 121.227 37.3951 134.386 69.837 141.044L69.9375 140.554ZM-64.9565 328.656C-33.1939 501.081 -63.8084 599.908 -100.566 657.38C-118.947 686.119 -138.871 704.529 -153.326 716.637C-160.543 722.683 -166.425 727.18 -170.046 730.592C-171.854 732.297 -173.131 733.759 -173.726 735.035C-174.025 735.677 -174.16 736.288 -174.089 736.868C-174.019 737.451 -173.743 737.977 -173.27 738.45L-172.916 738.096C-173.324 737.689 -173.538 737.263 -173.593 736.807C-173.649 736.348 -173.546 735.833 -173.273 735.246C-172.721 734.064 -171.508 732.658 -169.703 730.956C-166.095 727.556 -160.252 723.091 -153.005 717.02C-138.529 704.894 -118.563 686.447 -100.145 657.649C-63.3043 600.048 -32.6846 501.086 -64.4647 328.565L-64.9565 328.656Z" fill="black"/>
<path d="M1141.39 154.95C1093.57 174.199 998.223 157.139 862.802 163.257C727.382 169.374 532.286 176.84 336.606 105.585C-35.8426 -31.0999 -210.616 157.759 -221.219 330.567C-222.475 445.227 -174.723 573.938 104.385 652.193" stroke="black" stroke-width="0.5"/>
<path d="M1097.37 176.927C1046.59 188.1 949.516 122.914 813.696 130.75C677.877 138.586 464.116 175.788 283.261 112.627C-40.6262 -2.0416 -194.144 122.94 -189.919 330.175C-178.215 490.893 -177.215 603.988 48.8883 669.409" stroke="black" stroke-width="0.5"/>
<path d="M1053.35 198.903C999.617 202.001 900.811 88.6884 764.592 98.2436C628.374 107.799 395.948 174.736 229.918 119.671C-45.4076 27.0173 -177.671 88.1211 -158.616 329.784C-133.953 536.559 -179.705 634.038 -6.60641 686.625" stroke="black" stroke-width="0.5"/>
<path d="M965.316 242.857C905.669 229.803 803.4 20.2375 666.384 33.2305C529.368 46.2234 259.612 172.632 123.232 133.757C-54.971 85.1344 -144.725 18.4833 -96.0112 329.002C-45.4283 627.891 -184.687 694.138 -117.596 721.057" stroke="black" stroke-width="0.5"/>
</g>
<circle cx="786.849" cy="74.4324" r="4.65859" transform="rotate(-138.062 786.849 74.4324)" fill="black" stroke="black"/>
<circle cx="358.013" cy="112.777" r="4.65859" transform="rotate(-138.062 358.013 112.777)" fill="black" stroke="black"/>
<circle cx="722.76" cy="40.0813" r="2.93906" transform="rotate(-138.062 722.76 40.0813)" fill="black" stroke="black"/>
<circle cx="779.885" cy="97.2067" r="2.93906" transform="rotate(-138.062 779.885 97.2067)" fill="black" stroke="black"/>
<circle cx="275.143" cy="131.639" r="2.93906" transform="rotate(-138.062 275.143 131.639)" fill="black" stroke="black"/>
<circle cx="448.869" cy="138.682" r="2.93906" transform="rotate(-138.062 448.869 138.682)" fill="black" stroke="black"/>
<circle cx="830.75" cy="164.506" r="2.93906" transform="rotate(-138.062 830.75 164.506)" fill="black" stroke="black"/>
<circle cx="751.013" cy="66.768" r="1.21953" transform="rotate(-138.062 751.013 66.768)" fill="black" stroke="black"/>
<circle cx="805.79" cy="130.937" r="1.21953" transform="rotate(-138.062 805.79 130.937)" fill="black" stroke="black"/>
<circle cx="815.964" cy="99.6352" r="1.21953" transform="rotate(-138.062 815.964 99.6352)" fill="black" stroke="black"/>
<circle cx="315.917" cy="137.979" r="1.21953" transform="rotate(-138.062 315.917 137.979)" fill="black" stroke="black"/>
<circle cx="311.22" cy="96.5053" r="1.21953" transform="rotate(-138.062 311.22 96.5053)" fill="black" stroke="black"/>
<circle cx="348.001" cy="83.9843" r="1.21953" transform="rotate(-138.062 348.001 83.9843)" fill="black" stroke="black"/>
<circle cx="359.739" cy="133.284" r="1.21953" transform="rotate(-138.062 359.739 133.284)" fill="black" stroke="black"/>
<circle cx="273.659" cy="109.026" r="1.21953" transform="rotate(-138.062 273.659 109.026)" fill="black" stroke="black"/>
<circle cx="235.315" cy="121.546" r="1.21953" transform="rotate(-138.062 235.315 121.546)" fill="black" stroke="black"/>
<circle cx="196.187" cy="131.72" r="1.21953" transform="rotate(-138.062 196.187 131.72)" fill="black" stroke="black"/>
<circle cx="157.059" cy="140.328" r="1.21953" transform="rotate(-138.062 157.059 140.328)" fill="black" stroke="black"/>
<circle cx="402.778" cy="127.024" r="1.21953" transform="rotate(-138.062 402.778 127.024)" fill="black" stroke="black"/>
<circle cx="446.603" cy="119.199" r="1.21953" transform="rotate(-138.062 446.603 119.199)" fill="black" stroke="black"/>
<circle cx="495.118" cy="134.067" r="1.21953" transform="rotate(-138.062 495.118 134.067)" fill="black" stroke="black"/>
<circle cx="496.685" cy="148.153" r="1.21953" transform="rotate(-138.062 496.685 148.153)" fill="black" stroke="black"/>
<circle cx="544.419" cy="148.153" r="1.21953" transform="rotate(-138.062 544.419 148.153)" fill="black" stroke="black"/>
<circle cx="594.503" cy="161.456" r="1.21953" transform="rotate(-138.062 594.503 161.456)" fill="black" stroke="black"/>
<circle cx="398.085" cy="101.2" r="1.21953" transform="rotate(-138.062 398.085 101.2)" fill="black" stroke="black"/>
</g>
<defs>
<filter id="filter0_f_594_8588" x="-265.646" y="-12.0328" width="1463.13" height="762.412" filterUnits="userSpaceOnUse" color-interpolation-filters="sRGB">
<feFlood flood-opacity="0" result="BackgroundImageFix"/>
<feBlend mode="normal" in="SourceGraphic" in2="BackgroundImageFix" result="shape"/>
<feGaussianBlur stdDeviation="6" result="effect1_foregroundBlur_594_8588"/>
</filter>
<filter id="filter1_f_594_8588" x="-166.536" y="-18.9335" width="222.431" height="222.431" filterUnits="userSpaceOnUse" color-interpolation-filters="sRGB">
<feFlood flood-opacity="0" result="BackgroundImageFix"/>
<feBlend mode="normal" in="SourceGraphic" in2="BackgroundImageFix" result="shape"/>
<feGaussianBlur stdDeviation="42.5" result="effect1_foregroundBlur_594_8588"/>
</filter>
<linearGradient id="paint0_linear_594_8588" x1="804.055" y1="-23.0741" x2="341.038" y2="911.271" gradientUnits="userSpaceOnUse">
<stop stop-color="#FF3F3F"/>
<stop offset="0.213542" stop-color="#FEEB3C"/>
<stop offset="0.416667" stop-color="#71FF3F"/>
<stop offset="0.619792" stop-color="#3E8BFF"/>
<stop offset="0.8125" stop-color="#E43EFF"/>
<stop offset="0.984375" stop-color="#FF3E3E"/>
</linearGradient>
<linearGradient id="paint1_linear_594_8588" x1="-302.292" y1="579.722" x2="-83.009" y2="-215.011" gradientUnits="userSpaceOnUse">
<stop stop-color="#FF3F3F"/>
<stop offset="0.213542" stop-color="#FEEB3C"/>
<stop offset="0.416667" stop-color="#71FF3F"/>
<stop offset="0.619792" stop-color="#3E8BFF"/>
<stop offset="0.8125" stop-color="#E43EFF"/>
<stop offset="0.984375" stop-color="#FF3E3E"/>
</linearGradient>
<linearGradient id="paint2_linear_594_8588" x1="886.776" y1="44.9738" x2="310.208" y2="1197.28" gradientUnits="userSpaceOnUse">
<stop stop-color="#FF3F3F"/>
<stop offset="0.213542" stop-color="#FEEB3C"/>
<stop offset="0.416667" stop-color="#71FF3F"/>
<stop offset="0.619792" stop-color="#3E8BFF"/>
<stop offset="0.8125" stop-color="#E43EFF"/>
<stop offset="0.984375" stop-color="#FF3E3E"/>
</linearGradient>
<clipPath id="clip0_594_8588">
<rect width="1440" height="279" fill="white"/>
</clipPath>
</defs>
</svg>
