<svg width="325" height="310" viewBox="0 0 325 310" fill="none" xmlns="http://www.w3.org/2000/svg">
<path opacity="0.010101" fill-rule="evenodd" clip-rule="evenodd" d="M2.49293 178.236L184.18 315.147C184.77 315.592 185.609 315.474 186.054 314.883L322.965 133.196C323.41 132.606 323.292 131.767 322.702 131.322L141.015 -5.58859C140.424 -6.03337 139.585 -5.91545 139.14 -5.3252L2.22954 176.362C1.78476 176.952 1.90268 177.791 2.49293 178.236ZM183.979 315.414C184.716 315.97 185.765 315.823 186.321 315.085L323.232 133.398C323.788 132.66 323.641 131.611 322.903 131.055L141.216 -5.85577C140.478 -6.41175 139.429 -6.26435 138.873 -5.52653L1.96236 176.16C1.40638 176.898 1.55377 177.947 2.29159 178.503L183.979 315.414Z" fill="#A8E063"/>
<path opacity="0.020202" fill-rule="evenodd" clip-rule="evenodd" d="M3.27132 175.461L181.223 314.492C181.805 314.947 182.646 314.843 183.101 314.261L322.133 136.309C322.588 135.727 322.484 134.886 321.902 134.431L143.95 -4.6002C143.368 -5.05523 142.527 -4.95197 142.072 -4.36956L3.04067 173.582C2.58565 174.165 2.68891 175.006 3.27132 175.461ZM181.017 314.755C181.745 315.324 182.796 315.195 183.365 314.467L322.396 136.515C322.965 135.787 322.836 134.736 322.108 134.167L144.156 -4.86383C143.428 -5.4326 142.377 -5.30352 141.808 -4.57552L2.77705 173.376C2.20827 174.104 2.33735 175.155 3.06535 175.724L181.017 314.755Z" fill="#A8E063"/>
<path opacity="0.030303" fill-rule="evenodd" clip-rule="evenodd" d="M4.10055 172.721L178.299 313.784C178.873 314.249 179.716 314.16 180.181 313.586L321.244 139.388C321.709 138.813 321.62 137.971 321.046 137.506L146.848 -3.55735C146.273 -4.02247 145.431 -3.93388 144.966 -3.35952L3.90274 170.839C3.43762 171.413 3.5262 172.256 4.10055 172.721ZM178.088 314.044C178.806 314.625 179.859 314.514 180.441 313.796L321.504 139.598C322.085 138.88 321.974 137.827 321.257 137.246L147.058 -3.81734C146.34 -4.39873 145.287 -4.28802 144.706 -3.57006L3.64274 170.628C3.06135 171.346 3.17205 172.399 3.89001 172.981L178.088 314.044Z" fill="#A8E063"/>
<path opacity="0.040404" fill-rule="evenodd" clip-rule="evenodd" d="M4.98528 170.017L175.414 313.023C175.98 313.498 176.824 313.424 177.299 312.858L320.305 142.43C320.78 141.864 320.707 141.019 320.14 140.544L149.712 -2.46198C149.146 -2.93704 148.302 -2.86319 147.827 -2.29704L4.82034 168.131C4.34527 168.697 4.41913 169.542 4.98528 170.017ZM175.199 313.279C175.906 313.873 176.961 313.781 177.555 313.073L320.562 142.645C321.155 141.937 321.063 140.882 320.355 140.288L149.927 -2.71826C149.219 -3.3121 148.164 -3.21979 147.57 -2.51209L4.56406 167.916C3.97023 168.624 4.06253 169.679 4.77024 170.273L175.199 313.279Z" fill="#A8E063"/>
<path opacity="0.050505" fill-rule="evenodd" clip-rule="evenodd" d="M5.92109 167.349L172.565 312.211C173.123 312.695 173.968 312.636 174.453 312.079L319.315 145.435C319.799 144.877 319.74 144.031 319.183 143.547L152.538 -1.31492C151.981 -1.7998 151.135 -1.7407 150.651 -1.1829L5.78907 165.461C5.3042 166.019 5.36329 166.864 5.92109 167.349ZM172.346 312.463C173.043 313.069 174.099 312.995 174.706 312.298L319.567 145.654C320.173 144.957 320.099 143.9 319.402 143.294L152.758 -1.56742C152.061 -2.17351 151.004 -2.09963 150.398 -1.4024L5.53658 165.242C4.93048 165.939 5.00437 166.996 5.7016 167.602L172.346 312.463Z" fill="#A8E063"/>
<path opacity="0.0606061" fill-rule="evenodd" clip-rule="evenodd" d="M6.90649 164.719L169.754 311.348C170.303 311.842 171.149 311.798 171.644 311.249L318.272 148.401C318.767 147.852 318.723 147.006 318.173 146.511L155.326 -0.117272C154.777 -0.611809 153.93 -0.567465 153.436 -0.0182253L6.80745 162.829C6.31291 163.378 6.35725 164.225 6.90649 164.719ZM169.53 311.596C170.217 312.214 171.274 312.159 171.892 311.472L318.521 148.625C319.139 147.938 319.084 146.881 318.397 146.263L155.55 -0.36589C154.863 -0.984052 153.805 -0.92862 153.187 -0.242082L6.55883 162.605C5.94066 163.292 5.99609 164.35 6.68263 164.968L169.53 311.596Z" fill="#A8E063"/>
<path opacity="0.0707071" fill-rule="evenodd" clip-rule="evenodd" d="M7.9416 162.127L166.982 310.435C167.522 310.939 168.369 310.909 168.873 310.369L317.181 151.329C317.685 150.788 317.655 149.941 317.115 149.437L158.074 1.12975C157.534 0.625691 156.687 0.655261 156.183 1.1958L7.87556 160.236C7.37151 160.777 7.40106 161.623 7.9416 162.127ZM166.754 310.679C167.429 311.31 168.488 311.273 169.118 310.597L317.425 151.557C318.055 150.881 318.018 149.823 317.343 149.192L158.303 0.885064C157.627 0.255005 156.568 0.291968 155.938 0.967625L7.63087 160.008C7.00081 160.684 7.03778 161.742 7.71344 162.372L166.754 310.679Z" fill="#A8E063"/>
<path opacity="0.0808081" fill-rule="evenodd" clip-rule="evenodd" d="M9.02445 159.575L164.249 309.474C164.78 309.987 165.628 309.972 166.141 309.441L316.04 154.216C316.553 153.685 316.538 152.838 316.006 152.324L160.782 2.4257C160.25 1.91229 159.403 1.92708 158.89 2.45873L8.99142 157.683C8.47801 158.215 8.49279 159.062 9.02445 159.575ZM164.016 309.714C164.681 310.356 165.74 310.338 166.382 309.673L316.28 154.449C316.922 153.784 316.903 152.725 316.239 152.083L161.015 2.18504C160.35 1.54328 159.291 1.56177 158.649 2.22632L8.75076 157.451C8.109 158.115 8.12749 159.174 8.79205 159.816L164.016 309.714Z" fill="#A8E063"/>
<path opacity="0.0909091" fill-rule="evenodd" clip-rule="evenodd" d="M10.1533 157.063L161.555 308.465C162.078 308.988 162.925 308.988 163.448 308.465L314.85 157.063C315.372 156.541 315.372 155.693 314.85 155.171L163.448 3.76886C162.925 3.24626 162.078 3.24626 161.555 3.76886L10.1533 155.171C9.63073 155.693 9.63073 156.541 10.1533 157.063ZM161.319 308.702C161.972 309.355 163.031 309.355 163.684 308.702L315.086 157.3C315.739 156.647 315.739 155.587 315.086 154.934L163.684 3.53229C163.031 2.87903 161.972 2.87903 161.319 3.53229L9.91676 154.934C9.2635 155.587 9.26351 156.647 9.91676 157.3L161.319 308.702Z" fill="#A8E063"/>
<path opacity="0.10101" fill-rule="evenodd" clip-rule="evenodd" d="M11.333 154.592L158.908 307.41C159.421 307.942 160.268 307.956 160.8 307.443L313.618 159.869C314.149 159.355 314.164 158.508 313.651 157.976L166.076 5.15848C165.563 4.62682 164.716 4.61203 164.184 5.12545L11.3661 152.7C10.8344 153.213 10.8196 154.061 11.333 154.592ZM158.667 307.642C159.309 308.307 160.368 308.325 161.032 307.684L313.85 160.109C314.515 159.467 314.533 158.408 313.891 157.744L166.317 4.92608C165.675 4.26152 164.616 4.24304 163.952 4.88479L11.1337 152.459C10.4691 153.101 10.4506 154.16 11.0924 154.825L158.667 307.642Z" fill="#A8E063"/>
<path opacity="0.111111" fill-rule="evenodd" clip-rule="evenodd" d="M12.555 152.163L156.299 306.31C156.803 306.85 157.65 306.88 158.191 306.376L312.337 162.632C312.878 162.128 312.907 161.281 312.403 160.74L168.659 6.59351C168.155 6.05297 167.308 6.0234 166.768 6.52746L12.6211 150.272C12.0806 150.776 12.051 151.622 12.555 152.163ZM156.054 306.538C156.685 307.214 157.743 307.25 158.419 306.62L312.565 162.876C313.241 162.246 313.278 161.188 312.648 160.512L168.904 6.36535C168.274 5.68969 167.215 5.65273 166.54 6.28279L12.3929 150.027C11.7173 150.657 11.6803 151.715 12.3103 152.391L156.054 306.538Z" fill="#A8E063"/>
<path opacity="0.121212" fill-rule="evenodd" clip-rule="evenodd" d="M13.8216 149.776L153.734 305.165C154.229 305.714 155.075 305.758 155.624 305.264L311.013 165.351C311.562 164.857 311.607 164.011 311.112 163.461L171.199 8.07249C170.705 7.52324 169.859 7.47889 169.309 7.97344L13.9207 147.886C13.3714 148.381 13.3271 149.227 13.8216 149.776ZM153.486 305.389C154.104 306.075 155.162 306.131 155.848 305.513L311.237 165.6C311.923 164.982 311.979 163.924 311.361 163.237L171.448 7.84862C170.83 7.16207 169.772 7.10664 169.086 7.72481L13.6968 147.638C13.0102 148.256 12.9548 149.313 13.573 150L153.486 305.389Z" fill="#A8E063"/>
<path opacity="0.131313" fill-rule="evenodd" clip-rule="evenodd" d="M15.1335 147.433L151.216 303.977C151.7 304.535 152.546 304.594 153.104 304.109L309.648 168.027C310.206 167.542 310.265 166.697 309.78 166.139L173.698 9.59484C173.213 9.03705 172.368 8.97795 171.81 9.46283L15.2656 145.545C14.7078 146.03 14.6487 146.875 15.1335 147.433ZM150.963 304.197C151.569 304.894 152.626 304.968 153.323 304.362L309.867 168.28C310.565 167.674 310.639 166.617 310.033 165.92L173.95 9.37536C173.344 8.67814 172.288 8.60425 171.591 9.21034L15.0461 145.292C14.3488 145.898 14.275 146.955 14.8811 147.652L150.963 304.197Z" fill="#A8E063"/>
<path opacity="0.141414" fill-rule="evenodd" clip-rule="evenodd" d="M16.4844 145.133L148.738 302.748C149.213 303.314 150.058 303.388 150.624 302.913L308.238 170.659C308.804 170.184 308.878 169.339 308.403 168.773L176.149 11.1591C175.674 10.5929 174.83 10.5191 174.264 10.9941L16.6493 143.248C16.0832 143.723 16.0093 144.567 16.4844 145.133ZM148.482 302.963C149.076 303.67 150.131 303.763 150.839 303.169L308.453 170.915C309.161 170.321 309.253 169.266 308.659 168.558L176.405 10.944C175.811 10.2363 174.756 10.144 174.048 10.7378L16.4343 142.992C15.7266 143.586 15.6343 144.641 16.2281 145.349L148.482 302.963Z" fill="#A8E063"/>
<path opacity="0.151515" fill-rule="evenodd" clip-rule="evenodd" d="M17.8767 142.879L146.307 301.477C146.772 302.051 147.615 302.14 148.189 301.675L306.788 173.244C307.362 172.779 307.451 171.937 306.985 171.362L178.555 12.7639C178.09 12.1896 177.247 12.101 176.673 12.5661L18.0746 140.997C17.5002 141.462 17.4116 142.304 17.8767 142.879ZM146.047 301.688C146.629 302.406 147.682 302.516 148.4 301.935L306.998 173.504C307.716 172.923 307.827 171.87 307.245 171.152L178.815 12.5534C178.234 11.8354 177.18 11.7247 176.462 12.3061L17.864 140.737C17.146 141.318 17.0353 142.371 17.6167 143.089L146.047 301.688Z" fill="#A8E063"/>
<path opacity="0.161616" fill-rule="evenodd" clip-rule="evenodd" d="M19.3087 140.67L143.922 300.167C144.377 300.749 145.218 300.853 145.8 300.398L305.298 175.785C305.88 175.33 305.983 174.489 305.528 173.906L180.915 14.4087C180.46 13.8263 179.619 13.7231 179.037 14.1781L19.5393 138.791C18.9569 139.246 18.8537 140.087 19.3087 140.67ZM143.658 300.373C144.227 301.101 145.278 301.23 146.006 300.661L305.504 176.048C306.232 175.479 306.361 174.428 305.792 173.7L181.179 14.2028C180.61 13.4748 179.559 13.3457 178.831 13.9145L19.3334 138.528C18.6054 139.096 18.4763 140.148 19.0451 140.876L143.658 300.373Z" fill="#A8E063"/>
<path opacity="0.171717" fill-rule="evenodd" clip-rule="evenodd" d="M20.7812 138.507L141.585 298.819C142.03 299.409 142.869 299.527 143.459 299.082L303.771 178.279C304.361 177.834 304.479 176.995 304.034 176.404L183.231 16.0924C182.786 15.5021 181.947 15.3842 181.357 15.829L21.0446 136.633C20.4543 137.078 20.3364 137.917 20.7812 138.507ZM141.318 299.02C141.874 299.758 142.923 299.905 143.66 299.35L303.972 178.546C304.71 177.99 304.858 176.941 304.302 176.203L183.498 15.8911C182.942 15.1532 181.893 15.0058 181.155 15.5618L20.8432 136.366C20.1054 136.922 19.958 137.97 20.514 138.708L141.318 299.02Z" fill="#A8E063"/>
<path opacity="0.181818" fill-rule="evenodd" clip-rule="evenodd" d="M22.2897 136.39L139.294 297.433C139.728 298.031 140.565 298.163 141.163 297.729L302.206 180.724C302.804 180.29 302.936 179.453 302.502 178.855L185.498 17.8126C185.063 17.2147 184.226 17.0821 183.628 17.5166L22.5858 134.521C21.9878 134.955 21.8553 135.792 22.2897 136.39ZM139.023 297.629C139.566 298.377 140.612 298.542 141.36 297.999L302.403 180.995C303.15 180.452 303.316 179.406 302.773 178.659L185.768 17.616C185.225 16.8685 184.179 16.7029 183.432 17.2459L22.3891 134.25C21.6417 134.793 21.476 135.839 22.019 136.587L139.023 297.629Z" fill="#A8E063"/>
<path opacity="0.191919" fill-rule="evenodd" clip-rule="evenodd" d="M23.8347 134.321L137.051 296.011C137.475 296.617 138.31 296.764 138.915 296.34L300.605 183.123C301.21 182.699 301.357 181.865 300.933 181.26L187.717 19.5697C187.293 18.9642 186.459 18.8171 185.853 19.241L24.1633 132.457C23.5579 132.881 23.4108 133.716 23.8347 134.321ZM136.777 296.203C137.307 296.96 138.35 297.144 139.107 296.614L300.797 183.397C301.553 182.867 301.737 181.824 301.207 181.068L187.991 19.3778C187.461 18.621 186.418 18.4371 185.661 18.967L23.9715 132.183C23.2147 132.713 23.0308 133.756 23.5607 134.513L136.777 296.203Z" fill="#A8E063"/>
<path opacity="0.20202" fill-rule="evenodd" clip-rule="evenodd" d="M25.4149 132.299L134.857 294.553C135.27 295.166 136.102 295.327 136.715 294.914L298.969 185.472C299.582 185.059 299.743 184.227 299.33 183.615L189.888 21.3602C189.475 20.7474 188.643 20.5858 188.03 20.9991L25.776 130.441C25.1633 130.854 25.0016 131.686 25.4149 132.299ZM134.579 294.74C135.096 295.506 136.136 295.708 136.902 295.192L299.156 185.75C299.922 185.233 300.124 184.193 299.607 183.427L190.165 21.1731C189.649 20.4072 188.609 20.2051 187.843 20.7217L25.5889 130.164C24.823 130.68 24.6209 131.72 25.1376 132.486L134.579 294.74Z" fill="#A8E063"/>
<path opacity="0.212121" fill-rule="evenodd" clip-rule="evenodd" d="M27.0303 130.326L132.713 293.063C133.115 293.682 133.944 293.859 134.564 293.456L297.301 187.774C297.921 187.371 298.097 186.542 297.694 185.922L192.012 23.1857C191.609 22.5658 190.78 22.3897 190.161 22.7922L27.4238 128.475C26.8039 128.877 26.6278 129.706 27.0303 130.326ZM132.432 293.245C132.935 294.02 133.971 294.24 134.746 293.737L297.483 188.054C298.258 187.551 298.478 186.515 297.975 185.74L192.292 23.0035C191.789 22.2287 190.753 22.0084 189.978 22.5116L27.2416 128.194C26.4668 128.697 26.2466 129.733 26.7497 130.508L132.432 293.245Z" fill="#A8E063"/>
<path opacity="0.222222" fill-rule="evenodd" clip-rule="evenodd" d="M28.6752 128.402L130.615 291.539C131.007 292.166 131.832 292.357 132.459 291.965L295.597 190.025C296.224 189.634 296.414 188.808 296.023 188.181L194.083 25.0435C193.691 24.4167 192.866 24.2261 192.239 24.6177L29.101 126.558C28.4742 126.949 28.2836 127.775 28.6752 128.402ZM130.331 291.717C130.821 292.5 131.853 292.738 132.636 292.249L295.774 190.309C296.558 189.819 296.796 188.787 296.306 188.004L194.367 24.8662C193.877 24.0827 192.845 23.8445 192.061 24.334L28.9237 126.274C28.1402 126.763 27.902 127.795 28.3915 128.579L130.331 291.717Z" fill="#A8E063"/>
<path opacity="0.232323" fill-rule="evenodd" clip-rule="evenodd" d="M30.352 126.526L128.568 289.985C128.948 290.618 129.77 290.823 130.404 290.443L293.862 192.227C294.496 191.846 294.701 191.024 294.32 190.391L196.104 26.9324C195.724 26.2989 194.902 26.0939 194.268 26.4746L30.8098 124.69C30.1763 125.071 29.9713 125.893 30.352 126.526ZM128.281 290.157C128.757 290.949 129.784 291.205 130.576 290.729L294.034 192.514C294.826 192.038 295.082 191.01 294.607 190.218L196.391 26.7601C195.915 25.9682 194.888 25.712 194.096 26.1878L30.6375 124.403C29.8456 124.879 29.5894 125.907 30.0652 126.699L128.281 290.157Z" fill="#A8E063"/>
<path opacity="0.242424" fill-rule="evenodd" clip-rule="evenodd" d="M32.0615 124.701L126.573 288.4C126.943 289.04 127.761 289.259 128.401 288.89L292.1 194.378C292.74 194.009 292.959 193.19 292.59 192.55L198.078 28.8515C197.708 28.2115 196.89 27.9922 196.25 28.3617L32.5513 122.873C31.9112 123.243 31.692 124.061 32.0615 124.701ZM126.283 288.567C126.745 289.367 127.768 289.641 128.568 289.179L292.267 194.668C293.067 194.206 293.341 193.183 292.879 192.383L198.368 28.6842C197.906 27.8842 196.883 27.61 196.083 28.072L32.384 122.583C31.584 123.045 31.3098 124.068 31.7718 124.869L126.283 288.567Z" fill="#A8E063"/>
<path opacity="0.252525" fill-rule="evenodd" clip-rule="evenodd" d="M33.7996 122.926L124.629 286.787C124.987 287.433 125.802 287.667 126.448 287.308L290.308 196.479C290.955 196.121 291.188 195.306 290.83 194.66L200.001 30.7996C199.642 30.1532 198.828 29.9197 198.182 30.278L34.3213 121.107C33.6749 121.465 33.4413 122.28 33.7996 122.926ZM124.336 286.949C124.784 287.757 125.802 288.049 126.61 287.601L290.47 196.772C291.279 196.324 291.57 195.306 291.123 194.498L200.293 30.6374C199.845 29.8294 198.827 29.5375 198.019 29.9854L34.1591 120.815C33.3511 121.262 33.0591 122.281 33.507 123.089L124.336 286.949Z" fill="#A8E063"/>
<path opacity="0.262626" fill-rule="evenodd" clip-rule="evenodd" d="M35.5627 121.202L122.733 285.145C123.08 285.798 123.89 286.046 124.543 285.699L288.486 198.528C289.139 198.181 289.387 197.371 289.04 196.718L201.869 32.775C201.522 32.1224 200.712 31.8747 200.059 32.2217L36.116 119.392C35.4634 119.739 35.2157 120.549 35.5627 121.202ZM122.438 285.302C122.871 286.118 123.884 286.428 124.7 285.994L288.643 198.824C289.459 198.39 289.769 197.377 289.335 196.561L202.165 32.6179C201.731 31.8022 200.718 31.4925 199.902 31.9262L35.9589 119.097C35.1432 119.53 34.8336 120.543 35.2673 121.359L122.438 285.302Z" fill="#A8E063"/>
<path opacity="0.272727" fill-rule="evenodd" clip-rule="evenodd" d="M37.3534 119.529L120.89 283.478C121.225 284.137 122.031 284.398 122.69 284.063L286.639 200.526C287.298 200.191 287.559 199.385 287.224 198.727L203.687 34.7772C203.352 34.1186 202.546 33.8568 201.888 34.1923L37.9382 117.729C37.2796 118.064 37.0178 118.87 37.3534 119.529ZM120.592 283.63C121.011 284.453 122.018 284.78 122.842 284.361L286.791 200.825C287.614 200.405 287.941 199.398 287.522 198.575L203.986 34.6253C203.566 33.8021 202.559 33.4748 201.736 33.8943L37.7863 117.431C36.9631 117.85 36.6358 118.857 37.0553 119.681L120.592 283.63Z" fill="#A8E063"/>
<path opacity="0.282828" fill-rule="evenodd" clip-rule="evenodd" d="M39.1703 117.907L119.099 281.785C119.423 282.45 120.225 282.726 120.889 282.402L284.768 202.472C285.432 202.149 285.708 201.347 285.384 200.683L205.455 36.8042C205.131 36.1399 204.33 35.8641 203.665 36.1881L39.7865 116.117C39.1222 116.441 38.8463 117.242 39.1703 117.907ZM118.799 281.932C119.204 282.762 120.205 283.107 121.035 282.702L284.914 202.773C285.745 202.368 286.089 201.367 285.685 200.536L205.755 36.6575C205.35 35.8272 204.349 35.4824 203.519 35.8874L39.6398 115.816C38.8095 116.221 38.4646 117.223 38.8696 118.053L118.799 281.932Z" fill="#A8E063"/>
<path opacity="0.292929" fill-rule="evenodd" clip-rule="evenodd" d="M41.012 116.337L117.362 280.07C117.674 280.739 118.47 281.029 119.14 280.717L282.873 204.367C283.543 204.055 283.833 203.258 283.52 202.589L207.171 38.8558C206.858 38.186 206.062 37.8962 205.392 38.2085L41.6593 114.558C40.9895 114.871 40.6997 115.667 41.012 116.337ZM117.059 280.211C117.449 281.048 118.444 281.411 119.282 281.02L283.014 204.67C283.852 204.28 284.214 203.285 283.824 202.447L207.474 38.7144C207.083 37.8771 206.088 37.5149 205.251 37.9053L41.5179 114.255C40.6806 114.646 40.3184 115.641 40.7088 116.478L117.059 280.211Z" fill="#A8E063"/>
<path opacity="0.30303" fill-rule="evenodd" clip-rule="evenodd" d="M42.8767 114.818L115.677 278.33C115.978 279.005 116.769 279.309 117.444 279.008L280.956 206.208C281.631 205.907 281.935 205.116 281.634 204.441L208.834 40.9288C208.533 40.2536 207.742 39.9499 207.067 40.2506L43.5549 113.051C42.8797 113.351 42.5761 114.143 42.8767 114.818ZM115.371 278.466C115.747 279.31 116.736 279.69 117.58 279.314L281.092 206.513C281.936 206.138 282.316 205.149 281.94 204.305L209.14 40.7927C208.764 39.9487 207.775 39.5692 206.931 39.9449L43.4188 112.745C42.5749 113.121 42.1953 114.11 42.5711 114.954L115.371 278.466Z" fill="#A8E063"/>
<path opacity="0.313131" fill-rule="evenodd" clip-rule="evenodd" d="M44.7606 113.352L114.043 276.57C114.331 277.25 115.117 277.568 115.797 277.279L279.015 207.997C279.696 207.708 280.013 206.923 279.724 206.242L210.442 43.0242C210.154 42.3439 209.368 42.0265 208.688 42.3152L45.4695 111.597C44.7892 111.886 44.4718 112.672 44.7606 113.352ZM113.735 276.701C114.096 277.551 115.078 277.948 115.928 277.587L279.146 208.305C279.996 207.944 280.393 206.962 280.032 206.112L210.75 42.8935C210.389 42.0431 209.407 41.6463 208.557 42.0073L45.3388 111.289C44.4884 111.65 44.0916 112.632 44.4526 113.483L113.735 276.701Z" fill="#A8E063"/>
<path opacity="0.323232" fill-rule="evenodd" clip-rule="evenodd" d="M46.6647 111.938L112.461 274.79C112.738 275.475 113.518 275.806 114.203 275.529L277.054 209.733C277.74 209.456 278.071 208.676 277.794 207.991L211.998 45.1393C211.721 44.4541 210.941 44.123 210.256 44.3999L47.4041 110.196C46.7189 110.473 46.3878 111.253 46.6647 111.938ZM112.151 274.915C112.497 275.771 113.472 276.185 114.328 275.839L277.18 210.043C278.036 209.697 278.45 208.722 278.104 207.865L212.308 45.014C211.962 44.1574 210.987 43.7436 210.13 44.0897L47.2788 109.886C46.4222 110.232 46.0084 111.207 46.3545 112.063L112.151 274.915Z" fill="#A8E063"/>
<path opacity="0.333333" fill-rule="evenodd" clip-rule="evenodd" d="M48.5873 110.577L110.932 272.99C111.197 273.68 111.971 274.024 112.661 273.76L275.074 211.415C275.764 211.15 276.109 210.376 275.844 209.686L213.499 47.2729C213.234 46.5829 212.46 46.2383 211.77 46.5031L49.357 108.848C48.667 109.113 48.3224 109.887 48.5873 110.577ZM110.62 273.11C110.951 273.972 111.918 274.403 112.781 274.072L275.194 211.727C276.056 211.396 276.487 210.429 276.156 209.566L213.811 47.153C213.48 46.2905 212.513 45.8597 211.65 46.1908L49.2371 108.535C48.3747 108.866 47.9439 109.834 48.2749 110.697L110.62 273.11Z" fill="#A8E063"/>
<path opacity="0.343434" fill-rule="evenodd" clip-rule="evenodd" d="M50.5296 109.269L109.458 271.174C109.711 271.868 110.479 272.226 111.173 271.973L273.078 213.045C273.772 212.792 274.131 212.024 273.878 211.33L214.949 49.4251C214.696 48.7306 213.929 48.3725 213.234 48.6252L51.3294 107.554C50.6349 107.806 50.2768 108.574 50.5296 109.269ZM109.144 271.288C109.46 272.156 110.42 272.604 111.288 272.288L273.192 213.359C274.06 213.043 274.508 212.083 274.192 211.215L215.264 49.3106C214.948 48.4425 213.988 47.9949 213.12 48.3109L51.215 107.239C50.3469 107.555 49.8993 108.515 50.2152 109.383L109.144 271.288Z" fill="#A8E063"/>
<path opacity="0.353535" fill-rule="evenodd" clip-rule="evenodd" d="M52.4898 108.013L108.039 269.34C108.28 270.039 109.041 270.41 109.74 270.169L271.067 214.62C271.766 214.379 272.137 213.618 271.896 212.919L216.347 51.5923C216.107 50.8935 215.345 50.5221 214.646 50.7627L53.3194 106.312C52.6206 106.553 52.2492 107.314 52.4898 108.013ZM107.723 269.449C108.024 270.322 108.975 270.786 109.849 270.486L271.176 214.936C272.049 214.636 272.514 213.684 272.213 212.81L216.664 51.4834C216.363 50.6099 215.411 50.1456 214.537 50.4463L53.2105 105.996C52.337 106.296 51.8727 107.248 52.1735 108.122L107.723 269.449Z" fill="#A8E063"/>
<path opacity="0.363636" fill-rule="evenodd" clip-rule="evenodd" d="M54.4645 106.81L106.673 267.491C106.901 268.194 107.656 268.579 108.359 268.35L269.04 216.142C269.743 215.914 270.127 215.159 269.899 214.456L217.691 53.7751C217.462 53.0722 216.707 52.6875 216.004 52.9159L55.3237 105.124C54.6208 105.353 54.2361 106.108 54.4645 106.81ZM106.355 267.595C106.64 268.473 107.584 268.954 108.462 268.669L269.143 216.46C270.022 216.175 270.503 215.231 270.217 214.352L218.009 53.6717C217.723 52.7931 216.78 52.3122 215.901 52.5977L55.2203 104.806C54.3417 105.092 53.8608 106.035 54.1463 106.914L106.355 267.595Z" fill="#A8E063"/>
<path opacity="0.373737" fill-rule="evenodd" clip-rule="evenodd" d="M56.4521 105.661L105.359 265.629C105.575 266.336 106.323 266.733 107.03 266.517L266.998 217.61C267.705 217.394 268.103 216.646 267.886 215.939L218.979 55.9716C218.763 55.2648 218.015 54.867 217.308 55.0831L57.3406 103.99C56.6338 104.206 56.236 104.954 56.4521 105.661ZM105.039 265.727C105.309 266.61 106.245 267.107 107.128 266.837L267.096 217.93C267.979 217.66 268.477 216.725 268.206 215.842L219.299 55.8737C219.029 54.9903 218.094 54.493 217.211 54.7631L57.2428 103.67C56.3593 103.94 55.8621 104.875 56.1322 105.759L105.039 265.727Z" fill="#A8E063"/>
<path opacity="0.383838" fill-rule="evenodd" clip-rule="evenodd" d="M58.454 104.565L104.101 263.754C104.304 264.465 105.046 264.876 105.756 264.672L264.945 219.025C265.655 218.821 266.066 218.08 265.863 217.37L220.216 58.181C220.012 57.4705 219.271 57.0597 218.561 57.2635L59.3715 102.91C58.6611 103.114 58.2503 103.855 58.454 104.565ZM103.779 263.847C104.034 264.735 104.96 265.248 105.848 264.994L265.037 219.347C265.925 219.092 266.439 218.166 266.184 217.278L220.537 58.0888C220.283 57.2007 219.356 56.6872 218.468 56.9419L59.2793 102.589C58.3913 102.843 57.8778 103.77 58.1324 104.658L103.779 263.847Z" fill="#A8E063"/>
<path opacity="0.393939" fill-rule="evenodd" clip-rule="evenodd" d="M60.4663 103.523L102.895 261.869C103.086 262.583 103.82 263.006 104.534 262.815L262.879 220.386C263.593 220.195 264.017 219.461 263.826 218.747L221.397 60.4017C221.206 59.6879 220.472 59.2642 219.758 59.4555L61.4125 101.884C60.6986 102.075 60.275 102.809 60.4663 103.523ZM102.572 261.955C102.811 262.848 103.728 263.377 104.62 263.138L262.966 220.71C263.858 220.47 264.388 219.553 264.149 218.661L221.72 60.3152C221.481 59.4228 220.564 58.8932 219.672 59.1323L61.3259 101.561C60.4336 101.8 59.904 102.717 60.1431 103.61L102.572 261.955Z" fill="#A8E063"/>
<path opacity="0.40404" fill-rule="evenodd" clip-rule="evenodd" d="M62.49 102.534L101.744 259.973C101.923 260.69 102.649 261.127 103.366 260.948L260.805 221.694C261.522 221.515 261.959 220.789 261.78 220.072L222.526 62.6327C222.347 61.9156 221.621 61.4792 220.904 61.658L63.4647 100.912C62.7476 101.091 62.3112 101.817 62.49 102.534ZM101.419 260.054C101.643 260.95 102.551 261.496 103.447 261.272L260.886 222.018C261.782 221.795 262.328 220.887 262.104 219.991L222.85 62.5517C222.627 61.6553 221.719 61.1098 220.823 61.3333L63.3838 100.587C62.4874 100.811 61.9419 101.719 62.1654 102.615L101.419 260.054Z" fill="#A8E063"/>
<path opacity="0.414141" fill-rule="evenodd" clip-rule="evenodd" d="M64.5215 101.598L100.645 258.068C100.812 258.788 101.53 259.237 102.25 259.071L258.721 222.947C259.441 222.781 259.89 222.062 259.723 221.342L223.599 64.8719C223.433 64.1518 222.715 63.7027 221.995 63.869L65.5244 99.993C64.8043 100.159 64.3553 100.878 64.5215 101.598ZM100.32 258.143C100.527 259.043 101.426 259.605 102.326 259.397L258.796 223.273C259.696 223.065 260.257 222.167 260.049 221.267L223.925 64.7966C223.718 63.8965 222.819 63.3352 221.919 63.543L65.4491 99.667C64.549 99.8748 63.9877 100.773 64.1955 101.673L100.32 258.143Z" fill="#A8E063"/>
<path opacity="0.424242" fill-rule="evenodd" clip-rule="evenodd" d="M66.5599 100.715L99.5998 256.156C99.7535 256.878 100.464 257.34 101.187 257.186L256.628 224.146C257.35 223.993 257.812 223.282 257.658 222.559L224.618 67.1187C224.465 66.3957 223.754 65.9343 223.031 66.0879L67.5907 99.1278C66.8677 99.2815 66.4063 99.9921 66.5599 100.715ZM99.2726 256.225C99.4647 257.129 100.353 257.706 101.257 257.514L256.697 224.474C257.601 224.282 258.178 223.393 257.986 222.49L224.946 67.0491C224.754 66.1455 223.865 65.5686 222.962 65.7607L67.5211 98.8006C66.6174 98.9927 66.0406 99.8809 66.2327 100.785L99.2726 256.225Z" fill="#A8E063"/>
<path opacity="0.434343" fill-rule="evenodd" clip-rule="evenodd" d="M68.6084 99.8856L98.6113 254.237C98.7523 254.962 99.4548 255.436 100.18 255.295L254.532 225.292C255.257 225.151 255.731 224.449 255.59 223.723L225.587 69.372C225.446 68.6465 224.744 68.1727 224.018 68.3137L69.6667 98.3166C68.9412 98.4576 68.4674 99.1601 68.6084 99.8856ZM98.2829 254.301C98.4591 255.208 99.3372 255.8 100.244 255.624L254.596 225.621C255.502 225.445 256.095 224.566 255.918 223.66L225.915 69.3082C225.739 68.4013 224.861 67.809 223.954 67.9853L69.6029 97.9882C68.696 98.1645 68.1037 99.0425 68.28 99.9494L98.2829 254.301Z" fill="#A8E063"/>
<path opacity="0.444444" fill-rule="evenodd" clip-rule="evenodd" d="M70.6592 99.1089L97.6733 252.313C97.8016 253.041 98.4957 253.527 99.2235 253.399L252.428 226.385C253.156 226.256 253.642 225.562 253.513 224.834L226.499 71.6301C226.371 70.9023 225.677 70.4163 224.949 70.5446L71.7447 97.5587C71.0169 97.687 70.5309 98.3811 70.6592 99.1089ZM97.3438 252.371C97.5042 253.281 98.3718 253.889 99.2816 253.728L252.486 226.714C253.396 226.554 254.003 225.686 253.843 224.776L226.829 71.572C226.668 70.6622 225.801 70.0547 224.891 70.2152L71.6867 97.2292C70.7768 97.3896 70.1693 98.2572 70.3298 99.167L97.3438 252.371Z" fill="#A8E063"/>
<path opacity="0.454545" fill-rule="evenodd" clip-rule="evenodd" d="M72.7179 98.3854L96.7924 250.386C96.908 251.116 97.5935 251.614 98.3235 251.498L250.324 227.424C251.054 227.308 251.552 226.622 251.436 225.892L227.362 73.8923C227.246 73.1623 226.56 72.6643 225.83 72.7799L73.8303 96.8543C73.1003 96.97 72.6023 97.6554 72.7179 98.3854ZM96.462 250.438C96.6065 251.35 97.4633 251.973 98.3758 251.828L250.376 227.754C251.288 227.609 251.911 226.753 251.766 225.84L227.692 73.8399C227.547 72.9275 226.691 72.3049 225.778 72.4495L73.778 96.5239C72.8655 96.6684 72.243 97.5253 72.3875 98.4378L96.462 250.438Z" fill="#A8E063"/>
<path opacity="0.464646" fill-rule="evenodd" clip-rule="evenodd" d="M74.7741 97.7145L95.9593 248.455C96.0622 249.187 96.7389 249.697 97.4708 249.594L248.211 228.409C248.943 228.306 249.453 227.629 249.35 226.897L228.165 76.1568C228.062 75.4249 227.386 74.915 226.654 75.0179L75.9131 96.2031C75.1812 96.3059 74.6713 96.9826 74.7741 97.7145ZM95.628 248.502C95.7566 249.417 96.6025 250.054 97.5173 249.925L248.258 228.74C249.173 228.612 249.81 227.766 249.682 226.851L228.496 76.1102C228.368 75.1954 227.522 74.558 226.607 74.6866L75.8665 95.8718C74.9517 96.0003 74.3143 96.8462 74.4428 97.7611L95.628 248.502Z" fill="#A8E063"/>
<path opacity="0.474747" fill-rule="evenodd" clip-rule="evenodd" d="M76.8341 97.0967L95.1814 246.524C95.2715 247.257 95.9392 247.779 96.6728 247.689L246.1 229.342C246.833 229.252 247.355 228.584 247.265 227.85L228.918 78.4231C228.828 77.6896 228.16 77.1679 227.426 77.258L77.9992 95.6053C77.2657 95.6954 76.744 96.3631 76.8341 97.0967ZM94.8494 246.565C94.962 247.482 95.7966 248.134 96.7135 248.021L246.141 229.674C247.058 229.561 247.71 228.726 247.597 227.809L229.25 78.3824C229.137 77.4654 228.303 76.8133 227.386 76.9259L77.9585 95.2733C77.0415 95.3858 76.3894 96.2205 76.502 97.1374L94.8494 246.565Z" fill="#A8E063"/>
<path opacity="0.484848" fill-rule="evenodd" clip-rule="evenodd" d="M78.8988 96.5312L94.4606 244.592C94.5379 245.327 95.1963 245.86 95.9314 245.783L243.992 230.221C244.727 230.144 245.261 229.486 245.183 228.751L229.622 80.6896C229.544 79.9546 228.886 79.4214 228.151 79.4986L80.0898 95.0605C79.3547 95.1377 78.8215 95.7962 78.8988 96.5312ZM94.1279 244.627C94.2245 245.546 95.0476 246.212 95.9663 246.116L244.027 230.554C244.946 230.458 245.613 229.634 245.516 228.716L229.954 80.6546C229.858 79.7359 229.035 79.0693 228.116 79.1659L80.0548 94.7277C79.136 94.8243 78.4695 95.6474 78.566 96.5662L94.1279 244.627Z" fill="#A8E063"/>
<path opacity="0.494949" fill-rule="evenodd" clip-rule="evenodd" d="M80.9579 96.0175L93.7876 242.661C93.852 243.397 94.5011 243.942 95.2373 243.878L241.881 231.048C242.617 230.984 243.162 230.334 243.097 229.598L230.268 82.9546C230.203 82.2183 229.554 81.6737 228.818 81.7381L82.1744 94.5678C81.4382 94.6322 80.8935 95.2813 80.9579 96.0175ZM93.4543 242.69C93.5348 243.611 94.3462 244.291 95.2665 244.211L241.91 231.381C242.83 231.301 243.511 230.489 243.431 229.569L230.601 82.9254C230.521 82.0051 229.709 81.3243 228.789 81.4048L82.1453 94.2345C81.2249 94.315 80.5441 95.1263 80.6247 96.0467L93.4543 242.69Z" fill="#A8E063"/>
<path opacity="0.50505" fill-rule="evenodd" clip-rule="evenodd" d="M83.0158 95.5563L93.1675 240.733C93.219 241.47 93.8585 242.026 94.5958 241.974L239.772 231.823C240.51 231.771 241.065 231.132 241.014 230.394L230.862 85.2179C230.811 84.4806 230.171 83.9247 229.434 83.9762L84.2574 94.128C83.5201 94.1795 82.9642 94.819 83.0158 95.5563ZM92.8338 240.756C92.8982 241.678 93.6975 242.373 94.6191 242.308L239.796 232.156C240.717 232.092 241.412 231.293 241.348 230.371L231.196 85.1945C231.131 84.2729 230.332 83.5781 229.411 83.6425L84.234 93.7942C83.3124 93.8587 82.6176 94.658 82.682 95.5796L92.8338 240.756Z" fill="#A8E063"/>
<path opacity="0.515152" fill-rule="evenodd" clip-rule="evenodd" d="M85.0731 95.1463L92.602 238.807C92.6407 239.545 93.2704 240.112 94.0084 240.074L237.67 232.545C238.408 232.506 238.975 231.876 238.936 231.138L231.407 87.4773C231.368 86.7392 230.739 86.1723 230 86.2109L86.3394 93.7399C85.6013 93.7786 85.0344 94.4082 85.0731 95.1463ZM92.2679 238.825C92.3163 239.747 93.1034 240.456 94.0259 240.408L237.687 232.879C238.61 232.831 239.318 232.043 239.27 231.121L231.741 87.4598C231.693 86.5372 230.906 85.8285 229.983 85.8769L86.3219 93.4058C85.3993 93.4542 84.6906 94.2412 84.739 95.1638L92.2679 238.825Z" fill="#A8E063"/>
<path opacity="0.525253" fill-rule="evenodd" clip-rule="evenodd" d="M87.1224 94.7881L92.0846 236.887C92.1104 237.626 92.73 238.203 93.4687 238.178L235.567 233.215C236.306 233.19 236.884 232.57 236.858 231.831L231.896 89.7325C231.87 88.9938 231.251 88.416 230.512 88.4417L88.4131 93.4039C87.6744 93.4297 87.0966 94.0494 87.1224 94.7881ZM91.7502 236.899C91.7825 237.822 92.5571 238.544 93.4803 238.512L235.579 233.55C236.502 233.517 237.225 232.743 237.193 231.82L232.23 89.7208C232.198 88.7975 231.423 88.0752 230.5 88.1074L88.4014 93.0696C87.4781 93.1018 86.7558 93.8765 86.788 94.7997L91.7502 236.899Z" fill="#A8E063"/>
<path opacity="0.535354" fill-rule="evenodd" clip-rule="evenodd" d="M89.1697 94.481L91.622 234.972C91.6349 235.711 92.2444 236.3 92.9833 236.287L233.475 233.835C234.214 233.822 234.802 233.212 234.789 232.473L232.337 91.982C232.324 91.243 231.715 90.6545 230.976 90.6674L90.4843 93.1196C89.7454 93.1325 89.1568 93.742 89.1697 94.481ZM91.2875 234.978C91.3036 235.902 92.0655 236.638 92.9892 236.621L233.48 234.169C234.404 234.153 235.14 233.391 235.124 232.467L232.671 91.9762C232.655 91.0525 231.893 90.3167 230.97 90.3329L90.4785 92.7851C89.5548 92.8013 88.8191 93.5631 88.8352 94.4868L91.2875 234.978Z" fill="#A8E063"/>
<path opacity="0.545455" fill-rule="evenodd" clip-rule="evenodd" d="M91.2118 94.2246V233.065C91.2118 233.804 91.8109 234.403 92.55 234.403H231.39C232.129 234.403 232.728 233.804 232.728 233.065V94.2246C232.728 93.4855 232.129 92.8864 231.39 92.8864H92.55C91.8109 92.8864 91.2118 93.4855 91.2118 94.2246ZM90.8772 233.065C90.8772 233.988 91.6261 234.737 92.55 234.737H231.39C232.314 234.737 233.063 233.988 233.063 233.065V94.2246C233.063 93.3008 232.314 92.5519 231.39 92.5519H92.55C91.6261 92.5519 90.8772 93.3008 90.8772 94.2246V233.065Z" fill="#A8E063"/>
<path opacity="0.555556" fill-rule="evenodd" clip-rule="evenodd" d="M93.2412 94.0177L90.8473 231.164C90.8344 231.903 91.423 232.512 92.162 232.525L229.308 234.919C230.047 234.932 230.657 234.343 230.67 233.604L233.063 96.4583C233.076 95.7193 232.488 95.1098 231.749 95.0969L94.6026 92.703C93.8636 92.6901 93.2541 93.2787 93.2412 94.0177ZM90.5128 231.158C90.4967 232.082 91.2325 232.844 92.1562 232.86L229.302 235.254C230.226 235.27 230.988 234.534 231.004 233.61L233.398 96.4641C233.414 95.5404 232.678 94.7785 231.755 94.7624L94.6084 92.3685C93.6847 92.3524 92.9229 93.0881 92.9067 94.0118L90.5128 231.158Z" fill="#A8E063"/>
<path opacity="0.565657" fill-rule="evenodd" clip-rule="evenodd" d="M95.2664 93.8617L90.5377 229.274C90.512 230.012 91.0898 230.632 91.8284 230.658L227.24 235.386C227.979 235.412 228.599 234.834 228.624 234.096L233.353 98.6838C233.379 97.9451 232.801 97.3255 232.062 97.2997L96.6505 92.571C95.9119 92.5452 95.2922 93.123 95.2664 93.8617ZM90.2034 229.262C90.1712 230.185 90.8935 230.96 91.8168 230.992L227.229 235.721C228.152 235.753 228.927 235.031 228.959 234.107L233.687 98.6954C233.72 97.7722 232.997 96.9975 232.074 96.9653L96.6622 92.2366C95.7389 92.2044 94.9643 92.9267 94.9321 93.85L90.2034 229.262Z" fill="#A8E063"/>
<path opacity="0.575758" fill-rule="evenodd" clip-rule="evenodd" d="M97.2798 93.7552L90.2761 227.393C90.2375 228.131 90.8044 228.761 91.5425 228.8L225.181 235.804C225.919 235.842 226.548 235.275 226.587 234.537L233.591 100.899C233.629 100.161 233.063 99.5312 232.324 99.4925L98.6862 92.4889C97.9482 92.4502 97.3185 93.0171 97.2798 93.7552ZM89.942 227.376C89.8937 228.298 90.6024 229.086 91.525 229.134L225.163 236.138C226.086 236.186 226.873 235.477 226.921 234.555L233.925 100.916C233.973 99.9939 233.265 99.2068 232.342 99.1585L98.7037 92.1548C97.7812 92.1064 96.9941 92.8151 96.9457 93.7377L89.942 227.376Z" fill="#A8E063"/>
<path opacity="0.585859" fill-rule="evenodd" clip-rule="evenodd" d="M99.2829 93.6974L90.0647 225.524C90.0131 226.262 90.569 226.901 91.3063 226.953L223.133 236.171C223.87 236.222 224.51 235.667 224.562 234.929L233.78 103.102C233.831 102.365 233.275 101.726 232.538 101.674L100.711 92.4558C99.974 92.4042 99.3345 92.9601 99.2829 93.6974ZM89.7309 225.501C89.6665 226.423 90.3614 227.222 91.283 227.286L223.11 236.505C224.031 236.569 224.831 235.874 224.895 234.953L234.113 103.126C234.178 102.204 233.483 101.405 232.561 101.34L100.735 92.122C99.813 92.0576 99.0136 92.7525 98.9492 93.6741L89.7309 225.501Z" fill="#A8E063"/>
<path opacity="0.59596" fill-rule="evenodd" clip-rule="evenodd" d="M101.273 93.6879L89.9012 223.667C89.8368 224.404 90.3814 225.053 91.1177 225.117L221.097 236.489C221.834 236.553 222.483 236.009 222.547 235.272L233.919 105.293C233.983 104.557 233.439 103.908 232.702 103.843L102.723 92.4714C101.986 92.407 101.337 92.9516 101.273 93.6879ZM89.5679 223.638C89.4874 224.559 90.1682 225.37 91.0885 225.45L221.068 236.822C221.988 236.903 222.8 236.222 222.88 235.302L234.252 105.322C234.333 104.402 233.652 103.59 232.731 103.51L102.752 92.1381C101.832 92.0576 101.02 92.7384 100.94 93.6587L89.5679 223.638Z" fill="#A8E063"/>
<path opacity="0.606061" fill-rule="evenodd" clip-rule="evenodd" d="M103.249 93.7273L89.7854 221.825C89.7082 222.56 90.2414 223.218 90.9764 223.296L219.074 236.759C219.809 236.837 220.468 236.303 220.545 235.568L234.009 107.471C234.086 106.736 233.553 106.077 232.817 106L104.72 92.5363C103.985 92.459 103.326 92.9922 103.249 93.7273ZM89.4527 221.79C89.3561 222.709 90.0227 223.532 90.9414 223.628L219.039 237.092C219.958 237.189 220.781 236.522 220.878 235.603L234.341 107.506C234.438 106.587 233.771 105.764 232.852 105.667L104.755 92.2035C103.836 92.107 103.013 92.7735 102.916 93.6923L89.4527 221.79Z" fill="#A8E063"/>
<path opacity="0.616162" fill-rule="evenodd" clip-rule="evenodd" d="M105.211 93.8138L89.7176 219.997C89.6275 220.73 90.1491 221.398 90.8827 221.488L217.066 236.981C217.799 237.071 218.467 236.55 218.557 235.816L234.05 109.633C234.14 108.9 233.619 108.232 232.885 108.142L106.702 92.6486C105.969 92.5586 105.301 93.0802 105.211 93.8138ZM89.3855 219.956C89.2729 220.873 89.925 221.707 90.8419 221.82L217.025 237.313C217.942 237.426 218.776 236.774 218.889 235.857L234.382 109.674C234.495 108.757 233.843 107.922 232.926 107.81L106.743 92.3166C105.826 92.204 104.991 92.856 104.879 93.773L89.3855 219.956Z" fill="#A8E063"/>
<path opacity="0.626263" fill-rule="evenodd" clip-rule="evenodd" d="M107.16 93.9477L89.7001 218.185C89.5972 218.916 90.1072 219.593 90.839 219.696L215.076 237.156C215.808 237.259 216.484 236.749 216.587 236.017L234.048 111.781C234.15 111.049 233.641 110.372 232.909 110.269L108.672 92.8087C107.94 92.7059 107.263 93.2158 107.16 93.9477ZM89.3688 218.138C89.2402 219.053 89.8776 219.899 90.7925 220.027L215.029 237.488C215.944 237.616 216.79 236.979 216.919 236.064L234.379 111.827C234.507 110.912 233.87 110.066 232.955 109.938L108.718 92.4775C107.804 92.3489 106.958 92.9863 106.829 93.9011L89.3688 218.138Z" fill="#A8E063"/>
<path opacity="0.636364" fill-rule="evenodd" clip-rule="evenodd" d="M109.092 94.1282L89.7281 216.389C89.6125 217.119 90.1105 217.805 90.8405 217.92L213.101 237.284C213.831 237.4 214.517 236.902 214.633 236.172L233.997 113.911C234.112 113.181 233.614 112.496 232.884 112.38L110.623 93.0158C109.893 92.9002 109.208 93.3982 109.092 94.1282ZM89.3977 216.337C89.2531 217.249 89.8757 218.106 90.7882 218.251L213.049 237.615C213.962 237.759 214.818 237.137 214.963 236.224L234.327 113.963C234.472 113.051 233.849 112.194 232.937 112.05L110.676 92.6854C109.763 92.5408 108.906 93.1634 108.762 94.0758L89.3977 216.337Z" fill="#A8E063"/>
<path opacity="0.646465" fill-rule="evenodd" clip-rule="evenodd" d="M111.004 94.3539L89.7994 214.611C89.671 215.339 90.157 216.033 90.8849 216.161L211.142 237.366C211.87 237.494 212.564 237.008 212.692 236.28L233.897 116.023C234.025 115.295 233.539 114.601 232.811 114.473L112.554 93.2684C111.826 93.14 111.132 93.626 111.004 94.3539ZM89.4699 214.553C89.3095 215.463 89.917 216.33 90.8268 216.491L211.084 237.695C211.994 237.856 212.861 237.248 213.022 236.338L234.226 116.081C234.387 115.171 233.779 114.304 232.869 114.143L112.612 92.9389C111.703 92.7785 110.835 93.386 110.674 94.2958L89.4699 214.553Z" fill="#A8E063"/>
<path opacity="0.656566" fill-rule="evenodd" clip-rule="evenodd" d="M112.902 94.6253L89.9208 212.852C89.7798 213.577 90.2536 214.28 90.9791 214.421L209.206 237.402C209.931 237.543 210.634 237.069 210.775 236.344L233.756 118.117C233.897 117.391 233.423 116.689 232.697 116.548L114.471 93.5671C113.745 93.426 113.043 93.8998 112.902 94.6253ZM89.5924 212.788C89.4161 213.695 90.0084 214.573 90.9152 214.749L209.142 237.73C210.049 237.907 210.927 237.314 211.103 236.407L234.084 118.181C234.26 117.274 233.668 116.396 232.761 116.22L114.535 93.2386C113.628 93.0624 112.75 93.6546 112.573 94.5615L89.5924 212.788Z" fill="#A8E063"/>
<path opacity="0.666667" fill-rule="evenodd" clip-rule="evenodd" d="M114.779 94.9412L90.0857 211.113C89.932 211.835 90.3935 212.546 91.1164 212.7L207.288 237.393C208.011 237.546 208.721 237.085 208.875 236.362L233.568 120.191C233.722 119.468 233.26 118.757 232.537 118.603L116.366 93.9105C115.643 93.7568 114.932 94.2183 114.779 94.9412ZM89.7584 211.043C89.5664 211.947 90.1432 212.835 91.0469 213.027L207.218 237.72C208.122 237.912 209.01 237.335 209.202 236.432L233.895 120.26C234.087 119.357 233.51 118.468 232.607 118.276L116.435 93.5832C115.532 93.3911 114.643 93.968 114.451 94.8716L89.7584 211.043Z" fill="#A8E063"/>
<path opacity="0.676768" fill-rule="evenodd" clip-rule="evenodd" d="M116.634 95.3008L90.2936 209.394C90.1273 210.114 90.5763 210.832 91.2965 210.999L205.389 237.339C206.109 237.505 206.828 237.056 206.994 236.336L233.335 122.243C233.501 121.523 233.052 120.805 232.332 120.638L118.239 94.2979C117.519 94.1317 116.8 94.5807 116.634 95.3008ZM89.9676 209.318C89.7598 210.219 90.321 211.117 91.2212 211.325L205.314 237.665C206.214 237.873 207.112 237.311 207.32 236.411L233.661 122.319C233.868 121.418 233.307 120.52 232.407 120.312L118.314 93.9719C117.414 93.7641 116.516 94.3254 116.308 95.2256L89.9676 209.318Z" fill="#A8E063"/>
<path opacity="0.686869" fill-rule="evenodd" clip-rule="evenodd" d="M118.47 95.7042L90.5472 207.697C90.3684 208.414 90.8048 209.14 91.5219 209.319L203.515 237.242C204.232 237.421 204.958 236.984 205.137 236.267L233.06 124.275C233.238 123.558 232.802 122.831 232.085 122.652L120.092 94.7295C119.375 94.5507 118.649 94.9871 118.47 95.7042ZM90.2226 207.616C89.9991 208.512 90.5446 209.42 91.441 209.644L203.434 237.567C204.33 237.79 205.238 237.245 205.461 236.348L233.384 124.356C233.608 123.459 233.062 122.551 232.166 122.328L120.173 94.4049C119.277 94.1814 118.369 94.7269 118.145 95.6233L90.2226 207.616Z" fill="#A8E063"/>
<path opacity="0.69697" fill-rule="evenodd" clip-rule="evenodd" d="M120.282 96.1511L90.8418 206.024C90.6505 206.737 91.0742 207.471 91.7881 207.663L201.661 237.103C202.374 237.294 203.108 236.87 203.3 236.157L232.74 126.284C232.931 125.57 232.507 124.836 231.793 124.645L121.921 95.2048C121.207 95.0135 120.473 95.4372 120.282 96.1511ZM90.5186 205.937C90.2795 206.829 90.8091 207.747 91.7015 207.986L201.574 237.426C202.466 237.665 203.384 237.135 203.623 236.243L233.063 126.371C233.302 125.478 232.772 124.561 231.88 124.322L122.008 94.8816C121.115 94.6425 120.198 95.1721 119.959 96.0645L90.5186 205.937Z" fill="#A8E063"/>
<path opacity="0.707071" fill-rule="evenodd" clip-rule="evenodd" d="M122.072 96.6389L91.1794 204.373C90.9757 205.083 91.3865 205.824 92.0969 206.028L199.831 236.92C200.541 237.124 201.282 236.713 201.486 236.003L232.378 128.269C232.582 127.558 232.171 126.817 231.461 126.614L123.727 95.7214C123.016 95.5177 122.275 95.9285 122.072 96.6389ZM90.8578 204.281C90.6032 205.169 91.1166 206.095 92.0047 206.35L199.739 237.242C200.627 237.497 201.553 236.983 201.808 236.095L232.7 128.361C232.955 127.473 232.441 126.547 231.553 126.292L123.819 95.3998C122.931 95.1452 122.005 95.6587 121.75 96.5467L90.8578 204.281Z" fill="#A8E063"/>
<path opacity="0.717172" fill-rule="evenodd" clip-rule="evenodd" d="M123.837 97.1679L91.5583 202.747C91.3422 203.453 91.74 204.202 92.4468 204.418L198.026 236.696C198.732 236.912 199.48 236.515 199.697 235.808L231.975 130.229C232.191 129.522 231.793 128.774 231.087 128.558L125.508 96.2794C124.801 96.0634 124.053 96.4611 123.837 97.1679ZM91.2383 202.649C90.9682 203.532 91.4655 204.468 92.3489 204.738L197.928 237.016C198.811 237.286 199.746 236.789 200.016 235.906L232.295 130.327C232.565 129.443 232.068 128.508 231.184 128.238L125.606 95.9595C124.722 95.6894 123.787 96.1866 123.517 97.0701L91.2383 202.649Z" fill="#A8E063"/>
<path opacity="0.727273" fill-rule="evenodd" clip-rule="evenodd" d="M125.577 97.7376L91.9779 201.146C91.7495 201.849 92.1342 202.604 92.8371 202.832L196.246 236.432C196.948 236.66 197.703 236.275 197.932 235.573L231.531 132.164C231.76 131.461 231.375 130.706 230.672 130.478L127.264 96.8784C126.561 96.65 125.806 97.0347 125.577 97.7376ZM91.6597 201.043C91.3743 201.921 91.8551 202.865 92.7337 203.15L196.142 236.75C197.021 237.035 197.964 236.555 198.25 235.676L231.849 132.267C232.135 131.389 231.654 130.445 230.775 130.16L127.367 96.5602C126.488 96.2748 125.545 96.7556 125.259 97.6342L91.6597 201.043Z" fill="#A8E063"/>
<path opacity="0.737374" fill-rule="evenodd" clip-rule="evenodd" d="M127.293 98.347L92.4383 199.572C92.1977 200.271 92.5691 201.032 93.2679 201.273L194.493 236.127C195.191 236.368 195.953 235.996 196.194 235.298L231.048 134.073C231.289 133.374 230.917 132.612 230.218 132.372L128.994 97.5174C128.295 97.2768 127.533 97.6482 127.293 98.347ZM92.122 199.463C91.8212 200.336 92.2855 201.288 93.159 201.589L194.384 236.443C195.257 236.744 196.209 236.28 196.51 235.406L231.364 134.182C231.665 133.308 231.201 132.356 230.327 132.056L129.103 97.2011C128.229 96.9003 127.277 97.3646 126.976 98.2381L92.122 199.463Z" fill="#A8E063"/>
<path opacity="0.747475" fill-rule="evenodd" clip-rule="evenodd" d="M128.981 98.9957L92.9375 198.025C92.6847 198.719 93.0428 199.487 93.7373 199.74L192.766 235.784C193.461 236.036 194.229 235.678 194.482 234.984L230.525 135.955C230.778 135.26 230.42 134.492 229.725 134.239L130.696 98.1958C130.002 97.9431 129.234 98.3012 128.981 98.9957ZM92.6231 197.91C92.3072 198.778 92.7548 199.738 93.6229 200.054L192.652 236.098C193.52 236.414 194.48 235.966 194.796 235.098L230.84 136.069C231.156 135.201 230.708 134.241 229.84 133.925L130.811 97.8815C129.943 97.5655 128.983 98.0131 128.667 98.8812L92.6231 197.91Z" fill="#A8E063"/>
<path opacity="0.757576" fill-rule="evenodd" clip-rule="evenodd" d="M130.64 99.6825L93.4731 196.506C93.2082 197.196 93.5529 197.97 94.2428 198.235L191.066 235.402C191.756 235.666 192.53 235.322 192.795 234.632L229.962 137.809C230.227 137.119 229.882 136.345 229.192 136.08L132.369 98.9127C131.679 98.6479 130.905 98.9925 130.64 99.6825ZM93.1607 196.386C92.8297 197.248 93.2605 198.216 94.1229 198.547L190.946 235.714C191.809 236.045 192.776 235.614 193.107 234.752L230.274 137.928C230.605 137.066 230.175 136.098 229.312 135.767L132.489 98.6004C131.626 98.2693 130.659 98.7001 130.328 99.5626L93.1607 196.386Z" fill="#A8E063"/>
<path opacity="0.767677" fill-rule="evenodd" clip-rule="evenodd" d="M132.272 100.407L94.0474 195.016C93.7706 195.701 94.1016 196.481 94.7869 196.758L189.396 234.982C190.081 235.259 190.861 234.928 191.138 234.243L229.362 139.634C229.639 138.948 229.308 138.169 228.623 137.892L134.014 99.6672C133.329 99.3903 132.549 99.7214 132.272 100.407ZM93.7372 194.89C93.3911 195.747 93.805 196.722 94.6616 197.068L189.27 235.292C190.127 235.638 191.102 235.225 191.448 234.368L229.673 139.759C230.019 138.902 229.605 137.928 228.748 137.581L134.139 99.357C133.283 99.0109 132.308 99.4247 131.962 100.281L93.7372 194.89Z" fill="#A8E063"/>
<path opacity="0.777778" fill-rule="evenodd" clip-rule="evenodd" d="M133.879 101.167L94.6625 193.555C94.3737 194.235 94.6911 195.02 95.3714 195.309L187.759 234.525C188.439 234.814 189.225 234.497 189.514 233.817L228.73 141.429C229.019 140.749 228.701 139.963 228.021 139.674L135.633 100.458C134.953 100.169 134.167 100.487 133.879 101.167ZM94.3545 193.424C93.9936 194.274 94.3903 195.256 95.2407 195.617L187.628 234.833C188.479 235.194 189.461 234.798 189.822 233.947L229.038 141.56C229.399 140.709 229.002 139.727 228.152 139.366L135.764 100.15C134.914 99.7891 133.932 100.186 133.571 101.036L94.3545 193.424Z" fill="#A8E063"/>
<path opacity="0.787879" fill-rule="evenodd" clip-rule="evenodd" d="M135.451 101.963L95.3092 192.124C95.0086 192.799 95.3123 193.59 95.9875 193.891L186.148 234.033C186.824 234.334 187.615 234.03 187.915 233.355L228.057 143.194C228.358 142.519 228.054 141.728 227.379 141.427L137.218 101.285C136.543 100.985 135.752 101.288 135.451 101.963ZM95.0036 191.988C94.6279 192.832 95.0074 193.821 95.8514 194.197L186.012 234.339C186.856 234.715 187.845 234.335 188.221 233.491L228.363 143.33C228.739 142.486 228.359 141.497 227.515 141.122L137.354 100.979C136.51 100.604 135.522 100.983 135.146 101.827L95.0036 191.988Z" fill="#A8E063"/>
<path opacity="0.79798" fill-rule="evenodd" clip-rule="evenodd" d="M136.995 102.794L95.9923 190.725C95.68 191.395 95.9698 192.191 96.6396 192.503L184.57 233.506C185.24 233.818 186.036 233.529 186.349 232.859L227.351 144.928C227.664 144.258 227.374 143.462 226.704 143.15L138.773 102.147C138.104 101.835 137.307 102.125 136.995 102.794ZM95.6891 190.584C95.2987 191.421 95.6609 192.416 96.4982 192.807L184.429 233.809C185.266 234.2 186.261 233.837 186.652 233L227.654 145.07C228.045 144.232 227.683 143.237 226.845 142.847L138.915 101.844C138.078 101.453 137.082 101.816 136.692 102.653L95.6891 190.584Z" fill="#A8E063"/>
<path opacity="0.808081" fill-rule="evenodd" clip-rule="evenodd" d="M138.505 103.66L96.7073 189.358C96.3833 190.022 96.6592 190.823 97.3235 191.147L183.022 232.945C183.686 233.269 184.487 232.993 184.811 232.329L226.609 146.631C226.933 145.966 226.657 145.165 225.993 144.841L140.295 103.044C139.63 102.72 138.829 102.995 138.505 103.66ZM96.4066 189.211C96.0016 190.041 96.3465 191.043 97.1768 191.448L182.875 233.246C183.705 233.651 184.707 233.306 185.112 232.475L226.909 146.777C227.314 145.947 226.97 144.946 226.139 144.541L140.441 102.743C139.611 102.338 138.609 102.683 138.204 103.513L96.4066 189.211Z" fill="#A8E063"/>
<path opacity="0.818182" fill-rule="evenodd" clip-rule="evenodd" d="M139.986 104.556L97.4584 188.021C97.1229 188.68 97.3847 189.486 98.0432 189.821L181.508 232.349C182.167 232.684 182.973 232.423 183.308 231.764L225.836 148.299C226.171 147.64 225.91 146.834 225.251 146.499L141.786 103.971C141.127 103.636 140.322 103.898 139.986 104.556ZM97.1603 187.869C96.7409 188.693 97.0682 189.7 97.8913 190.119L181.356 232.647C182.18 233.066 183.187 232.739 183.606 231.916L226.134 148.451C226.553 147.628 226.226 146.62 225.403 146.201L141.938 103.673C141.115 103.254 140.107 103.581 139.688 104.404L97.1603 187.869Z" fill="#A8E063"/>
<path opacity="0.828283" fill-rule="evenodd" clip-rule="evenodd" d="M141.434 105.487L98.2414 186.72C97.8944 187.373 98.1421 188.183 98.7947 188.53L180.028 231.723C180.681 232.07 181.491 231.822 181.838 231.169L225.03 149.936C225.377 149.284 225.13 148.473 224.477 148.126L143.244 104.934C142.591 104.587 141.781 104.835 141.434 105.487ZM97.946 186.563C97.5122 187.379 97.8219 188.392 98.6376 188.826L179.871 232.018C180.687 232.452 181.699 232.142 182.133 231.326L225.326 150.093C225.759 149.277 225.45 148.265 224.634 147.831L143.401 104.638C142.585 104.205 141.572 104.514 141.138 105.33L97.946 186.563Z" fill="#A8E063"/>
<path opacity="0.838384" fill-rule="evenodd" clip-rule="evenodd" d="M142.849 106.448L99.056 185.452C98.6977 186.099 98.9312 186.913 99.5776 187.272L178.582 231.064C179.228 231.423 180.043 231.189 180.401 230.543L224.194 151.539C224.552 150.892 224.318 150.078 223.672 149.719L144.668 105.927C144.021 105.568 143.207 105.802 142.849 106.448ZM98.7634 185.29C98.3155 186.098 98.6074 187.116 99.4154 187.564L178.419 231.357C179.227 231.805 180.246 231.513 180.693 230.705L224.486 151.701C224.934 150.893 224.642 149.875 223.834 149.427L144.83 105.634C144.022 105.186 143.004 105.478 142.556 106.286L98.7634 185.29Z" fill="#A8E063"/>
<path opacity="0.848485" fill-rule="evenodd" clip-rule="evenodd" d="M144.228 107.44L99.8998 184.219C99.5303 184.859 99.7496 185.678 100.39 186.047L177.169 230.376C177.809 230.745 178.627 230.526 178.997 229.886L223.325 153.107C223.695 152.467 223.475 151.648 222.835 151.279L146.056 106.95C145.416 106.581 144.598 106.8 144.228 107.44ZM99.6101 184.052C99.1481 184.852 99.4223 185.875 100.222 186.337L177.001 230.665C177.801 231.127 178.825 230.853 179.286 230.053L223.615 153.274C224.077 152.474 223.803 151.451 223.003 150.989L146.224 106.66C145.423 106.199 144.4 106.473 143.938 107.273L99.6101 184.052Z" fill="#A8E063"/>
<path opacity="0.858586" fill-rule="evenodd" clip-rule="evenodd" d="M145.573 108.461L100.773 183.02C100.393 183.654 100.598 184.476 101.231 184.857L175.791 229.657C176.425 230.038 177.247 229.833 177.627 229.199L222.427 154.639C222.808 154.006 222.603 153.183 221.97 152.803L147.41 108.003C146.776 107.622 145.954 107.827 145.573 108.461ZM100.487 182.848C100.011 183.64 100.267 184.668 101.059 185.144L175.619 229.944C176.411 230.419 177.438 230.163 177.914 229.371L222.714 154.811C223.19 154.02 222.934 152.992 222.142 152.516L147.582 107.716C146.79 107.24 145.762 107.496 145.287 108.288L100.487 182.848Z" fill="#A8E063"/>
<path opacity="0.868687" fill-rule="evenodd" clip-rule="evenodd" d="M146.884 109.51L101.676 181.858C101.284 182.485 101.475 183.311 102.102 183.702L174.45 228.91C175.077 229.302 175.902 229.111 176.294 228.485L221.502 156.137C221.894 155.51 221.703 154.684 221.076 154.293L148.728 109.085C148.101 108.693 147.276 108.883 146.884 109.51ZM101.392 181.681C100.903 182.464 101.141 183.496 101.924 183.986L174.273 229.194C175.056 229.684 176.088 229.445 176.578 228.662L221.786 156.314C222.275 155.53 222.037 154.498 221.253 154.009L148.905 108.801C148.122 108.311 147.09 108.549 146.6 109.333L101.392 181.681Z" fill="#A8E063"/>
<path opacity="0.878788" fill-rule="evenodd" clip-rule="evenodd" d="M148.157 110.587L102.604 180.732C102.201 181.352 102.377 182.181 102.997 182.583L173.142 228.136C173.762 228.538 174.591 228.362 174.994 227.742L220.546 157.597C220.949 156.977 220.773 156.149 220.153 155.746L150.008 110.193C149.388 109.791 148.559 109.967 148.157 110.587ZM102.323 180.55C101.82 181.325 102.04 182.361 102.815 182.864L172.96 228.416C173.735 228.92 174.771 228.699 175.274 227.925L220.827 157.779C221.33 157.005 221.11 155.969 220.335 155.466L150.19 109.913C149.415 109.41 148.379 109.63 147.876 110.405L102.323 180.55Z" fill="#A8E063"/>
<path opacity="0.888889" fill-rule="evenodd" clip-rule="evenodd" d="M149.395 111.689L103.561 179.642C103.147 180.255 103.309 181.087 103.922 181.5L171.874 227.335C172.487 227.748 173.319 227.586 173.732 226.973L219.567 159.021C219.98 158.408 219.818 157.576 219.206 157.163L151.253 111.328C150.64 110.915 149.809 111.077 149.395 111.689ZM103.283 179.455C102.767 180.221 102.969 181.261 103.735 181.777L171.687 227.612C172.453 228.128 173.493 227.926 174.01 227.16L219.844 159.208C220.361 158.442 220.159 157.402 219.393 156.886L151.44 111.051C150.674 110.534 149.635 110.736 149.118 111.502L103.283 179.455Z" fill="#A8E063"/>
<path opacity="0.89899" fill-rule="evenodd" clip-rule="evenodd" d="M150.597 112.818L104.542 178.59C104.118 179.196 104.266 180.03 104.871 180.454L170.643 226.508C171.249 226.932 172.083 226.785 172.507 226.179L218.561 160.407C218.985 159.802 218.838 158.967 218.232 158.544L152.46 112.489C151.855 112.066 151.02 112.213 150.597 112.818ZM104.268 178.398C103.738 179.155 103.922 180.198 104.679 180.728L170.451 226.782C171.208 227.312 172.251 227.128 172.781 226.371L218.835 160.599C219.365 159.842 219.181 158.799 218.424 158.27L152.652 112.215C151.895 111.685 150.852 111.869 150.322 112.626L104.268 178.398Z" fill="#A8E063"/>
<path opacity="0.909091" fill-rule="evenodd" clip-rule="evenodd" d="M151.761 113.971L105.549 177.577C105.115 178.174 105.247 179.011 105.845 179.446L169.45 225.658C170.048 226.092 170.885 225.959 171.319 225.361L217.531 161.756C217.966 161.158 217.833 160.322 217.235 159.887L153.63 113.675C153.032 113.241 152.195 113.374 151.761 113.971ZM105.278 177.38C104.735 178.127 104.901 179.173 105.648 179.716L169.254 225.928C170.001 226.471 171.047 226.306 171.59 225.558L217.802 161.953C218.345 161.206 218.179 160.16 217.432 159.616L153.827 113.405C153.079 112.862 152.033 113.027 151.49 113.775L105.278 177.38Z" fill="#A8E063"/>
<path opacity="0.919192" fill-rule="evenodd" clip-rule="evenodd" d="M152.888 115.148L106.58 176.601C106.135 177.191 106.253 178.03 106.844 178.475L168.297 224.783C168.887 225.228 169.726 225.11 170.171 224.52L216.479 163.067C216.924 162.477 216.806 161.638 216.215 161.193L154.763 114.885C154.172 114.44 153.333 114.558 152.888 115.148ZM106.313 176.4C105.757 177.137 105.905 178.186 106.642 178.742L168.095 225.05C168.833 225.606 169.882 225.459 170.438 224.721L216.746 163.268C217.302 162.53 217.155 161.482 216.417 160.926L154.964 114.617C154.226 114.062 153.177 114.209 152.621 114.947L106.313 176.4Z" fill="#A8E063"/>
<path opacity="0.929293" fill-rule="evenodd" clip-rule="evenodd" d="M153.976 116.346L107.632 175.663C107.177 176.246 107.28 177.087 107.863 177.542L167.18 223.886C167.762 224.341 168.603 224.237 169.058 223.655L215.402 164.338C215.857 163.755 215.754 162.914 215.171 162.459L155.854 116.116C155.272 115.661 154.431 115.764 153.976 116.346ZM107.368 175.457C106.799 176.185 106.929 177.237 107.657 177.805L166.974 224.149C167.702 224.718 168.753 224.589 169.322 223.861L215.666 164.544C216.234 163.816 216.105 162.764 215.377 162.196L156.06 115.852C155.332 115.283 154.281 115.412 153.712 116.14L107.368 175.457Z" fill="#A8E063"/>
<path opacity="0.939394" fill-rule="evenodd" clip-rule="evenodd" d="M155.025 117.567L108.706 174.766C108.241 175.341 108.329 176.183 108.904 176.648L166.103 222.968C166.678 223.433 167.52 223.344 167.985 222.77L214.305 165.57C214.77 164.996 214.681 164.153 214.107 163.688L156.907 117.369C156.333 116.904 155.49 116.992 155.025 117.567ZM108.446 174.556C107.865 175.274 107.975 176.327 108.693 176.908L165.893 223.228C166.611 223.809 167.664 223.698 168.245 222.98L214.565 165.781C215.146 165.063 215.035 164.01 214.317 163.428L157.118 117.109C156.4 116.528 155.347 116.638 154.765 117.356L108.446 174.556Z" fill="#A8E063"/>
<path opacity="0.949495" fill-rule="evenodd" clip-rule="evenodd" d="M156.035 118.807L109.8 173.908C109.325 174.474 109.399 175.318 109.965 175.793L165.066 222.028C165.632 222.504 166.476 222.43 166.951 221.864L213.187 166.763C213.662 166.196 213.588 165.352 213.022 164.877L157.921 118.642C157.355 118.167 156.51 118.241 156.035 118.807ZM109.544 173.693C108.95 174.401 109.042 175.456 109.75 176.05L164.851 222.285C165.559 222.879 166.614 222.786 167.208 222.079L213.443 166.978C214.037 166.27 213.944 165.215 213.237 164.621L158.136 118.386C157.428 117.792 156.373 117.884 155.779 118.592L109.544 173.693Z" fill="#A8E063"/>
<path opacity="0.959596" fill-rule="evenodd" clip-rule="evenodd" d="M157.005 120.067L110.912 173.09C110.428 173.648 110.487 174.493 111.044 174.978L164.068 221.07C164.625 221.555 165.471 221.496 165.955 220.938L212.048 167.915C212.533 167.357 212.474 166.512 211.916 166.027L158.893 119.935C158.335 119.45 157.49 119.509 157.005 120.067ZM110.66 172.87C110.054 173.568 110.128 174.624 110.825 175.23L163.848 221.323C164.545 221.929 165.602 221.855 166.208 221.158L212.3 168.134C212.906 167.437 212.833 166.381 212.135 165.775L159.112 119.682C158.415 119.076 157.358 119.15 156.752 119.847L110.66 172.87Z" fill="#A8E063"/>
<path opacity="0.969697" fill-rule="evenodd" clip-rule="evenodd" d="M157.936 121.345L112.045 172.313C111.55 172.862 111.594 173.708 112.144 174.203L163.111 220.094C163.66 220.589 164.507 220.544 165.001 219.995L210.893 169.027C211.387 168.478 211.343 167.632 210.794 167.138L159.826 121.246C159.277 120.752 158.431 120.796 157.936 121.345ZM111.796 172.089C111.178 172.775 111.233 173.833 111.92 174.451L162.887 220.343C163.574 220.961 164.632 220.905 165.25 220.219L211.141 169.251C211.759 168.565 211.704 167.507 211.017 166.889L160.05 120.998C159.363 120.379 158.306 120.435 157.687 121.121L111.796 172.089Z" fill="#A8E063"/>
<path opacity="0.979798" fill-rule="evenodd" clip-rule="evenodd" d="M158.828 122.64L113.195 171.575C112.691 172.116 112.72 172.963 113.261 173.467L162.196 219.1C162.737 219.604 163.584 219.574 164.088 219.034L209.721 170.098C210.225 169.558 210.195 168.711 209.655 168.207L160.719 122.574C160.179 122.07 159.332 122.099 158.828 122.64ZM112.95 171.347C112.32 172.023 112.357 173.081 113.033 173.711L161.968 219.344C162.644 219.974 163.702 219.938 164.332 219.262L209.965 170.326C210.595 169.651 210.559 168.592 209.883 167.962L160.947 122.329C160.272 121.699 159.213 121.736 158.583 122.412L112.95 171.347Z" fill="#A8E063"/>
<path opacity="0.989899" fill-rule="evenodd" clip-rule="evenodd" d="M159.677 123.952L114.358 170.88C113.845 171.412 113.86 172.259 114.392 172.772L161.32 218.09C161.851 218.604 162.699 218.589 163.212 218.057L208.53 171.129C209.044 170.597 209.029 169.75 208.497 169.237L161.569 123.919C161.037 123.405 160.19 123.42 159.677 123.952ZM114.118 170.648C113.476 171.312 113.495 172.371 114.159 173.013L161.087 218.331C161.752 218.973 162.811 218.954 163.453 218.29L208.771 171.361C209.413 170.697 209.394 169.638 208.73 168.996L161.801 123.678C161.137 123.036 160.078 123.055 159.436 123.719L114.118 170.648Z" fill="#A8E063"/>
<path fill-rule="evenodd" clip-rule="evenodd" d="M160.487 125.278L115.54 170.226C115.017 170.748 115.017 171.596 115.54 172.118L160.487 217.066C161.01 217.588 161.857 217.588 162.38 217.066L207.327 172.118C207.85 171.596 207.85 170.748 207.327 170.226L162.38 125.278C161.857 124.756 161.01 124.756 160.487 125.278ZM115.303 169.989C114.65 170.642 114.65 171.701 115.303 172.355L160.251 217.302C160.904 217.955 161.963 217.955 162.617 217.302L207.564 172.355C208.217 171.701 208.217 170.642 207.564 169.989L162.617 125.042C161.963 124.388 160.904 124.388 160.251 125.042L115.303 169.989Z" fill="#A8E063"/>
</svg>
