<svg width="317" height="298" viewBox="0 0 317 298" fill="none" xmlns="http://www.w3.org/2000/svg">
<g opacity="0.6">
<path opacity="0.010101" fill-rule="evenodd" clip-rule="evenodd" d="M18.155 136.579L105.091 226.603L217.574 171.742L200.156 47.8106L76.9088 26.0787L18.155 136.579ZM76.7269 25.7057L17.744 136.636L105.019 227.012L217.94 171.936L200.455 47.5223L76.7269 25.7057Z" fill="#A8E063"/>
<path opacity="0.020202" fill-rule="evenodd" clip-rule="evenodd" d="M20.0058 134.723L105.357 226.252L218.781 173.361L203.529 49.1453L80.6792 25.2657L20.0058 134.723ZM80.5038 24.8896L19.5939 134.774L105.278 226.659L219.144 173.563L203.832 48.8623L80.5038 24.8896Z" fill="#A8E063"/>
<path opacity="0.030303" fill-rule="evenodd" clip-rule="evenodd" d="M21.86 132.9L105.601 225.903L219.93 175.001L206.849 50.5375L84.4344 24.5175L21.86 132.9ZM84.2657 24.1384L21.4473 132.943L105.515 226.309L220.29 175.208L207.157 50.2598L84.2657 24.1384Z" fill="#A8E063"/>
<path opacity="0.040404" fill-rule="evenodd" clip-rule="evenodd" d="M23.7175 131.109L105.823 225.56L221.023 176.66L210.115 51.9878L88.174 23.8353L23.7175 131.109ZM88.0119 23.4534L23.3041 131.145L105.729 225.964L221.379 176.874L210.429 51.7155L88.0119 23.4534Z" fill="#A8E063"/>
<path opacity="0.050505" fill-rule="evenodd" clip-rule="evenodd" d="M25.5777 129.351L106.022 225.22L222.058 178.339L213.328 53.4945L91.8965 23.2182L25.5777 129.351ZM91.7411 22.8334L25.1637 129.379L105.921 225.623L222.41 178.558L213.646 53.2277L91.7411 22.8334Z" fill="#A8E063"/>
<path opacity="0.0606061" fill-rule="evenodd" clip-rule="evenodd" d="M27.4396 127.625L106.198 224.884L223.035 180.034L216.485 55.0569L95.6006 22.6659L27.4396 127.625ZM95.4519 22.2786L27.0252 127.646L106.091 225.285L223.383 180.26L216.808 54.7957L95.4519 22.2786Z" fill="#A8E063"/>
<path opacity="0.0707071" fill-rule="evenodd" clip-rule="evenodd" d="M29.3032 125.931L106.353 224.55L223.954 181.747L219.587 56.6738L99.2857 22.1781L29.3032 125.931ZM99.1437 21.7881L28.8885 125.946L106.238 224.949L224.298 181.979L219.914 56.4183L99.1437 21.7881Z" fill="#A8E063"/>
<path opacity="0.0808081" fill-rule="evenodd" clip-rule="evenodd" d="M31.1679 124.27L106.484 224.219L224.815 183.474L222.631 58.3442L102.95 21.7542L31.1679 124.27ZM102.815 21.3619L30.753 124.277L106.363 224.615L225.155 183.712L222.962 58.0945L102.815 21.3619Z" fill="#A8E063"/>
<path opacity="0.0909091" fill-rule="evenodd" clip-rule="evenodd" d="M33.0327 122.642L106.593 223.89L225.617 185.217V60.0679L106.593 21.3947L33.0327 122.642ZM106.465 21.0001L32.6177 122.642L106.465 224.285L225.953 185.461V59.824L106.465 21.0001Z" fill="#A8E063"/>
<path opacity="0.10101" fill-rule="evenodd" clip-rule="evenodd" d="M34.8976 121.046L106.68 223.562L226.361 186.972L228.545 61.8421L110.214 21.0975L34.8976 121.046ZM110.093 20.7007L34.4826 121.039L106.545 223.954L226.692 187.222L228.885 61.6041L110.093 20.7007Z" fill="#A8E063"/>
<path opacity="0.111111" fill-rule="evenodd" clip-rule="evenodd" d="M36.7635 119.483L106.746 223.236L227.047 188.74L231.414 63.6677L113.813 20.8642L36.7635 119.483ZM113.699 20.4653L36.3488 119.468L106.604 223.626L227.374 188.996L231.758 63.4356L113.699 20.4653Z" fill="#A8E063"/>
<path opacity="0.121212" fill-rule="evenodd" clip-rule="evenodd" d="M38.6265 117.952L106.788 222.911L227.672 190.52L234.222 65.5427L117.385 20.6933L38.6265 117.952ZM117.278 20.2925L38.2121 117.931L106.639 223.298L227.995 190.781L234.57 65.3167L117.278 20.2925Z" fill="#A8E063"/>
<path opacity="0.131313" fill-rule="evenodd" clip-rule="evenodd" d="M40.4876 116.454L106.806 222.587L228.238 192.31L236.968 67.4663L120.932 20.5846L40.4876 116.454ZM120.831 20.182L40.0736 116.425L106.651 222.971L228.556 192.577L237.32 67.2464L120.831 20.182Z" fill="#A8E063"/>
<path opacity="0.141414" fill-rule="evenodd" clip-rule="evenodd" d="M42.3466 114.988L106.803 222.262L228.744 194.11L239.652 69.4369L124.452 20.5373L42.3466 114.988ZM124.358 20.133L41.9332 114.952L106.641 222.644L229.058 194.382L240.008 69.2232L124.358 20.133Z" fill="#A8E063"/>
<path opacity="0.151515" fill-rule="evenodd" clip-rule="evenodd" d="M44.2027 113.555L106.777 221.937L229.191 195.917L242.273 71.4539L127.944 20.5512L44.2027 113.555ZM127.857 20.1454L43.79 113.512L106.608 222.316L229.5 196.195L242.632 71.2464L127.857 20.1454Z" fill="#A8E063"/>
<path opacity="0.161616" fill-rule="evenodd" clip-rule="evenodd" d="M46.0536 112.154L106.727 221.612L229.577 197.732L244.828 73.5163L131.405 20.626L46.0536 112.154ZM131.326 20.2187L45.6417 112.104L106.552 221.988L229.88 198.015L245.191 73.3151L131.326 20.2187Z" fill="#A8E063"/>
<path opacity="0.171717" fill-rule="evenodd" clip-rule="evenodd" d="M47.9025 110.785L106.656 221.285L229.904 199.554L247.321 75.6226L134.838 20.7609L47.9025 110.785ZM134.766 20.3522L47.4916 110.728L106.474 221.658L230.203 199.842L247.688 75.4277L134.766 20.3522Z" fill="#A8E063"/>
<path opacity="0.181818" fill-rule="evenodd" clip-rule="evenodd" d="M49.7467 109.449L106.563 220.957L230.171 201.38L249.749 77.7717L138.24 20.9552L49.7467 109.449ZM138.176 20.5454L49.3369 109.384L106.375 221.327L230.465 201.673L250.119 77.5833L138.176 20.5454Z" fill="#A8E063"/>
<path opacity="0.191919" fill-rule="evenodd" clip-rule="evenodd" d="M51.5846 108.145L106.446 220.628L230.377 203.21L252.109 79.9627L141.609 21.2088L51.5846 108.145ZM141.551 20.7979L51.1759 108.073L106.251 220.994L230.666 203.509L252.482 79.7808L141.551 20.7979Z" fill="#A8E063"/>
<path opacity="0.20202" fill-rule="evenodd" clip-rule="evenodd" d="M53.4183 106.872L106.309 220.296L230.525 205.044L254.404 82.1945L144.946 21.5211L53.4183 106.872ZM144.896 21.1092L53.011 106.793L106.107 220.659L230.808 205.348L254.78 82.0191L144.896 21.1092Z" fill="#A8E063"/>
<path opacity="0.212121" fill-rule="evenodd" clip-rule="evenodd" d="M55.2426 105.632L106.145 219.961L230.609 206.88L256.629 84.4656L148.246 21.8911L55.2426 105.632ZM148.203 21.4785L54.8367 105.546L105.938 220.321L230.886 207.188L257.008 84.2969L148.203 21.4785Z" fill="#A8E063"/>
<path opacity="0.222222" fill-rule="evenodd" clip-rule="evenodd" d="M57.064 104.424L105.964 219.624L230.636 208.717L258.789 86.7752L151.515 22.3187L57.064 104.424ZM151.479 21.9053L56.6597 104.33L105.75 219.98L230.909 209.03L259.171 86.6131L151.479 21.9053Z" fill="#A8E063"/>
<path opacity="0.232323" fill-rule="evenodd" clip-rule="evenodd" d="M58.8764 103.247L105.758 219.283L230.602 210.553L260.878 89.1217L154.746 22.8029L58.8764 103.247ZM154.717 22.3889L58.4738 103.147L105.538 219.635L230.869 210.871L261.263 88.9663L154.717 22.3889Z" fill="#A8E063"/>
<path opacity="0.242424" fill-rule="evenodd" clip-rule="evenodd" d="M60.6795 102.102L105.529 218.938L230.506 212.388L262.897 91.5038L157.938 23.3428L60.6795 102.102ZM157.917 22.9284L60.2786 101.994L105.303 219.286L230.767 212.711L263.285 91.3551L157.917 22.9284Z" fill="#A8E063"/>
<path opacity="0.252525" fill-rule="evenodd" clip-rule="evenodd" d="M62.4744 100.987L105.278 218.589L230.351 214.221L264.846 93.9204L161.093 23.938L62.4744 100.987ZM161.079 23.5233L62.0755 100.873L105.046 218.933L230.606 214.548L265.236 93.7785L161.079 23.5233Z" fill="#A8E063"/>
<path opacity="0.262626" fill-rule="evenodd" clip-rule="evenodd" d="M64.2607 99.9052L105.005 218.236L230.135 216.052L266.725 96.3712L164.209 24.5886L64.2607 99.9052ZM164.202 24.1738L63.8638 99.7839L104.767 218.576L230.385 216.383L267.117 96.2361L164.202 24.1738Z" fill="#A8E063"/>
<path opacity="0.272727" fill-rule="evenodd" clip-rule="evenodd" d="M66.038 98.8537L104.711 217.877L229.86 217.877L268.533 98.8537L167.286 25.293L66.038 98.8537ZM167.286 24.8781L65.6433 98.7255L104.467 218.213L230.104 218.213L268.928 98.7255L167.286 24.8781Z" fill="#A8E063"/>
<path opacity="0.282828" fill-rule="evenodd" clip-rule="evenodd" d="M67.8054 97.8332L104.395 217.514L229.525 219.698L270.27 101.367L170.321 26.0507L67.8054 97.8332ZM170.329 25.6358L67.413 97.6981L104.146 217.845L229.763 220.038L270.667 101.246L170.329 25.6358Z" fill="#A8E063"/>
<path opacity="0.292929" fill-rule="evenodd" clip-rule="evenodd" d="M69.5606 96.843L104.056 217.144L229.129 221.512L271.933 103.91L173.314 26.8606L69.5606 96.843ZM173.328 26.4459L69.1707 96.7011L103.801 217.471L229.361 221.856L272.331 103.796L173.328 26.4459Z" fill="#A8E063"/>
<path opacity="0.30303" fill-rule="evenodd" clip-rule="evenodd" d="M71.3054 95.8839L103.696 216.769L228.674 223.318L273.523 106.482L176.264 27.7229L71.3054 95.8839ZM176.286 27.3085L70.918 95.7352L103.435 217.091L228.9 223.666L273.924 106.374L176.286 27.3085Z" fill="#A8E063"/>
<path opacity="0.313131" fill-rule="evenodd" clip-rule="evenodd" d="M73.039 94.9551L103.315 216.387L228.159 225.117L275.041 109.08L179.171 28.6363L73.039 94.9551ZM179.2 28.2223L72.6542 94.7997L103.049 216.705L228.379 225.468L275.444 108.98L179.2 28.2223Z" fill="#A8E063"/>
<path opacity="0.323232" fill-rule="evenodd" clip-rule="evenodd" d="M74.7589 94.0567L102.911 215.998L227.584 226.906L276.484 111.705L182.033 29.6002L74.7589 94.0567ZM182.069 29.1868L74.3769 93.8946L102.639 216.311L227.798 227.261L276.888 111.612L182.069 29.1868Z" fill="#A8E063"/>
<path opacity="0.333333" fill-rule="evenodd" clip-rule="evenodd" d="M76.4649 93.188L102.485 215.602L226.948 228.684L277.851 114.354L184.847 30.6135L76.4649 93.188ZM184.89 30.2008L76.0858 93.0192L102.207 215.91L227.156 229.043L278.257 114.268L184.89 30.2008Z" fill="#A8E063"/>
<path opacity="0.343434" fill-rule="evenodd" clip-rule="evenodd" d="M78.1601 92.3482L102.04 215.198L226.256 230.45L279.146 117.026L187.618 31.6747L78.1601 92.3482ZM187.668 31.2629L77.784 92.1728L101.757 215.501L226.457 230.813L279.553 116.947L187.668 31.2629Z" fill="#A8E063"/>
<path opacity="0.353535" fill-rule="evenodd" clip-rule="evenodd" d="M79.8419 91.5374L101.574 214.785L225.505 232.202L280.366 119.719L190.342 32.7835L79.8419 91.5374ZM190.4 32.3726L79.4689 91.3555L101.286 215.084L225.7 232.569L280.775 119.647L190.4 32.3726Z" fill="#A8E063"/>
<path opacity="0.363636" fill-rule="evenodd" clip-rule="evenodd" d="M81.5083 90.758L101.086 214.366L224.694 233.944L281.51 122.435L193.017 33.9415L81.5083 90.758ZM193.082 33.5317L81.1385 90.5696L100.792 214.66L224.882 234.314L281.92 122.37L193.082 33.5317Z" fill="#A8E063"/>
<path opacity="0.373737" fill-rule="evenodd" clip-rule="evenodd" d="M83.1588 90.0062L100.576 213.937L223.824 235.669L282.578 125.169L195.642 35.1444L83.1588 90.0062ZM195.714 34.7358L82.7924 89.8113L100.278 214.225L224.006 236.042L282.989 125.111L195.714 34.7358Z" fill="#A8E063"/>
<path opacity="0.383838" fill-rule="evenodd" clip-rule="evenodd" d="M84.7946 89.285L100.046 213.501L222.896 237.381L283.569 127.923L198.218 36.3948L84.7946 89.285ZM198.297 35.9874L84.4317 89.0838L99.743 213.784L223.071 237.757L283.981 127.872L198.297 35.9874Z" fill="#A8E063"/>
<path opacity="0.393939" fill-rule="evenodd" clip-rule="evenodd" d="M86.4154 88.5892L99.497 213.053L221.911 239.072L284.486 130.69L200.745 37.6865L86.4154 88.5892ZM200.831 37.2806L86.056 88.3817L99.1886 213.33L222.08 239.452L284.898 130.647L200.831 37.2806Z" fill="#A8E063"/>
<path opacity="0.40404" fill-rule="evenodd" clip-rule="evenodd" d="M88.0186 87.9223L98.926 212.595L220.867 240.747L285.324 133.474L203.219 39.0227L88.0186 87.9223ZM203.312 38.6184L87.6629 87.7086L98.6129 212.867L221.03 241.129L285.737 133.438L203.312 38.6184Z" fill="#A8E063"/>
<path opacity="0.414141" fill-rule="evenodd" clip-rule="evenodd" d="M89.6043 87.2838L98.3342 212.128L219.766 242.404L286.085 136.272L205.64 40.4022L89.6043 87.2838ZM205.741 39.9996L89.2523 87.0639L98.0163 212.395L219.921 242.789L286.499 136.243L205.741 39.9996Z" fill="#A8E063"/>
<path opacity="0.424242" fill-rule="evenodd" clip-rule="evenodd" d="M91.1732 86.6728L97.723 211.65L218.608 244.041L286.769 139.082L208.01 41.8234L91.1732 86.6728ZM208.117 41.4226L90.8252 86.4468L97.4005 211.911L218.756 244.429L287.183 139.061L208.117 41.4226Z" fill="#A8E063"/>
<path opacity="0.434343" fill-rule="evenodd" clip-rule="evenodd" d="M92.7251 86.0884L97.0928 211.161L217.394 245.657L287.376 141.904L210.327 43.2849L92.7251 86.0884ZM210.441 42.886L92.3811 85.8563L96.7658 211.417L217.536 246.047L287.791 141.889L210.441 42.886Z" fill="#A8E063"/>
<path opacity="0.444444" fill-rule="evenodd" clip-rule="evenodd" d="M94.258 85.533L96.4421 210.663L216.123 247.253L287.905 144.737L212.589 44.7884L94.258 85.533ZM212.71 44.3916L93.918 85.2949L96.1107 210.913L216.258 247.645L288.32 144.73L212.71 44.3916Z" fill="#A8E063"/>
<path opacity="0.454545" fill-rule="evenodd" clip-rule="evenodd" d="M95.7729 85.0016L95.7729 210.151L214.797 248.824L288.357 147.576L214.797 46.3284L95.7729 85.0016ZM214.925 45.9338L95.4372 84.7577L95.4372 210.394L214.925 249.218L288.772 147.576L214.925 45.9338Z" fill="#A8E063"/>
<path opacity="0.464646" fill-rule="evenodd" clip-rule="evenodd" d="M97.2659 84.4977L95.0818 209.628L213.412 250.372L288.729 150.424L216.946 47.9077L97.2659 84.4977ZM217.082 47.5153L96.9345 84.248L94.7418 209.866L213.534 250.769L289.144 150.431L217.082 47.5153Z" fill="#A8E063"/>
<path opacity="0.474747" fill-rule="evenodd" clip-rule="evenodd" d="M98.7421 84.0211L94.3745 209.094L211.976 251.897L289.025 153.279L219.043 49.5254L98.7421 84.0211ZM219.185 49.1354L98.4151 83.7656L94.0305 209.326L212.09 252.296L289.44 153.293L219.185 49.1354Z" fill="#A8E063"/>
<path opacity="0.484848" fill-rule="evenodd" clip-rule="evenodd" d="M100.199 83.5674L93.6492 208.545L210.486 253.394L289.245 156.135L221.084 51.1764L100.199 83.5674ZM221.232 50.789L99.8765 83.3062L93.3011 208.771L210.593 253.795L289.659 156.157L221.232 50.789Z" fill="#A8E063"/>
<path opacity="0.494949" fill-rule="evenodd" clip-rule="evenodd" d="M101.633 83.1413L92.9028 207.985L208.939 254.867L289.383 158.997L223.064 52.865L101.633 83.1413ZM223.22 52.4803L101.315 82.8746L92.5509 208.205L209.039 255.27L289.797 159.026L223.22 52.4803Z" fill="#A8E063"/>
<path opacity="0.50505" fill-rule="evenodd" clip-rule="evenodd" d="M103.047 82.7381L92.1391 207.411L207.339 256.31L289.444 161.859L224.988 54.5857L103.047 82.7381ZM225.15 54.2037L102.733 82.4659L91.7834 207.625L207.433 256.715L289.858 161.895L225.15 54.2037Z" fill="#A8E063"/>
<path opacity="0.515152" fill-rule="evenodd" clip-rule="evenodd" d="M104.438 82.3602L91.3566 206.824L205.686 257.726L289.427 164.722L226.852 56.3402L104.438 82.3602ZM227.021 55.9611L104.13 82.0825L90.9973 207.031L205.772 258.132L289.84 164.766L227.021 55.9611Z" fill="#A8E063"/>
<path opacity="0.525253" fill-rule="evenodd" clip-rule="evenodd" d="M105.809 82.0061L90.5571 206.222L203.981 259.112L289.332 167.584L228.659 58.1266L105.809 82.0061ZM228.834 57.7505L105.505 81.7231L90.1942 206.423L204.06 259.52L289.744 167.635L228.834 57.7505Z" fill="#A8E063"/>
<path opacity="0.535354" fill-rule="evenodd" clip-rule="evenodd" d="M107.157 81.6766L89.7395 205.608L202.223 260.469L289.158 170.445L230.405 59.9447L107.157 81.6766ZM230.586 59.5717L106.858 81.3883L89.3731 205.802L202.295 260.878L289.569 170.502L230.586 59.5717Z" fill="#A8E063"/>
<path opacity="0.545455" fill-rule="evenodd" clip-rule="evenodd" d="M108.481 81.37L88.9037 204.978L200.412 261.795L288.906 173.301L232.089 61.7923L108.481 81.37ZM232.278 61.4226L108.188 81.0765L88.534 205.167L200.477 262.204L289.316 173.366L232.278 61.4226Z" fill="#A8E063"/>
<path opacity="0.555556" fill-rule="evenodd" clip-rule="evenodd" d="M109.785 81.0852L88.0536 204.333L198.554 263.087L288.578 176.151L233.716 63.6678L109.785 81.0852ZM233.911 63.3014L109.497 80.7866L87.6806 204.515L198.611 263.498L288.987 176.223L233.911 63.3014Z" fill="#A8E063"/>
<path opacity="0.565657" fill-rule="evenodd" clip-rule="evenodd" d="M111.064 80.8244L87.1843 203.674L196.642 264.347L288.17 178.996L235.28 65.5726L111.064 80.8244ZM235.481 65.2097L110.781 80.5209L86.8082 203.849L196.693 264.759L288.578 179.075L235.481 65.2097Z" fill="#A8E063"/>
<path opacity="0.575758" fill-rule="evenodd" clip-rule="evenodd" d="M112.317 80.586L86.2976 203L194.68 265.575L287.684 181.834L236.781 67.5043L112.317 80.586ZM236.988 67.145L112.04 80.2776L85.9185 203.169L194.723 265.987L288.089 181.92L236.988 67.145Z" fill="#A8E063"/>
<path opacity="0.585859" fill-rule="evenodd" clip-rule="evenodd" d="M113.548 80.3674L85.3959 202.309L192.67 266.765L287.121 184.66L238.221 69.4599L113.548 80.3674ZM238.435 69.1042L113.276 80.0542L85.014 202.471L192.706 267.179L287.525 184.754L238.435 69.1042Z" fill="#A8E063"/>
<path opacity="0.59596" fill-rule="evenodd" clip-rule="evenodd" d="M114.754 80.1717L84.4775 201.603L190.61 267.922L286.479 187.478L239.598 71.4418L114.754 80.1717ZM239.818 71.0898L114.487 79.8538L84.0927 201.759L190.639 268.336L286.882 187.578L239.818 71.0898Z" fill="#A8E063"/>
<path opacity="0.606061" fill-rule="evenodd" clip-rule="evenodd" d="M115.935 79.9966L83.5445 200.881L188.503 269.042L285.762 190.283L240.913 73.4468L115.935 79.9966ZM241.139 73.0988L115.674 79.6741L83.1571 201.03L188.525 269.457L286.163 190.391L241.139 73.0988Z" fill="#A8E063"/>
<path opacity="0.616162" fill-rule="evenodd" clip-rule="evenodd" d="M117.091 79.8416L82.5955 200.142L186.349 270.125L284.967 193.075L242.164 75.4739L117.091 79.8416ZM242.396 75.1299L116.836 79.5146L82.2055 200.284L186.363 270.54L285.366 193.19L242.396 75.1299Z" fill="#A8E063"/>
<path opacity="0.626263" fill-rule="evenodd" clip-rule="evenodd" d="M118.221 79.7062L81.6305 199.387L184.147 271.169L284.095 195.853L243.35 77.5221L118.221 79.7062ZM243.588 77.1822L117.971 79.3748L81.2382 199.522L184.154 271.584L284.492 195.974L243.588 77.1822Z" fill="#A8E063"/>
<path opacity="0.636364" fill-rule="evenodd" clip-rule="evenodd" d="M119.324 79.5902L80.6505 198.614L181.898 272.175L283.146 198.614L244.473 79.5902L119.324 79.5902ZM244.716 79.2545L119.08 79.2545L80.2558 198.742L181.898 272.59L283.54 198.742L244.716 79.2545Z" fill="#A8E063"/>
<path opacity="0.646465" fill-rule="evenodd" clip-rule="evenodd" d="M120.401 79.4934L79.6568 197.824L179.605 273.141L282.121 201.358L245.531 81.6776L120.401 79.4934ZM245.781 81.3462L120.163 79.1535L79.26 197.945L179.598 273.556L282.514 201.493L245.781 81.3462Z" fill="#A8E063"/>
<path opacity="0.656566" fill-rule="evenodd" clip-rule="evenodd" d="M121.452 79.4158L78.6485 197.017L177.267 274.067L281.02 204.084L246.525 83.7834L121.452 79.4158ZM246.78 83.4564L121.22 79.0718L78.2496 197.132L177.253 274.481L281.41 204.226L246.78 83.4564Z" fill="#A8E063"/>
<path opacity="0.666667" fill-rule="evenodd" clip-rule="evenodd" d="M122.475 79.3556L77.6254 196.192L174.884 274.951L279.843 206.79L247.452 85.9054L122.475 79.3556ZM247.713 85.5829L122.249 79.0076L77.2246 196.3L174.863 275.365L280.231 206.939L247.713 85.5829Z" fill="#A8E063"/>
<path opacity="0.676768" fill-rule="evenodd" clip-rule="evenodd" d="M123.472 79.3134L76.5903 195.35L172.46 275.794L278.592 209.475L248.316 88.0434L123.472 79.3134ZM248.583 87.7255L123.252 78.9615L76.1876 195.45L172.431 276.208L278.977 209.63L248.583 87.7255Z" fill="#A8E063"/>
<path opacity="0.686869" fill-rule="evenodd" clip-rule="evenodd" d="M124.441 79.2893L75.5411 194.489L169.992 276.595L277.266 212.138L249.113 90.1967L124.441 79.2893ZM249.386 89.8835L124.227 78.9336L75.1368 194.583L169.956 277.008L277.648 212.3L249.386 89.8835Z" fill="#A8E063"/>
<path opacity="0.69697" fill-rule="evenodd" clip-rule="evenodd" d="M125.38 79.2802L74.4768 193.609L167.481 277.35L275.863 214.776L249.843 92.3618L125.38 79.2802ZM250.121 92.0534L125.172 78.9208L74.0709 193.696L167.437 277.763L276.242 214.945L250.121 92.0534Z" fill="#A8E063"/>
<path opacity="0.707071" fill-rule="evenodd" clip-rule="evenodd" d="M126.293 79.2882L73.4029 192.712L164.931 278.063L274.389 217.39L250.509 94.54L126.293 79.2882ZM250.792 94.2365L126.092 78.9252L72.9956 192.791L164.88 278.475L274.765 217.565L250.792 94.2365Z" fill="#A8E063"/>
<path opacity="0.717172" fill-rule="evenodd" clip-rule="evenodd" d="M127.176 79.3116L72.3143 191.795L162.339 278.73L272.839 219.977L251.107 96.7289L127.176 79.3116ZM251.395 96.4304L126.981 78.9452L71.9056 191.867L162.281 279.141L273.212 220.159L251.395 96.4304Z" fill="#A8E063"/>
<path opacity="0.727273" fill-rule="evenodd" clip-rule="evenodd" d="M128.032 79.3496L71.2152 190.858L159.709 279.352L271.217 222.535L251.64 98.9272L128.032 79.3496ZM251.933 98.6338L127.843 78.9799L70.8053 190.923L159.644 279.762L271.587 222.724L251.933 98.6338Z" fill="#A8E063"/>
<path opacity="0.737374" fill-rule="evenodd" clip-rule="evenodd" d="M128.858 79.4036L70.1038 189.904L157.04 279.928L269.523 225.066L252.105 101.135L128.858 79.4036ZM252.404 100.847L128.676 79.0306L69.6929 189.961L156.968 280.337L269.889 225.261L252.404 100.847Z" fill="#A8E063"/>
<path opacity="0.747475" fill-rule="evenodd" clip-rule="evenodd" d="M129.654 79.4705L68.9808 188.928L154.332 280.456L267.756 227.566L252.504 103.35L129.654 79.4705ZM252.807 103.067L129.479 79.0944L68.5689 188.979L154.253 280.864L268.119 227.767L252.807 103.067Z" fill="#A8E063"/>
<path opacity="0.757576" fill-rule="evenodd" clip-rule="evenodd" d="M130.421 79.5514L67.8461 187.934L151.587 280.937L265.916 230.035L252.835 105.571L130.421 79.5514ZM253.143 105.294L130.252 79.1723L67.4334 187.977L151.501 281.343L266.276 230.242L253.143 105.294Z" fill="#A8E063"/>
<path opacity="0.767677" fill-rule="evenodd" clip-rule="evenodd" d="M131.157 79.6462L66.7005 186.92L148.806 281.371L264.006 232.471L253.098 107.799L131.157 79.6462ZM253.412 107.526L130.995 79.2642L66.2871 186.956L148.712 281.775L264.362 232.685L253.412 107.526Z" fill="#A8E063"/>
<path opacity="0.777778" fill-rule="evenodd" clip-rule="evenodd" d="M131.865 79.7532L65.546 185.886L145.99 281.755L262.026 234.874L253.296 110.029L131.865 79.7532ZM253.614 109.763L131.709 79.3685L65.132 185.915L145.89 282.158L262.378 235.093L253.614 109.763Z" fill="#A8E063"/>
<path opacity="0.787879" fill-rule="evenodd" clip-rule="evenodd" d="M132.542 79.8713L64.3812 184.83L143.14 282.089L259.977 237.24L253.427 112.262L132.542 79.8713ZM253.749 112.001L132.393 79.4838L63.9668 184.852L143.033 282.49L260.325 237.466L253.749 112.001Z" fill="#A8E063"/>
<path opacity="0.79798" fill-rule="evenodd" clip-rule="evenodd" d="M133.187 80.0017L63.2045 183.755L140.254 282.374L257.855 239.57L253.488 114.497L133.187 80.0017ZM253.815 114.242L133.045 79.6118L62.7898 183.769L140.14 282.773L258.199 239.802L253.815 114.242Z" fill="#A8E063"/>
<path opacity="0.808081" fill-rule="evenodd" clip-rule="evenodd" d="M133.803 80.1424L62.0203 182.658L137.337 282.607L255.667 241.862L253.483 116.732L133.803 80.1424ZM253.815 116.483L133.668 79.7501L61.6054 182.666L137.215 283.004L256.007 242.1L253.815 116.483Z" fill="#A8E063"/>
<path opacity="0.818182" fill-rule="evenodd" clip-rule="evenodd" d="M134.389 80.2955L60.8284 181.543L134.389 282.791L253.413 244.118L253.413 118.969L134.389 80.2955ZM253.749 118.725L134.261 79.9009L60.4134 181.543L134.261 283.185L253.749 244.362L253.749 118.725Z" fill="#A8E063"/>
<path opacity="0.828283" fill-rule="evenodd" clip-rule="evenodd" d="M134.942 80.4564L59.6257 180.405L131.408 282.921L251.089 246.331L253.273 121.201L134.942 80.4564ZM253.613 120.963L134.821 80.0595L59.2108 180.398L131.273 283.313L251.42 246.581L253.613 120.963Z" fill="#A8E063"/>
<path opacity="0.838384" fill-rule="evenodd" clip-rule="evenodd" d="M135.466 80.6269L58.4166 179.246L128.399 282.999L248.7 248.503L253.068 123.43L135.466 80.6269ZM253.412 123.198L135.352 80.228L58.0018 179.231L128.257 283.389L249.027 248.759L253.412 123.198Z" fill="#A8E063"/>
<path opacity="0.848485" fill-rule="evenodd" clip-rule="evenodd" d="M135.958 80.8077L57.1992 178.067L125.36 283.025L246.245 250.635L252.795 125.657L135.958 80.8077ZM253.143 125.431L135.851 80.4069L56.7848 178.045L125.211 283.413L246.567 250.896L253.143 125.431Z" fill="#A8E063"/>
<path opacity="0.858586" fill-rule="evenodd" clip-rule="evenodd" d="M136.417 80.9963L55.9724 176.866L122.291 282.998L243.723 252.722L252.453 127.878L136.417 80.9963ZM252.805 127.658L136.316 80.5936L55.5584 176.837L122.136 283.383L244.041 252.989L252.805 127.658Z" fill="#A8E063"/>
<path opacity="0.868687" fill-rule="evenodd" clip-rule="evenodd" d="M136.845 81.1929L54.7401 175.644L119.197 282.918L241.138 254.765L252.045 130.092L136.845 81.1929ZM252.401 129.879L136.752 80.7885L54.3267 175.608L119.034 283.3L241.451 255.037L252.401 129.879Z" fill="#A8E063"/>
<path opacity="0.878788" fill-rule="evenodd" clip-rule="evenodd" d="M137.242 81.3961L53.5006 174.4L116.075 282.782L238.489 256.762L251.571 132.299L137.242 81.3961ZM251.93 132.091L137.155 80.9902L53.0879 174.357L115.906 283.161L238.798 257.04L251.93 132.091Z" fill="#A8E063"/>
<path opacity="0.888889" fill-rule="evenodd" clip-rule="evenodd" d="M137.606 81.6051L52.2546 173.133L112.928 282.591L235.778 258.711L251.029 134.495L137.606 81.6051ZM251.392 134.294L137.527 81.1978L51.8427 173.083L112.753 282.967L236.081 258.994L251.392 134.294Z" fill="#A8E063"/>
<path opacity="0.89899" fill-rule="evenodd" clip-rule="evenodd" d="M137.94 81.8229L51.0042 171.848L109.758 282.347L233.006 260.616L250.423 136.685L137.94 81.8229ZM250.789 136.49L137.868 81.4142L50.5933 171.79L109.576 282.72L233.304 260.904L250.789 136.49Z" fill="#A8E063"/>
<path opacity="0.909091" fill-rule="evenodd" clip-rule="evenodd" d="M138.24 82.0434L49.7463 170.537L106.563 282.046L230.171 262.468L249.749 138.86L138.24 82.0434ZM250.118 138.671L138.175 81.6336L49.3365 170.472L106.374 282.415L230.464 262.761L250.118 138.671Z" fill="#A8E063"/>
<path opacity="0.919192" fill-rule="evenodd" clip-rule="evenodd" d="M138.509 82.2697L48.4846 169.205L103.346 281.689L227.277 264.271L249.009 141.024L138.509 82.2697ZM249.382 140.842L138.451 81.8588L48.0759 169.133L103.151 282.055L227.566 264.57L249.382 140.842Z" fill="#A8E063"/>
<path opacity="0.929293" fill-rule="evenodd" clip-rule="evenodd" d="M138.746 82.5011L47.2179 167.853L100.108 281.276L224.324 266.024L248.204 143.175L138.746 82.5011ZM248.58 142.999L138.695 82.0892L46.8105 167.773L99.9069 281.639L224.607 266.328L248.58 142.999Z" fill="#A8E063"/>
<path opacity="0.939394" fill-rule="evenodd" clip-rule="evenodd" d="M138.949 82.7362L45.9449 166.477L96.8475 280.806L221.311 267.725L247.331 145.311L138.949 82.7362ZM247.71 145.142L138.905 82.3235L45.539 166.391L96.6401 281.166L221.589 268.033L247.71 145.142Z" fill="#A8E063"/>
<path opacity="0.949495" fill-rule="evenodd" clip-rule="evenodd" d="M139.122 82.9751L44.6711 165.08L93.5707 280.28L218.243 269.373L246.396 147.432L139.122 82.9751ZM246.778 147.269L139.086 82.5617L44.2668 164.987L93.357 280.636L218.516 269.686L246.778 147.269Z" fill="#A8E063"/>
<path opacity="0.959596" fill-rule="evenodd" clip-rule="evenodd" d="M139.26 83.2149L43.3899 163.659L90.2715 279.695L215.116 270.965L245.392 149.534L139.26 83.2149ZM245.777 149.378L139.231 82.8009L42.9873 163.559L90.0516 280.047L215.382 271.283L245.777 149.378Z" fill="#A8E063"/>
<path opacity="0.969697" fill-rule="evenodd" clip-rule="evenodd" d="M139.368 83.4581L42.1087 162.217L86.9581 279.054L211.936 272.504L244.326 151.619L139.368 83.4581ZM244.714 151.47L139.346 83.0437L41.7079 162.11L86.7321 279.402L212.197 272.826L244.714 151.47Z" fill="#A8E063"/>
<path opacity="0.979798" fill-rule="evenodd" clip-rule="evenodd" d="M139.44 83.7017L40.8209 160.751L83.6243 278.353L208.697 273.985L243.193 153.684L139.44 83.7017ZM243.583 153.542L139.425 83.287L40.422 160.637L83.3923 278.697L208.953 274.312L243.583 153.542Z" fill="#A8E063"/>
<path opacity="0.989899" fill-rule="evenodd" clip-rule="evenodd" d="M139.482 83.9479L39.534 159.264L80.2786 277.595L205.408 275.411L241.998 155.73L139.482 83.9479ZM242.391 155.595L139.475 83.533L39.1372 159.143L80.0405 277.935L205.658 275.742L242.391 155.595Z" fill="#A8E063"/>
<path fill-rule="evenodd" clip-rule="evenodd" d="M139.492 84.1933L38.2448 157.754L76.9179 276.778H202.067L240.74 157.754L139.492 84.1933ZM241.135 157.626L139.492 83.7783L37.8501 157.626L76.674 277.113H202.311L241.135 157.626Z" fill="#A8E063"/>
</g>
</svg>
