<svg viewBox="0 0 29 20" fill="none" xmlns="http://www.w3.org/2000/svg">
    <path fill-rule="evenodd" clip-rule="evenodd"
          d="M9.06249 2.52084C9.06249 1.82011 8.14495 1.52275 7.71249 2.08334L2.08752 9.37497C1.88751 9.6343 1.88749 9.99068 2.08749 10.25L7.71249 17.5417C8.14495 18.1023 9.06249 17.8049 9.06249 17.1042V14.1875C9.06249 13.7848 9.39827 13.4583 9.81249 13.4583C10.2267 13.4583 10.5625 13.7848 10.5625 14.1875V17.1042C10.5625 19.2064 7.80986 20.0984 6.51249 18.4167L0.887491 11.125C0.287518 10.3472 0.287495 9.27787 0.887468 8.50004L6.51249 1.20834C7.80986 -0.473427 10.5625 0.418632 10.5625 2.52084V8.35417C10.5625 8.75689 10.8983 9.08334 11.3125 9.08334L27.8125 9.08334C28.2267 9.08334 28.5625 9.4098 28.5625 9.81251C28.5625 10.2152 28.2267 10.5417 27.8125 10.5417L11.3125 10.5417C10.0699 10.5417 9.06249 9.56233 9.06249 8.35417V2.52084Z"
          fill="currentColor"/>
</svg>
