<svg viewBox="0 0 29 20" fill="none" xmlns="http://www.w3.org/2000/svg">
    <path fill-rule="evenodd" clip-rule="evenodd"
          d="M19.9375 2.52084C19.9375 1.82011 20.855 1.52275 21.2875 2.08334L26.9125 9.37497C27.1125 9.6343 27.1125 9.99068 26.9125 10.25L21.2875 17.5417C20.855 18.1023 19.9375 17.8049 19.9375 17.1042V14.1875C19.9375 13.7848 19.6017 13.4583 19.1875 13.4583C18.7733 13.4583 18.4375 13.7848 18.4375 14.1875V17.1042C18.4375 19.2064 21.1901 20.0984 22.4875 18.4167L28.1125 11.125C28.7125 10.3472 28.7125 9.27787 28.1125 8.50004L22.4875 1.20834C21.1901 -0.473427 18.4375 0.418632 18.4375 2.52084V8.35417C18.4375 8.75689 18.1017 9.08334 17.6875 9.08334L1.1875 9.08334C0.773285 9.08334 0.4375 9.4098 0.4375 9.81251C0.4375 10.2152 0.773285 10.5417 1.1875 10.5417L17.6875 10.5417C18.9301 10.5417 19.9375 9.56233 19.9375 8.35417V2.52084Z"
          fill="currentColor"/>
</svg>
