<svg viewBox="0 0 38 55" fill="none" xmlns="http://www.w3.org/2000/svg">
    <path d="M23.3195 54.3712H14.8284L13.3517 49.4488C11.0136 41.7371 7.11669 34.7637 3.21981 28.4056C-0.471984 22.3347 -0.430969 14.8691 3.38388 8.83914C8.83953 0.307001 20.2841 -2.27725 28.8982 3.17839C33.1643 5.88571 36.1177 10.3979 37.0202 15.6074C37.9226 20.858 36.692 26.1085 33.5745 30.1285C33.2464 30.5797 32.59 30.6617 32.1388 30.2925C31.6876 29.9644 31.6056 29.3081 31.9747 28.8568C34.7231 25.3291 35.8306 20.6118 35.0102 15.9766C34.1898 11.3414 31.5645 7.3214 27.7907 4.90123C20.12 0.0608821 9.98808 2.31698 5.10672 9.94667C1.74309 15.2793 1.66104 21.9245 4.98365 27.3391C8.96258 33.8203 12.9415 40.8757 15.3207 48.8335L16.3462 52.2792H23.3195C23.8938 52.2792 24.345 52.7304 24.345 53.3047C24.345 53.879 23.8938 54.3712 23.3195 54.3712Z"
          fill="currentColor"/>
</svg>
