<svg viewBox="0 0 80 80" fill="none" xmlns="http://www.w3.org/2000/svg">
    <path d="M44.3193 67.7293L36.6075 67.6883C36.0333 67.6883 35.582 67.2371 35.582 66.6628C35.582 66.0885 36.0333 65.6373 36.6075 65.6373L44.3193 65.6783C44.8935 65.6783 45.3448 66.1296 45.3448 66.7038C45.3448 67.2781 44.8935 67.7293 44.3193 67.7293Z"
          fill="currentColor"/>
    <path d="M42.3501 72.9798L38.5763 72.9388C38.002 72.9388 37.5508 72.4466 37.5508 71.9133C37.5508 71.339 38.002 70.8878 38.5763 70.8878L42.3501 70.9288C42.9244 70.9288 43.3756 71.4211 43.3756 71.9543C43.3756 72.5286 42.9244 72.9798 42.3501 72.9798Z"
          fill="currentColor"/>
    <path d="M44.3195 61.3712H35.8284L34.3517 56.4488C32.0136 48.7371 28.1167 41.7637 24.2198 35.4056C20.528 29.3347 20.569 21.8691 24.3839 15.8391C29.8395 7.307 41.2841 4.72275 49.8982 10.1784C54.1643 12.8857 57.1177 17.3979 58.0202 22.6074C58.9226 27.858 57.692 33.1085 54.5745 37.1285C54.2464 37.5797 53.59 37.6617 53.1388 37.2925C52.6876 36.9644 52.6056 36.3081 52.9747 35.8568C55.7231 32.3291 56.8306 27.6118 56.0102 22.9766C55.1898 18.3414 52.5645 14.3214 48.7907 11.9012C41.12 7.06088 30.9881 9.31698 26.1067 16.9467C22.7431 22.2793 22.661 28.9245 25.9837 34.3391C29.9626 40.8203 33.9415 47.8757 36.3207 55.8335L37.3462 59.2792H44.3195C44.8938 59.2792 45.345 59.7304 45.345 60.3047C45.345 60.879 44.8938 61.3712 44.3195 61.3712Z"
          fill="currentColor"/>
</svg>
