<svg viewBox="0 0 80 80" fill="none" xmlns="http://www.w3.org/2000/svg">
    <path fill-rule="evenodd" clip-rule="evenodd"
          d="M27 28.0734C27 27.4806 27.4806 27 28.0734 27H51.9266C52.5194 27 53 27.4806 53 28.0734V51.9266C53 52.5194 52.5194 53 51.9266 53H28.0734C27.4806 53 27 52.5194 27 51.9266V28.0734ZM29.1468 29.1468V50.8532H50.8532V29.1468H29.1468Z"
          fill="currentColor"/>
    <path fill-rule="evenodd" clip-rule="evenodd"
          d="M10 60.5C10 55.2727 14.2727 51 19.5 51H27.9821C28.5443 51 29 51.4557 29 52.0179V60.5C29 65.7273 24.7273 70 19.5 70C14.2727 70 10 65.7273 10 60.5ZM19.5 53.0357C15.397 53.0357 12.0357 56.397 12.0357 60.5C12.0357 64.603 15.397 67.9643 19.5 67.9643C23.603 67.9643 26.9643 64.603 26.9643 60.5V53.0357H19.5Z"
          fill="currentColor"/>
    <path fill-rule="evenodd" clip-rule="evenodd"
          d="M10 19.5C10 14.2727 14.2727 10 19.5 10C24.7273 10 29 14.2727 29 19.5V27.9821C29 28.5443 28.5443 29 27.9821 29H19.5C14.2727 29 10 24.7273 10 19.5ZM19.5 12.0357C15.397 12.0357 12.0357 15.397 12.0357 19.5C12.0357 23.603 15.397 26.9643 19.5 26.9643H26.9643V19.5C26.9643 15.397 23.603 12.0357 19.5 12.0357Z"
          fill="currentColor"/>
    <path fill-rule="evenodd" clip-rule="evenodd"
          d="M51 19.5C51 14.2727 55.2727 10 60.5 10C65.7273 10 70 14.2727 70 19.5C70 24.7273 65.7273 29 60.5 29H52.0179C51.4557 29 51 28.5443 51 27.9821V19.5ZM60.5 12.0357C56.397 12.0357 53.0357 15.397 53.0357 19.5V26.9643H60.5C64.603 26.9643 67.9643 23.603 67.9643 19.5C67.9643 15.397 64.603 12.0357 60.5 12.0357Z"
          fill="currentColor"/>
    <path fill-rule="evenodd" clip-rule="evenodd"
          d="M51 52.0179C51 51.4557 51.4557 51 52.0179 51H60.5C65.7273 51 70 55.2727 70 60.5C70 65.7273 65.7273 70 60.5 70C55.2727 70 51 65.7273 51 60.5V52.0179ZM53.0357 53.0357V60.5C53.0357 64.603 56.397 67.9643 60.5 67.9643C64.603 67.9643 67.9643 64.603 67.9643 60.5C67.9643 56.397 64.603 53.0357 60.5 53.0357H53.0357Z"
          fill="currentColor"/>
</svg>
