<svg viewBox="0 0 24 24" fill="none" xmlns="http://www.w3.org/2000/svg">
    <path d="M18.2378 6.39881C17.0905 5.87228 15.8602 5.48435 14.5739 5.26216C14.5505 5.25787 14.5271 5.26859 14.515 5.29002C14.3568 5.5715 14.1815 5.93871 14.0588 6.22734C12.6753 6.02017 11.2989 6.02017 9.94374 6.22734C9.82099 5.9323 9.63936 5.5715 9.48043 5.29002C9.46836 5.26931 9.44496 5.25859 9.42154 5.26216C8.13593 5.48364 6.90567 5.87157 5.7577 6.39881C5.74776 6.4031 5.73924 6.41025 5.73359 6.41953C3.40004 9.90664 2.76079 13.308 3.07439 16.6673C3.0758 16.6837 3.08503 16.6994 3.0978 16.7094C4.63741 17.8403 6.12878 18.5269 7.59246 18.982C7.61588 18.9891 7.6407 18.9806 7.65561 18.9613C8.00184 18.4883 8.31048 17.9897 8.57511 17.4653C8.59072 17.4346 8.57582 17.3981 8.5439 17.386C8.05435 17.2002 7.5882 16.9737 7.1398 16.7166C7.10433 16.6958 7.10149 16.6451 7.13412 16.6208C7.22848 16.5501 7.32286 16.4765 7.41297 16.4022C7.42927 16.3886 7.45198 16.3858 7.47115 16.3943C10.417 17.7396 13.6062 17.7396 16.5172 16.3943C16.5364 16.3851 16.5591 16.3879 16.5761 16.4015C16.6662 16.4758 16.7606 16.5501 16.8557 16.6208C16.8883 16.6451 16.8862 16.6958 16.8507 16.7166C16.4023 16.9787 15.9361 17.2002 15.4459 17.3853C15.414 17.3974 15.3998 17.4346 15.4154 17.4653C15.6857 17.9889 15.9943 18.4876 16.3342 18.9606C16.3484 18.9806 16.3739 18.9891 16.3973 18.982C17.8681 18.5269 19.3595 17.8403 20.8991 16.7094C20.9126 16.6994 20.9211 16.6844 20.9225 16.668C21.2978 12.7843 20.2939 9.41084 18.2612 6.42024C18.2562 6.41025 18.2477 6.4031 18.2378 6.39881ZM9.01502 14.6219C8.12812 14.6219 7.39735 13.8074 7.39735 12.8072C7.39735 11.807 8.11395 10.9926 9.01502 10.9926C9.92315 10.9926 10.6469 11.8142 10.6327 12.8072C10.6327 13.8074 9.91606 14.6219 9.01502 14.6219ZM14.9961 14.6219C14.1092 14.6219 13.3784 13.8074 13.3784 12.8072C13.3784 11.807 14.095 10.9926 14.9961 10.9926C15.9042 10.9926 16.6279 11.8142 16.6137 12.8072C16.6137 13.8074 15.9042 14.6219 14.9961 14.6219Z"
          fill="currentColor"/>
</svg>
