<svg viewBox="0 0 80 80" fill="none" xmlns="http://www.w3.org/2000/svg">
    <path fill-rule="evenodd" clip-rule="evenodd"
          d="M20.3667 10.9768C15.1808 10.9768 10.9768 15.1808 10.9768 20.3667C10.9768 25.5525 15.1808 29.7565 20.3667 29.7565C25.5525 29.7565 29.7565 25.5525 29.7565 20.3667C29.7565 15.1808 25.5525 10.9768 20.3667 10.9768ZM9 20.3667C9 14.089 14.089 9 20.3667 9C26.6443 9 31.7333 14.089 31.7333 20.3667C31.7333 26.6443 26.6443 31.7333 20.3667 31.7333C14.089 31.7333 9 26.6443 9 20.3667Z"
          fill="currentColor"/>
    <path fill-rule="evenodd" clip-rule="evenodd"
          d="M55.1864 50.2435C52.4706 50.2435 50.2444 52.4697 50.2444 55.1856V64.0812C50.2444 66.7971 52.4706 69.0232 55.1864 69.0232H64.0821C66.7979 69.0232 69.0241 66.7971 69.0241 64.0812V55.1856C69.0241 52.4697 66.7979 50.2435 64.0821 50.2435H55.1864ZM48.2676 55.1856C48.2676 51.3779 51.3788 48.2667 55.1864 48.2667H64.0821C67.8897 48.2667 71.0009 51.3779 71.0009 55.1856V64.0812C71.0009 67.8888 67.8897 71.0001 64.0821 71.0001H55.1864C51.3788 71.0001 48.2676 67.8888 48.2676 64.0812V55.1856Z"
          fill="currentColor"/>
    <path fill-rule="evenodd" clip-rule="evenodd"
          d="M38.9554 19.2864C38.9554 18.7417 39.4165 18.3 39.9854 18.3H48.2665C54.9358 18.3 58.0321 26.2054 53.0247 30.4141L28.3346 51.0992L28.3327 51.1008C24.7572 54.0814 26.9693 59.7273 31.7043 59.7273H39.9854C40.5542 59.7273 41.0154 60.1689 41.0154 60.7137C41.0154 61.2584 40.5542 61.7001 39.9854 61.7001H31.7043C25.0685 61.7001 21.9658 53.7943 26.9791 49.6137C26.9795 49.6134 26.9788 49.614 26.9791 49.6137L51.6658 28.9315C51.6662 28.9312 51.6655 28.9318 51.6658 28.9315C55.2472 25.9199 53.0297 20.2728 48.2665 20.2728H39.9854C39.4165 20.2728 38.9554 19.8312 38.9554 19.2864Z"
          fill="currentColor"/>
    <path fill-rule="evenodd" clip-rule="evenodd"
          d="M19.334 20.3667C19.334 19.796 19.7907 19.3334 20.3541 19.3334H20.3806C20.9439 19.3334 21.4007 19.796 21.4007 20.3667C21.4007 20.9374 20.9439 21.4 20.3806 21.4H20.3541C19.7907 21.4 19.334 20.9374 19.334 20.3667Z"
          fill="currentColor"/>
    <path fill-rule="evenodd" clip-rule="evenodd"
          d="M58.5996 59.6333C58.5996 59.0626 59.0563 58.6 59.6197 58.6H59.6462C60.2096 58.6 60.6663 59.0626 60.6663 59.6333C60.6663 60.204 60.2096 60.6666 59.6462 60.6666H59.6197C59.0563 60.6666 58.5996 60.204 58.5996 59.6333Z"
          fill="currentColor"/>
</svg>
