<svg viewBox="0 0 80 80" fill="none" xmlns="http://www.w3.org/2000/svg">
    <path d="M30.0979 32.7797C26.3873 32.7797 22.9062 31.02 20.7257 27.8832C18.0096 24.0195 17.9331 18.9317 20.5344 14.9533L20.7257 14.6472L21.1082 14.5707C25.737 13.4614 30.4805 15.2593 33.1965 19.1612C35.9126 23.0249 35.9891 28.1127 33.3878 32.0911L33.1965 32.3972L32.814 32.4737C31.8959 32.665 30.9778 32.7797 30.0979 32.7797ZM21.9115 16.3304C19.9606 19.582 20.0753 23.637 22.2941 26.7738C24.4746 29.9106 28.2617 31.4026 31.9724 30.6757C33.9234 27.4241 33.8086 23.3692 31.5898 20.2323C29.3711 17.0955 25.6604 15.6418 21.9115 16.3304Z"
          fill="currentColor"/>
    <path d="M49.5311 34.8455C48.2304 34.8455 46.8915 34.6925 45.5909 34.3865L45.2084 34.31L45.0171 34.0039C41.2299 28.1893 41.3447 20.8062 45.3231 15.1446C49.3015 9.483 56.2256 6.88172 62.9583 8.45014L63.3408 8.52663L63.5321 8.83267C67.3193 14.6473 67.2045 22.0304 63.2261 27.692C60.051 32.2442 54.9249 34.8455 49.5311 34.8455ZM46.4325 32.5885C52.2854 33.8509 58.253 31.4791 61.6959 26.5826C65.1388 21.6861 65.33 15.2594 62.155 10.1716C56.3021 8.90918 50.3344 11.2809 46.8915 16.1775C43.4486 21.1123 43.2574 27.5007 46.4325 32.5885Z"
          fill="currentColor"/>
    <path d="M38.8216 72.6406C24.591 72.6406 13 61.0496 13 46.819V45.8627H64.6431V46.819C64.6431 61.0496 53.0521 72.6406 38.8216 72.6406ZM14.9127 47.7754C15.41 60.514 25.9299 70.7279 38.8216 70.7279C51.7132 70.7279 62.1949 60.514 62.7304 47.7754H14.9127Z"
          fill="currentColor"/>
    <path d="M38.9753 46.819C38.9371 46.819 38.8988 46.819 38.8606 46.819C37.9042 46.7807 37.0626 46.2069 36.7183 45.2888L31.707 31.9764L26.1602 24.2873C25.8541 23.8665 25.9307 23.2544 26.3897 22.9484C26.8105 22.6424 27.4226 22.7189 27.7286 23.1779L33.4667 31.2113L38.5163 44.6385C38.631 44.9063 38.8605 44.9445 38.9753 44.9445C39.0901 44.9445 39.3196 44.9445 39.4726 44.6768L44.9812 33.0857C45.2107 32.6267 45.7846 32.3972 46.2436 32.6267C46.7027 32.8562 46.9322 33.43 46.7027 33.8891L41.1941 45.5183C40.735 46.3217 39.8934 46.819 38.9753 46.819Z"
          fill="currentColor"/>
    <path d="M45.7458 34.0038C45.5545 34.0038 45.4015 33.9273 45.2485 33.8126C44.8277 33.5065 44.7512 32.8945 45.0572 32.4737L53.1289 21.8008C53.4349 21.38 54.047 21.3035 54.4678 21.6095C54.8886 21.9155 54.9651 22.5276 54.659 22.9484L46.5874 33.6213C46.3961 33.8891 46.0519 34.0038 45.7458 34.0038Z"
          fill="currentColor"/>
</svg>
