<svg viewBox="0 0 69 67" fill="none" xmlns="http://www.w3.org/2000/svg">
    <path d="M63.25 36.2757L63.25 25.1139C63.25 11.1617 57.5 5.58081 43.125 5.58081L25.875 5.58081C11.5 5.58081 5.75 11.1617 5.75 25.1139L5.75 41.8565C5.75 55.8088 11.5 61.3896 25.875 61.3896L37.375 61.3896"
          stroke="currentColor" stroke-width="1.5" stroke-linecap="round" stroke-linejoin="round"/>
    <path d="M63.25 36.2757L63.25 25.1139C63.25 11.1617 57.5 5.58081 43.125 5.58081L25.875 5.58081C11.5 5.58081 5.75 11.1617 5.75 25.1139L5.75 41.8565C5.75 55.8088 11.5 61.3896 25.875 61.3896L37.375 61.3896"
          stroke="currentColor" stroke-width="1.5" stroke-linecap="round" stroke-linejoin="round"/>
    <path d="M63.25 36.2757L63.25 25.1139C63.25 11.1617 57.5 5.58081 43.125 5.58081L25.875 5.58081C11.5 5.58081 5.75 11.1617 5.75 25.1139L5.75 41.8565C5.75 55.8088 11.5 61.3896 25.875 61.3896L37.375 61.3896"
          stroke="currentColor" stroke-width="1.5" stroke-linecap="round" stroke-linejoin="round"/>
    <path d="M46 54.2183L50.5425 58.5993L60.375 47.4375" stroke="currentColor" stroke-width="1.5" stroke-linecap="round"
          stroke-linejoin="round"/>
    <path d="M20.125 29.2996L20.125 37.6709" stroke="currentColor" stroke-width="1.5" stroke-linecap="round"
          stroke-linejoin="round"/>
    <path d="M34.5 29.2996L34.5 37.6709" stroke="currentColor" stroke-width="1.5" stroke-linecap="round"
          stroke-linejoin="round"/>
    <path d="M48.875 29.2996L48.875 37.6709" stroke="currentColor" stroke-width="1.5" stroke-linecap="round"
          stroke-linejoin="round"/>
</svg>
