<svg width="336" height="143" viewBox="0 0 336 143" fill="none" xmlns="http://www.w3.org/2000/svg">
    <path d="M67.6411 103.569V8.87096L11.754 103.569H67.6411ZM76.0686 142.601H70.0807C68.4543 142.601 67.6411 141.714 67.6411 139.94V113.548H3.32661C1.10887 113.548 0 112.513 0 110.444V106.452C0 105.121 0.517473 103.421 1.55242 101.351L59.6573 3.32661C60.9879 1.10887 62.7621 0 64.9799 0H75.4032C77.4731 0 78.5081 1.10887 78.5081 3.32661V103.569H95.1412C96.7675 103.569 97.5807 104.308 97.5807 105.786V111.109C97.5807 112.735 96.7675 113.548 95.1412 113.548H78.5081V139.94C78.5081 141.714 77.6949 142.601 76.0686 142.601Z"
          fill="black"/>
    <path d="M156.247 132.621H176.65C183.451 132.621 188.626 130.773 192.174 127.077C195.723 123.233 197.497 117.762 197.497 110.665V31.9355C197.497 24.8387 195.723 19.4422 192.174 15.746C188.626 11.9019 183.451 9.97983 176.65 9.97983H156.247C149.446 9.97983 144.271 11.9019 140.723 15.746C137.174 19.4422 135.4 24.8387 135.4 31.9355V110.665C135.4 117.762 137.174 123.233 140.723 127.077C144.271 130.773 149.446 132.621 156.247 132.621ZM177.537 142.601H155.36C145.75 142.601 138.135 139.792 132.517 134.173C126.899 128.555 124.09 120.867 124.09 111.109V31.4919C124.09 21.7339 126.899 14.0457 132.517 8.42741C138.135 2.80914 145.75 0 155.36 0H177.537C187.147 0 194.688 2.80914 200.158 8.42741C205.776 14.0457 208.586 21.7339 208.586 31.4919V111.109C208.586 120.867 205.776 128.555 200.158 134.173C194.688 139.792 187.147 142.601 177.537 142.601Z"
          fill="black"/>
    <path d="M305.65 103.569V8.87096L249.763 103.569H305.65ZM314.077 142.601H308.089C306.463 142.601 305.65 141.714 305.65 139.94V113.548H241.335C239.118 113.548 238.009 112.513 238.009 110.444V106.452C238.009 105.121 238.526 103.421 239.561 101.351L297.666 3.32661C298.997 1.10887 300.771 0 302.989 0H313.412C315.482 0 316.517 1.10887 316.517 3.32661V103.569H333.15C334.776 103.569 335.589 104.308 335.589 105.786V111.109C335.589 112.735 334.776 113.548 333.15 113.548H316.517V139.94C316.517 141.714 315.704 142.601 314.077 142.601Z"
          fill="black"/>
</svg>
