<svg viewBox="0 0 24 24" fill="none" xmlns="http://www.w3.org/2000/svg">
    <path d="M13.865 14.79C13.9358 14.86 13.9358 14.9742 13.865 15.045C13.4775 15.43 12.87 15.6175 12.0058 15.6175L11.9992 15.6158L11.9925 15.6175C11.1292 15.6175 10.5208 15.43 10.1333 15.0442C10.0625 14.9742 10.0625 14.86 10.1333 14.79C10.2033 14.72 10.3183 14.72 10.3892 14.79C10.705 15.1042 11.2292 15.2575 11.9925 15.2575L11.9992 15.2592L12.0058 15.2575C12.7683 15.2575 13.2925 15.1042 13.6092 14.79C13.68 14.72 13.795 14.72 13.865 14.79ZM10.9983 12.775C10.9983 12.3525 10.6533 12.0092 10.23 12.0092C9.80583 12.0092 9.46083 12.3525 9.46083 12.775C9.46083 13.1967 9.80583 13.54 10.23 13.54C10.6533 13.5408 10.9983 13.1975 10.9983 12.775ZM22 12C22 17.5225 17.5225 22 12 22C6.4775 22 2 17.5225 2 12C2 6.4775 6.4775 2 12 2C17.5225 2 22 6.4775 22 12ZM17.8333 11.8925C17.8333 11.1833 17.2542 10.6067 16.5417 10.6067C16.1942 10.6067 15.8792 10.7458 15.6467 10.9692C14.7667 10.39 13.5758 10.0217 12.2583 9.97417L12.9792 7.70417L14.9317 8.16167L14.9292 8.19C14.9292 8.77 15.4033 9.24167 15.9858 9.24167C16.5683 9.24167 17.0417 8.77 17.0417 8.19C17.0417 7.61 16.5683 7.13833 15.9858 7.13833C15.5383 7.13833 15.1575 7.4175 15.0033 7.80833L12.8992 7.315C12.8075 7.2925 12.7133 7.34583 12.685 7.43583L11.8808 9.9675C10.5008 9.98417 9.25167 10.3558 8.3325 10.9517C8.10167 10.7392 7.79583 10.6058 7.4575 10.6058C6.74583 10.6067 6.16667 11.1833 6.16667 11.8925C6.16667 12.3642 6.42583 12.7725 6.80667 12.9967C6.78167 13.1333 6.765 13.2725 6.765 13.4133C6.765 15.3142 9.1025 16.8608 11.9758 16.8608C14.8492 16.8608 17.1867 15.3142 17.1867 13.4133C17.1867 13.28 17.1725 13.1492 17.15 13.02C17.555 12.8025 17.8333 12.3817 17.8333 11.8925ZM13.7733 12.01C13.3492 12.01 13.005 12.3533 13.005 12.7758C13.005 13.1975 13.35 13.5408 13.7733 13.5408C14.1967 13.5408 14.5417 13.1975 14.5417 12.7758C14.5417 12.3533 14.1975 12.01 13.7733 12.01Z"
          fill="currentColor"/>
</svg>
