<svg viewBox="0 0 80 80" fill="none" xmlns="http://www.w3.org/2000/svg">
    <path fill-rule="evenodd" clip-rule="evenodd"
          d="M43.5 11.7346C29.7592 11.7346 18.7415 22.0691 18.7415 34.6886C18.7415 34.9394 18.7448 35.1851 18.7525 35.427C21.2081 34.116 24.0297 33.3878 27.0427 33.3878C36.2909 33.3878 43.8773 40.3709 43.8773 49.1144C43.8773 52.2189 42.8988 55.1197 41.2143 57.5532C41.9655 57.6128 42.7273 57.6427 43.5 57.6427C43.6566 57.6427 43.8102 57.6847 43.9448 57.7644L56.1064 64.9628L56.1126 64.9665C57.5401 65.8276 59.3544 64.6752 59.1511 62.9811C59.151 62.9804 59.1509 62.9797 59.1508 62.979L58.0192 53.8462C57.9797 53.5279 58.1199 53.2139 58.3836 53.0298C64.3859 48.8393 68.2585 42.1839 68.2585 34.6886C68.2585 22.0691 57.2408 11.7346 43.5 11.7346ZM17 34.6886C17 21.0006 28.9122 10 43.5 10C58.0878 10 70 21.0006 70 34.6886C70 42.6227 65.9893 49.6467 59.8109 54.1452L60.8795 62.7691L60.8798 62.7716C61.2551 65.8741 57.9066 68.0733 55.2136 66.4521C55.2126 66.4515 55.2115 66.4509 55.2105 66.4502L43.2592 59.3763C41.9696 59.3665 40.7044 59.2777 39.464 59.1092C39.1487 59.0664 38.882 58.8557 38.7683 58.5596C38.6546 58.2636 38.7122 57.9294 38.9184 57.688C40.9412 55.3192 42.1358 52.3354 42.1358 49.1144C42.1358 41.4374 35.4418 35.1224 27.0427 35.1224C23.8433 35.1224 20.903 36.0281 18.4623 37.6124C18.2102 37.776 17.8911 37.7984 17.6184 37.6716C17.3458 37.5448 17.1582 37.2867 17.1223 36.9891C17.0298 36.2213 17 35.4619 17 34.6886Z"
          fill="currentColor"/>
    <path fill-rule="evenodd" clip-rule="evenodd"
          d="M27 35.7263C23.7692 35.7263 20.8 36.6278 18.3353 38.2045L18.3286 38.2087L18.3286 38.2087C14.3376 40.7117 11.7586 44.9085 11.7586 49.6517C11.7586 54.1785 14.1173 58.2105 17.8289 60.7392C18.0982 60.9226 18.2412 61.2378 18.1999 61.5569L17.4677 67.2203C17.3774 67.9961 18.25 68.5212 18.8901 68.1356L18.901 68.129L18.901 68.1291L26.551 63.6695C26.6869 63.5903 26.842 63.5485 27 63.5485C31.9028 63.5485 36.2533 61.4433 38.9838 58.1944L38.9922 58.1844L38.9923 58.1845C41.035 55.827 42.2414 52.8574 42.2414 49.6517C42.2414 42.0112 35.4816 35.7263 27 35.7263ZM17.3784 36.756C20.1303 34.9965 23.4323 34 27 34C36.3391 34 44 40.9498 44 49.6517C44 53.2915 42.6288 56.65 40.3361 59.2981C37.3092 62.8965 32.5577 65.2045 27.2441 65.2732L19.8039 69.6105C17.8667 70.7712 15.4633 69.1703 15.7215 67.0154L15.7225 67.0075L15.7225 67.0075L16.3894 61.8494C12.4951 59.0103 10 54.6093 10 49.6517C10 44.2686 12.93 39.5473 17.3784 36.756Z"
          fill="currentColor"/>
</svg>
