<svg width="106" height="20" viewBox="0 0 106 20" fill="none" xmlns="http://www.w3.org/2000/svg">
<g clip-path="url(#clip0_1990_7204)">
<path d="M3.99225 6.56938C3.99225 6.60086 4.02765 6.63233 4.05123 6.66773C4.15351 6.84079 4.27544 7.00991 4.4013 7.19086L4.66481 7.58419C5.54558 7.3624 6.32246 6.84265 6.86351 6.11314C7.25218 5.50489 7.492 4.81363 7.56365 4.09538C7.60299 3.87117 7.63835 3.65486 7.68951 3.45425C8.12218 1.51122 9.58534 1.31455 9.90393 1.29489C11.0131 1.29489 11.67 2.42767 11.8234 2.72266C11.9178 2.65973 12.02 2.59287 12.1262 2.52993C12.3438 2.39148 12.5712 2.26922 12.8067 2.16414C12.5392 1.63708 11.6109 0.162109 9.91572 0.162109H9.86067C8.65316 0.228975 7.07986 1.06283 6.59211 3.20252C6.5292 3.44245 6.48986 3.68633 6.45053 3.92229C6.4013 4.46759 6.22628 4.99401 5.9392 5.46022C5.45562 6.06493 4.75902 6.4618 3.99225 6.56938Z" fill="black"/>
<path d="M3.14655 8.10207C3.49446 8.52393 3.74313 9.0186 3.87422 9.54951C3.96127 10.3201 3.7486 11.0947 3.28029 11.7128L3.39043 11.7403C3.58313 11.7875 3.78372 11.8229 4.004 11.8622L4.46025 11.9409C4.92537 11.1606 5.10604 10.2434 4.97158 9.34498C4.81822 8.64821 4.50292 7.9974 4.0512 7.44519C3.92141 7.25642 3.79555 7.0794 3.68541 6.90242C2.61949 5.22291 3.51236 4.04688 3.72474 3.80695C4.51141 3.02028 5.78183 3.35461 6.08471 3.45688C6.10828 3.34281 6.1319 3.22481 6.16337 3.10288C6.21864 2.85135 6.29225 2.60421 6.38362 2.36343C5.8133 2.18643 4.09446 1.79704 2.89876 3.02422C2.08457 3.93281 1.57324 5.64376 2.75322 7.49239C2.85942 7.70874 3.00495 7.90934 3.14655 8.10207Z" fill="black"/>
<path d="M3.7602 13.4011C4.30634 13.4571 4.83244 13.6374 5.29809 13.9282C5.9075 14.4163 6.30486 15.1208 6.40729 15.8948L6.5056 15.8358C6.67869 15.7296 6.84781 15.6116 7.02872 15.4857C7.20967 15.3599 7.27655 15.3088 7.42206 15.2222C7.20027 14.3415 6.68051 13.5646 5.95104 13.0235C5.34616 12.6214 4.65476 12.368 3.93325 12.2841C3.70908 12.2448 3.49272 12.2094 3.29213 12.1582C1.34911 11.7295 1.15245 10.2663 1.13278 9.94378C1.13278 8.83069 2.26556 8.17381 2.56055 8.02041C2.49762 7.92209 2.43076 7.82378 2.36782 7.71757C2.23018 7.49957 2.10795 7.27216 2.00203 7.03711C1.47104 7.31244 0 8.24855 0 9.96346V9.99493C0.0668649 11.2064 0.900717 12.7875 3.04041 13.2674C3.28034 13.3185 3.53995 13.3618 3.7602 13.4011Z" fill="black"/>
<path d="M7.94118 16.7098C8.36189 16.3592 8.85687 16.109 9.38862 15.9782C10.1589 15.8952 10.932 16.1074 11.5519 16.5721C11.5629 16.5372 11.5721 16.5017 11.5795 16.4659C11.6306 16.2692 11.6621 16.0726 11.7014 15.8444C11.725 15.6989 11.7525 15.5495 11.7801 15.396C11.0002 14.9296 10.0829 14.7475 9.1841 14.8808C8.48792 15.0358 7.83747 15.351 7.28434 15.8012C7.09554 15.9349 6.91855 16.0608 6.74154 16.167C5.06203 17.2368 3.88599 16.34 3.64606 16.1276C2.85941 15.341 3.19375 14.0745 3.29599 13.7677L2.94594 13.693C2.69336 13.6351 2.44499 13.5602 2.20255 13.4688C2.02556 14.0391 1.63616 15.7579 2.86334 16.9576C3.4895 17.5078 4.29533 17.81 5.1289 17.8071C5.91122 17.7957 6.6735 17.558 7.32368 17.1228C7.54785 16.989 7.74845 16.8474 7.94118 16.7098Z" fill="black"/>
<path d="M15.6976 13.4405L15.6386 13.3461C15.5324 13.1731 15.4144 13.0039 15.2846 12.8269C15.1548 12.6499 15.1116 12.5791 15.025 12.4336C14.1437 12.6564 13.3667 13.1776 12.8263 13.9086C12.4413 14.5073 12.2003 15.1872 12.1223 15.8949C12.0829 16.123 12.0475 16.3354 11.9964 16.5399C11.5677 18.483 10.1045 18.6836 9.78197 18.7032C8.66885 18.7032 8.01201 17.5665 7.8586 17.2715L7.55576 17.4682C7.3378 17.6048 7.11039 17.7257 6.87531 17.83C7.1506 18.3532 8.07888 19.836 9.77411 19.836H9.8331C11.0445 19.7731 12.6257 18.9392 13.1056 16.7995C13.1646 16.5557 13.2078 16.3118 13.2472 16.0758C13.3037 15.5346 13.4811 15.0131 13.7664 14.5497C14.2472 13.9496 14.937 13.5534 15.6976 13.4405Z" fill="black"/>
<path d="M16.5473 11.9053C16.1947 11.4859 15.9442 10.9904 15.8157 10.4578C15.7335 9.68763 15.9456 8.91483 16.4096 8.29455L16.3034 8.267C16.1068 8.21981 15.9101 8.18441 15.6898 8.14904L15.2336 8.06641C14.7671 8.84623 14.585 9.76353 14.7183 10.6624C14.8733 11.3597 15.1884 12.0115 15.6387 12.5661C15.7724 12.7509 15.8983 12.9279 16.0045 13.1089C17.0743 14.7884 16.1775 15.9644 15.9652 16.2043C15.1785 16.991 13.912 16.6527 13.6052 16.5505C13.5816 16.6685 13.558 16.7865 13.5305 16.9045C13.4727 17.1558 13.3977 17.4028 13.3063 17.6439C13.7306 17.7756 14.1718 17.8445 14.616 17.8484C15.0188 17.8611 15.4199 17.7912 15.7946 17.643C16.1694 17.4949 16.5098 17.2717 16.7951 16.9871C17.6053 16.0863 18.1363 14.3793 16.9603 12.5268C16.8266 12.3025 16.6849 12.1019 16.5473 11.9053Z" fill="black"/>
<path d="M16.6495 6.75419C16.4057 6.69124 16.1618 6.65191 15.9258 6.61258C15.3809 6.56184 14.8547 6.38693 14.3879 6.10128C13.7847 5.61637 13.3882 4.92044 13.2787 4.1543L13.1843 4.20935C13.0113 4.31163 12.8421 4.43356 12.6612 4.55942C12.5393 4.64595 12.4134 4.73644 12.2679 4.82296C12.4907 5.70426 13.0119 6.48121 13.7429 7.02163C14.3427 7.40752 15.024 7.64854 15.7331 7.7257C15.9612 7.76503 16.1736 7.80044 16.3781 7.85156C18.3212 8.28423 18.5218 9.74738 18.5414 10.066C18.5414 11.183 17.4086 11.8399 17.1097 11.9893C17.1766 12.0877 17.2395 12.1899 17.3064 12.2962C17.4545 12.5141 17.5859 12.7429 17.6997 12.9805C18.2268 12.7013 19.7175 11.7612 19.6978 10.0463V10.0227C19.6231 8.81521 18.7892 7.24191 16.6495 6.75419Z" fill="black"/>
<path d="M11.7447 3.30894C11.3238 3.65835 10.8288 3.90719 10.2973 4.0366C9.52683 4.122 8.75287 3.90951 8.13399 3.44267C8.13399 3.47807 8.13399 3.51347 8.10648 3.55281C8.05929 3.74947 8.02388 3.94614 7.98848 4.17032C7.96094 4.31979 7.93736 4.46926 7.90588 4.62267C8.6862 5.08775 9.60343 5.26842 10.5018 5.13396C11.1992 4.97895 11.8509 4.66386 12.4055 4.21358C12.5904 4.08379 12.7674 3.95793 12.9483 3.84779C14.6278 2.78188 15.8038 3.67474 16.0438 3.88712C16.8304 4.67379 16.4922 5.94421 16.3899 6.24709C16.5079 6.2707 16.6259 6.29428 16.7439 6.32575C16.9956 6.38046 17.2428 6.45407 17.4834 6.546C17.6604 5.97568 18.0497 4.25684 16.8265 3.05721C15.914 2.24696 14.207 1.73564 12.3544 2.91561C12.142 3.02181 11.9414 3.16341 11.7447 3.30894Z" fill="black"/>
<path d="M29.1927 7.19838C28.6982 6.90722 28.1342 6.75501 27.5604 6.75785H26.1798V7.88669H27.5604C28.1261 7.88775 28.6684 8.11322 29.0681 8.51364C29.4677 8.91406 29.6922 9.45669 29.6922 10.0224C29.6924 10.2496 29.6566 10.4753 29.586 10.6911C29.519 10.9042 29.4152 11.1039 29.2792 11.2811C29.1457 11.4545 28.9897 11.6093 28.8151 11.7413C28.6388 11.8764 28.4405 11.9801 28.229 12.0481C28.0132 12.1187 27.7875 12.1545 27.5604 12.1543H26.1798V13.2831H27.5604C27.9078 13.2897 28.2542 13.2419 28.587 13.1415C28.9162 13.031 29.2247 12.8662 29.4995 12.6538C29.7614 12.4565 29.9944 12.2235 30.1917 11.9615C30.3954 11.6906 30.5523 11.3875 30.6558 11.0648C30.7658 10.7323 30.8215 10.3844 30.821 10.0343C30.8252 9.4595 30.6744 8.89427 30.3845 8.39803C30.0998 7.90017 29.6887 7.48634 29.1927 7.19838Z" fill="black"/>
<path d="M37.3817 12.1543H32.7878V13.2831H37.3817V12.1543Z" fill="black"/>
<path d="M37.3818 6.75781H32.7878V7.88665H37.3818V6.75781Z" fill="black"/>
<path d="M36.6109 9.45312H32.7878V10.5898H36.6109V9.45312Z" fill="black"/>
<path d="M40.4772 6.75781H39.3484V13.2831H43.9425V12.1542H40.4772V6.75781Z" fill="black"/>
<path d="M48.5954 6.75781H45.9091V7.88665H48.5954C48.8042 7.88665 49.0042 7.96953 49.1516 8.11708C49.2993 8.26458 49.3821 8.46469 49.3821 8.67332C49.3821 8.88195 49.2993 9.08202 49.1516 9.22957C49.0042 9.37708 48.8042 9.45995 48.5954 9.45995H45.9091V13.291H47.0379V10.5809H48.6112C48.8621 10.5809 49.1105 10.5315 49.3421 10.4354C49.5737 10.3393 49.7842 10.1984 49.9614 10.0208C50.1386 9.84325 50.2793 9.63251 50.3747 9.40062C50.4705 9.16869 50.5193 8.92023 50.5189 8.66939C50.5179 8.16339 50.3165 7.67837 49.9593 7.32023C49.6018 6.96209 49.1172 6.75988 48.6112 6.75781H48.5954Z" fill="black"/>
<path d="M56.328 9.45209H53.5986V6.75781H52.4698V13.2831H53.5986V10.5888H56.328V13.2831H57.4572V6.75781H56.328V9.45209Z" fill="black"/>
<path d="M60.5526 6.75781H59.4238V13.2831H60.5526V6.75781Z" fill="black"/>
<path d="M69.355 7.19837C68.8593 6.90759 68.294 6.75545 67.7189 6.75784H66.3382V7.88668H67.7189C67.9992 7.88616 68.2771 7.9411 68.5364 8.0483C68.7954 8.15549 69.0308 8.31286 69.2291 8.51131C69.427 8.70981 69.5838 8.94549 69.6908 9.20482C69.7975 9.46416 69.8519 9.74202 69.8508 10.0224C69.8512 10.2496 69.815 10.4752 69.7445 10.6911C69.6775 10.9042 69.5736 11.1039 69.4378 11.2811C69.3045 11.4535 69.1501 11.6082 68.9775 11.7413C68.8003 11.8772 68.6007 11.9811 68.3877 12.0481C68.1719 12.1187 67.9459 12.1545 67.7189 12.1543H66.3382V13.2831H67.7189C68.0687 13.283 68.4164 13.2286 68.7494 13.1219C69.0715 13.0152 69.3747 12.8572 69.6463 12.6538C69.9122 12.4573 70.1494 12.2243 70.3501 11.9616C70.5554 11.6908 70.7133 11.3877 70.8182 11.0648C70.9252 10.7317 70.9796 10.3841 70.9796 10.0343C70.9838 9.45952 70.8329 8.8943 70.5431 8.39802C70.2599 7.90033 69.8501 7.48644 69.355 7.19837Z" fill="black"/>
<path d="M74.075 6.75781H72.9463V13.2831H74.075V6.75781Z" fill="black"/>
<path d="M80.2386 10.5888H81.3673C81.2466 11.0368 80.981 11.4322 80.6123 11.7137C80.2968 11.9575 79.9196 12.108 79.5228 12.1478C79.1263 12.1876 78.7266 12.1153 78.3691 11.939C78.0116 11.7628 77.7109 11.4896 77.501 11.1508C77.2912 10.8119 77.1807 10.4209 77.1824 10.0224C77.181 9.59989 77.3056 9.18659 77.5396 8.83494C77.774 8.48326 78.1074 8.20912 78.4975 8.04726C78.8877 7.88543 79.3175 7.84319 79.7316 7.92596C80.1459 8.0087 80.5263 8.2127 80.8245 8.51203L81.6112 7.72536C81.4674 7.57884 81.3091 7.44708 81.1393 7.33203C80.9638 7.21434 80.7782 7.11298 80.5845 7.02919C80.3863 6.94263 80.1793 6.87799 79.967 6.83645C79.7509 6.7922 79.5309 6.76982 79.3102 6.76957C78.7351 6.76663 78.1698 6.9188 77.674 7.2101C77.1845 7.49385 76.7779 7.90063 76.494 8.3901C76.2081 8.88796 76.0575 9.45213 76.0575 10.0263C76.0575 10.6005 76.2081 11.1647 76.494 11.6626C76.7779 12.152 77.1845 12.5588 77.674 12.8426C78.1719 13.1286 78.7361 13.2792 79.3102 13.2792C79.8845 13.2792 80.4488 13.1286 80.9467 12.8426C81.4361 12.5588 81.8428 12.152 82.1263 11.6626C82.4172 11.1665 82.5695 10.6014 82.567 10.0263V9.46385H80.2386V10.5888Z" fill="black"/>
<path d="M85.6505 6.75781H84.5217V13.2831H85.6505V6.75781Z" fill="black"/>
<path d="M87.6175 7.88665H89.348V13.2831H90.4768V7.88665H92.2115V6.75781H87.6175V7.88665Z" fill="black"/>
<path d="M95.5312 6.75781L93.1516 13.2831H94.3551L96.1249 8.40978L97.9066 13.2831H99.1063L96.7308 6.75781H95.5312Z" fill="black"/>
<path d="M102.194 12.1542V6.75781H101.065V13.2831H105.659V12.1542H102.194Z" fill="black"/>
</g>
<defs>
<clipPath id="clip0_1990_7204">
<rect width="105.659" height="19.6746" fill="white" transform="translate(0 0.162109)"/>
</clipPath>
</defs>
</svg>
