<svg width="59" height="20" viewBox="0 0 59 20" fill="none" xmlns="http://www.w3.org/2000/svg">
<path d="M0 0H20.5512V20H0V0Z" fill="black"/>
<path d="M34.5045 2.92285V10.6273H33.1055V5.89632C33.1055 5.7972 33.1073 5.69101 33.1108 5.57773C33.1179 5.46446 33.1284 5.34941 33.1425 5.2326L30.9516 9.41139C30.832 9.64148 30.6472 9.75652 30.3973 9.75652H30.1756C30.0524 9.75652 29.9433 9.7282 29.8483 9.67156C29.7533 9.61139 29.6776 9.52466 29.6213 9.41139L27.4199 5.21667C27.4305 5.34056 27.4393 5.46092 27.4463 5.57773C27.4533 5.69101 27.4568 5.7972 27.4568 5.89632V10.6273H26.0579V2.92285H27.2615C27.3284 2.92285 27.3882 2.92462 27.441 2.92816C27.4938 2.9317 27.5396 2.94232 27.5783 2.96002C27.6205 2.97417 27.6575 2.99895 27.6891 3.03435C27.7243 3.06621 27.7578 3.11223 27.7894 3.17241L29.9328 7.28217C29.9996 7.40606 30.0612 7.5335 30.1175 7.66447C30.1774 7.79545 30.2337 7.92996 30.2865 8.06801C30.3393 7.92642 30.3938 7.78837 30.4501 7.65385C30.51 7.51934 30.5733 7.39013 30.6402 7.26624L32.7677 3.17241C32.7993 3.11223 32.8328 3.06621 32.868 3.03435C32.9032 2.99895 32.9401 2.97417 32.9788 2.96002C33.0211 2.94232 33.0668 2.9317 33.1161 2.92816C33.1689 2.92462 33.2305 2.92285 33.3009 2.92285H34.5045Z" fill="black"/>
<path d="M39.7221 7.70164L38.8933 5.3441C38.844 5.22021 38.7912 5.07507 38.7349 4.9087C38.6821 4.74233 38.6311 4.5618 38.5818 4.3671C38.5325 4.56534 38.4798 4.74941 38.4234 4.91932C38.3707 5.08569 38.3196 5.23083 38.2704 5.35472L37.4468 7.70164H39.7221ZM42.3828 10.6273H41.1528C41.0155 10.6273 40.9029 10.5955 40.8149 10.5317C40.7304 10.4645 40.6671 10.3795 40.6249 10.2769L40.1075 8.80607H37.0561L36.5388 10.2769C36.5036 10.3654 36.442 10.4468 36.354 10.5211C36.266 10.5919 36.1552 10.6273 36.0214 10.6273H34.7808L37.7741 2.92285H39.3948L42.3828 10.6273Z" fill="black"/>
<path d="M46.1594 6.7034H48.7884V9.88396C48.3977 10.1707 47.9807 10.3813 47.5372 10.5158C47.0973 10.6468 46.631 10.7123 46.1383 10.7123C45.5083 10.7123 44.9381 10.6149 44.4278 10.4202C43.9175 10.222 43.4811 9.94767 43.1186 9.59723C42.7561 9.24678 42.4763 8.83085 42.2792 8.34943C42.0821 7.86801 41.9836 7.34235 41.9836 6.77243C41.9836 6.19544 42.0768 5.66623 42.2634 5.18481C42.4534 4.70339 42.7227 4.28923 43.0711 3.94232C43.4195 3.59542 43.8401 3.32462 44.3328 3.12993C44.829 2.93524 45.3833 2.83789 45.9957 2.83789C46.3125 2.83789 46.6081 2.86444 46.8826 2.91754C47.1571 2.9671 47.4105 3.03789 47.6428 3.12993C47.8751 3.21842 48.088 3.32462 48.2816 3.44851C48.4752 3.57241 48.6511 3.70869 48.8095 3.85737L48.3502 4.56888C48.2798 4.68215 48.1883 4.75118 48.0757 4.77596C47.9631 4.80074 47.8399 4.77242 47.7062 4.691C47.5795 4.61312 47.4545 4.5441 47.3313 4.48392C47.2117 4.4202 47.0832 4.36533 46.946 4.31932C46.8087 4.2733 46.6591 4.2379 46.4972 4.21312C46.3353 4.18834 46.1488 4.17595 45.9376 4.17595C45.5822 4.17595 45.2602 4.2379 44.9716 4.36179C44.683 4.48569 44.4366 4.66091 44.2325 4.88746C44.0319 5.11401 43.877 5.38658 43.7679 5.70517C43.6588 6.02375 43.6043 6.37951 43.6043 6.77243C43.6043 7.19721 43.6641 7.57775 43.7838 7.91403C43.9034 8.24678 44.0724 8.52819 44.2906 8.75828C44.5088 8.98837 44.7692 9.1636 45.0719 9.28395C45.3781 9.40431 45.7177 9.46448 46.0907 9.46448C46.3441 9.46448 46.5694 9.43971 46.7665 9.39015C46.9671 9.33705 47.1624 9.26625 47.3525 9.17776V7.88217H46.4867C46.3846 7.88217 46.3037 7.85562 46.2438 7.80253C46.1875 7.74589 46.1594 7.67509 46.1594 7.59014V6.7034Z" fill="black"/>
<path d="M51.2549 10.6273H49.6606V2.92285H51.2549V10.6273Z" fill="black"/>
<path d="M57.6504 8.73174C57.7384 8.73174 57.8123 8.76359 57.8721 8.82731L58.5004 9.50165C58.1907 9.89812 57.8053 10.199 57.3442 10.4043C56.8867 10.6096 56.3412 10.7123 55.7077 10.7123C55.134 10.7123 54.6184 10.6149 54.1609 10.4202C53.7034 10.222 53.3145 9.94767 52.9942 9.59723C52.6739 9.24678 52.4276 8.83085 52.2551 8.34943C52.0827 7.86801 51.9965 7.34235 51.9965 6.77243C51.9965 6.39013 52.0369 6.02729 52.1179 5.68393C52.2023 5.33702 52.3238 5.01844 52.4821 4.72817C52.6405 4.4379 52.8306 4.17595 53.0523 3.94232C53.2775 3.70869 53.5309 3.51046 53.8125 3.34763C54.094 3.18126 54.4002 3.05559 54.7311 2.97064C55.0654 2.88214 55.4209 2.83789 55.7974 2.83789C56.079 2.83789 56.3447 2.86267 56.5946 2.91223C56.848 2.96179 57.0838 3.03081 57.302 3.11931C57.5202 3.2078 57.7208 3.31577 57.9038 3.4432C58.0903 3.5671 58.2575 3.70338 58.4053 3.85206L57.8721 4.58481C57.8405 4.63082 57.8 4.67153 57.7507 4.70693C57.7015 4.74233 57.6346 4.76003 57.5501 4.76003C57.4656 4.76003 57.3794 4.72994 57.2914 4.66976C57.207 4.60958 57.1014 4.54233 56.9747 4.46799C56.8515 4.39365 56.6949 4.3264 56.5048 4.26622C56.3183 4.20604 56.0808 4.17595 55.7922 4.17595C55.4719 4.17595 55.178 4.23436 54.9105 4.35118C54.6431 4.46799 54.4125 4.6379 54.219 4.86091C54.0289 5.08038 53.8811 5.35118 53.7755 5.67331C53.6699 5.99543 53.6172 6.36181 53.6172 6.77243C53.6172 7.18659 53.6735 7.55651 53.7861 7.88217C53.9022 8.2043 54.0588 8.47687 54.2559 8.69988C54.4565 8.92289 54.6888 9.0928 54.9528 9.20962C55.2203 9.32289 55.5053 9.37953 55.808 9.37953C55.9875 9.37953 56.1494 9.37068 56.2937 9.35298C56.4415 9.33528 56.577 9.30519 56.7002 9.26271C56.8269 9.22023 56.9448 9.16537 57.0539 9.09811C57.1665 9.03085 57.2791 8.9459 57.3917 8.84324C57.4305 8.81138 57.4709 8.78483 57.5132 8.76359C57.5554 8.74235 57.6012 8.73174 57.6504 8.73174Z" fill="black"/>
<path d="M26.9025 16.5427C27.0843 16.5427 27.2475 16.5172 27.3921 16.4663C27.5368 16.4153 27.6589 16.3447 27.7586 16.2545C27.8603 16.1644 27.9375 16.0585 27.9902 15.9369C28.045 15.8134 28.0723 15.6791 28.0723 15.5341C28.0723 15.2145 27.9746 14.9685 27.7791 14.796C27.5837 14.6235 27.2915 14.5372 26.9025 14.5372H26.1313V16.5427H26.9025ZM26.9025 14.299C27.3892 14.299 27.7557 14.4058 28.002 14.6195C28.2502 14.8332 28.3743 15.1381 28.3743 15.5341C28.3743 15.7164 28.3401 15.884 28.2717 16.0369C28.2033 16.1898 28.1056 16.3222 27.9785 16.4339C27.8515 16.5437 27.697 16.63 27.5153 16.6927C27.3335 16.7535 27.1292 16.7838 26.9025 16.7838H26.1313V18.46H25.8293V14.299H26.9025Z" fill="black"/>
<path d="M33.4915 16.378C33.4915 16.6995 33.4436 16.9917 33.3478 17.2543C33.252 17.5151 33.1171 17.7386 32.9432 17.9248C32.7692 18.1091 32.5601 18.2522 32.3157 18.3541C32.0733 18.4541 31.8056 18.5041 31.5123 18.5041C31.2191 18.5041 30.9514 18.4541 30.709 18.3541C30.4666 18.2522 30.2584 18.1091 30.0845 17.9248C29.9105 17.7386 29.7756 17.5151 29.6798 17.2543C29.5841 16.9917 29.5362 16.6995 29.5362 16.378C29.5362 16.0585 29.5841 15.7683 29.6798 15.5076C29.7756 15.2449 29.9105 15.0214 30.0845 14.8371C30.2584 14.6509 30.4666 14.5068 30.709 14.4049C30.9514 14.3029 31.2191 14.252 31.5123 14.252C31.8056 14.252 32.0733 14.3029 32.3157 14.4049C32.5601 14.5048 32.7692 14.648 32.9432 14.8342C33.1171 15.0204 33.252 15.2449 33.3478 15.5076C33.4436 15.7683 33.4915 16.0585 33.4915 16.378ZM33.1807 16.378C33.1807 16.0879 33.1406 15.8272 33.0605 15.5958C32.9803 15.3645 32.8669 15.1685 32.7203 15.0077C32.5737 14.8469 32.3978 14.7244 32.1926 14.6401C31.9873 14.5539 31.7606 14.5107 31.5123 14.5107C31.2661 14.5107 31.0403 14.5539 30.835 14.6401C30.6298 14.7244 30.4529 14.8469 30.3044 15.0077C30.1578 15.1685 30.0434 15.3645 29.9613 15.5958C29.8812 15.8272 29.8411 16.0879 29.8411 16.378C29.8411 16.6701 29.8812 16.9319 29.9613 17.1632C30.0434 17.3926 30.1578 17.5876 30.3044 17.7484C30.4529 17.9091 30.6298 18.0317 30.835 18.116C31.0403 18.2003 31.2661 18.2424 31.5123 18.2424C31.7606 18.2424 31.9873 18.2003 32.1926 18.116C32.3978 18.0317 32.5737 17.9091 32.7203 17.7484C32.8669 17.5876 32.9803 17.3926 33.0605 17.1632C33.1406 16.9319 33.1807 16.6701 33.1807 16.378Z" fill="black"/>
<path d="M40.2125 14.299L38.9077 18.46H38.638L37.4124 14.8489C37.3967 14.7999 37.383 14.7489 37.3713 14.696C37.3596 14.7489 37.3459 14.7999 37.3303 14.8489L36.1017 18.46H35.8349L34.5273 14.299H34.7765C34.8332 14.299 34.8693 14.3255 34.885 14.3784L35.9317 17.7984C35.9532 17.8768 35.9727 17.966 35.9903 18.066C36.0001 18.015 36.0099 17.9679 36.0197 17.9248C36.0294 17.8797 36.0412 17.8376 36.0548 17.7984L37.2276 14.3784C37.2355 14.3568 37.2491 14.3382 37.2687 14.3225C37.2882 14.3068 37.3117 14.299 37.3391 14.299H37.4212C37.4485 14.299 37.471 14.3068 37.4886 14.3225C37.5062 14.3363 37.5199 14.3549 37.5296 14.3784L38.7025 17.7984C38.7161 17.8356 38.7279 17.8768 38.7376 17.9219C38.7494 17.967 38.7601 18.014 38.7699 18.063C38.7797 18.014 38.7885 17.9679 38.7963 17.9248C38.8061 17.8797 38.8158 17.8376 38.8256 17.7984L39.8723 14.3784C39.8782 14.3568 39.8909 14.3382 39.9105 14.3225C39.932 14.3068 39.9564 14.299 39.9838 14.299H40.2125Z" fill="black"/>
<path d="M44.0423 18.2101L44.0364 18.46H41.5501V14.299H44.0364V14.549H41.8521V16.231H43.6699V16.4751H41.8521V18.2101H44.0423Z" fill="black"/>
<path d="M46.5584 16.3545C46.7422 16.3545 46.9063 16.3329 47.051 16.2898C47.1976 16.2447 47.3207 16.181 47.4204 16.0987C47.5221 16.0163 47.5993 15.9173 47.6521 15.8017C47.7048 15.686 47.7312 15.5556 47.7312 15.4106C47.7312 15.1145 47.6345 14.895 47.441 14.7519C47.2494 14.6088 46.9689 14.5372 46.5995 14.5372H45.8401V16.3545H46.5584ZM48.3997 18.46H48.1417C48.1085 18.46 48.0801 18.4551 48.0567 18.4453C48.0352 18.4335 48.0147 18.413 47.9951 18.3836L46.664 16.6956C46.6483 16.6741 46.6317 16.6554 46.6141 16.6398C46.5985 16.6241 46.5799 16.6123 46.5584 16.6045C46.5389 16.5947 46.5144 16.5878 46.4851 16.5839C46.4577 16.58 46.4235 16.578 46.3825 16.578H45.8401V18.46H45.5381V14.299H46.5995C47.0764 14.299 47.4331 14.3921 47.6697 14.5784C47.9081 14.7626 48.0274 15.0342 48.0274 15.3929C48.0274 15.5517 48 15.6968 47.9453 15.8281C47.8905 15.9595 47.8114 16.0752 47.7078 16.1751C47.6061 16.2732 47.482 16.3535 47.3354 16.4163C47.1908 16.479 47.0275 16.5211 46.8458 16.5427C46.8927 16.5721 46.9347 16.6113 46.9718 16.6603L48.3997 18.46Z" fill="black"/>
<path d="M52.1787 18.2101L52.1728 18.46H49.6864V14.299H52.1728V14.549H49.9884V16.231H51.8063V16.4751H49.9884V18.2101H52.1787Z" fill="black"/>
<path d="M57.1694 16.378C57.1694 16.6995 57.1215 16.9887 57.0258 17.2455C56.93 17.5023 56.7951 17.7209 56.6211 17.9013C56.4472 18.0817 56.238 18.2199 55.9937 18.3159C55.7513 18.412 55.4835 18.46 55.1903 18.46H53.6744V14.299H55.1903C55.4835 14.299 55.7513 14.347 55.9937 14.4431C56.238 14.5392 56.4472 14.6774 56.6211 14.8577C56.7951 15.0381 56.93 15.2567 57.0258 15.5135C57.1215 15.7703 57.1694 16.0585 57.1694 16.378ZM56.8586 16.378C56.8586 16.0879 56.8186 15.8291 56.7384 15.6017C56.6583 15.3743 56.5449 15.1822 56.3983 15.0253C56.2517 14.8685 56.0758 14.7489 55.8705 14.6666C55.6653 14.5842 55.4385 14.5431 55.1903 14.5431H53.9764V18.2159H55.1903C55.4385 18.2159 55.6653 18.1748 55.8705 18.0924C56.0758 18.0101 56.2517 17.8905 56.3983 17.7337C56.5449 17.5768 56.6583 17.3847 56.7384 17.1573C56.8186 16.9299 56.8586 16.6701 56.8586 16.378Z" fill="black"/>
</svg>
