<svg width="176" height="90" viewBox="0 0 176 90" fill="none" xmlns="http://www.w3.org/2000/svg">
<g clip-path="url(#clip0_1922_19598)">
<path d="M43.9945 44.9935C44.0067 48.3439 43.2516 51.6524 41.7868 54.6652C40.3222 57.678 38.1872 60.3148 35.5456 62.3733C32.9039 64.4317 29.8259 65.857 26.5481 66.5398C23.2703 67.2226 19.8797 67.1447 16.6366 66.3119V41.821L24.4191 51.0697C24.9484 51.6991 25.6583 52.1506 26.4525 52.3627C27.2468 52.5748 28.087 52.5373 28.8592 52.2554C29.6315 51.9734 30.2984 51.4606 30.7696 50.7865C31.2408 50.1124 31.4933 49.3096 31.4931 48.4871V25.1668C35.234 26.9546 38.393 29.7652 40.6051 33.2736C42.8173 36.782 43.9925 40.8452 43.9945 44.9935ZM19.5872 38.9205L27.3697 48.1691V23.6752C22.084 22.3332 16.4885 23.0063 11.6713 25.5638C6.85423 28.1214 3.15994 32.3804 1.30701 37.5124C-0.545919 42.6446 -0.425006 48.2829 1.64623 53.3308C3.71748 58.3786 7.59096 62.475 12.5132 64.8234V41.5032C12.513 40.6805 12.7656 39.8778 13.2368 39.2037C13.7079 38.5295 14.3748 38.0168 15.147 37.7348C15.9194 37.4528 16.7596 37.4154 17.5539 37.6276C18.3481 37.8396 19.058 38.291 19.5872 38.9205Z" fill="url(#paint0_linear_1922_19598)"/>
<path d="M60.7324 52.2283C56.4563 52.2283 53.2217 49.2011 53.2217 44.4112C53.2217 39.6215 56.5816 36.6523 60.8576 36.6523C65.1337 36.6523 68.4783 39.652 68.4783 44.4112C68.4783 49.1705 65.0237 52.2283 60.7324 52.2283ZM60.7324 50.0258C63.3469 50.0258 65.9065 48.2388 65.9065 44.4112C65.9065 40.5837 63.4019 38.8273 60.8149 38.8273C58.1729 38.8273 55.7782 40.6142 55.7782 44.4112C55.7782 48.2083 58.1179 50.0258 60.7324 50.0258Z" fill="#566074"/>
<path d="M82.5742 43.4506C82.5742 40.3685 80.8973 38.8014 78.3652 38.8014C75.8331 38.8014 74.0463 40.396 74.0463 43.643V51.9824H71.5417V36.9013H74.0463V39.0396C75.036 37.4694 76.8533 36.6172 78.8875 36.6172C82.3817 36.6172 85.0512 38.7555 85.0512 43.084V51.9732H82.5742V43.4506Z" fill="#566074"/>
<path d="M89.3972 38.97H87.4425V36.9051H89.3972V35.8329C89.3972 32.4727 91.0466 30.9453 94.895 30.9453V33.0378C92.6409 33.0378 91.8958 33.8626 91.8958 35.8176V36.8898H95.0631V38.9548H91.8987V51.9709H89.3972V38.97Z" fill="#566074"/>
<path d="M97.348 32.752C97.3535 32.422 97.456 32.1009 97.6428 31.8288C97.8295 31.5567 98.0924 31.3456 98.3983 31.222C98.7043 31.0983 99.0399 31.0675 99.3633 31.1335C99.6867 31.1994 99.9834 31.3592 100.217 31.5928C100.45 31.8264 100.609 32.1235 100.674 32.447C100.74 32.7705 100.708 33.1061 100.584 33.4119C100.46 33.7177 100.248 33.9802 99.976 34.1665C99.7036 34.3529 99.3823 34.4548 99.0523 34.4596C98.8272 34.4634 98.6037 34.4217 98.395 34.3371C98.1864 34.2527 97.9968 34.127 97.8378 33.9676C97.6787 33.8082 97.5534 33.6185 97.4693 33.4096C97.3852 33.2008 97.3439 32.9771 97.348 32.752ZM97.7603 36.9065H100.262V51.9875H97.7512L97.7603 36.9065Z" fill="#566074"/>
<path d="M115.338 43.4506C115.338 40.3685 113.661 38.8014 111.13 38.8014C108.597 38.8014 106.81 40.396 106.81 43.643V51.9824H104.306V36.9013H106.81V39.0396C107.8 37.4694 109.614 36.6172 111.652 36.6172C115.145 36.6172 117.815 38.7555 117.815 43.084V51.9732H115.338V43.4506Z" fill="#566074"/>
<path d="M127.91 36.6523C130.716 36.6523 132.641 38.0849 133.524 39.652V36.9027H136.056V51.9838H133.524V49.1766C132.608 50.7987 130.662 52.2313 127.883 52.2313C123.866 52.2313 120.757 49.0667 120.757 44.3868C120.757 39.707 123.866 36.6523 127.91 36.6523ZM128.407 38.8273C125.658 38.8273 123.316 40.8343 123.316 44.3837C123.316 47.9333 125.653 50.0258 128.407 50.0258C131.163 50.0258 133.524 47.9608 133.524 44.4112C133.524 40.9167 131.156 38.8273 128.407 38.8273Z" fill="#566074"/>
<path d="M140.069 31.6191H142.571V51.9818H140.069V31.6191Z" fill="#566074"/>
<path d="M146.203 32.752C146.208 32.4221 146.31 32.1011 146.497 31.8291C146.683 31.557 146.946 31.346 147.252 31.2222C147.558 31.0985 147.894 31.0676 148.217 31.1333C148.54 31.199 148.837 31.3584 149.07 31.5917C149.303 31.825 149.463 32.1218 149.529 32.4451C149.594 32.7685 149.563 33.104 149.44 33.4098C149.315 33.7157 149.104 33.9783 148.833 34.165C148.56 34.3517 148.24 34.4541 147.91 34.4596C147.685 34.4633 147.46 34.4216 147.252 34.3372C147.043 34.2526 146.854 34.127 146.694 33.9677C146.535 33.8084 146.409 33.6187 146.325 33.4098C146.24 33.201 146.198 32.9772 146.203 32.752ZM146.615 36.9064H149.12V51.9875H146.62L146.615 36.9064Z" fill="#566074"/>
<path d="M153.713 38.9636H151.758V36.8986H153.713V33.1016H156.218V36.8986H160.152V38.9636H156.218V47.8497C156.218 49.3373 156.767 49.8597 158.307 49.8597H160.14V51.9797H157.882C155.213 51.9797 153.701 50.8769 153.701 47.8497L153.713 38.9636Z" fill="#566074"/>
<path d="M173.355 36.8984H175.943L166.862 59.0786H164.275L167.247 51.8146L161.166 36.8984H163.945L168.679 49.1172L173.355 36.8984Z" fill="#566074"/>
</g>
<defs>
<linearGradient id="paint0_linear_1922_19598" x1="9.40089" y1="63.0018" x2="34.628" y2="27.0042" gradientUnits="userSpaceOnUse">
<stop stop-color="#031FEF"/>
<stop offset="0.13" stop-color="#0326EE"/>
<stop offset="0.24" stop-color="#032CED"/>
<stop offset="0.74108" stop-color="#0DE5C8"/>
<stop offset="0.876097" stop-color="#0CFACA"/>
<stop offset="0.97" stop-color="#0CFACA"/>
</linearGradient>
<clipPath id="clip0_1922_19598">
<rect width="175.943" height="90" fill="white"/>
</clipPath>
</defs>
</svg>
