<svg width="96" height="20" viewBox="0 0 96 20" fill="none" xmlns="http://www.w3.org/2000/svg">
<path d="M59.3912 10.1835C59.1392 9.9944 58.8661 9.82636 58.551 9.70032C58.2359 9.57429 57.9418 9.44825 57.6267 9.36423C57.3326 9.2802 57.0386 9.17517 56.7865 9.07014C56.5344 8.96511 56.3244 8.83908 56.1773 8.67103C56.0093 8.50298 55.9462 8.29292 55.9462 8.04085C55.9462 7.74676 56.0303 7.5367 56.2193 7.36866C56.4084 7.20061 56.6605 7.13759 56.9755 7.13759C57.2906 7.13759 57.5637 7.24262 57.7528 7.43167C57.9418 7.62073 58.0468 7.91481 58.0468 8.27191H60.2315C60.2315 7.38966 59.9374 6.65445 59.3282 6.1083C58.719 5.56214 57.9418 5.28906 56.9965 5.28906C56.1143 5.28906 55.4001 5.54113 54.8329 6.06628C54.2658 6.59143 53.9717 7.24262 53.9717 8.06185C53.9717 8.43996 54.0137 8.77606 54.1187 9.07014C54.2238 9.36423 54.3498 9.6163 54.4968 9.80535C54.6649 9.99441 54.8329 10.1625 55.043 10.3095C55.253 10.4565 55.4631 10.5616 55.6942 10.6666C55.9252 10.7506 56.1563 10.8346 56.3664 10.9187C56.5974 11.0027 56.8075 11.0657 57.0175 11.1497C57.2276 11.2338 57.3957 11.2968 57.5637 11.4018C57.7318 11.4858 57.8578 11.6119 57.9418 11.7589C58.0468 11.9059 58.0889 12.074 58.0889 12.2631C58.0889 12.5781 58.0048 12.8092 57.8158 12.9773C57.6267 13.1453 57.3747 13.2293 57.0386 13.2293C56.7025 13.2293 56.4504 13.1243 56.2613 12.9352C56.0723 12.7462 55.9672 12.4521 55.9672 12.074H53.8036C53.8036 12.9773 54.0977 13.6915 54.7069 14.2586C55.3161 14.8048 56.0933 15.0989 57.0386 15.0989C57.9838 15.0989 58.7611 14.8468 59.3702 14.3216C59.9584 13.7965 60.2735 13.1243 60.2735 12.2841C60.2735 11.8009 60.1895 11.4018 60.0424 11.0447C59.8534 10.6666 59.6433 10.3935 59.3912 10.1835Z" fill="#220000"/>
<path d="M46.1688 9.15417C46.3368 8.54499 46.6519 8.06185 47.114 7.70475C47.5762 7.36866 48.1223 7.1796 48.7735 7.1796C49.4247 7.1796 49.9709 7.34765 50.433 7.70475C50.8951 8.04085 51.1892 8.52399 51.3572 9.15417H46.1688ZM48.7945 5.28906C47.3661 5.28906 46.1898 5.75119 45.2865 6.65445C44.3623 7.57872 43.9211 8.73405 43.9211 10.1625C43.9211 11.5909 44.3833 12.7672 45.2865 13.6915C46.1898 14.5947 47.3661 15.0568 48.8155 15.0568C49.8868 15.0568 50.8531 14.8048 51.6723 14.3006C52.4916 13.7965 53.0377 13.1033 53.2898 12.221H50.8741C50.454 12.8302 49.7608 13.1453 48.7945 13.1453C48.1013 13.1453 47.5132 12.9563 47.051 12.5781C46.5889 12.2 46.2738 11.6749 46.1268 11.0027H53.6259C53.6679 10.6456 53.7099 10.3725 53.7099 10.1835C53.7099 8.75505 53.2478 7.57872 52.3235 6.67546C51.3783 5.75119 50.2229 5.28906 48.7945 5.28906Z" fill="#220000"/>
<path d="M63.5483 3.33203H61.4057V5.47464H60.3764V7.47021H61.4057V11.5664C61.4057 13.793 62.519 14.8853 64.7457 14.8853H66.4472V12.8898H64.8927C63.9895 12.8898 63.5273 12.4486 63.5273 11.5664V7.47021H66.4262V5.47464H63.5483V3.33203Z" fill="#220000"/>
<path d="M44.0646 5.47266L41.2078 6.71201V5.47266H39.0231V14.8833H41.2078V8.87563L44.0646 7.69929V5.47266Z" fill="#220000"/>
<path d="M73.4671 12.2802C72.963 12.8053 72.3118 13.0784 71.4926 13.0784C70.6733 13.0784 70.0011 12.8053 69.497 12.2802C68.9929 11.755 68.7408 11.0408 68.7408 10.1796C68.7408 9.31831 68.9929 8.6041 69.497 8.07895C70.0011 7.5538 70.6733 7.28073 71.4926 7.28073C72.3118 7.28073 72.963 7.5538 73.4671 8.07895C73.9713 8.6041 74.2024 9.31831 74.2024 10.1796C74.2024 11.0618 73.9503 11.755 73.4671 12.2802ZM71.4926 5.28516C70.0642 5.28516 68.8878 5.74729 67.9846 6.65055C67.0603 7.57481 66.6192 8.73014 66.6192 10.1585C66.6192 11.587 67.0813 12.7633 67.9846 13.6876C68.8878 14.5908 70.0642 15.0529 71.5136 15.0529C72.942 15.0529 74.1183 14.5908 75.0426 13.6876C75.9669 12.7843 76.408 11.608 76.408 10.1585C76.408 8.73014 75.9458 7.5538 75.0216 6.65055C74.0973 5.74729 72.921 5.28516 71.4926 5.28516Z" fill="#220000"/>
<path d="M31.3841 8.07991C31.8882 7.55476 32.5604 7.28168 33.3796 7.28168C34.1989 7.28168 34.85 7.55476 35.3542 8.07991C35.8583 8.60506 36.0894 9.31926 36.0894 10.1805C36.0894 11.0628 35.8373 11.756 35.3542 12.2811C34.85 12.8063 34.1989 13.0793 33.3796 13.0793C32.5604 13.0793 31.8882 12.8063 31.3841 12.2811C30.8799 11.756 30.6278 11.0418 30.6278 10.1805C30.6278 9.31926 30.8799 8.60506 31.3841 8.07991ZM29.8716 13.7095C30.7749 14.6128 31.9512 15.0749 33.4006 15.0749C34.4929 15.0749 35.3962 14.7598 36.1104 14.1086V14.9069H38.295V5.49617H36.1104V6.2944C35.3542 5.64321 34.4509 5.32812 33.4006 5.32812C31.9722 5.32812 30.7959 5.79026 29.8926 6.69351C28.9684 7.61778 28.5272 8.77311 28.5272 10.2015C28.4852 11.6089 28.9474 12.7853 29.8716 13.7095Z" fill="#220000"/>
<path d="M81.2933 5.27734C80.369 5.27734 79.6128 5.57143 79.0036 6.1806V5.4664H76.819V14.8771H79.0036V9.22647C79.0036 8.6383 79.1717 8.15517 79.5288 7.79806C79.8859 7.44096 80.348 7.25191 80.9572 7.25191C81.5243 7.25191 82.0075 7.44096 82.3646 7.79806C82.7217 8.15517 82.9107 8.6383 82.9107 9.20546V14.8561H85.0743V9.20546C85.0743 8.05013 84.7172 7.10486 84.003 6.36965C83.3098 5.65545 82.4066 5.27734 81.2933 5.27734Z" fill="#220000"/>
<path d="M25.7927 8.8771L28.6495 7.70077V5.45312L25.7927 6.69248V5.45312H23.6081V14.8638H25.7927V8.8771Z" fill="#220000"/>
<path d="M87.8543 9.1566C88.0224 8.54742 88.3375 8.06429 88.7996 7.70718C89.2617 7.37109 89.8079 7.18203 90.4591 7.18203C91.1103 7.18203 91.6564 7.35008 92.1186 7.70718C92.5807 8.04328 92.8748 8.52642 93.0428 9.1566H87.8543ZM95.3745 10.1859C95.3745 8.75748 94.9124 7.58115 93.9881 6.67789C93.0638 5.75363 91.8875 5.3125 90.4591 5.3125C89.0307 5.3125 87.8543 5.77463 86.9511 6.67789C86.0268 7.60215 85.5857 8.75748 85.5857 10.1859C85.5857 11.6143 86.0478 12.7906 86.9511 13.7149C87.8543 14.6392 89.0307 15.0803 90.4801 15.0803C91.5514 15.0803 92.5177 14.8282 93.3369 14.3241C94.1561 13.8199 94.7023 13.1267 94.9544 12.2445H92.5387C92.1186 12.8537 91.4254 13.1687 90.4591 13.1687C89.7659 13.1687 89.1777 12.9797 88.7156 12.6016C88.2535 12.2235 87.9384 11.6983 87.7913 11.0261H95.2905C95.3535 10.648 95.3745 10.3749 95.3745 10.1859Z" fill="#220000"/>
<path d="M6.96993 14.0524H12.9821L15.9777 8.86292L12.9821 3.65234H6.96993L3.97438 8.84182L6.96993 14.0524Z" stroke="#220000" stroke-width="0.976614" stroke-miterlimit="5.6238"/>
<path d="M10.7453 7.50977H9.20563L8.42523 8.83856L9.20563 10.1673H10.7453L11.5257 8.83856L10.7453 7.50977Z" stroke="#220000" stroke-width="0.976614" stroke-miterlimit="14.0596"/>
<path d="M5.31946 11.1967L14.6225 6.51351M14.5382 11.3655L5.42494 6.34475M9.98155 16.4495V3.64453M6.9649 3.66563L12.9771 14.0657M12.9771 3.66563L6.9649 14.0657" stroke="#220000" stroke-width="0.976614" stroke-miterlimit="14.0596"/>
<path d="M9.98153 8.85742C5.48821 8.85742 1.01598 8.85742 1.01598 8.85742" stroke="#220000" stroke-width="0.976614" stroke-miterlimit="14.0596"/>
<path d="M9.98158 8.85742C14.4749 8.85742 18.9471 8.85742 18.9471 8.85742" stroke="#220000" stroke-width="0.976614" stroke-miterlimit="14.0596"/>
<path d="M9.94446 16.6682L13.0033 14.0946L18.9522 8.86292L12.9822 3.65234H6.97001L1 8.84182L7.58178 14.6431L9.94446 16.6682Z" stroke="#220000" stroke-width="0.976614" stroke-miterlimit="14.0596"/>
</svg>
