<svg width="129" height="20" viewBox="0 0 129 20" fill="none" xmlns="http://www.w3.org/2000/svg">
<path d="M54.5358 12.7248H55.366L52.8906 9.7512H52.0453L51.6528 9.28327L53.4641 7.57761L56.483 4.78516H52.1057L49.2226 7.57761L47.9849 8.80025V7.57761V4.78516H44.8453V7.57761V9.7512H45.6906V12.7248H44.8453V15.2003H47.9849V12.7399V12.7248H48.8302L50.2641 11.3814L51.366 12.7248H50.5358L52.5585 15.2003H56.5887L54.5358 12.7248Z" fill="#EB3089"/>
<path d="M42.9283 12.7242H42.1283L42.083 12.6186C41.7812 12.0299 41.2378 11.5922 40.5887 11.4412C41.4944 11.1997 42.2491 10.5809 42.6566 9.73557H43.4566C43.6076 9.3884 43.6981 9.02613 43.6981 8.64878C43.6981 8.28651 43.6679 7.92425 43.5925 7.57708C43.2151 5.88651 41.8717 4.76953 39.1396 4.76953H32.9359V9.75066H32.1359V12.7393H32.9359V15.2148H35.9245V12.7393H38.1887C39.2755 12.7393 39.5321 13.4488 40.317 15.1997H44.0755C43.6679 14.2337 43.0944 13.0865 42.9283 12.7242ZM35.9094 7.57708H38.9283C39.5472 7.57708 40.1208 8.045 40.1208 8.66387C40.1208 9.28274 39.5472 9.75066 38.9283 9.75066H35.9094V7.57708Z" fill="#EB3089"/>
<path d="M16.0454 12.7242H15.2454L15.2001 12.6186C14.8982 12.0299 14.3548 11.5922 13.7058 11.4412C14.6114 11.1997 15.3661 10.5809 15.7737 9.73557H16.5737C16.7246 9.3884 16.8152 9.02613 16.8152 8.64878C16.8152 8.28651 16.785 7.92425 16.7095 7.57708C16.3322 5.88651 14.9888 4.76953 12.2567 4.76953H6.05293V9.75066H5.25293V12.7393H6.05293V15.2148H9.04161V12.7393H11.3058C12.3926 12.7393 12.6492 13.4488 13.4341 15.1997H17.1926C16.7699 14.2337 16.2114 13.0865 16.0454 12.7242ZM9.02651 7.57708H12.0454C12.6643 7.57708 13.2378 8.045 13.2378 8.66387C13.2378 9.28274 12.6643 9.75066 12.0454 9.75066H9.02651V7.57708Z" fill="#EB3089"/>
<path d="M27.034 4.78516L25.751 7.68327L24.785 9.84176H24.7095L23.7435 7.68327L22.4605 4.78516H18.2189V9.7512H17.4189V12.7399H18.2189V15.2153H21.2378V12.7399H20.4378V9.7512H20.8001L22.1888 12.7399H22.9435L24.0906 15.2153H25.3435L26.4454 12.8455H25.6454L27.0793 9.76629H27.4114V12.755H28.2114V15.2304H31.2303V12.755H30.4303V9.7512H31.2303V4.78516H27.034ZM21.2529 9.7512V8.96629L21.6152 9.7512H21.2529ZM27.8793 9.7512L28.2416 8.96629V9.7512H27.8793Z" fill="#EB3089"/>
<path d="M61.1472 9.75094V1.19245C61.1472 0.528301 60.6189 0 59.9547 0H1.97736C1.31321 0 0.784905 0.528301 0.784905 1.19245V9.75094H0V12.7396H0.784905V18.8075C0.784905 19.4717 1.31321 20 1.97736 20H59.9547C60.6189 20 61.1472 19.4717 61.1472 18.8075V12.7396H60.3623V9.75094H61.1472ZM58.883 12.7245V17.7208H3.04906V12.7245H2.26415V9.75094H3.04906V2.26415H58.883V9.75094H58.0981V12.7396L58.883 12.7245Z" fill="#EB3089"/>
<g clip-path="url(#clip0_1990_7237)">
<path d="M91.1432 6.48101V5.00254C91.1432 4.46582 90.8187 3.98989 90.322 3.7772L81.1472 0V0.820254L89.3285 4.1924C89.6123 4.30379 89.6123 4.70886 89.3285 4.82026L81.1472 8.1924V11.4835L86.0742 9.44811L89.3183 10.7848C89.6022 10.8962 89.6022 11.3013 89.3183 11.4127L81.1472 14.7848V20L90.322 16.2227C90.8187 16.0203 91.1432 15.5342 91.1432 14.9975V11.6051C91.1432 11.0684 90.8187 10.5924 90.322 10.3797L87.0677 9.04304L90.322 7.70634C90.8187 7.50379 91.1432 7.01771 91.1432 6.48101Z" fill="black"/>
<path d="M98.4526 5.00391L99.1825 7.84947L100.004 5.00391H100.784L101.555 7.84947L102.315 5.00391H102.893L101.91 8.43682H101.18L100.369 5.47984L99.5271 8.43682H98.7871L97.8342 5.00391H98.4526Z" fill="black"/>
<path fill-rule="evenodd" clip-rule="evenodd" d="M103.917 7.49511C103.826 7.31283 103.795 7.17106 103.775 6.88752V6.87738H106.411C106.411 5.60144 105.843 4.89258 104.799 4.89258C103.816 4.89258 103.157 5.6217 103.157 6.70523C103.157 7.81915 103.816 8.52802 104.85 8.52802C105.681 8.52802 106.239 8.11283 106.401 7.37359H105.762C105.63 7.80904 105.326 8.03181 104.86 8.03181C104.475 8.03181 104.089 7.81915 103.917 7.49511ZM104.799 5.3989C105.134 5.3989 105.458 5.56093 105.62 5.83435C105.711 5.97613 105.752 6.11789 105.782 6.4217H103.785C103.856 5.76347 104.221 5.3989 104.799 5.3989Z" fill="black"/>
<path fill-rule="evenodd" clip-rule="evenodd" d="M106.989 3.69531H107.577V5.5181C107.82 5.11302 108.155 4.92062 108.641 4.92062C109.493 4.92062 110.101 5.65987 110.101 6.72315C110.101 7.78645 109.523 8.50544 108.651 8.50544C108.175 8.50544 107.861 8.31302 107.556 7.86746V8.43456H106.989V3.69531ZM107.587 6.7029C107.587 7.45227 108.013 8.00922 108.57 8.00922C109.108 8.00922 109.462 7.5029 109.462 6.72315C109.462 5.9029 109.108 5.39656 108.55 5.39656C107.992 5.39656 107.587 5.93328 107.587 6.7029Z" fill="black"/>
<path d="M112.149 7.99016C111.541 7.99016 111.155 7.59521 111.166 6.98761H110.517C110.507 7.899 111.166 8.52684 112.139 8.52684C113.071 8.52684 113.731 7.98001 113.731 7.21038C113.731 6.64331 113.426 6.25849 112.859 6.11673C113.325 5.99521 113.67 5.54964 113.67 5.06356C113.67 4.33444 113.051 3.82812 112.169 3.82812C111.216 3.82812 110.638 4.37496 110.598 5.31673H111.226C111.247 4.70913 111.581 4.36481 112.159 4.36481C112.696 4.36481 113.051 4.65849 113.051 5.11419C113.051 5.60027 112.686 5.87369 112.058 5.87369H111.906V6.40027C111.997 6.39016 112.048 6.39016 112.108 6.39016C112.717 6.39016 113.092 6.6838 113.092 7.1699C113.092 7.64584 112.696 7.99016 112.149 7.99016Z" fill="black"/>
<path d="M98.483 12.082H97.8646V11.6061H98.483C98.4931 11.039 98.5033 10.9175 98.5845 10.715C98.7061 10.3909 99.0203 10.2188 99.4867 10.2188C99.5469 10.2188 99.6027 10.2232 99.6774 10.2291C99.716 10.2321 99.7593 10.2356 99.8112 10.239V10.7656C99.7768 10.7558 99.7473 10.7484 99.7209 10.7427C99.6777 10.7335 99.6429 10.7291 99.6097 10.727C99.5793 10.7251 99.5502 10.7251 99.5171 10.7251C99.3144 10.7251 99.1622 10.8264 99.1117 11.0086C99.071 11.1302 99.071 11.2213 99.071 11.596H99.8112V12.0719H99.071V15.0289H98.483V12.082Z" fill="black"/>
<path fill-rule="evenodd" clip-rule="evenodd" d="M101.595 15.1393C102.609 15.1393 103.268 14.4204 103.268 13.3166C103.268 12.2432 102.599 11.514 101.616 11.5039C100.612 11.5039 99.9429 12.2229 99.9429 13.3065C99.9429 14.4001 100.602 15.1393 101.595 15.1393ZM101.585 14.6432C100.957 14.6432 100.582 14.1267 100.582 13.2862C100.582 12.4963 100.967 12.0001 101.595 12.0001C102.224 12.0001 102.629 12.5166 102.629 13.3267C102.629 14.1267 102.214 14.6432 101.585 14.6432Z" fill="black"/>
<path d="M105.093 15.1194C105.542 15.1194 105.925 14.9505 106.107 14.6669V15.0485H106.675V11.6156H106.087V13.2561C106.087 13.8637 106.066 14.0561 105.965 14.2181C105.803 14.4713 105.519 14.6232 105.194 14.6232C104.698 14.6232 104.454 14.3194 104.454 13.6713V11.6055H103.866V13.5599C103.866 14.1371 103.907 14.37 104.039 14.5928C104.241 14.927 104.616 15.1194 105.093 15.1194Z" fill="black"/>
<path d="M109.006 11.5352C108.54 11.5352 108.226 11.6769 107.962 12.0212V11.6162H107.404V15.0491H108.002V13.4086C108.002 12.7908 108.023 12.6086 108.124 12.4465C108.286 12.1833 108.56 12.0313 108.895 12.0313C109.391 12.0313 109.635 12.325 109.635 12.9833V15.0491H110.233V13.0946C110.233 12.5174 110.192 12.2845 110.061 12.0617C109.858 11.7276 109.483 11.5352 109.006 11.5352Z" fill="black"/>
<path fill-rule="evenodd" clip-rule="evenodd" d="M113.366 15.0279V14.471C113.061 14.9267 112.737 15.109 112.271 15.109C111.409 15.109 110.821 14.39 110.821 13.3368C110.821 12.2634 111.419 11.5242 112.281 11.5242C112.767 11.5242 113.102 11.7166 113.345 12.1216V10.2988H113.933V15.0279H113.366ZM111.46 13.3368C111.46 14.1166 111.804 14.6229 112.352 14.6229C112.909 14.6229 113.335 14.0659 113.335 13.3166C113.335 12.5469 112.94 12.0102 112.382 12.0102C111.825 12.0102 111.46 12.5166 111.46 13.3368Z" fill="black"/>
<path fill-rule="evenodd" clip-rule="evenodd" d="M116.853 14.6128C116.873 14.7951 116.883 14.8558 116.914 15.0381H117.512C117.421 14.6634 117.39 14.2989 117.4 13.6103C117.411 12.5166 117.38 12.2634 117.198 12.0103C116.975 11.6761 116.569 11.5039 116.052 11.5039C115.636 11.5039 115.251 11.6356 115.008 11.8583C114.785 12.0507 114.704 12.2634 114.643 12.6887H115.261C115.292 12.2229 115.545 12.0001 116.052 12.0001C116.316 12.0001 116.529 12.0811 116.65 12.2128C116.772 12.3444 116.792 12.4761 116.802 12.9216C116.417 12.952 116.194 12.9824 116.001 13.0128C115.697 13.0533 115.434 13.1039 115.271 13.1545C114.765 13.3065 114.511 13.6204 114.511 14.0761C114.511 14.6938 115.008 15.1191 115.748 15.1191C116.224 15.1191 116.559 14.9672 116.853 14.6128ZM115.839 14.6432C115.413 14.6432 115.15 14.4406 115.15 14.0963C115.15 13.6508 115.576 13.4685 116.802 13.3875V13.509C116.802 13.8938 116.762 14.0963 116.66 14.2482C116.488 14.5115 116.204 14.6432 115.839 14.6432Z" fill="black"/>
<path d="M118.951 11.6159H119.722V12.0918H118.951V13.9248C118.951 14.3096 118.962 14.3804 119.023 14.4615C119.083 14.5425 119.225 14.5931 119.387 14.5931C119.509 14.5931 119.621 14.5728 119.722 14.5425V15.0488C119.448 15.0994 119.347 15.1096 119.205 15.1096C118.891 15.1096 118.617 14.9678 118.475 14.7349C118.394 14.583 118.363 14.4412 118.363 14.107V12.0817H117.735V11.6058H118.363V10.7754H118.951V11.6159Z" fill="black"/>
<path d="M120.837 10.3086H120.249V10.9972H120.837V10.3086Z" fill="black"/>
<path d="M120.847 15.0501V11.6172H120.259V15.0501H120.847Z" fill="black"/>
<path fill-rule="evenodd" clip-rule="evenodd" d="M124.761 13.3166C124.761 14.4204 124.102 15.1393 123.088 15.1393C122.094 15.1393 121.435 14.4001 121.435 13.3065C121.435 12.2229 122.104 11.5039 123.108 11.5039C124.092 11.514 124.761 12.2432 124.761 13.3166ZM122.074 13.2862C122.074 14.1267 122.449 14.6432 123.078 14.6432C123.706 14.6432 124.122 14.1267 124.122 13.3267C124.122 12.5166 123.716 12.0001 123.088 12.0001C122.459 12.0001 122.074 12.4963 122.074 13.2862Z" fill="black"/>
<path d="M125.937 11.9953C126.196 11.6698 126.506 11.5352 126.96 11.5352C127.437 11.5352 127.812 11.7276 128.015 12.0617C128.147 12.2845 128.187 12.5174 128.187 13.0946V15.0491H127.599V12.9833C127.599 12.325 127.356 12.0313 126.859 12.0313C126.525 12.0313 126.251 12.1833 126.089 12.4465C125.987 12.6086 125.967 12.7908 125.967 13.4086V15.0491H125.379V11.6162H125.937V11.9953Z" fill="black"/>
</g>
<defs>
<clipPath id="clip0_1990_7237">
<rect width="47.04" height="20" fill="white" transform="translate(81.1472)"/>
</clipPath>
</defs>
</svg>
