<svg width="150" height="90" viewBox="0 0 150 90" fill="none" xmlns="http://www.w3.org/2000/svg">
<path d="M28.4394 49.9622C28.2237 50.3935 27.9003 50.7171 27.5768 50.8249C27.3611 50.9327 27.1455 50.9327 27.0376 50.9327H9.89301C12.2653 55.8934 17.5488 59.2364 23.4793 58.805C29.6255 58.3737 34.909 53.7366 36.0951 47.5897C36.4186 45.6485 36.4186 43.8153 36.0951 42.0898H21.9697L28.008 48.1288C28.1159 48.2367 28.2237 48.4523 28.3316 48.668C28.4394 48.8837 28.4394 49.0994 28.4394 49.2072C28.5472 49.6386 28.4394 49.8543 28.4394 49.9622Z" fill="url(#paint0_radial_1922_19611)"/>
<path d="M39.4379 42.1968C39.5457 43.0595 39.6536 44.0301 39.6536 45.0006C39.6536 54.4905 31.9978 62.1472 22.5089 62.1472C14.7454 62.1472 8.16783 56.9708 6.01134 49.8535C6.01134 49.7456 6.01134 49.7456 5.90346 49.6378C5.04088 46.6182 4.933 43.2752 6.01134 39.8243C8.2757 33.246 14.0984 28.5011 20.9993 27.854C26.3907 27.4227 31.243 29.4717 34.6935 32.9225C35.664 34.0009 35.017 35.7263 33.5074 35.7263C33.0761 35.7263 32.6447 35.5107 32.3213 35.1872C29.6256 32.3834 25.636 30.7657 21.215 31.0893C15.1767 31.6285 10.001 36.2656 8.81483 42.3046C8.49137 44.2458 8.49137 46.079 8.81483 47.8044H22.9403L16.9019 41.7654C16.7941 41.6576 16.6863 41.4419 16.5784 41.2263C16.4706 41.0106 16.4706 40.7949 16.4706 40.687C16.4706 40.4714 16.4706 40.2557 16.5784 40.1478C16.7941 39.7165 17.0097 39.3929 17.4411 39.2851C17.6567 39.1772 17.8724 39.1772 17.9802 39.1772H35.017H38.5752H43.6432C41.0553 29.6873 32.4291 22.8934 22.2933 23.0013C10.7557 23.1091 1.15906 32.3834 0.512054 43.8144C-0.134856 56.5395 9.89307 67 22.5089 67C34.6935 67 44.5058 57.1865 44.5058 45.0006C44.5058 44.0301 44.398 43.1673 44.2902 42.1968H39.4379Z" fill="url(#paint1_radial_1922_19611)"/>
<path d="M62.5893 39.181L60.8641 40.1516C60.5406 39.6124 60.2172 39.2889 60.0015 39.0732C59.6781 38.8575 59.3545 38.7496 58.8154 38.7496C58.2763 38.7496 57.7371 38.9653 57.4136 39.2889C56.9824 39.6124 56.8745 40.0438 56.8745 40.4751C56.8745 41.1221 57.4137 41.6613 58.3841 42.0927L59.7858 42.6319C60.972 43.0633 61.7268 43.6024 62.2659 44.3573C62.805 45.0044 63.0207 45.8671 63.0207 46.8376C63.0207 48.1317 62.5893 49.2102 61.7268 50.0728C60.8641 50.9356 59.7858 51.3669 58.4919 51.3669C57.3058 51.3669 56.2276 51.0434 55.4728 50.2885C54.718 49.5336 54.1788 48.5631 54.071 47.269L56.2276 46.8376C56.3354 47.7004 56.4432 48.2396 56.7667 48.5631C57.198 49.2102 57.8449 49.4259 58.7076 49.4259C59.3545 49.4259 59.8937 49.2102 60.325 48.7788C60.7563 48.3474 60.972 47.8082 60.972 47.0533C60.972 46.7298 60.972 46.5141 60.8641 46.2985C60.7563 46.0828 60.6485 45.8671 60.5406 45.6514C60.4328 45.4357 60.2172 45.3279 59.8937 45.1122C59.6781 44.8965 59.3545 44.7887 59.0311 44.6808L57.7371 44.1416C55.7962 43.3868 54.8258 42.2005 54.8258 40.5829C54.8258 39.5045 55.2571 38.6418 56.0119 37.9947C56.7667 37.2399 57.8449 36.9164 59.0311 36.9164C60.4329 36.8085 61.619 37.5634 62.5893 39.181Z" fill="#414042"/>
<path d="M68.5197 42.1973V47.2657C68.5197 48.7755 69.0588 49.4225 70.2449 49.4225C71.431 49.4225 71.9702 48.6677 71.9702 47.2657V42.1973H74.0189V47.2657C74.0189 48.0207 73.9111 48.5599 73.8032 49.099C73.5875 49.5304 73.372 49.9617 72.9406 50.2853C72.2936 50.9323 71.431 51.148 70.3527 51.148C69.2745 51.148 68.4119 50.8245 67.7649 50.2853C67.3336 49.9617 67.0101 49.5304 66.9022 49.099C66.6866 48.6677 66.6866 48.1285 66.6866 47.2657V42.1973H68.5197Z" fill="#414042"/>
<path d="M79.9494 35.7285V43.1695C80.8119 42.3068 81.6744 41.8754 82.7532 41.8754C83.9392 41.8754 84.9098 42.3068 85.6642 43.1695C86.4194 44.0322 86.8502 45.1106 86.8502 46.5126C86.8502 47.9144 86.4194 48.9929 85.6642 49.8555C84.9098 50.7183 83.831 51.1496 82.645 51.1496C81.6744 51.1496 80.7046 50.7183 79.9494 49.9634V51.0418H77.9009V35.7285H79.9494ZM84.8017 46.6204C84.8017 45.7577 84.5863 45.1106 84.1546 44.5714C83.7238 44.0322 83.0767 43.7087 82.4296 43.7087C81.6744 43.7087 81.0273 43.9243 80.5965 44.4635C80.1648 45.0028 79.9494 45.6498 79.9494 46.5126C79.9494 47.3752 80.1648 48.0223 80.5965 48.5615C81.0273 49.1007 81.6744 49.3164 82.4296 49.3164C83.1839 49.3164 83.7238 49.1007 84.1546 48.5615C84.5863 48.1301 84.8017 47.4831 84.8017 46.6204Z" fill="#414042"/>
<path d="M104.966 51.2552H102.271L101.192 50.1768C100.006 50.9317 98.7116 51.2552 97.3102 51.2552C95.477 51.2552 93.8593 50.6082 92.3497 49.422C90.8402 48.02 89.9777 46.2946 89.9777 44.1377C89.9777 42.0888 90.7329 40.2556 92.2425 38.8536C93.6439 37.4517 95.3689 36.8047 97.3102 36.8047C99.0351 36.8047 100.653 37.4517 102.054 38.6379C103.78 40.0399 104.535 41.981 104.535 44.2456C104.535 46.0789 103.887 47.6965 102.486 49.0984L104.966 51.2552ZM99.2514 45.4319L101.3 47.4808C102.162 46.5103 102.594 45.4319 102.594 44.0299C102.594 42.5202 102.054 41.2261 101.085 40.2556C100.114 39.285 98.8197 38.7458 97.4183 38.7458C95.9087 38.7458 94.7227 39.285 93.7521 40.2556C92.7814 41.2261 92.3497 42.5202 92.3497 44.0299C92.3497 45.5397 92.8896 46.726 93.8593 47.6965C94.9381 48.6671 96.1241 49.2063 97.4183 49.2063C98.2808 49.2063 99.1433 48.9906 99.8976 48.5592L96.6631 45.324H99.2514V45.4319Z" fill="#414042"/>
<path d="M110.357 42.1973V47.2657C110.357 48.7755 110.896 49.4225 112.082 49.4225C113.268 49.4225 113.807 48.6677 113.807 47.2657V42.1973H115.857V47.2657C115.857 48.0207 115.748 48.5599 115.64 49.099C115.425 49.5304 115.209 49.9617 114.778 50.2853C114.131 50.9323 113.268 51.148 112.19 51.148C111.112 51.148 110.249 50.8245 109.602 50.2853C109.171 49.9617 108.848 49.5304 108.739 49.099C108.524 48.6677 108.524 48.1285 108.524 47.2657V42.1973H110.357Z" fill="#414042"/>
<path d="M127.825 47.0529H121.571C121.679 47.8078 121.895 48.347 122.326 48.7783C122.757 49.2097 123.296 49.4254 123.943 49.4254C124.482 49.4254 124.914 49.3175 125.238 49.1018C125.561 48.8861 125.884 48.4549 126.315 47.8078L128.04 48.7783C127.825 49.2097 127.502 49.641 127.178 49.9646C126.854 50.2881 126.531 50.5038 126.207 50.7195C125.884 50.9352 125.453 51.043 125.129 51.1509C124.698 51.2587 124.267 51.2587 123.835 51.2587C122.541 51.2587 121.463 50.8273 120.709 49.9646C119.954 49.1018 119.522 48.0235 119.522 46.6215C119.522 45.2197 119.954 44.1412 120.709 43.2785C121.463 42.4158 122.541 41.9844 123.835 41.9844C125.129 41.9844 126.207 42.4158 126.854 43.1706C127.61 44.0334 127.933 45.1118 127.933 46.6215L127.825 47.0529ZM125.777 45.4353C125.453 44.3569 124.806 43.8177 123.728 43.8177C123.512 43.8177 123.296 43.8177 123.081 43.9255C122.865 44.0334 122.649 44.1412 122.541 44.2491C122.326 44.3569 122.218 44.5726 122.11 44.7883C122.002 45.004 121.895 45.2197 121.787 45.4353H125.777Z" fill="#414042"/>
<path d="M131.491 42.2001H133.54V42.9549C133.863 42.5237 134.295 42.308 134.511 42.2001C134.834 42.0923 135.158 41.9844 135.588 41.9844C136.128 41.9844 136.667 42.2001 137.314 42.5236L136.344 44.3569C135.912 44.0334 135.588 43.9255 135.265 43.9255C134.187 43.9255 133.648 44.7883 133.648 46.4058V51.043H131.6V42.2001H131.491Z" fill="#414042"/>
<path d="M143.353 49.3147L139.363 42.1973H141.735L144.43 47.2657L146.911 42.1973H149.175L142.167 55.7851H139.794L143.353 49.3147Z" fill="#414042"/>
<defs>
<radialGradient id="paint0_radial_1922_19611" cx="0" cy="0" r="1" gradientUnits="userSpaceOnUse" gradientTransform="translate(4.0622 22.731) scale(49.0094 49.015)">
<stop offset="0.475" stop-color="#4388DD"/>
<stop offset="0.9988" stop-color="#FF4581"/>
</radialGradient>
<radialGradient id="paint1_radial_1922_19611" cx="0" cy="0" r="1" gradientUnits="userSpaceOnUse" gradientTransform="translate(4.06227 22.7301) scale(49.0094 49.015)">
<stop offset="0.475" stop-color="#4388DD"/>
<stop offset="0.9988" stop-color="#FF4581"/>
</radialGradient>
</defs>
</svg>
