<svg width="170" height="90" viewBox="0 0 170 90" fill="none" xmlns="http://www.w3.org/2000/svg">
<path d="M108.275 34.9902V38.0885H96.7707V34.9902H108.275Z" fill="#24CC85"/>
<path d="M4.88723 37.2254C3.96176 37.2254 3.13772 37.0669 2.41509 36.7499C1.69246 36.4329 1.12197 36.0019 0.703609 35.4567C0.285247 34.8988 0.0507106 34.2776 0 33.5929H3.21378C3.25181 33.9606 3.42296 34.2586 3.72723 34.4868C4.03149 34.715 4.40548 34.8291 4.8492 34.8291C5.25488 34.8291 5.56548 34.753 5.781 34.6009C6.0092 34.4361 6.1233 34.2269 6.1233 33.9733C6.1233 33.669 5.96483 33.4471 5.64789 33.3077C5.33095 33.1555 4.8175 32.9907 4.10755 32.8132C3.3469 32.6357 2.71301 32.4519 2.20591 32.2617C1.6988 32.0588 1.26142 31.7482 0.893773 31.3298C0.526122 30.8987 0.342296 30.3219 0.342296 29.5992C0.342296 28.9906 0.507106 28.4391 0.836724 27.9446C1.17902 27.4375 1.67345 27.0381 2.32001 26.7465C2.97924 26.4549 3.75892 26.3091 4.65903 26.3091C5.99018 26.3091 7.03609 26.6387 7.79675 27.298C8.57008 27.9573 9.0138 28.8321 9.1279 29.9225H6.1233C6.07259 29.5548 5.90778 29.2632 5.62887 29.0477C5.36264 28.8321 5.00767 28.7244 4.56395 28.7244C4.18362 28.7244 3.89203 28.8004 3.68919 28.9526C3.48635 29.0921 3.38493 29.2886 3.38493 29.5421C3.38493 29.8464 3.5434 30.0746 3.86034 30.2268C4.18996 30.3789 4.69706 30.5311 5.38166 30.6832C6.16767 30.8861 6.80789 31.0889 7.30232 31.2918C7.79675 31.482 8.22779 31.7989 8.59544 32.2427C8.97577 32.6737 9.17227 33.257 9.18495 33.9923C9.18495 34.6136 9.00746 35.1714 8.65249 35.6659C8.31019 36.1477 7.80942 36.528 7.15019 36.807C6.50363 37.0859 5.74931 37.2254 4.88723 37.2254Z" fill="black"/>
<path d="M21.6525 26.4612V37.0732H18.4006V35.6279C18.071 36.097 17.621 36.4773 17.0505 36.7689C16.4927 37.0479 15.8715 37.1873 15.1869 37.1873C14.3755 37.1873 13.6592 37.0098 13.038 36.6548C12.4168 36.2871 11.9351 35.761 11.5928 35.0763C11.2505 34.3917 11.0793 33.5866 11.0793 32.6611V26.4612H14.3121V32.2237C14.3121 32.9337 14.4959 33.4852 14.8636 33.8782C15.2312 34.2712 15.7257 34.4678 16.3469 34.4678C16.9808 34.4678 17.4815 34.2712 17.8492 33.8782C18.2168 33.4852 18.4006 32.9337 18.4006 32.2237V26.4612H21.6525Z" fill="black"/>
<path d="M27.24 27.9637C27.5443 27.4692 27.9817 27.0698 28.5522 26.7655C29.1227 26.4612 29.7756 26.3091 30.5109 26.3091C31.3856 26.3091 32.178 26.531 32.8879 26.9747C33.5979 27.4185 34.1557 28.0524 34.5614 28.8765C34.9797 29.7006 35.1889 30.6579 35.1889 31.7482C35.1889 32.8386 34.9797 33.8021 34.5614 34.6389C34.1557 35.463 33.5979 36.1033 32.8879 36.5597C32.178 37.0035 31.3856 37.2254 30.5109 37.2254C29.7629 37.2254 29.11 37.0795 28.5522 36.7879C27.9943 36.4837 27.557 36.0843 27.24 35.5898V37.0732H23.9882V23H27.24V27.9637ZM31.88 31.7482C31.88 30.9368 31.6518 30.3029 31.1954 29.8464C30.7517 29.3773 30.2003 29.1428 29.541 29.1428C28.8945 29.1428 28.343 29.3773 27.8866 29.8464C27.4429 30.3155 27.221 30.9558 27.221 31.7672C27.221 32.5787 27.4429 33.2189 27.8866 33.688C28.343 34.1571 28.8945 34.3917 29.541 34.3917C30.1876 34.3917 30.7391 34.1571 31.1954 33.688C31.6518 33.2062 31.88 32.5596 31.88 31.7482Z" fill="black"/>
<path d="M41.2116 37.2254C40.2862 37.2254 39.4621 37.0669 38.7395 36.7499C38.0169 36.4329 37.4464 36.0019 37.028 35.4567C36.6096 34.8988 36.3751 34.2776 36.3244 33.5929H39.5382C39.5762 33.9606 39.7474 34.2586 40.0516 34.4868C40.3559 34.715 40.7299 34.8291 41.1736 34.8291C41.5793 34.8291 41.8899 34.753 42.1054 34.6009C42.3336 34.4361 42.4477 34.2269 42.4477 33.9733C42.4477 33.669 42.2892 33.4471 41.9723 33.3077C41.6553 33.1555 41.1419 32.9907 40.432 32.8132C39.6713 32.6357 39.0374 32.4519 38.5303 32.2617C38.0232 32.0588 37.5858 31.7482 37.2182 31.3298C36.8505 30.8987 36.6667 30.3219 36.6667 29.5992C36.6667 28.9906 36.8315 28.4391 37.1611 27.9446C37.5034 27.4375 37.9978 27.0381 38.6444 26.7465C39.3036 26.4549 40.0833 26.3091 40.9834 26.3091C42.3146 26.3091 43.3605 26.6387 44.1211 27.298C44.8945 27.9573 45.3382 28.8321 45.4523 29.9225H42.4477C42.397 29.5548 42.2322 29.2632 41.9533 29.0477C41.687 28.8321 41.3321 28.7244 40.8883 28.7244C40.508 28.7244 40.2164 28.8004 40.0136 28.9526C39.8107 29.0921 39.7093 29.2886 39.7093 29.5421C39.7093 29.8464 39.8678 30.0746 40.1847 30.2268C40.5144 30.3789 41.0215 30.5311 41.7061 30.6832C42.4921 30.8861 43.1323 31.0889 43.6267 31.2918C44.1211 31.482 44.5522 31.7989 44.9198 32.2427C45.3002 32.6737 45.4967 33.257 45.5093 33.9923C45.5093 34.6136 45.3319 35.1714 44.9769 35.6659C44.6346 36.1477 44.1338 36.528 43.4746 36.807C42.828 37.0859 42.0737 37.2254 41.2116 37.2254Z" fill="black"/>
<path d="M53.4129 34.3156V37.0732H51.7585C50.5795 37.0732 49.6603 36.7879 49.0011 36.2174C48.3419 35.6342 48.0122 34.6896 48.0122 33.3837V29.1618H46.7191V26.4612H48.0122V23.8748H51.264V26.4612H53.3939V29.1618H51.264V33.4218C51.264 33.7387 51.3401 33.967 51.4922 34.1064C51.6444 34.2459 51.8979 34.3156 52.2529 34.3156H53.4129Z" fill="black"/>
<path d="M58.476 28.2299C58.8564 27.6467 59.3318 27.1903 59.9023 26.8606C60.4728 26.5183 61.1067 26.3471 61.8039 26.3471V29.7894H60.9101C60.0988 29.7894 59.4902 29.9669 59.0846 30.3219C58.6789 30.6642 58.476 31.2728 58.476 32.1476V37.0732H55.2242V26.4612H58.476V28.2299Z" fill="black"/>
<path d="M62.7117 31.7482C62.7117 30.6579 62.9145 29.7006 63.3202 28.8765C63.7385 28.0524 64.3027 27.4185 65.0126 26.9747C65.7226 26.531 66.515 26.3091 67.3897 26.3091C68.1377 26.3091 68.7906 26.4612 69.3484 26.7655C69.9189 27.0698 70.3563 27.4692 70.6605 27.9637V26.4612H73.9123V37.0732H70.6605V35.5708C70.3436 36.0653 69.8999 36.4646 69.3294 36.7689C68.7716 37.0732 68.1187 37.2254 67.3707 37.2254C66.5086 37.2254 65.7226 37.0035 65.0126 36.5597C64.3027 36.1033 63.7385 35.463 63.3202 34.6389C62.9145 33.8021 62.7117 32.8386 62.7117 31.7482ZM70.6605 31.7672C70.6605 30.9558 70.4323 30.3155 69.9759 29.8464C69.5322 29.3773 68.9871 29.1428 68.3405 29.1428C67.694 29.1428 67.1425 29.3773 66.6861 29.8464C66.2424 30.3029 66.0205 30.9368 66.0205 31.7482C66.0205 32.5596 66.2424 33.2062 66.6861 33.688C67.1425 34.1571 67.694 34.3917 68.3405 34.3917C68.9871 34.3917 69.5322 34.1571 69.9759 33.688C70.4323 33.2189 70.6605 32.5787 70.6605 31.7672Z" fill="black"/>
<path d="M82.179 34.3156V37.0732H80.5246C79.3456 37.0732 78.4264 36.7879 77.7672 36.2174C77.108 35.6342 76.7783 34.6896 76.7783 33.3837V29.1618H75.4852V26.4612H76.7783V23.8748H80.0302V26.4612H82.16V29.1618H80.0302V33.4218C80.0302 33.7387 80.1062 33.967 80.2584 34.1064C80.4105 34.2459 80.664 34.3156 81.019 34.3156H82.179Z" fill="black"/>
<path d="M93.993 31.5961C93.993 31.9004 93.974 32.2173 93.9359 32.547H86.5766C86.6273 33.2062 86.8365 33.7134 87.2041 34.0684C87.5844 34.4107 88.0472 34.5819 88.5923 34.5819C89.4037 34.5819 89.9678 34.2395 90.2848 33.5549H93.7458C93.5683 34.2522 93.245 34.8798 92.7759 35.4377C92.3195 35.9955 91.7427 36.4329 91.0454 36.7499C90.3482 37.0669 89.5685 37.2254 88.7064 37.2254C87.6668 37.2254 86.7414 37.0035 85.93 36.5597C85.1186 36.116 84.4848 35.482 84.0284 34.6579C83.572 33.8338 83.3438 32.8703 83.3438 31.7672C83.3438 30.6642 83.5656 29.7006 84.0093 28.8765C84.4657 28.0524 85.0996 27.4185 85.911 26.9747C86.7224 26.531 87.6542 26.3091 88.7064 26.3091C89.7333 26.3091 90.6461 26.5246 91.4448 26.9557C92.2435 27.3868 92.8647 28.0017 93.3084 28.8004C93.7648 29.5992 93.993 30.5311 93.993 31.5961ZM90.6651 30.7403C90.6651 30.1824 90.4749 29.7387 90.0946 29.409C89.7143 29.0794 89.2389 28.9146 88.6684 28.9146C88.1232 28.9146 87.6605 29.073 87.2802 29.39C86.9125 29.707 86.6843 30.1571 86.5956 30.7403H90.6651Z" fill="black"/>
<path d="M3.82241 52.6589C4.12667 52.1644 4.56405 51.7651 5.13454 51.4608C5.70504 51.1565 6.35794 51.0044 7.09324 51.0044C7.968 51.0044 8.76035 51.2262 9.4703 51.67C10.1802 52.1137 10.7381 52.7477 11.1437 53.5718C11.5621 54.3959 11.7713 55.3531 11.7713 56.4435C11.7713 57.5338 11.5621 58.4974 11.1437 59.3342C10.7381 60.1583 10.1802 60.7985 9.4703 61.255C8.76035 61.6987 7.968 61.9206 7.09324 61.9206C6.34526 61.9206 5.69236 61.7748 5.13454 61.4832C4.57673 61.1789 4.13935 60.7795 3.82241 60.2851V61.7685H0.570595V47.6952H3.82241V52.6589ZM8.46243 56.4435C8.46243 55.632 8.23423 54.9981 7.77783 54.5417C7.33412 54.0726 6.78264 53.838 6.1234 53.838C5.47684 53.838 4.92536 54.0726 4.46897 54.5417C4.02525 55.0108 3.80339 55.651 3.80339 56.4625C3.80339 57.2739 4.02525 57.9142 4.46897 58.3833C4.92536 58.8524 5.47684 59.0869 6.1234 59.0869C6.76996 59.0869 7.32144 58.8524 7.77783 58.3833C8.23423 57.9015 8.46243 57.2549 8.46243 56.4435Z" fill="black"/>
<path d="M23.9553 51.1565V61.7685H20.7035V60.3231C20.3739 60.7922 19.9239 61.1726 19.3534 61.4642C18.7955 61.7431 18.1743 61.8826 17.4897 61.8826C16.6784 61.8826 15.9621 61.7051 15.3409 61.3501C14.7197 60.9824 14.2379 60.4562 13.8956 59.7716C13.5533 59.0869 13.3822 58.2818 13.3822 57.3563V51.1565H16.615V56.9189C16.615 57.6289 16.7988 58.1804 17.1665 58.5735C17.5341 58.9665 18.0285 59.163 18.6498 59.163C19.2836 59.163 19.7844 58.9665 20.1521 58.5735C20.5197 58.1804 20.7035 57.6289 20.7035 56.9189V51.1565H23.9553Z" fill="black"/>
<path d="M27.9265 50.0535C27.356 50.0535 26.8869 49.8886 26.5193 49.559C26.1643 49.2167 25.9868 48.7983 25.9868 48.3038C25.9868 47.7967 26.1643 47.3783 26.5193 47.0486C26.8869 46.7063 27.356 46.5352 27.9265 46.5352C28.4843 46.5352 28.9407 46.7063 29.2957 47.0486C29.6634 47.3783 29.8472 47.7967 29.8472 48.3038C29.8472 48.7983 29.6634 49.2167 29.2957 49.559C28.9407 49.8886 28.4843 50.0535 27.9265 50.0535ZM29.5429 51.1565V61.7685H26.2911V51.1565H29.5429Z" fill="black"/>
<path d="M35.1513 47.6952V61.7685H31.8995V47.6952H35.1513Z" fill="black"/>
<path d="M36.8613 56.4435C36.8613 55.3531 37.0641 54.3959 37.4698 53.5718C37.8882 52.7477 38.4523 52.1137 39.1623 51.67C39.8722 51.2262 40.6646 51.0044 41.5393 51.0044C42.2366 51.0044 42.8705 51.1502 43.441 51.4418C44.0241 51.7334 44.4805 52.1264 44.8102 52.6209V47.6952H48.062V61.7685H44.8102V60.247C44.5059 60.7542 44.0685 61.1599 43.498 61.4642C42.9402 61.7685 42.2873 61.9206 41.5393 61.9206C40.6646 61.9206 39.8722 61.6987 39.1623 61.255C38.4523 60.7985 37.8882 60.1583 37.4698 59.3342C37.0641 58.4974 36.8613 57.5338 36.8613 56.4435ZM44.8102 56.4625C44.8102 55.651 44.582 55.0108 44.1256 54.5417C43.6819 54.0726 43.1367 53.838 42.4902 53.838C41.8436 53.838 41.2921 54.0726 40.8357 54.5417C40.392 54.9981 40.1701 55.632 40.1701 56.4435C40.1701 57.2549 40.392 57.9015 40.8357 58.3833C41.2921 58.8524 41.8436 59.0869 42.4902 59.0869C43.1367 59.0869 43.6819 58.8524 44.1256 58.3833C44.582 57.9142 44.8102 57.2739 44.8102 56.4625Z" fill="black"/>
<path d="M60.4172 56.2913C60.4172 56.5956 60.3982 56.9126 60.3601 57.2422H53.0008C53.0515 57.9015 53.2606 58.4086 53.6283 58.7636C54.0086 59.106 54.4714 59.2771 55.0165 59.2771C55.8279 59.2771 56.392 58.9348 56.709 58.2502H60.17C59.9925 58.9475 59.6692 59.5751 59.2001 60.1329C58.7437 60.6908 58.1669 61.1282 57.4696 61.4452C56.7724 61.7621 55.9927 61.9206 55.1306 61.9206C54.091 61.9206 53.1656 61.6987 52.3542 61.255C51.5428 60.8112 50.909 60.1773 50.4526 59.3532C49.9962 58.5291 49.768 57.5655 49.768 56.4625C49.768 55.3594 49.9898 54.3959 50.4335 53.5718C50.8899 52.7477 51.5238 52.1137 52.3352 51.67C53.1465 51.2262 54.0784 51.0044 55.1306 51.0044C56.1575 51.0044 57.0703 51.2199 57.869 51.651C58.6677 52.082 59.2889 52.6969 59.7326 53.4957C60.189 54.2944 60.4172 55.2263 60.4172 56.2913ZM57.0893 55.4355C57.0893 54.8777 56.8991 54.4339 56.5188 54.1043C56.1385 53.7746 55.6631 53.6098 55.0926 53.6098C54.5474 53.6098 54.0847 53.7683 53.7044 54.0852C53.3367 54.4022 53.1085 54.8523 53.0198 55.4355H57.0893Z" fill="black"/>
<path d="M65.3845 52.9252C65.7648 52.3419 66.2402 51.8855 66.8107 51.5559C67.3812 51.2135 68.0151 51.0424 68.7124 51.0424V54.4846H67.8186C67.0072 54.4846 66.3987 54.6621 65.993 55.0171C65.5873 55.3594 65.3845 55.968 65.3845 56.8428V61.7685H62.1327V51.1565H65.3845V52.9252Z" fill="black"/>
<path d="M74.5834 61.9206C73.6579 61.9206 72.8339 61.7621 72.1113 61.4452C71.3886 61.1282 70.8181 60.6971 70.3998 60.1519C69.9814 59.5941 69.7469 58.9728 69.6962 58.2882H72.91C72.948 58.6559 73.1191 58.9538 73.4234 59.182C73.7277 59.4102 74.1016 59.5243 74.5454 59.5243C74.951 59.5243 75.2617 59.4483 75.4772 59.2961C75.7054 59.1313 75.8195 58.9221 75.8195 58.6685C75.8195 58.3643 75.661 58.1424 75.3441 58.0029C75.0271 57.8508 74.5137 57.686 73.8037 57.5085C73.0431 57.331 72.4092 57.1471 71.9021 56.9569C71.395 56.7541 70.9576 56.4435 70.5899 56.0251C70.2223 55.594 70.0385 55.0171 70.0385 54.2944C70.0385 53.6859 70.2033 53.1344 70.5329 52.6399C70.8752 52.1327 71.3696 51.7334 72.0162 51.4418C72.6754 51.1502 73.4551 51.0044 74.3552 51.0044C75.6863 51.0044 76.7323 51.334 77.4929 51.9933C78.2663 52.6526 78.71 53.5274 78.8241 54.6177H75.8195C75.7688 54.2501 75.6039 53.9585 75.325 53.7429C75.0588 53.5274 74.7038 53.4196 74.2601 53.4196C73.8798 53.4196 73.5882 53.4957 73.3854 53.6478C73.1825 53.7873 73.0811 53.9838 73.0811 54.2374C73.0811 54.5417 73.2396 54.7699 73.5565 54.922C73.8861 55.0742 74.3932 55.2263 75.0778 55.3785C75.8638 55.5813 76.5041 55.7842 76.9985 55.987C77.4929 56.1772 77.924 56.4942 78.2916 56.9379C78.6719 57.369 78.8684 57.9522 78.8811 58.6876C78.8811 59.3088 78.7036 59.8667 78.3487 60.3611C78.0064 60.8429 77.5056 61.2233 76.8464 61.5022C76.1998 61.7811 75.4455 61.9206 74.5834 61.9206Z" fill="black"/>
<path d="M88.1522 52.6589C88.4692 52.1644 88.9065 51.7651 89.4644 51.4608C90.0222 51.1565 90.6751 51.0044 91.4231 51.0044C92.2978 51.0044 93.0902 51.2262 93.8001 51.67C94.5101 52.1137 95.0679 52.7477 95.4736 53.5718C95.8919 54.3959 96.1011 55.3531 96.1011 56.4435C96.1011 57.5338 95.8919 58.4974 95.4736 59.3342C95.0679 60.1583 94.5101 60.7985 93.8001 61.255C93.0902 61.6987 92.2978 61.9206 91.4231 61.9206C90.6878 61.9206 90.0349 61.7685 89.4644 61.4642C88.9065 61.1599 88.4692 60.7668 88.1522 60.2851V66.8272H84.9004V51.1565H88.1522V52.6589ZM92.7922 56.4435C92.7922 55.632 92.564 54.9981 92.1077 54.5417C91.6639 54.0726 91.1125 53.838 90.4532 53.838C89.8067 53.838 89.2552 54.0726 88.7988 54.5417C88.3551 55.0108 88.1332 55.651 88.1332 56.4625C88.1332 57.2739 88.3551 57.9142 88.7988 58.3833C89.2552 58.8524 89.8067 59.0869 90.4532 59.0869C91.0998 59.0869 91.6513 58.8524 92.1077 58.3833C92.564 57.9015 92.7922 57.2549 92.7922 56.4435Z" fill="black"/>
<path d="M101.059 52.9252C101.439 52.3419 101.915 51.8855 102.485 51.5559C103.056 51.2135 103.69 51.0424 104.387 51.0424V54.4846H103.493C102.682 54.4846 102.073 54.6621 101.667 55.0171C101.262 55.3594 101.059 55.968 101.059 56.8428V61.7685H97.8071V51.1565H101.059V52.9252Z" fill="black"/>
<path d="M110.771 61.9206C109.732 61.9206 108.794 61.6987 107.957 61.255C107.133 60.8112 106.48 60.1773 105.998 59.3532C105.529 58.5291 105.295 57.5655 105.295 56.4625C105.295 55.3721 105.535 54.4149 106.017 53.5908C106.499 52.754 107.158 52.1137 107.995 51.67C108.832 51.2262 109.77 51.0044 110.809 51.0044C111.849 51.0044 112.787 51.2262 113.624 51.67C114.46 52.1137 115.12 52.754 115.601 53.5908C116.083 54.4149 116.324 55.3721 116.324 56.4625C116.324 57.5528 116.077 58.5164 115.582 59.3532C115.101 60.1773 114.435 60.8112 113.586 61.255C112.749 61.6987 111.811 61.9206 110.771 61.9206ZM110.771 59.106C111.392 59.106 111.919 58.8777 112.35 58.4213C112.793 57.9649 113.015 57.3119 113.015 56.4625C113.015 55.613 112.8 54.9601 112.369 54.5036C111.95 54.0472 111.431 53.819 110.809 53.819C110.175 53.819 109.649 54.0472 109.231 54.5036C108.813 54.9474 108.603 55.6003 108.603 56.4625C108.603 57.3119 108.806 57.9649 109.212 58.4213C109.63 58.8777 110.15 59.106 110.771 59.106Z" fill="black"/>
<path d="M122.081 51.0044C122.829 51.0044 123.482 51.1565 124.039 51.4608C124.61 51.7651 125.047 52.1644 125.352 52.6589V51.1565H128.603V61.7494C128.603 62.7257 128.407 63.6068 128.014 64.3929C127.634 65.1917 127.044 65.8256 126.245 66.2947C125.459 66.7638 124.477 66.9984 123.298 66.9984C121.726 66.9984 120.452 66.6243 119.475 65.8763C118.499 65.141 117.941 64.1393 117.802 62.8715H121.016C121.117 63.2772 121.358 63.5942 121.738 63.8224C122.119 64.0633 122.588 64.1837 123.146 64.1837C123.818 64.1837 124.35 63.9872 124.743 63.5942C125.149 63.2138 125.352 62.5989 125.352 61.7494V60.247C125.035 60.7415 124.597 61.1472 124.039 61.4642C123.482 61.7685 122.829 61.9206 122.081 61.9206C121.206 61.9206 120.414 61.6987 119.704 61.255C118.994 60.7985 118.43 60.1583 118.011 59.3342C117.606 58.4974 117.403 57.5338 117.403 56.4435C117.403 55.3531 117.606 54.3959 118.011 53.5718C118.43 52.7477 118.994 52.1137 119.704 51.67C120.414 51.2262 121.206 51.0044 122.081 51.0044ZM125.352 56.4625C125.352 55.651 125.123 55.0108 124.667 54.5417C124.223 54.0726 123.678 53.838 123.032 53.838C122.385 53.838 121.834 54.0726 121.377 54.5417C120.933 54.9981 120.712 55.632 120.712 56.4435C120.712 57.2549 120.933 57.9015 121.377 58.3833C121.834 58.8524 122.385 59.0869 123.032 59.0869C123.678 59.0869 124.223 58.8524 124.667 58.3833C125.123 57.9142 125.352 57.2739 125.352 56.4625Z" fill="black"/>
<path d="M134.208 52.9252C134.588 52.3419 135.063 51.8855 135.634 51.5559C136.204 51.2135 136.838 51.0424 137.536 51.0424V54.4846H136.642C135.83 54.4846 135.222 54.6621 134.816 55.0171C134.411 55.3594 134.208 55.968 134.208 56.8428V61.7685H130.956V51.1565H134.208V52.9252Z" fill="black"/>
<path d="M138.443 56.4435C138.443 55.3531 138.646 54.3959 139.052 53.5718C139.47 52.7477 140.034 52.1137 140.744 51.67C141.454 51.2262 142.247 51.0044 143.121 51.0044C143.869 51.0044 144.522 51.1565 145.08 51.4608C145.651 51.7651 146.088 52.1644 146.392 52.6589V51.1565H149.644V61.7685H146.392V60.266C146.075 60.7605 145.632 61.1599 145.061 61.4642C144.503 61.7685 143.85 61.9206 143.102 61.9206C142.24 61.9206 141.454 61.6987 140.744 61.255C140.034 60.7985 139.47 60.1583 139.052 59.3342C138.646 58.4974 138.443 57.5338 138.443 56.4435ZM146.392 56.4625C146.392 55.651 146.164 55.0108 145.708 54.5417C145.264 54.0726 144.719 53.838 144.072 53.838C143.426 53.838 142.874 54.0726 142.418 54.5417C141.974 54.9981 141.752 55.632 141.752 56.4435C141.752 57.2549 141.974 57.9015 142.418 58.3833C142.874 58.8524 143.426 59.0869 144.072 59.0869C144.719 59.0869 145.264 58.8524 145.708 58.3833C146.164 57.9142 146.392 57.2739 146.392 56.4625Z" fill="black"/>
<path d="M165.536 51.0424C166.855 51.0424 167.901 51.4418 168.674 52.2405C169.46 53.0393 169.853 54.1486 169.853 55.5686V61.7685H166.62V56.006C166.62 55.3214 166.436 54.7952 166.069 54.4276C165.714 54.0472 165.219 53.857 164.585 53.857C163.952 53.857 163.451 54.0472 163.083 54.4276C162.728 54.7952 162.551 55.3214 162.551 56.006V61.7685H159.318V56.006C159.318 55.3214 159.134 54.7952 158.766 54.4276C158.411 54.0472 157.917 53.857 157.283 53.857C156.649 53.857 156.149 54.0472 155.781 54.4276C155.426 54.7952 155.248 55.3214 155.248 56.006V61.7685H151.997V51.1565H155.248V52.4877C155.578 52.044 156.009 51.6953 156.542 51.4418C157.074 51.1755 157.676 51.0424 158.348 51.0424C159.147 51.0424 159.857 51.2135 160.478 51.5559C161.112 51.8982 161.606 52.3863 161.961 53.0202C162.329 52.437 162.83 51.9616 163.464 51.5939C164.097 51.2262 164.788 51.0424 165.536 51.0424Z" fill="black"/>
</svg>
