<svg width="273" height="90" viewBox="0 0 273 90" fill="none" xmlns="http://www.w3.org/2000/svg">
<path d="M13.4316 38.3209C13.1364 38.9112 12.8412 39.5015 12.3984 39.9442C11.9556 40.387 11.5128 40.6821 10.9224 40.9773C10.332 41.2724 9.74157 41.42 9.00357 41.42C8.26558 41.42 7.67518 41.2724 7.08478 40.9773C6.49438 40.6821 6.05158 40.387 5.60878 39.9442C5.16598 39.5015 4.87079 38.9112 4.57559 38.3209C4.42799 37.7306 4.28039 36.9927 4.28039 36.2548C4.28039 35.5169 4.42799 34.9266 4.57559 34.1887C4.87079 33.5984 5.16598 33.1557 5.60878 32.7129C6.05158 32.2702 6.49438 31.9751 7.08478 31.6799C7.67518 31.3848 8.26558 31.2372 9.00357 31.2372C9.74157 31.2372 10.332 31.3848 10.9224 31.6799C11.5128 31.9751 11.9556 32.2702 12.3984 32.7129C12.8412 33.1557 13.1364 33.746 13.4316 34.3363C13.5792 34.9266 13.7268 35.5169 13.7268 36.2548C13.7268 36.9927 13.5792 37.7306 13.4316 38.3209ZM15.498 29.909C14.6124 29.1711 13.7268 28.5808 12.546 28.2856C11.5128 27.8429 10.332 27.6953 9.00357 27.6953C7.67518 27.6953 6.49438 27.8429 5.46118 28.2856C4.28039 28.5808 3.39479 29.1711 2.50919 29.909C1.77119 30.6469 1.1808 31.6799 0.590398 32.7129C-2.1994e-07 33.746 0 34.9266 0 36.2548C0 37.583 0.295199 38.7636 0.737998 39.7967C1.1808 40.8297 1.77119 41.8628 2.65679 42.6006C3.39479 43.3385 4.42799 43.9288 5.46118 44.3716C6.49438 44.8143 7.82278 44.9619 9.00357 44.9619C10.332 44.9619 11.5128 44.8143 12.546 44.3716C13.5792 43.9288 14.6124 43.3385 15.3504 42.6006C16.0884 41.8628 16.8264 40.8297 17.2691 39.7967C17.7119 38.7636 18.0071 37.583 18.0071 36.2548C18.0071 34.9266 17.7119 33.746 17.2691 32.7129C16.8264 31.6799 16.236 30.6469 15.498 29.909Z" fill="black"/>
<path d="M27.6011 39.2061C27.6011 39.944 27.4535 40.5343 27.0107 40.977C26.7155 41.4197 26.1251 41.7149 25.5347 41.7149C25.2395 41.7149 24.9443 41.7149 24.6492 41.5673C24.5016 41.4197 24.2064 41.2722 24.0588 40.977C23.9112 40.6818 23.7636 40.5343 23.7636 40.2391C23.7636 39.944 23.7636 39.6488 23.7636 39.3536V33.0078H19.926V40.2391C19.926 40.8294 20.0736 41.4197 20.2212 42.01C20.3688 42.6003 20.664 43.0431 20.9592 43.4858C21.2544 43.9285 21.6972 44.2237 22.2876 44.5189C22.878 44.814 23.4684 44.9616 24.2064 44.9616C24.6492 44.9616 24.9443 44.9616 25.3871 44.814C25.6823 44.6664 26.1251 44.5189 26.4203 44.3713C26.7155 44.2237 27.0107 43.9285 27.1583 43.781C27.4535 43.4858 27.6011 43.3382 27.7487 43.0431V44.6664H31.4387V33.0078H27.6011V39.2061Z" fill="black"/>
<path d="M38.5236 29.9102H34.686V33.0093H32.9148V35.8133H34.8336V40.6833C34.8336 41.2736 34.8336 41.8639 34.9812 42.4542C35.1288 42.897 35.424 43.3397 35.7192 43.7824C36.0144 44.0776 36.4572 44.3727 37.0476 44.6679C37.638 44.9631 38.2284 44.9631 38.9664 44.9631C39.4092 44.9631 39.7044 44.9631 40.1472 44.8155C40.59 44.8155 40.8852 44.6679 41.1804 44.5203V41.7164C41.0328 41.7164 40.8852 41.8639 40.59 41.8639C40.4424 41.8639 40.1472 41.8639 39.9996 41.8639C39.4092 41.8639 39.114 41.7164 38.8188 41.4212C38.6712 41.126 38.5236 40.6833 38.5236 40.2406V35.8133H41.328V33.0093H38.5236V29.9102Z" fill="black"/>
<path d="M46.9366 26.957H43.0991V44.6663H46.9366V26.957Z" fill="black"/>
<path d="M53.1358 27.6958C52.9882 27.5482 52.693 27.4006 52.3978 27.253C52.1026 27.1055 51.8074 27.1055 51.5122 27.1055C51.217 27.1055 50.9218 27.1055 50.6266 27.253C50.3314 27.4006 50.1838 27.5482 49.8886 27.6958C49.741 27.8434 49.5935 28.1385 49.4459 28.4337C49.2983 28.7288 49.2982 29.024 49.2982 29.1716C49.2982 29.7619 49.4459 30.2046 49.8886 30.6473C50.3314 31.0901 50.7742 31.2376 51.5122 31.2376C51.8074 31.2376 52.1026 31.2376 52.3978 31.0901C52.693 30.9425 52.8406 30.7949 53.1358 30.6473C53.2834 30.4998 53.431 30.2046 53.5786 29.9094C53.7262 29.6143 53.7262 29.3191 53.7262 29.024C53.7262 28.7288 53.7262 28.4337 53.5786 28.1385C53.5786 28.1385 53.431 27.9909 53.1358 27.6958Z" fill="black"/>
<path d="M53.5786 33.0078H49.741V44.6664H53.5786V33.0078Z" fill="black"/>
<path d="M59.3351 37.4347C59.3351 37.1395 59.4827 36.8444 59.6303 36.5492C59.7778 36.2541 59.9255 36.1065 60.2207 35.8113C60.3683 35.6637 60.6634 35.5162 60.9586 35.3686C61.2538 35.221 61.549 35.221 61.9918 35.221C62.7298 35.221 63.3202 35.3686 63.763 35.8113C64.2058 36.2541 64.3534 36.6968 64.3534 37.4347H59.3351ZM66.1246 34.3355C65.6818 33.7452 64.9438 33.3025 64.2058 33.1549C63.4678 32.8598 62.7298 32.7122 61.8442 32.7122C60.9586 32.5646 60.2207 32.7122 59.4827 33.0073C58.7447 33.3025 58.0067 33.7452 57.5639 34.188C56.9735 34.7783 56.5307 35.3686 56.2355 36.1065C55.9403 36.8444 55.7927 37.7298 55.7927 38.7629C55.7927 39.7959 55.9403 40.6814 56.2355 41.4193C56.5307 42.1572 56.9735 42.895 57.5639 43.3378C58.1543 43.9281 58.8923 44.2232 59.6303 44.5184C60.3682 44.8135 61.2538 44.9611 62.1394 44.9611C63.3202 44.9611 64.3534 44.8135 65.239 44.3708C66.1246 43.9281 66.8626 43.3378 67.453 42.5999L64.7962 40.9765C64.501 41.2717 64.2058 41.5668 63.763 41.862C63.3202 42.1572 62.8774 42.1572 62.287 42.1572C61.9918 42.1572 61.549 42.1572 61.2538 42.0096C60.9587 41.862 60.6634 41.7144 60.3682 41.5668C60.073 41.4193 59.9255 41.1241 59.7779 40.829C59.6303 40.5338 59.4827 40.2386 59.4827 39.9435H67.8958C67.8958 39.7959 67.8958 39.6483 67.8958 39.5008V38.9104C67.8958 37.8774 67.7482 36.9919 67.453 36.2541C67.0102 35.5162 66.5674 34.7783 66.1246 34.3355Z" fill="black"/>
<path d="M76.6043 32.7129C75.8663 32.7129 75.2759 32.8605 74.6855 33.3032C74.0951 33.7459 73.6523 34.1887 73.3572 34.779V33.008H69.8148V44.6667H73.6523V38.616C73.6523 38.3208 73.6523 38.1733 73.7999 37.7305C73.9475 37.4354 74.0951 37.1402 74.2427 36.8451C74.3903 36.5499 74.6855 36.4023 75.1283 36.1072C75.4235 35.9596 75.8663 35.812 76.4567 35.812C76.6043 35.812 76.7519 35.812 76.8995 35.812C77.0471 35.812 77.1947 35.812 77.3423 35.9596L77.4899 32.7129C77.3423 32.7129 77.3423 32.7129 77.1947 32.7129C76.8995 32.7129 76.7519 32.7129 76.6043 32.7129Z" fill="black"/>
<path d="M12.6935 46.0703L8.41311 57.7289L4.13273 46.0703H-6.10352e-05L6.34672 62.599H10.3319L16.6787 46.0703H12.6935Z" fill="black"/>
<path d="M18.5977 55.369C18.5977 55.0738 18.7453 54.7787 18.8929 54.4835C19.0405 54.1883 19.1881 54.0408 19.4833 53.7456C19.7785 53.598 19.9261 53.4505 20.3689 53.3029C20.6641 53.1553 20.9593 53.1553 21.4021 53.1553C22.1401 53.1553 22.7305 53.3029 23.1733 53.7456C23.6161 54.1883 23.7637 54.6311 23.7637 55.369H18.5977ZM25.3873 52.2698C24.9445 51.6795 24.2065 51.2368 23.4685 51.0892C22.7305 50.7941 21.9925 50.6465 21.1069 50.6465C20.2213 50.6465 19.3357 50.7941 18.5977 51.0892C17.8597 51.3844 17.1217 51.8271 16.6789 52.2698C16.0885 52.8601 15.6457 53.4505 15.3505 54.1883C15.0553 54.9262 14.9077 55.8117 14.9077 56.8447C14.9077 57.8778 15.0553 58.7632 15.3505 59.5011C15.6457 60.239 16.0885 60.9769 16.6789 61.4196C17.2693 62.01 18.0073 62.3051 18.7453 62.6003C19.4833 62.8954 20.3689 63.043 21.2545 63.043C22.4353 63.043 23.4685 62.8954 24.3541 62.4527C25.2397 62.0099 25.9777 61.4196 26.5681 60.6818L23.9113 59.0584C23.6161 59.3536 23.3209 59.6487 22.8781 59.9439C22.4353 60.239 21.9925 60.239 21.4021 60.239C21.1069 60.239 20.6641 60.239 20.3689 60.0914C20.0737 59.9439 19.7785 59.7963 19.4833 59.6487C19.1881 59.5011 19.0405 59.206 18.8929 58.9108C18.7453 58.6157 18.5977 58.3205 18.5977 58.0254H27.0108C27.0108 57.8778 27.0108 57.7302 27.0108 57.5826V56.8447C27.0108 55.8117 26.8633 54.9262 26.5681 54.1883C26.2729 53.4505 25.83 52.7126 25.3873 52.2698Z" fill="black"/>
<path d="M38.9664 52.1223C38.6712 51.6795 38.2284 51.3844 37.638 51.0892C37.0476 50.7941 36.4572 50.6465 35.5716 50.6465C35.1288 50.6465 34.8336 50.6465 34.3908 50.7941C34.0956 50.9416 33.6528 51.0892 33.3576 51.2368C33.0624 51.3844 32.7672 51.6795 32.6196 51.8271C32.3244 52.1223 32.1768 52.2698 32.0292 52.565V50.9416H28.3392V62.6003H32.1768V56.2544C32.1768 55.9593 32.1768 55.6641 32.3244 55.369C32.472 55.0738 32.472 54.7787 32.7672 54.6311C32.9148 54.3359 33.21 54.1883 33.3576 54.0408C33.6528 53.8932 33.948 53.8932 34.2432 53.8932C34.5384 53.8932 34.8336 53.8932 35.1288 54.0408C35.424 54.1883 35.5716 54.3359 35.7192 54.6311C35.8668 54.9262 35.8668 55.0738 36.0144 55.369C36.0144 55.6641 36.162 55.9593 36.162 56.2544V62.6003H39.9996V55.369C39.9996 54.7787 39.852 54.1883 39.7044 53.598C39.5568 53.0077 39.2616 52.565 38.9664 52.1223Z" fill="black"/>
<path d="M46.9366 47.8418H43.099V50.9409H41.1802V53.7449H43.099V58.615C43.099 59.2053 43.099 59.7956 43.2466 60.3859C43.3942 60.8286 43.5418 61.2713 43.9846 61.7141C44.2798 62.0092 44.7226 62.3044 45.313 62.5995C45.9034 62.8947 46.4938 62.8947 47.2318 62.8947C47.6746 62.8947 47.9697 62.8947 48.4125 62.7471C48.8553 62.7471 49.1506 62.5995 49.4458 62.452V59.648C49.2982 59.648 49.1505 59.7956 48.8553 59.7956C48.7077 59.7956 48.4125 59.7956 48.2649 59.7956C47.6746 59.7956 47.3794 59.648 47.0842 59.3528C46.9366 59.0577 46.789 58.615 46.789 58.1722V53.7449H49.5933V50.9409H46.789L46.9366 47.8418Z" fill="black"/>
<path d="M59.04 57.1358C59.04 57.8736 58.8924 58.464 58.4496 58.9067C58.1544 59.3494 57.564 59.6446 56.9736 59.6446C56.6784 59.6446 56.3832 59.6446 56.088 59.497C55.9404 59.3494 55.6452 59.2018 55.4976 58.9067C55.35 58.6115 55.2024 58.464 55.2024 58.1688C55.2024 57.8736 55.2024 57.5785 55.2024 57.2833V50.9375H51.3648V58.1688C51.3648 58.7591 51.5124 59.3494 51.5124 59.9397C51.66 60.53 51.9552 60.9728 52.2504 61.4155C52.5456 61.8582 52.9884 62.1534 53.5788 62.4485C54.1692 62.7437 54.7596 62.8913 55.4976 62.8913C55.9404 62.8913 56.2356 62.8913 56.6784 62.7437C56.9736 62.5961 57.4164 62.4485 57.7116 62.301C58.0068 62.1534 58.302 61.8582 58.4496 61.7107C58.7448 61.4155 58.8924 61.2679 59.04 60.9728V62.5961H62.73V50.9375H58.8924L59.04 57.1358Z" fill="black"/>
<path d="M72.0288 50.6456C71.2908 50.6456 70.7004 50.7932 70.11 51.2359C69.5196 51.6787 69.0768 52.1214 68.7816 52.7117V50.9408H65.0916V62.5994H68.9292V56.5487C68.9292 56.2536 68.9292 56.106 69.0768 55.6633C69.2244 55.3681 69.372 55.0729 69.5196 54.7778C69.6672 54.4826 69.9624 54.3351 70.4052 54.0399C70.7004 53.8923 71.1432 53.7448 71.7336 53.7448C71.8812 53.7448 72.0288 53.7448 72.1764 53.7448C72.324 53.7448 72.4716 53.7448 72.6192 53.8923L72.7668 50.498C72.6192 50.498 72.6192 50.498 72.4716 50.498C72.324 50.6456 72.1764 50.6456 72.0288 50.6456Z" fill="black"/>
<path d="M77.047 55.369C77.047 55.0738 77.1947 54.7787 77.3423 54.4835C77.4899 54.1883 77.6374 54.0408 77.9326 53.7456C78.2278 53.598 78.3754 53.4505 78.8182 53.3029C79.1134 53.1553 79.4086 53.1553 79.8514 53.1553C80.5894 53.1553 81.1798 53.3029 81.6226 53.7456C82.0654 54.1883 82.213 54.6311 82.213 55.369H77.047ZM83.8366 52.2698C83.3938 51.6795 82.6558 51.2368 81.9178 51.0892C81.1798 50.7941 80.4418 50.6465 79.5562 50.6465C78.6706 50.6465 77.785 50.7941 77.047 51.0892C76.309 51.3844 75.5711 51.8271 75.1283 52.2698C74.5379 52.8601 74.0951 53.4505 73.7999 54.1883C73.5047 54.9262 73.3571 55.8117 73.3571 56.8447C73.3571 57.8778 73.5047 58.7632 73.7999 59.5011C74.0951 60.239 74.5379 60.9769 75.1283 61.4196C75.7187 62.01 76.4566 62.3051 77.1946 62.6003C77.9326 62.8954 78.8182 63.043 79.7038 63.043C80.8846 63.043 81.9178 62.8954 82.8034 62.4527C83.689 62.0099 84.427 61.4196 85.0174 60.6818L82.3606 59.0584C82.0654 59.3536 81.7702 59.6487 81.3274 59.9439C80.8846 60.239 80.4418 60.239 79.8514 60.239C79.5562 60.239 79.1134 60.239 78.8182 60.0914C78.523 59.9439 78.2278 59.7963 77.9326 59.6487C77.6374 59.5011 77.4899 59.206 77.3423 58.9108C77.1947 58.6157 77.047 58.3205 77.047 58.0254H85.4602C85.4602 57.8778 85.4602 57.7302 85.4602 57.5826V56.8447C85.4602 55.8117 85.3126 54.9262 85.0174 54.1883C84.7222 53.4505 84.2794 52.7126 83.8366 52.2698Z" fill="black"/>
<path d="M95.497 56.3983C95.2018 56.1032 94.7591 55.9556 94.3163 55.6604C93.8735 55.5129 93.4307 55.3653 92.9879 55.2177C92.2499 55.0701 91.6595 54.9226 91.3643 54.775C91.0691 54.6274 90.9215 54.3322 90.9215 54.0371C90.9215 53.7419 91.0691 53.4468 91.3643 53.2992C91.6595 53.1516 91.9547 53.1516 92.3975 53.1516C92.8403 53.1516 93.2831 53.2992 93.7259 53.4468C94.1686 53.5944 94.4638 53.8895 94.759 54.1847L96.8254 51.971C96.235 51.3807 95.497 51.0855 94.759 50.7904C93.8734 50.4952 93.1355 50.3477 92.2499 50.3477C91.6595 50.3477 91.0691 50.4952 90.6263 50.6428C90.0359 50.7904 89.5931 51.0855 89.0027 51.3807C88.5599 51.6759 88.1171 52.1186 87.8219 52.5613C87.5267 53.0041 87.3791 53.5944 87.3791 54.3322C87.3791 54.9226 87.5267 55.3653 87.6743 55.808C87.8219 56.2508 88.1171 56.5459 88.4123 56.8411C88.7075 57.1362 89.1503 57.2838 89.4455 57.4314C89.8883 57.579 90.1835 57.7265 90.6263 57.8741C91.3643 58.0217 91.9547 58.1693 92.3975 58.4644C92.8403 58.612 92.9879 58.9072 92.9879 59.2023C92.9879 59.645 92.8402 59.7926 92.545 59.9402C92.2499 60.0878 91.9547 60.2353 91.6595 60.2353C91.0691 60.2353 90.6263 60.0878 90.0359 59.7926C89.5931 59.4975 89.1503 59.2023 88.7075 58.9072L86.4935 61.1208C87.0839 61.7111 87.8219 62.1539 88.7075 62.449C89.5931 62.7442 90.4787 62.8917 91.5119 62.8917C92.1023 62.8917 92.6926 62.8917 93.283 62.7442C93.8734 62.5966 94.4638 62.449 94.9066 62.0063C95.3494 61.7111 95.7922 61.2684 96.0874 60.8257C96.3826 60.3829 96.5302 59.645 96.5302 58.9072C96.5302 58.3168 96.3826 57.8741 96.235 57.4314C96.0874 57.1362 95.7922 56.6935 95.497 56.3983Z" fill="black"/>
<path d="M85.7103 30.9572C85.7103 31.6951 85.4151 32.2854 84.9723 32.8757C84.3819 33.3184 83.7915 33.6136 83.0535 33.6136C82.6107 33.6136 82.3155 33.6136 82.0203 33.466C81.7251 33.3184 81.4299 33.1708 81.1347 32.8757C80.8395 32.5805 80.6919 32.433 80.5443 31.9902C80.3967 31.6951 80.3967 31.2523 80.3967 30.9572C80.3967 30.662 80.3967 30.2193 80.5443 29.9241C80.6919 29.629 80.8395 29.3338 81.1347 29.0387C81.4299 28.7435 81.7251 28.5959 82.0203 28.4484C82.3155 28.3008 82.7583 28.3008 83.0535 28.3008C83.7915 28.3008 84.3819 28.5959 84.9723 29.0387C85.4151 29.4814 85.7103 30.2193 85.7103 30.9572Z" fill="black"/>
<path d="M113.877 23V67" stroke="#9B9B9B" stroke-width="0.423109"/>
<path d="M153.144 32.678C157.372 32.678 160.8 30.6846 160.8 28.2257C160.8 25.7668 157.372 23.7734 153.144 23.7734C148.915 23.7734 145.487 25.7668 145.487 28.2257C145.487 30.6846 148.915 32.678 153.144 32.678Z" fill="#E6007A"/>
<path d="M153.144 66.2249C157.372 66.2249 160.8 64.2315 160.8 61.7726C160.8 59.3137 157.372 57.3203 153.144 57.3203C148.915 57.3203 145.487 59.3137 145.487 61.7726C145.487 64.2315 148.915 66.2249 153.144 66.2249Z" fill="#E6007A"/>
<path d="M142.474 38.8375C144.588 35.1762 144.574 31.2107 142.443 29.9804C140.312 28.7502 136.871 30.7209 134.756 34.3823C132.642 38.0436 132.656 42.0091 134.787 43.2394C136.918 44.4697 140.36 42.4989 142.474 38.8375Z" fill="#E6007A"/>
<path d="M171.528 55.6138C173.642 51.9525 173.629 47.9877 171.5 46.7582C169.37 45.5288 165.929 47.5002 163.815 51.1616C161.701 54.8229 161.714 58.7877 163.843 60.0172C165.973 61.2466 169.413 59.2752 171.528 55.6138Z" fill="#E6007A"/>
<path d="M142.444 60.0156C144.575 58.7854 144.589 54.8199 142.475 51.1585C140.361 47.4972 136.919 45.5264 134.788 46.7567C132.657 47.987 132.643 51.9525 134.757 55.6138C136.872 59.2752 140.313 61.2459 142.444 60.0156Z" fill="#E6007A"/>
<path d="M171.502 43.2457C173.631 42.0162 173.644 38.0514 171.53 34.3901C169.415 30.7287 165.975 28.7573 163.845 29.9868C161.715 31.2162 161.703 35.181 163.817 38.8423C165.931 42.5037 169.372 44.4751 171.502 43.2457Z" fill="#E6007A"/>
<path d="M191.781 24.584C190.414 24.584 189.097 24.7557 188.561 24.9008C187.78 25.1203 187.585 25.4619 187.438 26.1699L184.34 40.4625C184.291 40.7545 184.243 40.9988 184.243 41.2431C184.243 41.9511 184.707 42.413 185.463 42.413C186.293 42.413 186.635 41.8767 186.805 41.0466L187.683 36.9739C188.292 37.0464 189.097 37.1208 190.244 37.1208C195.295 37.1208 198.44 34.3897 198.44 30.2674C198.44 26.6566 195.927 24.584 191.781 24.584ZM190.122 34.7791C189.341 34.7791 188.731 34.7543 188.171 34.6817L189.805 27.0956C190.317 27.023 191.074 26.9239 191.855 26.9239C194.539 26.9239 195.905 28.193 195.905 30.2904C195.904 32.9737 193.951 34.7791 190.122 34.7791Z" fill="black"/>
<path d="M271.256 37.704C270.842 37.704 270.573 37.9482 270.061 38.5093C269.158 39.4368 268.597 39.9483 267.891 39.9483C267.257 39.9483 266.915 39.4368 266.915 38.6067C266.915 38.1429 267.013 37.5819 267.135 36.973L268.038 32.7286H270.746C271.599 32.7286 272.113 32.2401 272.113 31.3621C272.113 30.8736 271.796 30.509 271.065 30.509H268.525L268.964 28.5337C269.013 28.2417 269.061 27.9726 269.061 27.7284C269.061 27.0452 268.597 26.5566 267.841 26.5566C267.036 26.5566 266.671 27.0929 266.499 27.9231L265.938 30.509H264.791C263.913 30.509 263.401 30.9975 263.401 31.8754C263.401 32.364 263.743 32.7286 264.474 32.7286H265.474L264.572 36.9234C264.474 37.3872 264.352 38.1429 264.352 38.9235C264.352 40.8988 265.377 42.3378 267.572 42.3378C268.841 42.3378 269.962 41.7042 270.817 40.9466C271.647 40.2156 272.256 39.3129 272.256 38.727C272.256 38.1677 271.817 37.704 271.256 37.704Z" fill="black"/>
<path d="M215.15 26.0213C215.15 25.3133 214.661 24.8496 213.905 24.8496C213.1 24.8496 212.735 25.3859 212.563 26.216L209.515 40.3865C209.442 40.6786 209.393 40.9228 209.393 41.1671C209.393 41.8751 209.881 42.337 210.613 42.337C211.443 42.337 211.808 41.8007 211.979 40.9706L215.028 26.8019C215.077 26.5081 215.15 26.2656 215.15 26.0213Z" fill="black"/>
<path d="M258.693 30.2675C254.789 30.2675 252.13 34.1456 252.13 37.8289C252.13 37.8979 252.132 37.967 252.134 38.0342C251.521 38.9635 250.739 39.9263 250.202 39.9263C249.813 39.9263 249.666 39.5599 249.666 38.9988C249.666 38.3156 249.861 37.1687 250.08 36.1686L252.105 26.8019C252.155 26.5099 252.203 26.2656 252.203 26.0213C252.203 25.3133 251.739 24.8496 250.983 24.8496C250.153 24.8496 249.813 25.3859 249.641 26.216L248.544 31.2888C247.958 30.6799 247.103 30.264 245.81 30.264C243.219 30.264 240.611 32.2588 239.595 35.3191C238.476 38.2112 237.476 39.9228 236.687 39.9228C236.394 39.9228 236.223 39.6785 236.223 39.2643C236.223 38.0448 236.906 35.0695 237.198 33.6305C237.296 33.0942 237.345 32.8747 237.345 32.5579C237.345 31.4853 235.564 30.2162 233.247 30.2162C230.567 30.2162 228.14 31.9136 226.924 34.4341C225.116 37.6271 223.458 39.9228 222.636 39.9228C222.27 39.9228 222.148 39.459 222.05 39.0201L221.443 35.6589L225.175 32.611C225.516 32.3189 225.955 31.903 225.955 31.3667C225.955 30.7083 225.516 30.2693 224.858 30.2693C224.369 30.2693 223.955 30.5613 223.541 30.9029L217.931 35.5368L219.809 26.8054C219.859 26.5134 219.931 26.2691 219.931 26.0249C219.931 25.3169 219.443 24.8531 218.687 24.8531C217.881 24.8531 217.517 25.3895 217.345 26.2196L214.296 40.3901C214.224 40.6821 214.174 40.9264 214.174 41.1706C214.174 41.8786 214.663 42.3406 215.394 42.3406C216.224 42.3406 216.589 41.8043 216.761 40.9742L217.152 39.1458L219.444 37.2926L220.006 40.121C220.225 41.2432 220.811 42.3406 222.323 42.3406C223.828 42.3406 225.012 40.9671 226.198 39.1104C226.557 41.0556 227.942 42.3406 229.862 42.3406C231.79 42.3406 233.107 41.1936 233.96 39.6573V39.7068C233.96 41.2927 234.766 42.3406 236.18 42.3406C237.46 42.3406 238.522 41.5689 239.471 39.9299C240.009 41.3582 241.213 42.3406 242.888 42.3406C244.863 42.3406 246.278 41.1458 247.181 39.4874V39.6343C247.181 41.3901 248.059 42.3423 249.498 42.3423C250.769 42.3423 251.849 41.6043 252.771 40.4042C253.472 41.6043 254.729 42.3423 256.427 42.3423C260.33 42.3423 262.989 38.4643 262.989 34.7562C262.987 32.1455 261.401 30.2675 258.693 30.2675ZM234.373 35.2199C233.665 38.2678 232.153 40.0007 230.445 40.0007C229.298 40.0007 228.664 39.1227 228.664 37.8059C228.664 35.2199 230.542 32.4393 233.054 32.4393C233.81 32.4393 234.396 32.6588 234.907 32.9756L234.373 35.2199ZM247.96 33.9279C247.179 37.5138 245.398 40.0007 243.447 40.0007C242.374 40.0007 241.739 39.1705 241.739 37.8059C241.739 35.1969 243.545 32.4889 245.959 32.4889C246.887 32.4889 247.593 32.8057 248.106 33.2199L247.96 33.9279ZM256.717 40.0007C255.303 40.0007 254.717 38.9758 254.717 37.6838C254.717 35.3173 256.351 32.611 258.4 32.611C259.815 32.611 260.401 33.6358 260.401 34.9279C260.401 37.3174 258.767 40.0007 256.717 40.0007Z" fill="black"/>
<path d="M204.514 30.2637C200.611 30.2637 197.952 34.1417 197.952 37.825C197.952 40.4588 199.538 42.3367 202.245 42.3367C206.148 42.3367 208.807 38.4587 208.807 34.7506C208.807 32.1416 207.221 30.2637 204.514 30.2637ZM202.539 39.9968C201.124 39.9968 200.538 38.972 200.538 37.6799C200.538 35.3134 202.172 32.6071 204.222 32.6071C205.637 32.6071 206.222 33.6319 206.222 34.924C206.221 37.3135 204.587 39.9968 202.539 39.9968Z" fill="black"/>
<path d="M185.613 60.4121H189.307C189.798 60.4068 190.274 60.3302 190.733 60.1822C191.198 60.0343 191.608 59.8203 191.962 59.5402C192.316 59.2654 192.599 58.922 192.81 58.5098C193.021 58.0976 193.124 57.6221 193.119 57.0831C193.119 56.7396 193.066 56.4199 192.961 56.124C192.86 55.8281 192.718 55.5612 192.533 55.3234C192.358 55.1068 192.136 54.9086 191.867 54.729C191.597 54.5493 191.317 54.4251 191.027 54.3564V54.3327C191.307 54.2111 191.544 54.0817 191.74 53.9443C191.941 53.8069 192.123 53.6378 192.287 53.437C192.445 53.2415 192.57 53.0195 192.659 52.7712C192.755 52.5228 192.805 52.2481 192.81 51.9469C192.815 51.4079 192.712 50.9455 192.501 50.5598C192.29 50.174 192.007 49.857 191.653 49.6086C191.299 49.3603 190.895 49.178 190.44 49.0617C189.986 48.9402 189.521 48.8768 189.045 48.8715H185.613V60.4121ZM187.087 55.0143H189.425C189.737 55.0249 190.028 55.0777 190.297 55.1728C190.567 55.268 190.802 55.4027 191.003 55.5771C191.204 55.7568 191.36 55.9734 191.47 56.227C191.587 56.4807 191.642 56.7713 191.637 57.0989C191.637 57.4213 191.574 57.7093 191.447 57.9629C191.325 58.2165 191.159 58.4305 190.947 58.6049C190.736 58.7793 190.493 58.9167 190.218 59.0171C189.943 59.1122 189.653 59.1624 189.346 59.1677H187.087V55.0143ZM187.087 53.7937V50.1238H189.093C189.378 50.1291 189.655 50.1661 189.925 50.2348C190.2 50.3035 190.443 50.4092 190.654 50.5518C190.86 50.6998 191.024 50.8874 191.145 51.1146C191.272 51.3418 191.336 51.6166 191.336 51.9389C191.336 52.2401 191.272 52.5043 191.145 52.7316C191.019 52.9588 190.852 53.149 190.646 53.3023C190.44 53.4608 190.205 53.5823 189.941 53.6669C189.676 53.7461 189.407 53.7884 189.132 53.7937H187.087ZM201.014 60.4121H202.543V60.2853C202.448 60.0475 202.374 59.7701 202.322 59.453C202.269 59.1307 202.242 58.8269 202.242 58.5415V54.5546C202.242 54.0737 202.155 53.6536 201.981 53.2943C201.806 52.935 201.569 52.6338 201.267 52.3907C200.961 52.1529 200.599 51.9759 200.181 51.8597C199.764 51.7381 199.312 51.6774 198.826 51.6774C198.292 51.6774 197.814 51.7513 197.391 51.8993C196.974 52.0473 196.62 52.2401 196.329 52.4779C196.033 52.721 195.806 52.9931 195.648 53.2943C195.494 53.5955 195.415 53.902 195.41 54.2138H196.884C196.884 54.0341 196.926 53.8624 197.011 53.6986C197.101 53.5295 197.225 53.3842 197.383 53.2626C197.542 53.1411 197.735 53.0433 197.962 52.9693C198.195 52.8954 198.456 52.8584 198.747 52.8584C199.059 52.8584 199.339 52.898 199.587 52.9773C199.841 53.0565 200.055 53.1675 200.229 53.3102C200.403 53.4581 200.538 53.6352 200.633 53.8412C200.728 54.0473 200.776 54.2798 200.776 54.5387V55.2125H199.175C198.578 55.2125 198.036 55.2706 197.55 55.3869C197.069 55.5031 196.657 55.6775 196.313 55.91C195.97 56.1478 195.703 56.4437 195.513 56.7977C195.328 57.1518 195.235 57.5639 195.235 58.0342C195.235 58.3936 195.304 58.7291 195.442 59.0409C195.584 59.3473 195.785 59.6116 196.044 59.8335C196.298 60.0607 196.607 60.2404 196.971 60.3725C197.341 60.5046 197.753 60.5706 198.208 60.5706C198.488 60.5706 198.752 60.5416 199 60.4834C199.249 60.4253 199.484 60.3461 199.706 60.2457C199.923 60.1453 200.121 60.029 200.3 59.8969C200.485 59.7648 200.652 59.6248 200.8 59.4768C200.816 59.6565 200.839 59.8309 200.871 59.9999C200.908 60.1638 200.956 60.3011 201.014 60.4121ZM198.422 59.2945C198.136 59.2945 197.885 59.2575 197.669 59.1835C197.452 59.1096 197.273 59.0065 197.13 58.8744C196.987 58.7476 196.879 58.5944 196.805 58.4147C196.736 58.235 196.702 58.0395 196.702 57.8281C196.702 57.6062 196.741 57.4081 196.821 57.2337C196.905 57.0593 197.027 56.9087 197.185 56.7819C197.407 56.6022 197.706 56.4701 198.081 56.3856C198.461 56.2957 198.905 56.2508 199.413 56.2508H200.776V57.9867C200.691 58.1558 200.575 58.3196 200.427 58.4781C200.279 58.6313 200.105 58.7687 199.904 58.8903C199.698 59.0118 199.471 59.1096 199.222 59.1835C198.974 59.2575 198.707 59.2945 198.422 59.2945ZM210.826 58.1373C210.826 58.2747 210.8 58.4041 210.747 58.5257C210.694 58.6472 210.618 58.7582 210.517 58.8586C210.353 59.0224 210.126 59.1518 209.836 59.2469C209.545 59.3368 209.204 59.3817 208.813 59.3817C208.565 59.3817 208.314 59.3553 208.06 59.3024C207.807 59.2496 207.577 59.1598 207.371 59.0329C207.159 58.9061 206.982 58.7397 206.84 58.5336C206.702 58.3275 206.623 58.0739 206.602 57.7727H205.135C205.135 58.1373 205.217 58.4887 205.381 58.8269C205.55 59.165 205.793 59.461 206.11 59.7146C206.422 59.9735 206.805 60.1822 207.26 60.3408C207.714 60.494 208.232 60.5706 208.813 60.5706C209.32 60.5706 209.788 60.5099 210.216 60.3883C210.644 60.2668 211.011 60.0951 211.318 59.8731C211.624 59.6512 211.862 59.3843 212.031 59.0726C212.206 58.7608 212.293 58.4147 212.293 58.0342C212.293 57.6802 212.216 57.3684 212.063 57.0989C211.915 56.8294 211.698 56.5917 211.413 56.3856C211.128 56.1848 210.776 56.013 210.359 55.8704C209.941 55.7224 209.468 55.5929 208.94 55.482C208.538 55.4027 208.205 55.3208 207.941 55.2363C207.682 55.1517 207.476 55.0566 207.323 54.9509C207.164 54.8452 207.054 54.7263 206.99 54.5942C206.927 54.4621 206.895 54.3115 206.895 54.1424C206.895 53.9786 206.935 53.8201 207.014 53.6669C207.093 53.5136 207.212 53.3789 207.371 53.2626C207.524 53.1464 207.717 53.0539 207.949 52.9852C208.187 52.9165 208.462 52.8822 208.774 52.8822C209.075 52.8822 209.344 52.9244 209.582 53.009C209.825 53.0935 210.031 53.2045 210.2 53.3419C210.369 53.4793 210.501 53.6378 210.597 53.8175C210.692 53.9918 210.739 54.1715 210.739 54.3564H212.206C212.206 53.9813 212.124 53.6325 211.96 53.3102C211.801 52.9826 211.574 52.6972 211.278 52.4541C210.982 52.2111 210.623 52.0208 210.2 51.8834C209.778 51.7461 209.302 51.6774 208.774 51.6774C208.282 51.6774 207.83 51.7434 207.418 51.8755C207.011 52.0076 206.66 52.1873 206.364 52.4145C206.068 52.6417 205.838 52.9086 205.674 53.2151C205.511 53.5163 205.429 53.8412 205.429 54.19C205.429 54.544 205.508 54.8558 205.666 55.1253C205.825 55.3895 206.05 55.6194 206.34 55.8149C206.625 56.0157 206.969 56.1874 207.371 56.3301C207.777 56.4728 208.227 56.5943 208.718 56.6947C209.12 56.774 209.455 56.8638 209.725 56.9642C209.994 57.0593 210.211 57.165 210.375 57.2812C210.538 57.3975 210.655 57.5269 210.723 57.6696C210.792 57.807 210.826 57.9629 210.826 58.1373ZM218.665 60.5706C219.5 60.5706 220.201 60.4042 220.766 60.0713C221.337 59.7331 221.765 59.3473 222.05 58.914L221.154 58.2165C220.885 58.5653 220.547 58.8454 220.14 59.0567C219.733 59.2681 219.268 59.3738 218.745 59.3738C218.348 59.3738 217.986 59.2998 217.659 59.1518C217.331 59.0039 217.051 58.8004 216.819 58.5415C216.591 58.2984 216.412 58.0184 216.28 57.7013C216.153 57.3843 216.071 57.017 216.034 56.5996V56.5441H222.161V55.8862C222.161 55.2891 222.084 54.7343 221.931 54.2217C221.783 53.7091 221.556 53.2626 221.249 52.8822C220.943 52.507 220.557 52.2137 220.092 52.0023C219.632 51.7857 219.094 51.6774 218.475 51.6774C217.984 51.6774 217.503 51.7778 217.033 51.9786C216.568 52.1794 216.153 52.4674 215.788 52.8425C215.418 53.223 215.122 53.688 214.901 54.2375C214.679 54.7818 214.568 55.4001 214.568 56.0923V56.4252C214.568 57.0223 214.668 57.5745 214.869 58.0818C215.07 58.5891 215.35 59.0277 215.709 59.3975C216.068 59.7674 216.499 60.0554 217.001 60.2615C217.508 60.4676 218.063 60.5706 218.665 60.5706ZM218.475 52.8822C218.85 52.8822 219.173 52.9509 219.442 53.0882C219.717 53.2256 219.944 53.4053 220.124 53.6272C220.304 53.8492 220.444 54.1134 220.544 54.4199C220.644 54.7211 220.695 55.0038 220.695 55.268V55.3393H216.082C216.14 54.943 216.24 54.5942 216.383 54.293C216.531 53.9866 216.71 53.7276 216.922 53.5163C217.133 53.3102 217.371 53.1543 217.635 53.0486C217.899 52.9376 218.179 52.8822 218.475 52.8822ZM241.85 56.9404H240.383C240.336 57.2892 240.254 57.6141 240.138 57.9153C240.021 58.2113 239.866 58.4675 239.67 58.6842C239.475 58.9061 239.234 59.0779 238.949 59.1994C238.669 59.3209 238.336 59.3817 237.95 59.3817C237.596 59.3817 237.287 59.3262 237.023 59.2152C236.759 59.099 236.529 58.9405 236.333 58.7397C236.138 58.5442 235.976 58.3169 235.85 58.058C235.723 57.7991 235.62 57.5217 235.541 57.2258C235.461 56.9351 235.403 56.6392 235.366 56.338C235.334 56.0315 235.319 55.7356 235.319 55.4503V53.8254C235.319 53.54 235.334 53.2468 235.366 52.9456C235.403 52.6391 235.461 52.3405 235.541 52.0499C235.62 51.7593 235.723 51.4845 235.85 51.2256C235.982 50.9666 236.146 50.7394 236.341 50.5439C236.531 50.3484 236.759 50.1952 237.023 50.0842C237.292 49.9679 237.601 49.9098 237.95 49.9098C238.336 49.9098 238.669 49.9759 238.949 50.108C239.234 50.2348 239.475 50.4118 239.67 50.639C239.866 50.8662 240.021 51.1305 240.138 51.4317C240.254 51.7329 240.336 52.0578 240.383 52.4066H241.85C241.786 51.857 241.654 51.355 241.453 50.9006C241.258 50.4462 240.996 50.0551 240.669 49.7275C240.341 49.4052 239.95 49.1568 239.496 48.9824C239.041 48.8028 238.526 48.7129 237.95 48.7129C237.469 48.7129 237.036 48.7816 236.65 48.919C236.264 49.0511 235.921 49.2361 235.62 49.4739C235.313 49.7117 235.049 49.9944 234.827 50.322C234.61 50.6443 234.431 50.9957 234.288 51.3762C234.14 51.7566 234.029 52.1556 233.955 52.573C233.887 52.9905 233.85 53.4132 233.844 53.8412V55.4503C233.85 55.8783 233.887 56.301 233.955 56.7185C234.029 57.1359 234.14 57.5349 234.288 57.9153C234.431 58.2958 234.61 58.6472 234.827 58.9695C235.049 59.2919 235.313 59.5719 235.62 59.8097C235.921 60.0475 236.264 60.2351 236.65 60.3725C237.041 60.5046 237.475 60.5706 237.95 60.5706C238.505 60.5706 239.007 60.4834 239.456 60.3091C239.911 60.1294 240.304 59.8784 240.637 59.5561C240.965 59.239 241.232 58.8586 241.438 58.4147C241.644 57.9655 241.781 57.4741 241.85 56.9404ZM249.76 60.4121H251.29V60.2853C251.195 60.0475 251.121 59.7701 251.068 59.453C251.015 59.1307 250.989 58.8269 250.989 58.5415V54.5546C250.989 54.0737 250.902 53.6536 250.727 53.2943C250.553 52.935 250.315 52.6338 250.014 52.3907C249.707 52.1529 249.345 51.9759 248.928 51.8597C248.511 51.7381 248.059 51.6774 247.573 51.6774C247.039 51.6774 246.561 51.7513 246.138 51.8993C245.72 52.0473 245.366 52.2401 245.076 52.4779C244.78 52.721 244.553 52.9931 244.394 53.2943C244.241 53.5955 244.162 53.902 244.156 54.2138H245.631C245.631 54.0341 245.673 53.8624 245.757 53.6986C245.847 53.5295 245.971 53.3842 246.13 53.2626C246.289 53.1411 246.481 53.0433 246.709 52.9693C246.941 52.8954 247.203 52.8584 247.493 52.8584C247.805 52.8584 248.085 52.898 248.333 52.9773C248.587 53.0565 248.801 53.1675 248.976 53.3102C249.15 53.4581 249.285 53.6352 249.38 53.8412C249.475 54.0473 249.522 54.2798 249.522 54.5387V55.2125H247.921C247.324 55.2125 246.783 55.2706 246.296 55.3869C245.816 55.5031 245.403 55.6775 245.06 55.91C244.716 56.1478 244.45 56.4437 244.259 56.7977C244.074 57.1518 243.982 57.5639 243.982 58.0342C243.982 58.3936 244.051 58.7291 244.188 59.0409C244.331 59.3473 244.532 59.6116 244.79 59.8335C245.044 60.0607 245.353 60.2404 245.718 60.3725C246.088 60.5046 246.5 60.5706 246.954 60.5706C247.234 60.5706 247.499 60.5416 247.747 60.4834C247.995 60.4253 248.23 60.3461 248.452 60.2457C248.669 60.1453 248.867 60.029 249.047 59.8969C249.232 59.7648 249.398 59.6248 249.546 59.4768C249.562 59.6565 249.586 59.8309 249.618 59.9999C249.655 60.1638 249.702 60.3011 249.76 60.4121ZM247.168 59.2945C246.883 59.2945 246.632 59.2575 246.415 59.1835C246.199 59.1096 246.019 59.0065 245.876 58.8744C245.734 58.7476 245.625 58.5944 245.551 58.4147C245.483 58.235 245.448 58.0395 245.448 57.8281C245.448 57.6062 245.488 57.4081 245.567 57.2337C245.652 57.0593 245.773 56.9087 245.932 56.7819C246.154 56.6022 246.452 56.4701 246.828 56.3856C247.208 56.2957 247.652 56.2508 248.159 56.2508H249.522V57.9867C249.438 58.1558 249.322 58.3196 249.174 58.4781C249.026 58.6313 248.851 58.7687 248.651 58.8903C248.444 59.0118 248.217 59.1096 247.969 59.1835C247.721 59.2575 247.454 59.2945 247.168 59.2945ZM254.548 51.8359H253.232V60.4121H254.627V53.5876C254.659 53.503 254.698 53.4238 254.746 53.3498C254.799 53.2758 254.859 53.2098 254.928 53.1517C255.018 53.0777 255.126 53.0222 255.253 52.9852C255.385 52.9429 255.538 52.9218 255.713 52.9218C255.871 52.9218 256.009 52.9429 256.125 52.9852C256.247 53.0222 256.347 53.083 256.426 53.1675C256.511 53.2573 256.572 53.3709 256.609 53.5083C256.651 53.6457 256.672 53.8042 256.672 53.9839V60.4121H258.067V53.9918C258.067 53.9601 258.067 53.9337 258.067 53.9126C258.067 53.8862 258.067 53.8597 258.067 53.8333C258.083 53.7012 258.115 53.5823 258.162 53.4766C258.21 53.3657 258.276 53.2679 258.36 53.1834C258.445 53.1041 258.55 53.0407 258.677 52.9931C258.804 52.9456 258.955 52.9218 259.129 52.9218C259.293 52.9218 259.436 52.9429 259.557 52.9852C259.684 53.0275 259.79 53.0909 259.874 53.1754C259.953 53.2653 260.014 53.3789 260.056 53.5163C260.099 53.6536 260.12 53.8122 260.12 53.9918V60.4121H261.515V54.0077C261.515 53.5955 261.467 53.2388 261.372 52.9376C261.277 52.6312 261.14 52.3828 260.96 52.1926C260.796 52.0235 260.595 51.8967 260.358 51.8121C260.12 51.7223 259.853 51.6774 259.557 51.6774C259.34 51.6827 259.14 51.7117 258.955 51.7646C258.775 51.8174 258.611 51.8887 258.463 51.9786C258.347 52.0578 258.239 52.1503 258.138 52.256C258.038 52.3617 257.951 52.4753 257.877 52.5968C257.819 52.4647 257.747 52.3458 257.663 52.2401C257.583 52.1344 257.494 52.0446 257.393 51.9706C257.256 51.8755 257.095 51.8042 256.91 51.7566C256.73 51.7038 256.527 51.6774 256.299 51.6774C255.898 51.6827 255.554 51.7698 255.269 51.9389C254.989 52.108 254.762 52.3432 254.587 52.6444L254.548 51.8359ZM263.615 63.7094H265.082V59.5878C265.187 59.704 265.301 59.8124 265.423 59.9128C265.544 60.0079 265.674 60.0951 265.811 60.1743C266.038 60.3011 266.292 60.3989 266.572 60.4676C266.857 60.5363 267.164 60.5706 267.491 60.5706C268.03 60.5706 268.508 60.4597 268.926 60.2377C269.349 60.0158 269.703 59.7093 269.988 59.3183C270.273 58.9273 270.49 58.4675 270.638 57.9391C270.786 57.4054 270.86 56.8321 270.86 56.2191V56.0527C270.86 55.4133 270.786 54.8267 270.638 54.293C270.49 53.754 270.273 53.2917 269.988 52.9059C269.703 52.5202 269.349 52.219 268.926 52.0023C268.503 51.7857 268.017 51.6774 267.467 51.6774C267.156 51.6774 266.862 51.7117 266.588 51.7804C266.318 51.8438 266.072 51.9389 265.851 52.0658C265.692 52.1503 265.544 52.2533 265.407 52.3749C265.269 52.4911 265.142 52.6232 265.026 52.7712L264.955 51.8359H263.615V63.7094ZM269.394 56.0527V56.2191C269.394 56.6366 269.346 57.0355 269.251 57.416C269.161 57.7964 269.021 58.132 268.831 58.4226C268.641 58.7132 268.398 58.9458 268.102 59.1201C267.806 59.2892 267.454 59.3738 267.047 59.3738C266.794 59.3738 266.561 59.3421 266.35 59.2787C266.144 59.2152 265.956 59.1281 265.787 59.0171C265.639 58.922 265.507 58.8057 265.391 58.6683C265.275 58.5309 265.172 58.383 265.082 58.2245V54.0949C265.182 53.9152 265.298 53.7514 265.43 53.6034C265.563 53.4555 265.713 53.3313 265.882 53.2309C266.035 53.1305 266.207 53.0539 266.397 53.0011C266.593 52.9482 266.804 52.9218 267.032 52.9218C267.444 52.9218 267.798 53.0063 268.094 53.1754C268.39 53.3445 268.635 53.5717 268.831 53.8571C269.021 54.1477 269.161 54.4833 269.251 54.8637C269.346 55.2389 269.394 55.6352 269.394 56.0527Z" fill="black"/>
</svg>
