<svg width="123" height="90" viewBox="0 0 123 90" fill="none" xmlns="http://www.w3.org/2000/svg">
<g clip-path="url(#clip0_1922_19580)">
<path d="M25.9866 35.8506V32.0066C25.9866 30.6111 25.1433 29.3737 23.8518 28.8207L0 19V21.1327L21.269 29.9002C22.0069 30.1899 22.0069 31.243 21.269 31.5327L0 40.3002V48.8572L12.8088 43.5651L21.2426 47.0405C21.9806 47.3301 21.9806 48.3833 21.2426 48.6729L0 57.4405V71L23.8518 61.1791C25.1433 60.6528 25.9866 59.3889 25.9866 57.9934V49.1731C25.9866 47.7777 25.1433 46.5402 23.8518 45.9873L15.3917 42.5119L23.8518 39.0365C25.1433 38.5099 25.9866 37.2461 25.9866 35.8506Z" fill="black"/>
<path d="M44.9889 32.0117L46.8865 39.4102L49.0212 32.0117H51.0506L53.0538 39.4102L55.0304 32.0117H56.5328L53.9764 40.9373H52.0784L49.9704 33.2492L47.7825 40.9373H45.8587L43.3813 32.0117H44.9889Z" fill="black"/>
<path fill-rule="evenodd" clip-rule="evenodd" d="M59.1946 38.4853C58.9575 38.0114 58.8784 37.6428 58.8256 36.9056V36.8792H65.678C65.678 33.5618 64.2022 31.7188 61.4877 31.7188C58.9313 31.7188 57.218 33.6145 57.218 36.4317C57.218 39.3278 58.9313 41.1709 61.6196 41.1709C63.7804 41.1709 65.23 40.0914 65.6518 38.1694H63.9913C63.6486 39.3016 62.8583 39.8808 61.6458 39.8808C60.6442 39.8808 59.6425 39.3278 59.1946 38.4853ZM61.4877 33.0352C62.3575 33.0352 63.2006 33.4565 63.6224 34.1674C63.8595 34.536 63.9651 34.9046 64.0442 35.6945H58.8522C59.0365 33.9831 59.9853 33.0352 61.4877 33.0352Z" fill="black"/>
<path fill-rule="evenodd" clip-rule="evenodd" d="M67.1805 28.6094H68.7092V33.3486C69.3418 32.2954 70.2116 31.7952 71.4765 31.7952C73.6902 31.7952 75.2717 33.7172 75.2717 36.4818C75.2717 39.2463 73.7692 41.1157 71.5027 41.1157C70.264 41.1157 69.4471 40.6154 68.6563 39.457V40.9314H67.1805V28.6094ZM68.7354 36.4291C68.7354 38.3775 69.8422 39.8255 71.2918 39.8255C72.689 39.8255 73.6112 38.5091 73.6112 36.4818C73.6112 34.3491 72.689 33.0326 71.2394 33.0326C69.7898 33.0326 68.7354 34.4281 68.7354 36.4291Z" fill="black"/>
<path d="M80.5955 39.7744C79.014 39.7744 78.0128 38.7476 78.039 37.1678H76.3523C76.3261 39.5374 78.039 41.1698 80.5693 41.1698C82.9939 41.1698 84.7072 39.748 84.7072 37.747C84.7072 36.2726 83.9164 35.2721 82.4406 34.9035C83.6527 34.5876 84.5491 33.4291 84.5491 32.1653C84.5491 30.2696 82.941 28.9531 80.6483 28.9531C78.1709 28.9531 76.6685 30.3749 76.5632 32.8235H78.1971C78.2499 31.2437 79.1197 30.3485 80.6221 30.3485C82.0189 30.3485 82.941 31.1121 82.941 32.2969C82.941 33.5607 81.9922 34.2716 80.3584 34.2716H79.9628V35.6407C80.2003 35.6144 80.3322 35.6144 80.4902 35.6144C82.0713 35.6144 83.0467 36.3779 83.0467 37.6417C83.0467 38.8792 82.0189 39.7744 80.5955 39.7744Z" fill="black"/>
<path d="M45.068 50.4149H43.4604V49.1774H45.068C45.0942 47.703 45.1208 47.387 45.3317 46.8605C45.6479 46.0179 46.4648 45.5703 47.6773 45.5703C47.8337 45.5703 47.9789 45.5818 48.1731 45.5972C48.2733 45.6051 48.3861 45.614 48.5208 45.623V46.9921C48.4314 46.9667 48.3549 46.9474 48.2862 46.9327C48.1739 46.9087 48.0833 46.8973 47.9972 46.8918C47.9181 46.8868 47.8424 46.8868 47.7563 46.8868C47.2293 46.8868 46.8337 47.1501 46.7023 47.624C46.5966 47.94 46.5966 48.1769 46.5966 49.1511H48.5208V50.3886H46.5966V58.0767H45.068V50.4149Z" fill="black"/>
<path fill-rule="evenodd" clip-rule="evenodd" d="M53.1592 58.3623C55.7947 58.3623 57.508 56.493 57.508 53.6231C57.508 50.8322 55.7685 48.9365 53.212 48.9102C50.6028 48.9102 48.8633 50.7796 48.8633 53.5968C48.8633 56.4403 50.5766 58.3623 53.1592 58.3623ZM53.133 57.0722C51.4987 57.0722 50.5237 55.7294 50.5237 53.5441C50.5237 51.4904 51.5253 50.2003 53.1592 50.2003C54.7935 50.2003 55.8475 51.5431 55.8475 53.6494C55.8475 55.7294 54.7669 57.0722 53.133 57.0722Z" fill="black"/>
<path d="M62.2519 58.312C63.4191 58.312 64.4149 57.8729 64.8874 57.1355V58.1277H66.3636V49.2022H64.835V53.4674C64.835 55.0472 64.7822 55.5474 64.5185 55.9687C64.0971 56.6269 63.3588 57.0219 62.5157 57.0219C61.2241 57.0219 60.5915 56.232 60.5915 54.5469V49.1758H59.0628V54.2573C59.0628 55.7581 59.1685 56.3637 59.5112 56.9429C60.0382 57.8117 61.0132 58.312 62.2519 58.312Z" fill="black"/>
<path d="M72.4252 48.9883C71.2127 48.9883 70.3958 49.3569 69.7107 50.2521V49.1989H68.2611V58.1245H69.816V53.8592C69.816 52.253 69.8688 51.7792 70.1321 51.3579C70.5539 50.6734 71.2656 50.2784 72.1353 50.2784C73.4269 50.2784 74.0591 51.0419 74.0591 52.7534V58.1245H75.6143V53.043C75.6143 51.5422 75.5087 50.9366 75.1664 50.3574C74.6389 49.4885 73.6639 48.9883 72.4252 48.9883Z" fill="black"/>
<path fill-rule="evenodd" clip-rule="evenodd" d="M83.7583 58.0711V56.623C82.9675 57.8078 82.124 58.2817 80.9119 58.2817C78.6716 58.2817 77.1429 56.4124 77.1429 53.6741C77.1429 50.8832 78.6978 48.9612 80.9381 48.9612C82.203 48.9612 83.0728 49.4615 83.7054 50.5146V45.7754H85.2341V58.0711H83.7583ZM78.8034 53.6741C78.8034 55.7015 79.6994 57.018 81.1224 57.018C82.572 57.018 83.6792 55.5698 83.6792 53.6215C83.6792 51.6204 82.651 50.2251 81.2018 50.2251C79.7522 50.2251 78.8034 51.5415 78.8034 53.6741Z" fill="black"/>
<path fill-rule="evenodd" clip-rule="evenodd" d="M92.8245 56.9932C92.8773 57.4672 92.9035 57.6251 92.9825 58.099H94.5378C94.3003 57.1249 94.2212 56.177 94.2478 54.3867C94.274 51.5431 94.195 50.8849 93.7208 50.2267C93.141 49.3578 92.0866 48.9102 90.7426 48.9102C89.662 48.9102 88.6604 49.2525 88.0277 49.8317C87.4479 50.3319 87.237 50.8849 87.0789 51.9907H88.6866C88.7656 50.7796 89.4249 50.2003 90.7426 50.2003C91.4277 50.2003 91.9813 50.4109 92.2974 50.7532C92.6136 51.0955 92.6664 51.4378 92.6926 52.5962C91.6914 52.6752 91.1116 52.7542 90.6108 52.8332C89.82 52.9385 89.135 53.0702 88.7132 53.2018C87.3954 53.5968 86.7366 54.413 86.7366 55.5978C86.7366 57.2038 88.0277 58.3097 89.9519 58.3097C91.1906 58.3097 92.0604 57.9147 92.8245 56.9932ZM90.189 57.0722C89.0821 57.0722 88.3966 56.5456 88.3966 55.6504C88.3966 54.492 89.5039 54.018 92.6926 53.8074V54.1233C92.6926 55.1238 92.5874 55.6504 92.3237 56.0454C91.8757 56.7299 91.1378 57.0722 90.189 57.0722Z" fill="black"/>
<path d="M98.28 49.2029H100.283V50.4403H98.28V55.2059C98.28 56.2064 98.3062 56.3907 98.4647 56.6014C98.6228 56.812 98.9917 56.9436 99.4135 56.9436C99.7296 56.9436 100.02 56.891 100.283 56.812V58.1285C99.5715 58.2601 99.3078 58.2864 98.9389 58.2864C98.1219 58.2864 97.4103 57.9178 97.0413 57.3122C96.8304 56.9173 96.7514 56.5487 96.7514 55.6799V50.414H95.1175V49.1765H96.7514V47.0176H98.28V49.2029Z" fill="black"/>
<path d="M103.182 45.8008H101.653V47.5911H103.182V45.8008Z" fill="black"/>
<path d="M103.209 58.1306V49.2051H101.68V58.1306H103.209Z" fill="black"/>
<path fill-rule="evenodd" clip-rule="evenodd" d="M113.382 53.6231C113.382 56.493 111.669 58.3623 109.033 58.3623C106.45 58.3623 104.737 56.4403 104.737 53.5968C104.737 50.7796 106.477 48.9102 109.086 48.9102C111.643 48.9365 113.382 50.8322 113.382 53.6231ZM106.398 53.5441C106.398 55.7294 107.373 57.0722 109.007 57.0722C110.641 57.0722 111.722 55.7294 111.722 53.6494C111.722 51.5431 110.667 50.2003 109.033 50.2003C107.399 50.2003 106.398 51.4904 106.398 53.5441Z" fill="black"/>
<path d="M116.439 50.1846C117.113 49.3383 117.92 48.9883 119.101 48.9883C120.34 48.9883 121.315 49.4885 121.842 50.3574C122.185 50.9366 122.29 51.5422 122.29 53.043V58.1245H120.761V52.7534C120.761 51.0419 120.129 50.2784 118.838 50.2784C117.968 50.2784 117.256 50.6734 116.834 51.3579C116.571 51.7792 116.518 52.253 116.518 53.8592V58.1245H114.99V49.1989H116.439V50.1846Z" fill="black"/>
</g>
<defs>
<clipPath id="clip0_1922_19580">
<rect width="122.29" height="90" fill="white"/>
</clipPath>
</defs>
</svg>
