<svg
  width="35"
  height="36"
  viewBox="0 0 35 36"
  fill="none"
  xmlns="http://www.w3.org/2000/svg"
>
  <path
    fill-rule="evenodd"
    clip-rule="evenodd"
    d="M11.0625 11.5208C11.0625 10.8201 10.1449 10.5228 9.71249 11.0833L4.08752 18.375C3.88751 18.6343 3.88749 18.9907 4.08749 19.25L9.71249 26.5417C10.1449 27.1023 11.0625 26.8049 11.0625 26.1042V23.1875C11.0625 22.7848 11.3983 22.4583 11.8125 22.4583C12.2267 22.4583 12.5625 22.7848 12.5625 23.1875V26.1042C12.5625 28.2064 9.80986 29.0984 8.51249 27.4167L2.88749 20.125C2.28752 19.3472 2.2875 18.2779 2.88747 17.5L8.51249 10.2083C9.80986 8.52657 12.5625 9.41863 12.5625 11.5208V17.3542C12.5625 17.7569 12.8983 18.0833 13.3125 18.0833L29.8125 18.0833C30.2267 18.0833 30.5625 18.4098 30.5625 18.8125C30.5625 19.2152 30.2267 19.5417 29.8125 19.5417L13.3125 19.5417C12.0699 19.5417 11.0625 18.5623 11.0625 17.3542V11.5208Z"
    fill="url(#paint0_linear_594_19201)"
  />
  <path
    fill-rule="evenodd"
    clip-rule="evenodd"
    d="M12.0625 10.5208C12.0625 9.82011 11.1449 9.52275 10.7125 10.0833L5.08752 17.375C4.88751 17.6343 4.88749 17.9907 5.08749 18.25L10.7125 25.5417C11.1449 26.1023 12.0625 25.8049 12.0625 25.1042V22.1875C12.0625 21.7848 12.3983 21.4583 12.8125 21.4583C13.2267 21.4583 13.5625 21.7848 13.5625 22.1875V25.1042C13.5625 27.2064 10.8099 28.0984 9.51249 26.4167L3.88749 19.125C3.28752 18.3472 3.2875 17.2779 3.88747 16.5L9.51249 9.20834C10.8099 7.52657 13.5625 8.41863 13.5625 10.5208V16.3542C13.5625 16.7569 13.8983 17.0833 14.3125 17.0833L30.8125 17.0833C31.2267 17.0833 31.5625 17.4098 31.5625 17.8125C31.5625 18.2152 31.2267 18.5417 30.8125 18.5417L14.3125 18.5417C13.0699 18.5417 12.0625 17.5623 12.0625 16.3542V10.5208Z"
    fill="black"
  />
  <defs>
    <linearGradient
      id="paint0_linear_594_19201"
      x1="31.1226"
      y1="-23.8014"
      x2="1.4954"
      y2="-23.8034"
      gradientUnits="userSpaceOnUse"
    >
      <stop stop-color="#FF3F3F" />
      <stop offset="0.213542" stop-color="#FEEB3C" />
      <stop offset="0.416667" stop-color="#71FF3F" />
      <stop offset="0.619792" stop-color="#3E8BFF" />
      <stop offset="0.8125" stop-color="#E43EFF" />
      <stop offset="0.984375" stop-color="#FF3E3E" />
    </linearGradient>
  </defs>
</svg>
