<svg width="35" height="36" viewBox="0 0 35 36" fill="none" xmlns="http://www.w3.org/2000/svg">
<path fill-rule="evenodd" clip-rule="evenodd" d="M21.9375 11.5208C21.9375 10.8201 22.855 10.5228 23.2875 11.0833L28.9125 18.375C29.1125 18.6343 29.1125 18.9907 28.9125 19.25L23.2875 26.5417C22.855 27.1023 21.9375 26.8049 21.9375 26.1042V23.1875C21.9375 22.7848 21.6017 22.4583 21.1875 22.4583C20.7733 22.4583 20.4375 22.7848 20.4375 23.1875V26.1042C20.4375 28.2064 23.1901 29.0984 24.4875 27.4167L30.1125 20.125C30.7125 19.3472 30.7125 18.2779 30.1125 17.5L24.4875 10.2083C23.1901 8.52657 20.4375 9.41863 20.4375 11.5208V17.3542C20.4375 17.7569 20.1017 18.0833 19.6875 18.0833L3.1875 18.0833C2.77328 18.0833 2.4375 18.4098 2.4375 18.8125C2.4375 19.2152 2.77329 19.5417 3.1875 19.5417L19.6875 19.5417C20.9301 19.5417 21.9375 18.5623 21.9375 17.3542V11.5208Z" fill="url(#paint0_linear_594_19184)"/>
<path fill-rule="evenodd" clip-rule="evenodd" d="M22.9375 10.5208C22.9375 9.82011 23.855 9.52275 24.2875 10.0833L29.9125 17.375C30.1125 17.6343 30.1125 17.9907 29.9125 18.25L24.2875 25.5417C23.855 26.1023 22.9375 25.8049 22.9375 25.1042V22.1875C22.9375 21.7848 22.6017 21.4583 22.1875 21.4583C21.7733 21.4583 21.4375 21.7848 21.4375 22.1875V25.1042C21.4375 27.2064 24.1901 28.0984 25.4875 26.4167L31.1125 19.125C31.7125 18.3472 31.7125 17.2779 31.1125 16.5L25.4875 9.20834C24.1901 7.52657 21.4375 8.41863 21.4375 10.5208V16.3542C21.4375 16.7569 21.1017 17.0833 20.6875 17.0833L4.1875 17.0833C3.77328 17.0833 3.4375 17.4098 3.4375 17.8125C3.4375 18.2152 3.77329 18.5417 4.1875 18.5417L20.6875 18.5417C21.9301 18.5417 22.9375 17.5623 22.9375 16.3542V10.5208Z" fill="black"/>
<defs>
<linearGradient id="paint0_linear_594_19184" x1="31.1226" y1="-23.8014" x2="1.4954" y2="-23.8034" gradientUnits="userSpaceOnUse">
<stop stop-color="#FF3F3F"/>
<stop offset="0.213542" stop-color="#FEEB3C"/>
<stop offset="0.416667" stop-color="#71FF3F"/>
<stop offset="0.619792" stop-color="#3E8BFF"/>
<stop offset="0.8125" stop-color="#E43EFF"/>
<stop offset="0.984375" stop-color="#FF3E3E"/>
</linearGradient>
</defs>
</svg>
