<svg viewBox="0 0 80 80" fill="none" xmlns="http://www.w3.org/2000/svg">
  <path
    d="M43.3193 68.7293L35.6075 68.6883C35.0333 68.6883 34.582 68.2371 34.582 67.6628C34.582 67.0885 35.0333 66.6373 35.6075 66.6373L43.3193 66.6783C43.8935 66.6783 44.3448 67.1296 44.3448 67.7038C44.3448 68.2781 43.8935 68.7293 43.3193 68.7293Z"
    fill="url(#paint0_linear_1017_464)"
  />
  <path
    d="M41.3501 73.9798L37.5763 73.9388C37.002 73.9388 36.5508 73.4466 36.5508 72.9133C36.5508 72.339 37.002 71.8878 37.5763 71.8878L41.3501 71.9288C41.9244 71.9288 42.3756 72.4211 42.3756 72.9543C42.3756 73.5286 41.9244 73.9798 41.3501 73.9798Z"
    fill="url(#paint1_linear_1017_464)"
  />
  <path
    d="M43.3195 62.3712H34.8284L33.3517 57.4488C31.0136 49.7371 27.1167 42.7637 23.2198 36.4056C19.528 30.3347 19.569 22.8691 23.3839 16.8391C28.8395 8.307 40.2841 5.72275 48.8982 11.1784C53.1643 13.8857 56.1177 18.3979 57.0202 23.6074C57.9226 28.858 56.692 34.1085 53.5745 38.1285C53.2464 38.5797 52.59 38.6617 52.1388 38.2925C51.6876 37.9644 51.6056 37.3081 51.9747 36.8568C54.7231 33.3291 55.8306 28.6118 55.0102 23.9766C54.1898 19.3414 51.5645 15.3214 47.7907 12.9012C40.12 8.06088 29.9881 10.317 25.1067 17.9467C21.7431 23.2793 21.661 29.9245 24.9837 35.3391C28.9626 41.8203 32.9415 48.8757 35.3207 56.8335L36.3462 60.2792H43.3195C43.8938 60.2792 44.345 60.7304 44.345 61.3047C44.345 61.879 43.8938 62.3712 43.3195 62.3712Z"
    fill="url(#paint2_linear_1017_464)"
  />
  <path
    d="M44.3193 67.7293L36.6075 67.6883C36.0333 67.6883 35.582 67.2371 35.582 66.6628C35.582 66.0885 36.0333 65.6373 36.6075 65.6373L44.3193 65.6783C44.8935 65.6783 45.3448 66.1296 45.3448 66.7038C45.3448 67.2781 44.8935 67.7293 44.3193 67.7293Z"
    fill="black"
  />
  <path
    d="M42.3501 72.9798L38.5763 72.9388C38.002 72.9388 37.5508 72.4466 37.5508 71.9133C37.5508 71.339 38.002 70.8878 38.5763 70.8878L42.3501 70.9288C42.9244 70.9288 43.3756 71.4211 43.3756 71.9543C43.3756 72.5286 42.9244 72.9798 42.3501 72.9798Z"
    fill="black"
  />
  <path
    d="M44.3195 61.3712H35.8284L34.3517 56.4488C32.0136 48.7371 28.1167 41.7637 24.2198 35.4056C20.528 29.3347 20.569 21.8691 24.3839 15.8391C29.8395 7.307 41.2841 4.72275 49.8982 10.1784C54.1643 12.8857 57.1177 17.3979 58.0202 22.6074C58.9226 27.858 57.692 33.1085 54.5745 37.1285C54.2464 37.5797 53.59 37.6617 53.1388 37.2925C52.6876 36.9644 52.6056 36.3081 52.9747 35.8568C55.7231 32.3291 56.8306 27.6118 56.0102 22.9766C55.1898 18.3414 52.5645 14.3214 48.7907 11.9012C41.12 7.06088 30.9881 9.31698 26.1067 16.9467C22.7431 22.2793 22.661 28.9245 25.9837 34.3391C29.9626 40.8203 33.9415 47.8757 36.3207 55.8335L37.3462 59.2792H44.3195C44.8938 59.2792 45.345 59.7304 45.345 60.3047C45.345 60.879 44.8938 61.3712 44.3195 61.3712Z"
    fill="black"
  />
  <defs>
    <linearGradient
      id="paint0_linear_1017_464"
      x1="35.6202"
      y1="68.7951"
      x2="36.1273"
      y2="65.5766"
      gradientUnits="userSpaceOnUse"
    >
      <stop stop-color="#FF3F3F" />
      <stop offset="0.213542" stop-color="#FEEB3C" />
      <stop offset="0.416667" stop-color="#71FF3F" />
      <stop offset="0.619792" stop-color="#3E8BFF" />
      <stop offset="0.8125" stop-color="#E43EFF" />
      <stop offset="0.984375" stop-color="#FF3E3E" />
    </linearGradient>
    <linearGradient
      id="paint1_linear_1017_464"
      x1="37.1702"
      y1="74.0456"
      x2="37.9844"
      y2="70.9622"
      gradientUnits="userSpaceOnUse"
    >
      <stop stop-color="#FF3F3F" />
      <stop offset="0.213542" stop-color="#FEEB3C" />
      <stop offset="0.416667" stop-color="#71FF3F" />
      <stop offset="0.619792" stop-color="#3E8BFF" />
      <stop offset="0.8125" stop-color="#E43EFF" />
      <stop offset="0.984375" stop-color="#FF3E3E" />
    </linearGradient>
    <linearGradient
      id="paint2_linear_1017_464"
      x1="24.402"
      y1="64.0696"
      x2="66.892"
      y2="24.7028"
      gradientUnits="userSpaceOnUse"
    >
      <stop stop-color="#FF3F3F" />
      <stop offset="0.213542" stop-color="#FEEB3C" />
      <stop offset="0.416667" stop-color="#71FF3F" />
      <stop offset="0.619792" stop-color="#3E8BFF" />
      <stop offset="0.8125" stop-color="#E43EFF" />
      <stop offset="0.984375" stop-color="#FF3E3E" />
    </linearGradient>
  </defs>
</svg>
