<svg width="24" height="24" viewBox="0 0 24 24" fill="none" xmlns="http://www.w3.org/2000/svg">
<path d="M17.2378 7.39881C16.0905 6.87228 14.8602 6.48435 13.5739 6.26216C13.5505 6.25787 13.5271 6.26859 13.515 6.29002C13.3568 6.5715 13.1815 6.93871 13.0588 7.22734C11.6753 7.02017 10.2989 7.02017 8.94374 7.22734C8.82099 6.9323 8.63936 6.5715 8.48043 6.29002C8.46836 6.26931 8.44496 6.25859 8.42154 6.26216C7.13593 6.48364 5.90567 6.87157 4.7577 7.39881C4.74776 7.4031 4.73924 7.41025 4.73359 7.41953C2.40004 10.9066 1.76079 14.308 2.07439 17.6673C2.0758 17.6837 2.08503 17.6994 2.0978 17.7094C3.63741 18.8403 5.12878 19.5269 6.59246 19.982C6.61588 19.9891 6.6407 19.9806 6.65561 19.9613C7.00184 19.4883 7.31048 18.9897 7.57511 18.4653C7.59072 18.4346 7.57582 18.3981 7.5439 18.386C7.05435 18.2002 6.5882 17.9737 6.1398 17.7166C6.10433 17.6958 6.10149 17.6451 6.13412 17.6208C6.22848 17.5501 6.32286 17.4765 6.41297 17.4022C6.42927 17.3886 6.45198 17.3858 6.47115 17.3943C9.41696 18.7396 12.6062 18.7396 15.5172 17.3943C15.5364 17.3851 15.5591 17.3879 15.5761 17.4015C15.6662 17.4758 15.7606 17.5501 15.8557 17.6208C15.8883 17.6451 15.8862 17.6958 15.8507 17.7166C15.4023 17.9787 14.9361 18.2002 14.4459 18.3853C14.414 18.3974 14.3998 18.4346 14.4154 18.4653C14.6857 18.9889 14.9943 19.4876 15.3342 19.9606C15.3484 19.9806 15.3739 19.9891 15.3973 19.982C16.8681 19.5269 18.3595 18.8403 19.8991 17.7094C19.9126 17.6994 19.9211 17.6844 19.9225 17.668C20.2978 13.7843 19.2939 10.4108 17.2612 7.42024C17.2562 7.41025 17.2477 7.4031 17.2378 7.39881ZM8.01502 15.6219C7.12812 15.6219 6.39735 14.8074 6.39735 13.8072C6.39735 12.807 7.11395 11.9926 8.01502 11.9926C8.92315 11.9926 9.64686 12.8142 9.63266 13.8072C9.63266 14.8074 8.91606 15.6219 8.01502 15.6219ZM13.9961 15.6219C13.1092 15.6219 12.3784 14.8074 12.3784 13.8072C12.3784 12.807 13.095 11.9926 13.9961 11.9926C14.9042 11.9926 15.6279 12.8142 15.6137 13.8072C15.6137 14.8074 14.9042 15.6219 13.9961 15.6219Z" fill="url(#paint0_linear_592_9095)"/>
<path d="M18.2378 6.39881C17.0905 5.87228 15.8602 5.48435 14.5739 5.26216C14.5505 5.25787 14.5271 5.26859 14.515 5.29002C14.3568 5.5715 14.1815 5.93871 14.0588 6.22734C12.6753 6.02017 11.2989 6.02017 9.94374 6.22734C9.82099 5.9323 9.63936 5.5715 9.48043 5.29002C9.46836 5.26931 9.44496 5.25859 9.42154 5.26216C8.13593 5.48364 6.90567 5.87157 5.7577 6.39881C5.74776 6.4031 5.73924 6.41025 5.73359 6.41953C3.40004 9.90664 2.76079 13.308 3.07439 16.6673C3.0758 16.6837 3.08503 16.6994 3.0978 16.7094C4.63741 17.8403 6.12878 18.5269 7.59246 18.982C7.61588 18.9891 7.6407 18.9806 7.65561 18.9613C8.00184 18.4883 8.31048 17.9897 8.57511 17.4653C8.59072 17.4346 8.57582 17.3981 8.5439 17.386C8.05435 17.2002 7.5882 16.9737 7.1398 16.7166C7.10433 16.6958 7.10149 16.6451 7.13412 16.6208C7.22848 16.5501 7.32286 16.4765 7.41297 16.4022C7.42927 16.3886 7.45198 16.3858 7.47115 16.3943C10.417 17.7396 13.6062 17.7396 16.5172 16.3943C16.5364 16.3851 16.5591 16.3879 16.5761 16.4015C16.6662 16.4758 16.7606 16.5501 16.8557 16.6208C16.8883 16.6451 16.8862 16.6958 16.8507 16.7166C16.4023 16.9787 15.9361 17.2002 15.4459 17.3853C15.414 17.3974 15.3998 17.4346 15.4154 17.4653C15.6857 17.9889 15.9943 18.4876 16.3342 18.9606C16.3484 18.9806 16.3739 18.9891 16.3973 18.982C17.8681 18.5269 19.3595 17.8403 20.8991 16.7094C20.9126 16.6994 20.9211 16.6844 20.9225 16.668C21.2978 12.7843 20.2939 9.41084 18.2612 6.42024C18.2562 6.41025 18.2477 6.4031 18.2378 6.39881ZM9.01502 14.6219C8.12812 14.6219 7.39735 13.8074 7.39735 12.8072C7.39735 11.807 8.11395 10.9926 9.01502 10.9926C9.92315 10.9926 10.6469 11.8142 10.6327 12.8072C10.6327 13.8074 9.91606 14.6219 9.01502 14.6219ZM14.9961 14.6219C14.1092 14.6219 13.3784 13.8074 13.3784 12.8072C13.3784 11.807 14.095 10.9926 14.9961 10.9926C15.9042 10.9926 16.6279 11.8142 16.6137 12.8072C16.6137 13.8074 15.9042 14.6219 14.9961 14.6219Z" fill="white"/>
<defs>
<linearGradient id="paint0_linear_592_9095" x1="20.3584" y1="-17.7101" x2="1.39706" y2="-17.7112" gradientUnits="userSpaceOnUse">
<stop stop-color="#FF3F3F"/>
<stop offset="0.213542" stop-color="#FEEB3C"/>
<stop offset="0.416667" stop-color="#71FF3F"/>
<stop offset="0.619792" stop-color="#3E8BFF"/>
<stop offset="0.8125" stop-color="#E43EFF"/>
<stop offset="0.984375" stop-color="#FF3E3E"/>
</linearGradient>
</defs>
</svg>
