<svg
  width="71"
  height="69"
  viewBox="0 0 71 69"
  fill="none"
  xmlns="http://www.w3.org/2000/svg"
>
  <path
    d="M14.1445 58.3051L19.2333 62.2438C19.8945 62.9051 21.3608 63.2212 22.367 63.2212L28.6058 63.2212C30.5895 63.2212 32.717 61.7551 33.2058 59.7714L37.1445 47.7825C37.9783 45.4825 36.4833 43.4988 34.0108 43.4988L27.427 43.4988C26.4495 43.4988 25.6158 42.6648 25.7883 41.5148L26.622 36.2537C26.9383 34.7875 25.9608 33.1199 24.4945 32.6312C23.172 32.1424 21.5333 32.8038 20.872 33.7813L14.1445 43.815"
    stroke="url(#paint0_linear_1036_2515)"
    stroke-width="1.5"
    stroke-miterlimit="10"
  />
  <path
    d="M5.75 58.3052L5.75 42.2053C5.75 39.9053 6.7275 39.0713 9.0275 39.0713L10.6662 39.0713C12.9662 39.0713 13.9437 39.9053 13.9437 42.2053L13.9437 58.3052C13.9437 60.6052 12.9662 61.4389 10.6662 61.4389L9.0275 61.4389C6.7275 61.4389 5.75 60.634 5.75 58.3052Z"
    stroke="url(#paint1_linear_1036_2515)"
    stroke-width="1.5"
    stroke-linecap="round"
    stroke-linejoin="round"
  />
  <path
    d="M54.8554 10.6949L49.7666 6.75621C49.1053 6.09496 47.6391 5.77881 46.6329 5.77881L40.3941 5.77881C38.4104 5.77881 36.2828 7.24492 35.7941 9.22867L31.8554 21.2175C31.0216 23.5175 32.5166 25.5013 34.9891 25.5013L41.5728 25.5013C42.5503 25.5013 43.3841 26.3352 43.2116 27.4852L42.3778 32.7463C42.0616 34.2126 43.0391 35.8801 44.5054 36.3689C45.8279 36.8576 47.4666 36.1963 48.1278 35.2188L54.8554 25.1851"
    stroke="url(#paint2_linear_1036_2515)"
    stroke-width="1.5"
    stroke-miterlimit="10"
  />
  <path
    d="M63.2504 10.6952L63.2504 26.7951C63.2504 29.0951 62.2729 29.9291 59.9729 29.9291L58.3341 29.9291C56.0341 29.9291 55.0566 29.0951 55.0566 26.7951L55.0566 10.6952C55.0566 8.39518 56.0341 7.56152 58.3341 7.56152L59.9729 7.56152C62.2729 7.56152 63.2504 8.36643 63.2504 10.6952Z"
    stroke="url(#paint3_linear_1036_2515)"
    stroke-width="1.5"
    stroke-linecap="round"
    stroke-linejoin="round"
  />
  <path
    d="M16.1445 58.3051L21.2333 62.2438C21.8945 62.9051 23.3608 63.2212 24.367 63.2212L30.6058 63.2212C32.5895 63.2212 34.717 61.7551 35.2058 59.7714L39.1445 47.7825C39.9783 45.4825 38.4833 43.4988 36.0108 43.4988L29.427 43.4988C28.4495 43.4988 27.6158 42.6648 27.7883 41.5148L28.622 36.2537C28.9383 34.7875 27.9608 33.1199 26.4945 32.6312C25.172 32.1424 23.5333 32.8038 22.872 33.7813L16.1445 43.815"
    stroke="black"
    stroke-width="1.5"
    stroke-miterlimit="10"
  />
  <path
    d="M7.75 58.3052L7.75 42.2053C7.75 39.9053 8.7275 39.0713 11.0275 39.0713L12.6662 39.0713C14.9662 39.0713 15.9437 39.9053 15.9437 42.2053L15.9437 58.3052C15.9437 60.6052 14.9662 61.4389 12.6662 61.4389L11.0275 61.4389C8.7275 61.4389 7.75 60.634 7.75 58.3052Z"
    stroke="black"
    stroke-width="1.5"
    stroke-linecap="round"
    stroke-linejoin="round"
  />
  <path
    d="M56.8554 10.6949L51.7666 6.75621C51.1053 6.09496 49.6391 5.77881 48.6329 5.77881L42.3941 5.77881C40.4104 5.77881 38.2828 7.24492 37.7941 9.22867L33.8554 21.2175C33.0216 23.5175 34.5166 25.5013 36.9891 25.5013L43.5728 25.5013C44.5503 25.5013 45.3841 26.3352 45.2116 27.4852L44.3778 32.7463C44.0616 34.2126 45.0391 35.8801 46.5054 36.3689C47.8279 36.8576 49.4666 36.1963 50.1278 35.2188L56.8554 25.1851"
    stroke="black"
    stroke-width="1.5"
    stroke-miterlimit="10"
  />
  <path
    d="M65.2504 10.6952L65.2504 26.7951C65.2504 29.0951 64.2729 29.9291 61.9729 29.9291L60.3341 29.9291C58.0341 29.9291 57.0566 29.0951 57.0566 26.7951L57.0566 10.6952C57.0566 8.39518 58.0341 7.56152 60.3341 7.56152L61.9729 7.56152C64.2729 7.56152 65.2504 8.36643 65.2504 10.6952Z"
    stroke="black"
    stroke-width="1.5"
    stroke-linecap="round"
    stroke-linejoin="round"
  />
  <defs>
    <linearGradient
      id="paint0_linear_1036_2515"
      x1="16.615"
      y1="64.1875"
      x2="40.8507"
      y2="39.2867"
      gradientUnits="userSpaceOnUse"
    >
      <stop stop-color="#FF3F3F" />
      <stop offset="0.213542" stop-color="#FEEB3C" />
      <stop offset="0.416667" stop-color="#71FF3F" />
      <stop offset="0.619792" stop-color="#3E8BFF" />
      <stop offset="0.8125" stop-color="#E43EFF" />
      <stop offset="0.984375" stop-color="#FF3E3E" />
    </linearGradient>
    <linearGradient
      id="paint1_linear_1036_2515"
      x1="6.62132"
      y1="62.1416"
      x2="20.6977"
      y2="55.1281"
      gradientUnits="userSpaceOnUse"
    >
      <stop stop-color="#FF3F3F" />
      <stop offset="0.213542" stop-color="#FEEB3C" />
      <stop offset="0.416667" stop-color="#71FF3F" />
      <stop offset="0.619792" stop-color="#3E8BFF" />
      <stop offset="0.8125" stop-color="#E43EFF" />
      <stop offset="0.984375" stop-color="#FF3E3E" />
    </linearGradient>
    <linearGradient
      id="paint2_linear_1036_2515"
      x1="34.0936"
      y1="37.5"
      x2="58.3292"
      y2="12.5992"
      gradientUnits="userSpaceOnUse"
    >
      <stop stop-color="#FF3F3F" />
      <stop offset="0.213542" stop-color="#FEEB3C" />
      <stop offset="0.416667" stop-color="#71FF3F" />
      <stop offset="0.619792" stop-color="#3E8BFF" />
      <stop offset="0.8125" stop-color="#E43EFF" />
      <stop offset="0.984375" stop-color="#FF3E3E" />
    </linearGradient>
    <linearGradient
      id="paint3_linear_1036_2515"
      x1="55.928"
      y1="30.6319"
      x2="70.0043"
      y2="23.6183"
      gradientUnits="userSpaceOnUse"
    >
      <stop stop-color="#FF3F3F" />
      <stop offset="0.213542" stop-color="#FEEB3C" />
      <stop offset="0.416667" stop-color="#71FF3F" />
      <stop offset="0.619792" stop-color="#3E8BFF" />
      <stop offset="0.8125" stop-color="#E43EFF" />
      <stop offset="0.984375" stop-color="#FF3E3E" />
    </linearGradient>
  </defs>
</svg>
