<svg width="24" height="24" viewBox="0 0 24 24" fill="none" xmlns="http://www.w3.org/2000/svg">
<path d="M11 2C5.47833 2 1 6.4775 1 12C1 16.4183 3.865 20.1667 7.83917 21.4892C8.33833 21.5817 8.5 21.2717 8.5 21.0083V19.1467C5.71833 19.7517 5.13917 17.9667 5.13917 17.9667C4.68417 16.8108 4.02833 16.5033 4.02833 16.5033C3.12083 15.8825 4.0975 15.8958 4.0975 15.8958C5.10167 15.9658 5.63 16.9267 5.63 16.9267C6.52167 18.455 7.96917 18.0133 8.54 17.7575C8.62917 17.1117 8.88833 16.67 9.175 16.4208C6.95417 16.1667 4.61917 15.3092 4.61917 11.4783C4.61917 10.3858 5.01 9.49417 5.64917 8.79417C5.54583 8.54167 5.20333 7.52417 5.74667 6.1475C5.74667 6.1475 6.58667 5.87917 8.4975 7.1725C9.295 6.95083 10.15 6.84 11 6.83583C11.85 6.84 12.7058 6.95083 13.505 7.1725C15.4142 5.87917 16.2525 6.1475 16.2525 6.1475C16.7967 7.525 16.4542 8.5425 16.3508 8.79417C16.9925 9.49417 17.38 10.3867 17.38 11.4783C17.38 15.3192 15.0408 16.165 12.8142 16.4125C13.1725 16.7225 13.5 17.3308 13.5 18.2642V21.0083C13.5 21.2742 13.66 21.5867 14.1675 21.4883C18.1383 20.1642 21 16.4167 21 12C21 6.4775 16.5225 2 11 2Z" fill="url(#paint0_linear_592_9106)"/>
<path d="M12 2C6.47833 2 2 6.4775 2 12C2 16.4183 4.865 20.1667 8.83917 21.4892C9.33833 21.5817 9.5 21.2717 9.5 21.0083V19.1467C6.71833 19.7517 6.13917 17.9667 6.13917 17.9667C5.68417 16.8108 5.02833 16.5033 5.02833 16.5033C4.12083 15.8825 5.0975 15.8958 5.0975 15.8958C6.10167 15.9658 6.63 16.9267 6.63 16.9267C7.52167 18.455 8.96917 18.0133 9.54 17.7575C9.62917 17.1117 9.88833 16.67 10.175 16.4208C7.95417 16.1667 5.61917 15.3092 5.61917 11.4783C5.61917 10.3858 6.01 9.49417 6.64917 8.79417C6.54583 8.54167 6.20333 7.52417 6.74667 6.1475C6.74667 6.1475 7.58667 5.87917 9.4975 7.1725C10.295 6.95083 11.15 6.84 12 6.83583C12.85 6.84 13.7058 6.95083 14.505 7.1725C16.4142 5.87917 17.2525 6.1475 17.2525 6.1475C17.7967 7.525 17.4542 8.5425 17.3508 8.79417C17.9925 9.49417 18.38 10.3867 18.38 11.4783C18.38 15.3192 16.0408 16.165 13.8142 16.4125C14.1725 16.7225 14.5 17.3308 14.5 18.2642V21.0083C14.5 21.2742 14.66 21.5867 15.1675 21.4883C19.1383 20.1642 22 16.4167 22 12C22 6.4775 17.5225 2 12 2Z" fill="white"/>
<defs>
<linearGradient id="paint0_linear_592_9106" x1="21.3983" y1="-32.0739" x2="0.330062" y2="-32.0748" gradientUnits="userSpaceOnUse">
<stop stop-color="#FF3F3F"/>
<stop offset="0.213542" stop-color="#FEEB3C"/>
<stop offset="0.416667" stop-color="#71FF3F"/>
<stop offset="0.619792" stop-color="#3E8BFF"/>
<stop offset="0.8125" stop-color="#E43EFF"/>
<stop offset="0.984375" stop-color="#FF3E3E"/>
</linearGradient>
</defs>
</svg>
