<svg width="80" height="80" viewBox="0 0 80 80" fill="none" xmlns="http://www.w3.org/2000/svg">
<path fill-rule="evenodd" clip-rule="evenodd" d="M19.3667 11.9768C14.1808 11.9768 9.97681 16.1808 9.97681 21.3667C9.97681 26.5525 14.1808 30.7565 19.3667 30.7565C24.5525 30.7565 28.7565 26.5525 28.7565 21.3667C28.7565 16.1808 24.5525 11.9768 19.3667 11.9768ZM8 21.3667C8 15.089 13.089 10 19.3667 10C25.6443 10 30.7333 15.089 30.7333 21.3667C30.7333 27.6443 25.6443 32.7333 19.3667 32.7333C13.089 32.7333 8 27.6443 8 21.3667Z" fill="url(#paint0_linear_1017_2075)"/>
<path fill-rule="evenodd" clip-rule="evenodd" d="M54.1864 51.2435C51.4706 51.2435 49.2444 53.4697 49.2444 56.1856V65.0812C49.2444 67.7971 51.4706 70.0232 54.1864 70.0232H63.0821C65.7979 70.0232 68.0241 67.7971 68.0241 65.0812V56.1856C68.0241 53.4697 65.7979 51.2435 63.0821 51.2435H54.1864ZM47.2676 56.1856C47.2676 52.3779 50.3788 49.2667 54.1864 49.2667H63.0821C66.8897 49.2667 70.0009 52.3779 70.0009 56.1856V65.0812C70.0009 68.8888 66.8897 72.0001 63.0821 72.0001H54.1864C50.3788 72.0001 47.2676 68.8888 47.2676 65.0812V56.1856Z" fill="url(#paint1_linear_1017_2075)"/>
<path fill-rule="evenodd" clip-rule="evenodd" d="M37.9554 20.2864C37.9554 19.7417 38.4165 19.3 38.9854 19.3H47.2665C53.9358 19.3 57.0321 27.2054 52.0247 31.4141L27.3346 52.0992L27.3327 52.1008C23.7572 55.0814 25.9693 60.7273 30.7043 60.7273H38.9854C39.5542 60.7273 40.0154 61.1689 40.0154 61.7137C40.0154 62.2584 39.5542 62.7001 38.9854 62.7001H30.7043C24.0685 62.7001 20.9658 54.7943 25.9791 50.6137C25.9795 50.6134 25.9788 50.614 25.9791 50.6137L50.6658 29.9315C50.6662 29.9312 50.6655 29.9318 50.6658 29.9315C54.2472 26.9199 52.0297 21.2728 47.2665 21.2728H38.9854C38.4165 21.2728 37.9554 20.8312 37.9554 20.2864Z" fill="url(#paint2_linear_1017_2075)"/>
<path fill-rule="evenodd" clip-rule="evenodd" d="M18.334 21.3667C18.334 20.796 18.7907 20.3334 19.3541 20.3334H19.3806C19.9439 20.3334 20.4007 20.796 20.4007 21.3667C20.4007 21.9374 19.9439 22.4 19.3806 22.4H19.3541C18.7907 22.4 18.334 21.9374 18.334 21.3667Z" fill="url(#paint3_linear_1017_2075)"/>
<path fill-rule="evenodd" clip-rule="evenodd" d="M57.5996 60.6333C57.5996 60.0626 58.0563 59.6 58.6197 59.6H58.6462C59.2096 59.6 59.6663 60.0626 59.6663 60.6333C59.6663 61.204 59.2096 61.6666 58.6462 61.6666H58.6197C58.0563 61.6666 57.5996 61.204 57.5996 60.6333Z" fill="url(#paint4_linear_1017_2075)"/>
<path fill-rule="evenodd" clip-rule="evenodd" d="M20.3667 10.9768C15.1808 10.9768 10.9768 15.1808 10.9768 20.3667C10.9768 25.5525 15.1808 29.7565 20.3667 29.7565C25.5525 29.7565 29.7565 25.5525 29.7565 20.3667C29.7565 15.1808 25.5525 10.9768 20.3667 10.9768ZM9 20.3667C9 14.089 14.089 9 20.3667 9C26.6443 9 31.7333 14.089 31.7333 20.3667C31.7333 26.6443 26.6443 31.7333 20.3667 31.7333C14.089 31.7333 9 26.6443 9 20.3667Z" fill="black"/>
<path fill-rule="evenodd" clip-rule="evenodd" d="M55.1864 50.2435C52.4706 50.2435 50.2444 52.4697 50.2444 55.1856V64.0812C50.2444 66.7971 52.4706 69.0232 55.1864 69.0232H64.0821C66.7979 69.0232 69.0241 66.7971 69.0241 64.0812V55.1856C69.0241 52.4697 66.7979 50.2435 64.0821 50.2435H55.1864ZM48.2676 55.1856C48.2676 51.3779 51.3788 48.2667 55.1864 48.2667H64.0821C67.8897 48.2667 71.0009 51.3779 71.0009 55.1856V64.0812C71.0009 67.8888 67.8897 71.0001 64.0821 71.0001H55.1864C51.3788 71.0001 48.2676 67.8888 48.2676 64.0812V55.1856Z" fill="black"/>
<path fill-rule="evenodd" clip-rule="evenodd" d="M38.9554 19.2864C38.9554 18.7417 39.4165 18.3 39.9854 18.3H48.2665C54.9358 18.3 58.0321 26.2054 53.0247 30.4141L28.3346 51.0992L28.3327 51.1008C24.7572 54.0814 26.9693 59.7273 31.7043 59.7273H39.9854C40.5542 59.7273 41.0154 60.1689 41.0154 60.7137C41.0154 61.2584 40.5542 61.7001 39.9854 61.7001H31.7043C25.0685 61.7001 21.9658 53.7943 26.9791 49.6137C26.9795 49.6134 26.9788 49.614 26.9791 49.6137L51.6658 28.9315C51.6662 28.9312 51.6655 28.9318 51.6658 28.9315C55.2472 25.9199 53.0297 20.2728 48.2665 20.2728H39.9854C39.4165 20.2728 38.9554 19.8312 38.9554 19.2864Z" fill="black"/>
<path fill-rule="evenodd" clip-rule="evenodd" d="M19.334 20.3667C19.334 19.796 19.7907 19.3334 20.3541 19.3334H20.3806C20.9439 19.3334 21.4007 19.796 21.4007 20.3667C21.4007 20.9374 20.9439 21.4 20.3806 21.4H20.3541C19.7907 21.4 19.334 20.9374 19.334 20.3667Z" fill="black"/>
<path fill-rule="evenodd" clip-rule="evenodd" d="M58.5996 59.6333C58.5996 59.0626 59.0563 58.6 59.6197 58.6H59.6462C60.2096 58.6 60.6663 59.0626 60.6663 59.6333C60.6663 60.204 60.2096 60.6666 59.6462 60.6666H59.6197C59.0563 60.6666 58.5996 60.204 58.5996 59.6333Z" fill="black"/>
<defs>
<linearGradient id="paint0_linear_1017_2075" x1="10.4175" y1="33.4476" x2="27.5229" y2="10.1819" gradientUnits="userSpaceOnUse">
<stop stop-color="#FF3F3F"/>
<stop offset="0.213542" stop-color="#FEEB3C"/>
<stop offset="0.416667" stop-color="#71FF3F"/>
<stop offset="0.619792" stop-color="#3E8BFF"/>
<stop offset="0.8125" stop-color="#E43EFF"/>
<stop offset="0.984375" stop-color="#FF3E3E"/>
</linearGradient>
<linearGradient id="paint1_linear_1017_2075" x1="49.685" y1="72.7143" x2="66.7905" y2="49.4486" gradientUnits="userSpaceOnUse">
<stop stop-color="#FF3F3F"/>
<stop offset="0.213542" stop-color="#FEEB3C"/>
<stop offset="0.416667" stop-color="#71FF3F"/>
<stop offset="0.619792" stop-color="#3E8BFF"/>
<stop offset="0.8125" stop-color="#E43EFF"/>
<stop offset="0.984375" stop-color="#FF3E3E"/>
</linearGradient>
<linearGradient id="paint2_linear_1017_2075" x1="26.7965" y1="64.0636" x2="60.995" y2="30.8389" gradientUnits="userSpaceOnUse">
<stop stop-color="#FF3F3F"/>
<stop offset="0.213542" stop-color="#FEEB3C"/>
<stop offset="0.416667" stop-color="#71FF3F"/>
<stop offset="0.619792" stop-color="#3E8BFF"/>
<stop offset="0.8125" stop-color="#E43EFF"/>
<stop offset="0.984375" stop-color="#FF3E3E"/>
</linearGradient>
<linearGradient id="paint3_linear_1017_2075" x1="18.5538" y1="22.465" x2="20.1088" y2="20.3499" gradientUnits="userSpaceOnUse">
<stop stop-color="#FF3F3F"/>
<stop offset="0.213542" stop-color="#FEEB3C"/>
<stop offset="0.416667" stop-color="#71FF3F"/>
<stop offset="0.619792" stop-color="#3E8BFF"/>
<stop offset="0.8125" stop-color="#E43EFF"/>
<stop offset="0.984375" stop-color="#FF3E3E"/>
</linearGradient>
<linearGradient id="paint4_linear_1017_2075" x1="57.8194" y1="61.7316" x2="59.3744" y2="59.6165" gradientUnits="userSpaceOnUse">
<stop stop-color="#FF3F3F"/>
<stop offset="0.213542" stop-color="#FEEB3C"/>
<stop offset="0.416667" stop-color="#71FF3F"/>
<stop offset="0.619792" stop-color="#3E8BFF"/>
<stop offset="0.8125" stop-color="#E43EFF"/>
<stop offset="0.984375" stop-color="#FF3E3E"/>
</linearGradient>
</defs>
</svg>
