<svg width="80" height="80" viewBox="0 0 80 80" fill="none" xmlns="http://www.w3.org/2000/svg">
<path d="M29.0979 33.7797C25.3873 33.7797 21.9062 32.02 19.7257 28.8832C17.0096 25.0195 16.9331 19.9317 19.5344 15.9533L19.7257 15.6472L20.1082 15.5707C24.737 14.4614 29.4805 16.2593 32.1965 20.1612C34.9126 24.0249 34.9891 29.1127 32.3878 33.0911L32.1965 33.3972L31.814 33.4737C30.8959 33.665 29.9778 33.7797 29.0979 33.7797ZM20.9115 17.3304C18.9606 20.582 19.0753 24.637 21.2941 27.7738C23.4746 30.9106 27.2617 32.4026 30.9724 31.6757C32.9234 28.4241 32.8086 24.3692 30.5898 21.2323C28.3711 18.0955 24.6604 16.6418 20.9115 17.3304Z" fill="url(#paint0_linear_1017_2036)"/>
<path d="M48.5311 35.8455C47.2304 35.8455 45.8915 35.6925 44.5909 35.3865L44.2084 35.31L44.0171 35.0039C40.2299 29.1893 40.3447 21.8062 44.3231 16.1446C48.3015 10.483 55.2256 7.88172 61.9583 9.45014L62.3408 9.52663L62.5321 9.83267C66.3193 15.6473 66.2045 23.0304 62.2261 28.692C59.051 33.2442 53.9249 35.8455 48.5311 35.8455ZM45.4325 33.5885C51.2854 34.8509 57.253 32.4791 60.6959 27.5826C64.1388 22.6861 64.33 16.2594 61.155 11.1716C55.3021 9.90918 49.3344 12.2809 45.8915 17.1775C42.4486 22.1123 42.2574 28.5007 45.4325 33.5885Z" fill="url(#paint1_linear_1017_2036)"/>
<path d="M37.8216 73.6406C23.591 73.6406 12 62.0496 12 47.819V46.8627H63.6431V47.819C63.6431 62.0496 52.0521 73.6406 37.8216 73.6406ZM13.9127 48.7754C14.41 61.514 24.9299 71.7279 37.8216 71.7279C50.7132 71.7279 61.1949 61.514 61.7304 48.7754H13.9127Z" fill="url(#paint2_linear_1017_2036)"/>
<path d="M37.9753 47.819C37.9371 47.819 37.8988 47.819 37.8606 47.819C36.9042 47.7807 36.0626 47.2069 35.7183 46.2888L30.707 32.9764L25.1602 25.2873C24.8541 24.8665 24.9307 24.2544 25.3897 23.9484C25.8105 23.6424 26.4226 23.7189 26.7286 24.1779L32.4667 32.2113L37.5163 45.6385C37.631 45.9063 37.8605 45.9445 37.9753 45.9445C38.0901 45.9445 38.3196 45.9445 38.4726 45.6768L43.9812 34.0857C44.2107 33.6267 44.7846 33.3972 45.2436 33.6267C45.7027 33.8562 45.9322 34.43 45.7027 34.8891L40.1941 46.5183C39.735 47.3217 38.8934 47.819 37.9753 47.819Z" fill="url(#paint3_linear_1017_2036)"/>
<path d="M44.7458 35.0038C44.5545 35.0038 44.4015 34.9273 44.2485 34.8126C43.8277 34.5065 43.7512 33.8945 44.0572 33.4737L52.1289 22.8008C52.4349 22.38 53.047 22.3035 53.4678 22.6095C53.8886 22.9155 53.9651 23.5276 53.659 23.9484L45.5874 34.6213C45.3961 34.8891 45.0519 35.0038 44.7458 35.0038Z" fill="url(#paint4_linear_1017_2036)"/>
<path d="M30.0979 32.7797C26.3873 32.7797 22.9062 31.02 20.7257 27.8832C18.0096 24.0195 17.9331 18.9317 20.5344 14.9533L20.7257 14.6472L21.1082 14.5707C25.737 13.4614 30.4805 15.2593 33.1965 19.1612C35.9126 23.0249 35.9891 28.1127 33.3878 32.0911L33.1965 32.3972L32.814 32.4737C31.8959 32.665 30.9778 32.7797 30.0979 32.7797ZM21.9115 16.3304C19.9606 19.582 20.0753 23.637 22.2941 26.7738C24.4746 29.9106 28.2617 31.4026 31.9724 30.6757C33.9234 27.4241 33.8086 23.3692 31.5898 20.2323C29.3711 17.0955 25.6604 15.6418 21.9115 16.3304Z" fill="black"/>
<path d="M49.5311 34.8455C48.2304 34.8455 46.8915 34.6925 45.5909 34.3865L45.2084 34.31L45.0171 34.0039C41.2299 28.1893 41.3447 20.8062 45.3231 15.1446C49.3015 9.483 56.2256 6.88172 62.9583 8.45014L63.3408 8.52663L63.5321 8.83267C67.3193 14.6473 67.2045 22.0304 63.2261 27.692C60.051 32.2442 54.9249 34.8455 49.5311 34.8455ZM46.4325 32.5885C52.2854 33.8509 58.253 31.4791 61.6959 26.5826C65.1388 21.6861 65.33 15.2594 62.155 10.1716C56.3021 8.90918 50.3344 11.2809 46.8915 16.1775C43.4486 21.1123 43.2574 27.5007 46.4325 32.5885Z" fill="black"/>
<path d="M38.8216 72.6406C24.591 72.6406 13 61.0496 13 46.819V45.8627H64.6431V46.819C64.6431 61.0496 53.0521 72.6406 38.8216 72.6406ZM14.9127 47.7754C15.41 60.514 25.9299 70.7279 38.8216 70.7279C51.7132 70.7279 62.1949 60.514 62.7304 47.7754H14.9127Z" fill="black"/>
<path d="M38.9753 46.819C38.9371 46.819 38.8988 46.819 38.8606 46.819C37.9042 46.7807 37.0626 46.2069 36.7183 45.2888L31.707 31.9764L26.1602 24.2873C25.8541 23.8665 25.9307 23.2544 26.3897 22.9484C26.8105 22.6424 27.4226 22.7189 27.7286 23.1779L33.4667 31.2113L38.5163 44.6385C38.631 44.9063 38.8605 44.9445 38.9753 44.9445C39.0901 44.9445 39.3196 44.9445 39.4726 44.6768L44.9812 33.0857C45.2107 32.6267 45.7846 32.3972 46.2436 32.6267C46.7027 32.8562 46.9322 33.43 46.7027 33.8891L41.1941 45.5183C40.735 46.3217 39.8934 46.819 38.9753 46.819Z" fill="black"/>
<path d="M45.7458 34.0038C45.5545 34.0038 45.4015 33.9273 45.2485 33.8126C44.8277 33.5065 44.7512 32.8945 45.0572 32.4737L53.1289 21.8008C53.4349 21.38 54.047 21.3035 54.4678 21.6095C54.8886 21.9155 54.9651 22.5276 54.659 22.9484L46.5874 33.6213C46.3961 33.8891 46.0519 34.0038 45.7458 34.0038Z" fill="black"/>
<defs>
<linearGradient id="paint0_linear_1017_2036" x1="19.4056" y1="34.362" x2="33.7256" y2="16.8603" gradientUnits="userSpaceOnUse">
<stop stop-color="#FF3F3F"/>
<stop offset="0.213542" stop-color="#FEEB3C"/>
<stop offset="0.416667" stop-color="#71FF3F"/>
<stop offset="0.619792" stop-color="#3E8BFF"/>
<stop offset="0.8125" stop-color="#E43EFF"/>
<stop offset="0.984375" stop-color="#FF3E3E"/>
</linearGradient>
<linearGradient id="paint1_linear_1017_2036" x1="43.812" y1="36.6889" x2="64.5701" y2="11.4083" gradientUnits="userSpaceOnUse">
<stop stop-color="#FF3F3F"/>
<stop offset="0.213542" stop-color="#FEEB3C"/>
<stop offset="0.416667" stop-color="#71FF3F"/>
<stop offset="0.619792" stop-color="#3E8BFF"/>
<stop offset="0.8125" stop-color="#E43EFF"/>
<stop offset="0.984375" stop-color="#FF3E3E"/>
</linearGradient>
<linearGradient id="paint2_linear_1017_2036" x1="17.4917" y1="74.4819" x2="31.5443" y2="37.6204" gradientUnits="userSpaceOnUse">
<stop stop-color="#FF3F3F"/>
<stop offset="0.213542" stop-color="#FEEB3C"/>
<stop offset="0.416667" stop-color="#71FF3F"/>
<stop offset="0.619792" stop-color="#3E8BFF"/>
<stop offset="0.8125" stop-color="#E43EFF"/>
<stop offset="0.984375" stop-color="#FF3E3E"/>
</linearGradient>
<linearGradient id="paint3_linear_1017_2036" x1="27.1901" y1="48.5747" x2="45.9032" y2="26.5487" gradientUnits="userSpaceOnUse">
<stop stop-color="#FF3F3F"/>
<stop offset="0.213542" stop-color="#FEEB3C"/>
<stop offset="0.416667" stop-color="#71FF3F"/>
<stop offset="0.619792" stop-color="#3E8BFF"/>
<stop offset="0.8125" stop-color="#E43EFF"/>
<stop offset="0.984375" stop-color="#FF3E3E"/>
</linearGradient>
<linearGradient id="paint4_linear_1017_2036" x1="44.9317" y1="35.3991" x2="54.821" y2="24.7351" gradientUnits="userSpaceOnUse">
<stop stop-color="#FF3F3F"/>
<stop offset="0.213542" stop-color="#FEEB3C"/>
<stop offset="0.416667" stop-color="#71FF3F"/>
<stop offset="0.619792" stop-color="#3E8BFF"/>
<stop offset="0.8125" stop-color="#E43EFF"/>
<stop offset="0.984375" stop-color="#FF3E3E"/>
</linearGradient>
</defs>
</svg>
