<svg
  xmlns="http://www.w3.org/2000/svg"
  fill="none"
  width="18"
  height="18"
  viewBox="0 0 18 18"
>
  <path
    fill="#000"
    fill-rule="evenodd"
    d="M3.152 14.152V6.025h2.582v8.127H3.152Zm1.291-9.266C3.608 4.886 3 4.278 3 3.443 3 2.608 3.684 2 4.443 2c.835 0 1.443.608 1.443 1.443 0 .835-.608 1.443-1.443 1.443ZM15 14.152h-2.43V9.747c0-1.291-.532-1.671-1.292-1.671-.759 0-1.519.608-1.519 1.747v4.329H7.177V6.025h2.43v1.14c.228-.532 1.14-1.368 2.431-1.368 1.443 0 2.962.836 2.962 3.342v5.013Z"
    clip-rule="evenodd"
  />
</svg>
