<svg width="25" height="24" viewBox="0 0 25 24" fill="none" xmlns="http://www.w3.org/2000/svg">
<path fill-rule="evenodd" clip-rule="evenodd" d="M12.75 13.0001C12.75 16.728 9.89578 19.75 6.37511 19.75C2.85444 19.75 0 16.728 0 13.0001C0 9.27225 2.85422 6.25 6.37511 6.25C9.89599 6.25 12.75 9.27225 12.75 13.0001ZM20.25 12.625C20.25 16.1452 18.739 19 16.875 19C15.011 19 13.5 16.1452 13.5 12.625C13.5 9.10481 15.0108 6.25 16.8748 6.25C18.7387 6.25 20.2498 9.1039 20.2498 12.625H20.25ZM22.1249 18.25C22.7464 18.25 23.25 15.7307 23.25 12.625C23.25 9.51835 22.7461 7 22.1249 7C21.5036 7 21 9.51858 21 12.625C21 15.7314 21.5034 18.25 22.1249 18.25Z" fill="url(#paint0_linear_877_19001)"/>
<path fill-rule="evenodd" clip-rule="evenodd" d="M13.75 12.0001C13.75 15.728 10.8958 18.75 7.37511 18.75C3.85444 18.75 1 15.728 1 12.0001C1 8.27225 3.85422 5.25 7.37511 5.25C10.896 5.25 13.75 8.27225 13.75 12.0001ZM21.25 11.625C21.25 15.1452 19.739 18 17.875 18C16.011 18 14.5 15.1452 14.5 11.625C14.5 8.10481 16.0108 5.25 17.8748 5.25C19.7387 5.25 21.2498 8.1039 21.2498 11.625H21.25ZM23.1249 17.25C23.7464 17.25 24.25 14.7307 24.25 11.625C24.25 8.51835 23.7461 6 23.1249 6C22.5036 6 22 8.51858 22 11.625C22 14.7314 22.5034 17.25 23.1249 17.25Z" fill="white"/>
<defs>
<linearGradient id="paint0_linear_877_19001" x1="2.4724" y1="20.1741" x2="10.1581" y2="2.17075" gradientUnits="userSpaceOnUse">
<stop stop-color="#FF3F3F"/>
<stop offset="0.213542" stop-color="#FEEB3C"/>
<stop offset="0.416667" stop-color="#71FF3F"/>
<stop offset="0.619792" stop-color="#3E8BFF"/>
<stop offset="0.8125" stop-color="#E43EFF"/>
<stop offset="0.984375" stop-color="#FF3E3E"/>
</linearGradient>
</defs>
</svg>
