<svg
  width="71"
  height="69"
  viewBox="0 0 71 69"
  fill="none"
  xmlns="http://www.w3.org/2000/svg"
>
  <path
    d="M13.6562 50.025L13.6562 18.975C13.6562 14.6625 15.4963 12.9375 20.0675 12.9375L23.0575 12.9375C27.6288 12.9375 29.4688 14.6625 29.4688 18.975L29.4688 50.025C29.4688 54.3375 27.6288 56.0625 23.0575 56.0625L20.0675 56.0625C15.4963 56.0625 13.6562 54.3375 13.6562 50.025Z"
    stroke="url(#paint0_linear_1036_658)"
    stroke-width="1.5"
    stroke-linecap="round"
    stroke-linejoin="round"
  />
  <path
    d="M38.0937 44.275L38.0937 24.725C38.0937 20.4125 39.9337 18.6875 44.505 18.6875L47.495 18.6875C52.0663 18.6875 53.9063 20.4125 53.9063 24.725L53.9063 44.275C53.9063 48.5875 52.0663 50.3125 47.495 50.3125L44.505 50.3125C39.9337 50.3125 38.0937 48.5875 38.0937 44.275Z"
    stroke="url(#paint1_linear_1036_658)"
    stroke-width="1.5"
    stroke-linecap="round"
    stroke-linejoin="round"
  />
  <path
    d="M5.75 34.5L12.65 34.5"
    stroke="url(#paint2_linear_1036_658)"
    stroke-width="1.5"
    stroke-linecap="round"
    stroke-linejoin="round"
  />
  <path
    d="M31.625 34.5L37.375 34.5"
    stroke="url(#paint3_linear_1036_658)"
    stroke-width="1.5"
    stroke-linecap="round"
    stroke-linejoin="round"
  />
  <path
    d="M63.2494 34.5L55.5156 34.5"
    stroke="url(#paint4_linear_1036_658)"
    stroke-width="1.5"
    stroke-linecap="round"
    stroke-linejoin="round"
  />
  <path
    d="M15.6562 50.025L15.6562 18.975C15.6562 14.6625 17.4963 12.9375 22.0675 12.9375L25.0575 12.9375C29.6288 12.9375 31.4688 14.6625 31.4688 18.975L31.4688 50.025C31.4688 54.3375 29.6288 56.0625 25.0575 56.0625L22.0675 56.0625C17.4963 56.0625 15.6562 54.3375 15.6562 50.025Z"
    stroke="black"
    stroke-width="1.5"
    stroke-linecap="round"
    stroke-linejoin="round"
  />
  <path
    d="M40.0937 44.275L40.0937 24.725C40.0937 20.4125 41.9337 18.6875 46.505 18.6875L49.495 18.6875C54.0663 18.6875 55.9063 20.4125 55.9063 24.725L55.9063 44.275C55.9063 48.5875 54.0663 50.3125 49.495 50.3125L46.505 50.3125C41.9337 50.3125 40.0937 48.5875 40.0937 44.275Z"
    stroke="black"
    stroke-width="1.5"
    stroke-linecap="round"
    stroke-linejoin="round"
  />
  <path
    d="M7.75 34.5L14.65 34.5"
    stroke="black"
    stroke-width="1.5"
    stroke-linecap="round"
    stroke-linejoin="round"
  />
  <path
    d="M33.625 34.5L39.375 34.5"
    stroke="black"
    stroke-width="1.5"
    stroke-linecap="round"
    stroke-linejoin="round"
  />
  <path
    d="M65.2494 34.5L57.5156 34.5"
    stroke="black"
    stroke-width="1.5"
    stroke-linecap="round"
    stroke-linejoin="round"
  />
  <defs>
    <linearGradient
      id="paint0_linear_1036_658"
      x1="15.3377"
      y1="57.4174"
      x2="42.4926"
      y2="43.8749"
      gradientUnits="userSpaceOnUse"
    >
      <stop stop-color="#FF3F3F" />
      <stop offset="0.213542" stop-color="#FEEB3C" />
      <stop offset="0.416667" stop-color="#71FF3F" />
      <stop offset="0.619792" stop-color="#3E8BFF" />
      <stop offset="0.8125" stop-color="#E43EFF" />
      <stop offset="0.984375" stop-color="#FF3E3E" />
    </linearGradient>
    <linearGradient
      id="paint1_linear_1036_658"
      x1="39.7752"
      y1="51.3061"
      x2="62.9608"
      y2="35.5383"
      gradientUnits="userSpaceOnUse"
    >
      <stop stop-color="#FF3F3F" />
      <stop offset="0.213542" stop-color="#FEEB3C" />
      <stop offset="0.416667" stop-color="#71FF3F" />
      <stop offset="0.619792" stop-color="#3E8BFF" />
      <stop offset="0.8125" stop-color="#E43EFF" />
      <stop offset="0.984375" stop-color="#FF3E3E" />
    </linearGradient>
    <linearGradient
      id="paint2_linear_1036_658"
      x1="6.48374"
      y1="35.5323"
      x2="6.65012"
      y2="33.9721"
      gradientUnits="userSpaceOnUse"
    >
      <stop stop-color="#FF3F3F" />
      <stop offset="0.213542" stop-color="#FEEB3C" />
      <stop offset="0.416667" stop-color="#71FF3F" />
      <stop offset="0.619792" stop-color="#3E8BFF" />
      <stop offset="0.8125" stop-color="#E43EFF" />
      <stop offset="0.984375" stop-color="#FF3E3E" />
    </linearGradient>
    <linearGradient
      id="paint3_linear_1036_658"
      x1="32.2365"
      y1="35.5323"
      x2="32.4351"
      y2="33.9798"
      gradientUnits="userSpaceOnUse"
    >
      <stop stop-color="#FF3F3F" />
      <stop offset="0.213542" stop-color="#FEEB3C" />
      <stop offset="0.416667" stop-color="#71FF3F" />
      <stop offset="0.619792" stop-color="#3E8BFF" />
      <stop offset="0.8125" stop-color="#E43EFF" />
      <stop offset="0.984375" stop-color="#FF3E3E" />
    </linearGradient>
    <linearGradient
      id="paint4_linear_1036_658"
      x1="56.338"
      y1="35.5323"
      x2="56.4868"
      y2="33.9685"
      gradientUnits="userSpaceOnUse"
    >
      <stop stop-color="#FF3F3F" />
      <stop offset="0.213542" stop-color="#FEEB3C" />
      <stop offset="0.416667" stop-color="#71FF3F" />
      <stop offset="0.619792" stop-color="#3E8BFF" />
      <stop offset="0.8125" stop-color="#E43EFF" />
      <stop offset="0.984375" stop-color="#FF3E3E" />
    </linearGradient>
  </defs>
</svg>
