<svg
  width="80"
  height="80"
  viewBox="0 0 80 80"
  fill="none"
  xmlns="http://www.w3.org/2000/svg"
>
  <path
    fill-rule="evenodd"
    clip-rule="evenodd"
    d="M45.5486 13.5486C47.3092 11.788 49.8646 11 53.0135 11H58.9865C62.1354 11 64.6908 11.788 66.4514 13.5486C68.212 15.3092 69 17.8646 69 21.0135V26.9865C69 30.1354 68.212 32.6908 66.4514 34.4514C64.6908 36.212 62.1354 37 58.9865 37H53.0135C49.8646 37 47.3092 36.212 45.5486 34.4514C43.788 32.6908 43 30.1354 43 26.9865V21.0135C43 17.8646 43.788 15.3092 45.5486 13.5486ZM47.0392 15.0392C45.8134 16.2651 45.1081 18.1895 45.1081 21.0135V26.9865C45.1081 29.8105 45.8134 31.7349 47.0392 32.9608C48.2651 34.1866 50.1895 34.8919 53.0135 34.8919H58.9865C61.8105 34.8919 63.7349 34.1866 64.9608 32.9608C66.1866 31.7349 66.8919 29.8105 66.8919 26.9865V21.0135C66.8919 18.1895 66.1866 16.2651 64.9608 15.0392C63.7349 13.8134 61.8105 13.1081 58.9865 13.1081H53.0135C50.1895 13.1081 48.2651 13.8134 47.0392 15.0392Z"
    fill="url(#paint0_linear_1017_2058)"
  />
  <path
    fill-rule="evenodd"
    clip-rule="evenodd"
    d="M10.5486 48.5486C12.3092 46.788 14.8646 46 18.0135 46H23.9865C27.1354 46 29.6908 46.788 31.4514 48.5486C33.212 50.3092 34 52.8646 34 56.0135V61.9865C34 65.1354 33.212 67.6908 31.4514 69.4514C29.6908 71.212 27.1354 72 23.9865 72H18.0135C14.8646 72 12.3092 71.212 10.5486 69.4514C8.78795 67.6908 8 65.1354 8 61.9865V56.0135C8 52.8646 8.78795 50.3092 10.5486 48.5486ZM12.0392 50.0392C10.8134 51.2651 10.1081 53.1895 10.1081 56.0135V61.9865C10.1081 64.8105 10.8134 66.7349 12.0392 67.9608C13.2651 69.1866 15.1895 69.8919 18.0135 69.8919H23.9865C26.8105 69.8919 28.7349 69.1866 29.9608 67.9608C31.1866 66.7349 31.8919 64.8105 31.8919 61.9865V56.0135C31.8919 53.1895 31.1866 51.2651 29.9608 50.0392C28.7349 48.8134 26.8105 48.1081 23.9865 48.1081H18.0135C15.1895 48.1081 13.2651 48.8134 12.0392 50.0392Z"
    fill="url(#paint1_linear_1017_2058)"
  />
  <path
    fill-rule="evenodd"
    clip-rule="evenodd"
    d="M21 13.1081C14.9846 13.1081 10.1081 17.9846 10.1081 24C10.1081 30.0154 14.9846 34.8919 21 34.8919C27.0154 34.8919 31.8919 30.0154 31.8919 24C31.8919 17.9846 27.0154 13.1081 21 13.1081ZM8 24C8 16.8203 13.8203 11 21 11C28.1797 11 34 16.8203 34 24C34 31.1797 28.1797 37 21 37C13.8203 37 8 31.1797 8 24Z"
    fill="url(#paint2_linear_1017_2058)"
  />
  <path
    fill-rule="evenodd"
    clip-rule="evenodd"
    d="M56 48.1081C49.9846 48.1081 45.1081 52.9846 45.1081 59C45.1081 65.0154 49.9846 69.8919 56 69.8919C62.0154 69.8919 66.8919 65.0154 66.8919 59C66.8919 52.9846 62.0154 48.1081 56 48.1081ZM43 59C43 51.8203 48.8203 46 56 46C63.1797 46 69 51.8203 69 59C69 66.1797 63.1797 72 56 72C48.8203 72 43 66.1797 43 59Z"
    fill="url(#paint3_linear_1017_2058)"
  />
  <path
    fill-rule="evenodd"
    clip-rule="evenodd"
    d="M46.5486 12.5486C48.3092 10.788 50.8646 10 54.0135 10H59.9865C63.1354 10 65.6908 10.788 67.4514 12.5486C69.212 14.3092 70 16.8646 70 20.0135V25.9865C70 29.1354 69.212 31.6908 67.4514 33.4514C65.6908 35.212 63.1354 36 59.9865 36H54.0135C50.8646 36 48.3092 35.212 46.5486 33.4514C44.788 31.6908 44 29.1354 44 25.9865V20.0135C44 16.8646 44.788 14.3092 46.5486 12.5486ZM48.0392 14.0392C46.8134 15.2651 46.1081 17.1895 46.1081 20.0135V25.9865C46.1081 28.8105 46.8134 30.7349 48.0392 31.9608C49.2651 33.1866 51.1895 33.8919 54.0135 33.8919H59.9865C62.8105 33.8919 64.7349 33.1866 65.9608 31.9608C67.1866 30.7349 67.8919 28.8105 67.8919 25.9865V20.0135C67.8919 17.1895 67.1866 15.2651 65.9608 14.0392C64.7349 12.8134 62.8105 12.1081 59.9865 12.1081H54.0135C51.1895 12.1081 49.2651 12.8134 48.0392 14.0392Z"
    fill="black"
  />
  <path
    fill-rule="evenodd"
    clip-rule="evenodd"
    d="M11.5486 47.5486C13.3092 45.788 15.8646 45 19.0135 45H24.9865C28.1354 45 30.6908 45.788 32.4514 47.5486C34.212 49.3092 35 51.8646 35 55.0135V60.9865C35 64.1354 34.212 66.6908 32.4514 68.4514C30.6908 70.212 28.1354 71 24.9865 71H19.0135C15.8646 71 13.3092 70.212 11.5486 68.4514C9.78795 66.6908 9 64.1354 9 60.9865V55.0135C9 51.8646 9.78795 49.3092 11.5486 47.5486ZM13.0392 49.0392C11.8134 50.2651 11.1081 52.1895 11.1081 55.0135V60.9865C11.1081 63.8105 11.8134 65.7349 13.0392 66.9608C14.2651 68.1866 16.1895 68.8919 19.0135 68.8919H24.9865C27.8105 68.8919 29.7349 68.1866 30.9608 66.9608C32.1866 65.7349 32.8919 63.8105 32.8919 60.9865V55.0135C32.8919 52.1895 32.1866 50.2651 30.9608 49.0392C29.7349 47.8134 27.8105 47.1081 24.9865 47.1081H19.0135C16.1895 47.1081 14.2651 47.8134 13.0392 49.0392Z"
    fill="black"
  />
  <path
    fill-rule="evenodd"
    clip-rule="evenodd"
    d="M22 12.1081C15.9846 12.1081 11.1081 16.9846 11.1081 23C11.1081 29.0154 15.9846 33.8919 22 33.8919C28.0154 33.8919 32.8919 29.0154 32.8919 23C32.8919 16.9846 28.0154 12.1081 22 12.1081ZM9 23C9 15.8203 14.8203 10 22 10C29.1797 10 35 15.8203 35 23C35 30.1797 29.1797 36 22 36C14.8203 36 9 30.1797 9 23Z"
    fill="black"
  />
  <path
    fill-rule="evenodd"
    clip-rule="evenodd"
    d="M57 47.1081C50.9846 47.1081 46.1081 51.9846 46.1081 58C46.1081 64.0154 50.9846 68.8919 57 68.8919C63.0154 68.8919 67.8919 64.0154 67.8919 58C67.8919 51.9846 63.0154 47.1081 57 47.1081ZM44 58C44 50.8203 49.8203 45 57 45C64.1797 45 70 50.8203 70 58C70 65.1797 64.1797 71 57 71C49.8203 71 44 65.1797 44 58Z"
    fill="black"
  />
  <defs>
    <linearGradient
      id="paint0_linear_1017_2058"
      x1="45.7648"
      y1="37.8169"
      x2="65.3282"
      y2="11.208"
      gradientUnits="userSpaceOnUse"
    >
      <stop stop-color="#FF3F3F" />
      <stop offset="0.213542" stop-color="#FEEB3C" />
      <stop offset="0.416667" stop-color="#71FF3F" />
      <stop offset="0.619792" stop-color="#3E8BFF" />
      <stop offset="0.8125" stop-color="#E43EFF" />
      <stop offset="0.984375" stop-color="#FF3E3E" />
    </linearGradient>
    <linearGradient
      id="paint1_linear_1017_2058"
      x1="10.7648"
      y1="72.8169"
      x2="30.3282"
      y2="46.208"
      gradientUnits="userSpaceOnUse"
    >
      <stop stop-color="#FF3F3F" />
      <stop offset="0.213542" stop-color="#FEEB3C" />
      <stop offset="0.416667" stop-color="#71FF3F" />
      <stop offset="0.619792" stop-color="#3E8BFF" />
      <stop offset="0.8125" stop-color="#E43EFF" />
      <stop offset="0.984375" stop-color="#FF3E3E" />
    </linearGradient>
    <linearGradient
      id="paint2_linear_1017_2058"
      x1="10.7648"
      y1="37.8169"
      x2="30.3282"
      y2="11.208"
      gradientUnits="userSpaceOnUse"
    >
      <stop stop-color="#FF3F3F" />
      <stop offset="0.213542" stop-color="#FEEB3C" />
      <stop offset="0.416667" stop-color="#71FF3F" />
      <stop offset="0.619792" stop-color="#3E8BFF" />
      <stop offset="0.8125" stop-color="#E43EFF" />
      <stop offset="0.984375" stop-color="#FF3E3E" />
    </linearGradient>
    <linearGradient
      id="paint3_linear_1017_2058"
      x1="45.7648"
      y1="72.8169"
      x2="65.3282"
      y2="46.208"
      gradientUnits="userSpaceOnUse"
    >
      <stop stop-color="#FF3F3F" />
      <stop offset="0.213542" stop-color="#FEEB3C" />
      <stop offset="0.416667" stop-color="#71FF3F" />
      <stop offset="0.619792" stop-color="#3E8BFF" />
      <stop offset="0.8125" stop-color="#E43EFF" />
      <stop offset="0.984375" stop-color="#FF3E3E" />
    </linearGradient>
  </defs>
</svg>
