<svg
  width="80"
  height="80"
  viewBox="0 0 80 80"
  fill="none"
  xmlns="http://www.w3.org/2000/svg"
>
  <path
    fill-rule="evenodd"
    clip-rule="evenodd"
    d="M42.5 12.7346C28.7592 12.7346 17.7415 23.0691 17.7415 35.6886C17.7415 35.9394 17.7448 36.1851 17.7525 36.427C20.2081 35.116 23.0297 34.3878 26.0427 34.3878C35.2909 34.3878 42.8773 41.3709 42.8773 50.1144C42.8773 53.2189 41.8988 56.1197 40.2143 58.5532C40.9655 58.6128 41.7273 58.6427 42.5 58.6427C42.6566 58.6427 42.8102 58.6847 42.9448 58.7644L55.1064 65.9628L55.1126 65.9665C56.5401 66.8276 58.3544 65.6752 58.1511 63.9811C58.151 63.9804 58.1509 63.9797 58.1508 63.979L57.0192 54.8462C56.9797 54.5279 57.1199 54.2139 57.3836 54.0298C63.3859 49.8393 67.2585 43.1839 67.2585 35.6886C67.2585 23.0691 56.2408 12.7346 42.5 12.7346ZM16 35.6886C16 22.0006 27.9122 11 42.5 11C57.0878 11 69 22.0006 69 35.6886C69 43.6227 64.9893 50.6467 58.8109 55.1452L59.8795 63.7691L59.8798 63.7716C60.2551 66.8741 56.9066 69.0733 54.2136 67.4521C54.2126 67.4515 54.2115 67.4509 54.2105 67.4502L42.2592 60.3763C40.9696 60.3665 39.7044 60.2777 38.464 60.1092C38.1487 60.0664 37.882 59.8557 37.7683 59.5596C37.6546 59.2636 37.7122 58.9294 37.9184 58.688C39.9412 56.3192 41.1358 53.3354 41.1358 50.1144C41.1358 42.4374 34.4418 36.1224 26.0427 36.1224C22.8433 36.1224 19.903 37.0281 17.4623 38.6124C17.2102 38.776 16.8911 38.7984 16.6184 38.6716C16.3458 38.5448 16.1582 38.2867 16.1223 37.9891C16.0298 37.2213 16 36.4619 16 35.6886Z"
    fill="url(#paint0_linear_1017_1146)"
  />
  <path
    fill-rule="evenodd"
    clip-rule="evenodd"
    d="M26 36.7263C22.7692 36.7263 19.8 37.6278 17.3353 39.2045L17.3286 39.2087L17.3286 39.2087C13.3376 41.7117 10.7586 45.9085 10.7586 50.6517C10.7586 55.1785 13.1173 59.2105 16.8289 61.7392C17.0982 61.9226 17.2412 62.2378 17.1999 62.5569L16.4677 68.2203C16.3774 68.9961 17.25 69.5212 17.8901 69.1356L17.901 69.129L17.901 69.1291L25.551 64.6695C25.6869 64.5903 25.842 64.5485 26 64.5485C30.9028 64.5485 35.2533 62.4433 37.9838 59.1944L37.9922 59.1844L37.9923 59.1845C40.035 56.827 41.2414 53.8574 41.2414 50.6517C41.2414 43.0112 34.4816 36.7263 26 36.7263ZM16.3784 37.756C19.1303 35.9965 22.4323 35 26 35C35.3391 35 43 41.9498 43 50.6517C43 54.2915 41.6288 57.65 39.3361 60.2981C36.3092 63.8965 31.5577 66.2045 26.2441 66.2732L18.8039 70.6105C16.8667 71.7712 14.4633 70.1703 14.7215 68.0154L14.7225 68.0075L14.7225 68.0075L15.3894 62.8494C11.4951 60.0103 9 55.6093 9 50.6517C9 45.2686 11.93 40.5473 16.3784 37.756Z"
    fill="url(#paint1_linear_1017_1146)"
  />
  <path
    fill-rule="evenodd"
    clip-rule="evenodd"
    d="M43.5 11.7346C29.7592 11.7346 18.7415 22.0691 18.7415 34.6886C18.7415 34.9394 18.7448 35.1851 18.7525 35.427C21.2081 34.116 24.0297 33.3878 27.0427 33.3878C36.2909 33.3878 43.8773 40.3709 43.8773 49.1144C43.8773 52.2189 42.8988 55.1197 41.2143 57.5532C41.9655 57.6128 42.7273 57.6427 43.5 57.6427C43.6566 57.6427 43.8102 57.6847 43.9448 57.7644L56.1064 64.9628L56.1126 64.9665C57.5401 65.8276 59.3544 64.6752 59.1511 62.9811C59.151 62.9804 59.1509 62.9797 59.1508 62.979L58.0192 53.8462C57.9797 53.5279 58.1199 53.2139 58.3836 53.0298C64.3859 48.8393 68.2585 42.1839 68.2585 34.6886C68.2585 22.0691 57.2408 11.7346 43.5 11.7346ZM17 34.6886C17 21.0006 28.9122 10 43.5 10C58.0878 10 70 21.0006 70 34.6886C70 42.6227 65.9893 49.6467 59.8109 54.1452L60.8795 62.7691L60.8798 62.7716C61.2551 65.8741 57.9066 68.0733 55.2136 66.4521C55.2126 66.4515 55.2115 66.4509 55.2105 66.4502L43.2592 59.3763C41.9696 59.3665 40.7044 59.2777 39.464 59.1092C39.1487 59.0664 38.882 58.8557 38.7683 58.5596C38.6546 58.2636 38.7122 57.9294 38.9184 57.688C40.9412 55.3192 42.1358 52.3354 42.1358 49.1144C42.1358 41.4374 35.4418 35.1224 27.0427 35.1224C23.8433 35.1224 20.903 36.0281 18.4623 37.6124C18.2102 37.776 17.8911 37.7984 17.6184 37.6716C17.3458 37.5448 17.1582 37.2867 17.1223 36.9891C17.0298 36.2213 17 35.4619 17 34.6886Z"
    fill="black"
  />
  <path
    fill-rule="evenodd"
    clip-rule="evenodd"
    d="M27 35.7263C23.7692 35.7263 20.8 36.6278 18.3353 38.2045L18.3286 38.2087L18.3286 38.2087C14.3376 40.7117 11.7586 44.9085 11.7586 49.6517C11.7586 54.1785 14.1173 58.2105 17.8289 60.7392C18.0982 60.9226 18.2412 61.2378 18.1999 61.5569L17.4677 67.2203C17.3774 67.9961 18.25 68.5212 18.8901 68.1356L18.901 68.129L18.901 68.1291L26.551 63.6695C26.6869 63.5903 26.842 63.5485 27 63.5485C31.9028 63.5485 36.2533 61.4433 38.9838 58.1944L38.9922 58.1844L38.9923 58.1845C41.035 55.827 42.2414 52.8574 42.2414 49.6517C42.2414 42.0112 35.4816 35.7263 27 35.7263ZM17.3784 36.756C20.1303 34.9965 23.4323 34 27 34C36.3391 34 44 40.9498 44 49.6517C44 53.2915 42.6288 56.65 40.3361 59.2981C37.3092 62.8965 32.5577 65.2045 27.2441 65.2732L19.8039 69.6105C17.8667 70.7712 15.4633 69.1703 15.7215 67.0154L15.7225 67.0075L15.7225 67.0075L16.3894 61.8494C12.4951 59.0103 10 54.6093 10 49.6517C10 44.2686 12.93 39.5473 17.3784 36.756Z"
    fill="black"
  />
  <defs>
    <linearGradient
      id="paint0_linear_1017_1146"
      x1="21.636"
      y1="69.7908"
      x2="65.3588"
      y2="14.4952"
      gradientUnits="userSpaceOnUse"
    >
      <stop stop-color="#FF3F3F" />
      <stop offset="0.213542" stop-color="#FEEB3C" />
      <stop offset="0.416667" stop-color="#71FF3F" />
      <stop offset="0.619792" stop-color="#3E8BFF" />
      <stop offset="0.8125" stop-color="#E43EFF" />
      <stop offset="0.984375" stop-color="#FF3E3E" />
    </linearGradient>
    <linearGradient
      id="paint1_linear_1017_1146"
      x1="12.6156"
      y1="72.1311"
      x2="40.1276"
      y2="36.7898"
      gradientUnits="userSpaceOnUse"
    >
      <stop stop-color="#FF3F3F" />
      <stop offset="0.213542" stop-color="#FEEB3C" />
      <stop offset="0.416667" stop-color="#71FF3F" />
      <stop offset="0.619792" stop-color="#3E8BFF" />
      <stop offset="0.8125" stop-color="#E43EFF" />
      <stop offset="0.984375" stop-color="#FF3E3E" />
    </linearGradient>
  </defs>
</svg>
