<svg
  width="24"
  height="24"
  viewBox="0 0 24 24"
  fill="none"
  xmlns="http://www.w3.org/2000/svg"
>
  <path
    d="M21 6.92411C20.2642 7.25077 19.4733 7.47077 18.6433 7.56994C19.4908 7.06244 20.1417 6.25827 20.4475 5.29994C19.655 5.76994 18.7767 6.11161 17.8417 6.29577C17.0942 5.49827 16.0267 4.99994 14.8467 4.99994C12.1975 4.99994 10.2508 7.47161 10.8492 10.0374C7.44 9.86661 4.41667 8.23327 2.3925 5.75077C1.3175 7.59494 1.835 10.0074 3.66167 11.2291C2.99 11.2074 2.35667 11.0233 1.80417 10.7158C1.75917 12.6166 3.12167 14.3949 5.095 14.7908C4.5175 14.9474 3.885 14.9841 3.24167 14.8608C3.76333 16.4908 5.27833 17.6766 7.075 17.7099C5.35 19.0624 3.17667 19.6666 1 19.4099C2.81583 20.5741 4.97333 21.2533 7.29 21.2533C14.9083 21.2533 19.2125 14.8191 18.9525 9.04827C19.7542 8.46911 20.45 7.74661 21 6.92411Z"
    opacity="0"
    fill="url(#paint0_linear_592_9080)"
  />
  <path
    d="M22 5.92411C21.2642 6.25077 20.4733 6.47077 19.6433 6.56994C20.4908 6.06244 21.1417 5.25827 21.4475 4.29994C20.655 4.76994 19.7767 5.11161 18.8417 5.29577C18.0942 4.49827 17.0267 3.99994 15.8467 3.99994C13.1975 3.99994 11.2508 6.47161 11.8492 9.03744C8.44 8.86661 5.41667 7.23327 3.3925 4.75077C2.3175 6.59494 2.835 9.00744 4.66167 10.2291C3.99 10.2074 3.35667 10.0233 2.80417 9.71577C2.75917 11.6166 4.12167 13.3949 6.095 13.7908C5.5175 13.9474 4.885 13.9841 4.24167 13.8608C4.76333 15.4908 6.27833 16.6766 8.075 16.7099C6.35 18.0624 4.17667 18.6666 2 18.4099C3.81583 19.5741 5.97333 20.2533 8.29 20.2533C15.9083 20.2533 20.2125 13.8191 19.9525 8.04827C20.7542 7.46911 21.45 6.74661 22 5.92411Z"
    fill="currentColor"
  />
  <defs>
    <linearGradient
      id="paint0_linear_592_9080"
      x1="21.3983"
      y1="-23.3908"
      x2="0.330062"
      y2="-23.3919"
      gradientUnits="userSpaceOnUse"
    >
      <stop stop-color="#FF3F3F" />
      <stop offset="0.213542" stop-color="#FEEB3C" />
      <stop offset="0.416667" stop-color="#71FF3F" />
      <stop offset="0.619792" stop-color="#3E8BFF" />
      <stop offset="0.8125" stop-color="#E43EFF" />
      <stop offset="0.984375" stop-color="#FF3E3E" />
    </linearGradient>
  </defs>
</svg>
