<svg xmlns="http://www.w3.org/2000/svg" width="1133" height="1134" fill="none">
  <g filter="url(#a)">
    <path stroke="#000" stroke-width=".3" d="m976.014 940.63.755-.828-.755.828Zm0 0c22.432-26.536 36.856-55.426 45.966-86.283m-45.966 86.283 45.966-86.283M592.016 1120.91c49.255-4.12 90.427-23.07 128.19-50.58 24.72-3.95 48.732-9.19 71.906-16-52.166 38.01-113.936 62.38-199.092 66.54-.123 0-.247.01-.37.01l-.634.03Zm0 0h-.009.009ZM150.937 933.44a302.556 302.556 0 0 0 7.677 9.182c-39.335-42.712-72.046-91.619-96.502-145.091l88.825 135.909Zm0 0a306.47 306.47 0 0 1-13.723-18.387c-11.081-15.614-20.8-31.925-29.306-48.864a478.905 478.905 0 0 1-53.41-91.573 328.718 328.718 0 0 0 7.613 22.914l88.826 135.91ZM60.434 793.827a551.582 551.582 0 0 1-6.264-14.522m6.264 14.522-6.264-14.522m6.264 14.522a329.516 329.516 0 0 1-6.84-21.266c-13.16-30.073-23.432-61.941-30.492-95.417a552.821 552.821 0 0 0 31.047 102.109m6.285 14.574-6.285-14.574m.021.052-.021-.052m.021.052-.021-.052m967.831 75.094a402.633 402.633 0 0 0 35.93-49.536m-35.93 49.536 35.93-49.536m0 0c-14.63 45.105-39.88 89.463-81.14 134.99l81.14-134.99ZM176.92 961.556l.024-20.244m.001-.4.046-38.175m.001-.45.006-4.927m0-.41.791-652.383m.001-.465.033-27.159m0-.385.026-21.152m.001-.477.027-22.885m.024-.022 1.984 20.409m.042.422 1.987 20.44m.034.355 2.232 22.954m.04.415 70.821 728.449m.042.428 1.419 14.599m.043.439 1.855 19.078m.036.37 1.517 15.6m.032.34.898 9.23m.036.37.363 3.74m.038.38.001.01m637.598-773.156.01.013.013.011c13.948 11.523 27.497 22.48 40.568 33.051 20.89 16.893 40.557 32.799 58.677 48.442 22.423 69.76 33.753 147.244 33.753 228.851 0 29.012 1.1 57.504 2.18 85.311.31 8.068.62 16.078.9 24.027.35 9.952.66 19.807.86 29.558-33.62 66.826-81.231 131.228-140.292 190.289-20.515 20.515-39.882 41.441-58.783 61.865-5.485 5.926-10.93 11.809-16.352 17.628-6.789 7.285-13.542 14.468-20.293 21.506-71.026 23.484-150.232 35.354-233.758 35.354-29.012 0-57.504 1.1-85.311 2.18-8.068.31-16.079.62-24.027.9-35.346 1.25-69.472 1.9-102.035-.45-5.247-.38-10.453-.84-15.617-1.39-27.035-20.33-54.355-43.266-83.372-67.732l-.999-.842-70.821-728.449c43.803-51.27 85.759-97.039 131.166-133.633 50.691-13.517 107.769-21.603 166.739-27.95 15.916-1.713 31.454-3.503 46.656-5.254 29.653-3.416 58.026-6.684 85.425-8.947 83.992 25.242 166.3 73.294 241.528 139.449 5.664 7.35 11.392 14.833 17.211 22.433 8.443 11.029 17.075 22.305 25.974 33.779Zm133.321 310.368c0-81.45-11.28-158.802-33.617-228.475 12.487 10.797 24.247 21.471 35.157 32.263 3.72 4.017 7.37 8.055 10.93 12.119 5.57 32.054 9.84 65.621 13.52 99.826 1.71 15.916 3.5 31.454 5.25 46.655 3.42 29.654 6.69 58.027 8.95 85.426-9.16 30.477-21.32 60.733-36.26 90.508-.2-9.568-.5-19.235-.85-28.995-.28-7.95-.59-15.962-.9-24.031-1.08-27.806-2.18-56.291-2.18-85.296Zm12.37-184.661c-1.9-2.163-3.82-4.318-5.77-6.467 1.92 1.951 3.81 3.907 5.67 5.869.03.199.07.399.1.598Zm-.2-1.133a486.23 486.23 0 0 0-10.41-10.623c-11.71-12.627-24.18-25.055-37.146-37.489-10.445-31.587-23.187-61.557-38.201-89.572 25.772 21.869 49.417 43.783 70.217 67.275 6.17 22.311 11.24 45.912 15.54 70.409Zm.58 1.566c-.04-.212-.07-.424-.11-.636 4.41 4.665 8.66 9.368 12.74 14.125 12.86 15.003 24.03 30.557 33.24 47.249.12 1.239.23 2.479.33 3.719-11.95-21.829-26.97-42.247-44.06-62.006a398.84 398.84 0 0 0-2.14-2.451Zm45.8 59.992c-9.16-16.483-20.23-31.86-32.94-46.698a399.8 399.8 0 0 0-13.06-14.465c-4.28-24.449-9.33-48.009-15.47-70.292a429.752 429.752 0 0 1 13.8 16.424c14.54 18.217 27.38 37.524 38.22 58.562a401.283 401.283 0 0 1 9.45 56.469Zm.76 5.116c-.1-1.238-.21-2.475-.32-3.712 10.98 20.038 19.15 41.722 24.06 66.063-4.99-22.265-13.14-42.871-23.74-62.351Zm.06.741c13.04 24.114 22.32 49.957 26.5 78.536 1.45 10.882 2.29 22.286 2.49 34.289.03 5.447-.05 10.854-.26 16.223-2.37 42.604-18.66 86.444-43.41 130.983-.66 1.201-1.34 2.402-2.02 3.604 1.87-31.376.61-63.657-2.18-97.41 7.9-26.286 13.56-52.737 16.85-79.189 3.62-29.085 4.36-58.171 2.03-87.036Zm-20.77 302.378c28.39-52.253 46.39-107.677 49.56-167.955-.17 5.949-.44 11.896-.8 17.837 0 .091-.01.182-.01.273-4.85 77.186-26.2 144.296-60.63 201.1 5.35-16.941 9.21-33.993 11.88-51.255Zm-12.27 52.465c27.14-44.451 46.24-95.235 55.66-152.241-7.29 47.694-20.82 94.619-40.58 139.46-.02.051-.04.103-.07.154-18.56 42.012-42.2 81.283-70.13 117.039 26.39-34.937 43.93-69.445 55.12-104.412Zm-37.07 51.187c-10.31 34.627-27.368 66.758-54.969 95.851a579.069 579.069 0 0 1-4.44 4.577 361.812 361.812 0 0 1-47.702 40.603c-33.547 23.206-69.574 38.116-108.598 48.326.022-.02.043-.04.065-.05 21.95-17.52 42.321-37.49 62.235-59.394a654.939 654.939 0 0 0 45.46-38.828c15.711-9.545 30.719-19.865 44.957-30.956 23.129-18.016 44.222-38.066 62.992-60.129ZM914.574 996.18a310.075 310.075 0 0 0 27.659-21.566 638.02 638.02 0 0 1-2.588 2.376c-45.768 41.72-98.551 75.87-156.373 100.48-47.85 20.32-97.976 33.61-148.803 39.86 64.825-9.04 114.987-31.4 158.496-63.25 43.847-12.98 84.68-31.62 121.609-57.9Zm-338.761 125.24c-22.982.39-45.258-1.37-66.914-5.05-15.929-2.92-31.212-7.05-46.029-12.25 85.113 10.89 172.603-.91 255.61-33.52.358-.05.715-.11 1.073-.17-41.666 30.26-87.486 50.04-143.74 50.99Zm141.303-50.61c-83.042 32.4-170.53 43.97-255.603 32.83-24.193-8.6-47.157-20.04-69.692-33.72 31.849 4.95 64.914 6.83 99.393 6.75 24.588 2.81 49.687 4.25 75.188 4.25 52.236 0 102.789-2.67 150.714-10.11Zm-326.072-1.01c22.341 13.61 45.102 25.02 69.058 33.66-2.153-.29-4.305-.59-6.455-.91-27.344-9.07-53.736-21.14-79.378-35.7a483.674 483.674 0 0 0 16.775 2.95Zm97.614 6.57c-33.805-.01-66.244-1.95-97.509-6.86-12.28-7.48-24.435-15.63-36.594-24.34 42.317 15.11 87.272 25.65 134.103 31.2Zm-135.131-31.57c12.243 8.8 24.481 17.03 36.845 24.59-5.679-.9-11.32-1.9-16.923-3.01-18.138-10.34-35.901-21.91-53.361-34.54.276.04.552.09.828.13a580.531 580.531 0 0 0 32.611 12.83Zm137.7 31.56c-48.086-5.5-94.212-16.26-137.556-31.82a791.29 791.29 0 0 1-13.792-10.15c5.004.53 10.047.97 15.128 1.34 32.581 2.35 66.72 1.7 102.068.45 7.95-.28 15.962-.59 24.031-.9 27.806-1.08 56.29-2.18 85.296-2.18 83.341 0 162.391-11.82 233.314-35.191-17.078 17.791-34.146 34.641-51.733 49.861-3.978 3.44-7.983 6.8-12.02 10.06-33.502 4.74-69.039 7.84-106.861 11.06-48.495 4.13-94.318 7.37-137.875 7.47Zm-151.93-42.03a853.79 853.79 0 0 0 13.346 9.84 585.275 585.275 0 0 1-30.552-12.02c5.681.85 11.418 1.57 17.206 2.18Zm-83.451-67.792c28.872 24.342 56.069 47.172 82.984 67.442-6.002-.64-11.948-1.4-17.834-2.3-.937-.41-1.872-.81-2.806-1.22-20.954-15.26-41.475-32.026-61.688-49.967l-1.419-14.599.763.644Zm63.459 64.732c.171.08.341.15.512.22a2.405 2.405 0 0 1-.264-.04l-.248-.18Zm-1.268-.55.863.63c-20.399-3.24-40.08-8.14-58.947-15.37l-1.517-15.6a554.516 554.516 0 0 0 59.601 30.34ZM176.92 961.556a361.688 361.688 0 0 1-36.024-41.916c-9.749-13.766-17.747-27.758-24.242-42.032 18.131 22.96 38.31 44.241 60.29 63.704l-.024 20.244Zm-64.224-89.029a309.711 309.711 0 0 0 15.531 28.701 378.743 378.743 0 0 1-19.277-33.642 464.178 464.178 0 0 0 3.746 4.941Zm-.611-1.292a485.208 485.208 0 0 1-3.922-5.208c-12.925-25.746-23.045-52.947-30.884-81.369a462.464 462.464 0 0 0 9.776 13.948c6.175 25.419 14.198 49.584 25.03 72.629ZM43.899 724.851c9.214 20.644 20.242 40.209 32.854 59.023 7.722 28.19 17.678 55.185 30.378 80.758a478.575 478.575 0 0 1-53.257-92.18c-4.35-15.284-7.665-31.092-9.975-47.601Zm32.605 58.111c-12.589-18.861-23.583-38.479-32.753-59.184-3.288-23.996-4.462-49.474-3.611-76.972 5.891 24.445 13.548 48.682 22.924 72.549 3.424 21.778 7.838 43.01 13.44 63.607Zm10.366 14.88a461.82 461.82 0 0 1-9.841-14.094c-5.596-20.436-10.017-41.5-13.457-63.106a576.242 576.242 0 0 0 14.63 33.765c2.435 14.879 5.27 29.349 8.668 43.435ZM63.356 719.28c-7.59-48.302-10.309-99.299-10.309-152.019 0-24.606 1.34-48.838 3.962-72.596.225 42.805 3.42 87.789 7.466 135.331 3.75 44.072 7.345 85.054 13.552 123.337a575.367 575.367 0 0 1-14.67-34.053ZM52.747 567.261c0 52.241 2.669 102.8 10.104 150.729-9.283-23.794-16.856-47.953-22.675-72.316.684-20.814 2.523-42.785 5.476-66.143l.002-.016-.001-.017c-5.53-58.067-4.053-112.533 4.735-163.271a441.31 441.31 0 0 1 13.358-23.552c-4.954 31.85-6.832 64.915-6.747 99.395-2.814 24.589-4.252 49.689-4.252 75.191Zm-7.395 12.249c-2.9 22.95-4.726 44.564-5.439 65.059-14.271-60.319-17.791-121.87-9.89-182.206 5.521-15.526 12.212-30.546 19.912-45.272-8.652 50.502-10.08 104.683-4.583 162.419Zm4.749-163.38c-7.67 14.585-14.352 29.457-19.89 44.822a478.779 478.779 0 0 1 28.66-110.941 344.022 344.022 0 0 1 18.084-28.963c-12.158 30.066-21.081 61.772-26.854 95.082Zm7.681-64.146a479.129 479.129 0 0 0-28.054 110.313c-9.162 25.775-15.108 52.947-17.113 82.477 2.345-58.119 13.787-115.939 34.326-171.143a327.498 327.498 0 0 1 10.841-21.647Zm46.769-91.223c-18.702 28.694-33.987 58.525-45.956 89.129a329.59 329.59 0 0 0-10.22 19.928 551.212 551.212 0 0 1 5.967-15.015 552.81 552.81 0 0 1 50.209-94.042Zm-44.87 87.193c19.63-49.523 47.973-96.992 85.454-140.865-28.619 34.509-51.104 72.105-67.669 112.702a345.773 345.773 0 0 0-17.785 28.163Zm18.563-29.27c13.614-33.077 31.173-64.154 52.793-93.182-19.436 26.756-34.165 54.282-45.157 82.751a374.4 374.4 0 0 0-7.636 10.431Zm-27.688 96.584c5.852-33.409 14.882-65.198 27.175-95.332a370.618 370.618 0 0 1 7.76-10.672c-10.206 26.669-17.149 54.166-21.624 82.633a444.468 444.468 0 0 0-13.311 23.371Zm13.721-24.042c4.53-28.539 11.551-56.099 21.867-82.826 6.912-9.109 14.392-18.118 22.471-27.074-4.481 14.96-7.48 30.3-9.327 46.143a577.953 577.953 0 0 0-10.428 26.916c-8.799 12.242-17.026 24.478-24.583 36.841Zm92.268-196.868c-23.636 27.921-38.664 56.352-47.728 86.296-8.002 8.846-15.418 17.743-22.281 26.737 15.313-39.327 37.794-76.85 70.009-113.033Zm-47.256 85.776c10.83-35.438 30.059-68.757 62.093-101.638a459.405 459.405 0 0 1 4.594-4.618 206.07 206.07 0 0 1 1.901-1.834l-.027 22.885c-14.19 17.523-27.293 36.068-39.246 55.522-10.542 9.873-20.298 19.746-29.315 29.683Zm-.204.672c8.902-9.838 18.529-19.613 28.925-29.386-14.512 23.732-27.317 48.811-38.3 75.04 1.879-15.67 4.897-30.848 9.375-45.654Zm-9.504 46.737c11.211-26.91 24.337-52.614 39.255-76.899 11.962-11.201 24.935-22.404 38.987-33.701l-.033 27.159c-3.54 4.168-7.094 8.369-10.664 12.604-24.918 29.554-48.252 57.353-68.878 84.892l.072-.948a335.64 335.64 0 0 1 1.261-13.107Zm-10.085 25.958a576.991 576.991 0 0 1 9.668-24.954 337.798 337.798 0 0 0-1.25 13.497 810.212 810.212 0 0 0-8.418 11.457Zm-.37 1.029a801.35 801.35 0 0 1 8.748-11.931c-3.337 46.765 2.09 98.081 8.318 156.961 1.767 16.707 3.598 34.024 5.312 52.019-1.82 14.394-3.688 28.462-5.516 42.224-8.995 67.735-17.005 128.049-13.43 183.36.126 1.944.266 3.882.421 5.814a590.436 590.436 0 0 1-14.486-28.655c-6.309-38.562-9.934-79.876-13.719-124.351-4.128-48.5-7.367-94.327-7.475-137.888 5.503-48.085 16.269-94.21 31.827-137.553ZM78.669 755.394a590.738 590.738 0 0 0 14.37 28.324c.74 9.014 1.805 17.896 3.239 26.657a500.795 500.795 0 0 1-8.945-11.897c-3.393-13.973-6.227-28.327-8.664-43.084Zm17.995 55.478c-1.442-8.709-2.516-17.539-3.27-26.499 16.473 30.328 35.853 59.754 58.041 87.905-20.006-20.021-38.383-40.317-54.771-61.406Zm-9.145-11.63a501.496 501.496 0 0 0 8.861 11.754c3.685 22.221 9.761 43.661 18.996 64.498a434.797 434.797 0 0 1-2.425-3.129c-11.023-23.189-19.171-47.517-25.432-73.123Zm28.62 77.226c-9.422-20.986-15.617-42.584-19.372-64.974 16.806 21.577 35.689 42.327 56.265 62.802a652.41 652.41 0 0 0 23.959 28.441l-.046 38.175c-22.195-19.674-42.548-41.203-60.806-64.444Zm200.782 153.442c-20.252-8.89-39.79-18.87-58.521-29.9l-1.855-19.078c19.789 17.554 39.875 33.978 60.376 48.978ZM176.998 897.36l-.006 4.927a651.685 651.685 0 0 1-22.118-26.163 1051.243 1051.243 0 0 0 22.124 21.236Zm-23.745-23.268c-22.987-28.928-42.997-59.216-59.92-90.46a376.586 376.586 0 0 1-.475-6.489c-3.574-55.278 4.431-115.556 13.427-183.291 1.828-13.769 3.698-27.846 5.519-42.252l.002-.017-.001-.016c-1.716-18.011-3.548-35.34-5.316-52.057-6.248-59.07-11.686-110.496-8.282-157.356 20.687-27.65 44.115-55.564 69.148-85.255 3.493-4.143 6.97-8.254 10.434-12.332l-.791 652.383a1040.47 1040.47 0 0 1-23.745-22.858Zm-39.682-.429c.767.991 1.537 1.979 2.31 2.964a251.45 251.45 0 0 0 13.612 26.084 308.524 308.524 0 0 1-15.922-29.048Zm-25.079-518.25c-15.104 42.316-25.648 87.271-31.196 134.101.014-33.805 1.947-66.246 6.858-97.511 7.481-12.279 15.627-24.433 24.338-36.59Zm226.18-251.838c-45.165 36.49-86.924 82.042-130.492 133.027l-2.232-22.954a873.575 873.575 0 0 1 7.56-5.929l.013-.01.011-.013c30.605-37.049 62.845-69.005 96.789-95.7a510.77 510.77 0 0 1 19.234-5.898 580.853 580.853 0 0 1 9.117-2.523ZM189.311 207.492a862.375 862.375 0 0 0-7.397 5.801l-1.987-20.44c18.841-22.998 39.57-44.21 62.042-63.385 13.664-6.442 28.219-12.134 43.518-17.197-33.721 26.603-65.756 58.399-96.176 95.221Zm-49.879 42.185c11.726-18.998 24.551-37.122 38.417-54.271l-.026 21.152c-13.816 11.101-26.592 22.111-38.391 33.119Zm101.501-119.719c-22.087 18.933-42.482 39.838-61.048 62.473l-1.984-20.409c17.681-16.811 38.96-30.612 63.032-42.064Zm.87-.744c-21.673 10.22-41.114 22.325-57.737 36.795a557.4 557.4 0 0 1 13.009-12.011c40.377-36.027 82.979-62.897 126.934-81.373-29.469 16.05-56.939 35.032-82.206 56.589Zm84.816-58c-30.175 12.43-59.723 28.797-88.362 49.343a553.855 553.855 0 0 1 97.742-57.525 328.675 328.675 0 0 1 22.975-7.642 479.138 479.138 0 0 0-32.355 15.824Zm15.877-10.853c-.93.326-1.859.655-2.786.99a552.455 552.455 0 0 1 14.259-6.16 552.825 552.825 0 0 1 102.528-31.225c-33.495 7.066-65.379 17.347-95.467 30.518a329.247 329.247 0 0 0-18.534 5.877Zm20.671-6.478C412.232 32.672 466.04 19.127 523.79 14.654c-44.837 4.125-87.502 14.824-128.086 31.882a345.69 345.69 0 0 0-32.537 7.347Zm-2.028.882a343.947 343.947 0 0 1 33.315-7.702 439.08 439.08 0 0 0-14.123 6.284 404.223 404.223 0 0 0-50.98 16.753 478.754 478.754 0 0 1 31.788-15.335Zm-34.381 16.716a404.407 404.407 0 0 1 52.097-17.442c-32.219 15.162-63.096 34.429-92.677 57.688-15.224 5.009-29.719 10.637-43.341 17.002 25.765-21.881 53.811-41.09 83.921-57.248Zm-39.746 39.973c29.81-23.366 60.935-42.678 93.42-57.823a400.539 400.539 0 0 1 18.457-4.266c-29.737 14.345-57.273 32.5-83.642 53.746a571.736 571.736 0 0 0-9.774 2.699 510.91 510.91 0 0 0-18.461 5.644Zm195.081-36.319c-58.72 6.32-115.579 14.367-166.13 27.786 26.511-21.307 54.205-39.485 84.134-53.803 29.557-6.003 59.481-8.604 89.528-8.016 13.631.486 27.758 1.464 42.445 2.923.98.115 1.961.234 2.942.356 26.188 3.254 52.378 8.84 78.407 16.617-27.174 2.26-55.303 5.5-84.683 8.885-15.199 1.75-30.733 3.54-46.643 5.252Zm-7.048-34.367c-24.768.371-49.425 2.938-73.835 7.82a367.495 367.495 0 0 1 8.64-3.962c20.534-2.816 42.153-4.083 65.195-3.858Zm-79.256 6.057a371.883 371.883 0 0 1 12.988-2.05 368.833 368.833 0 0 0-8.776 4.057 400.41 400.41 0 0 0-18.094 4.115c4.6-2.124 9.227-4.165 13.882-6.122Zm13.978-2.49c-4.29.588-8.532 1.244-12.731 1.968 32.777-13.66 66.909-23.175 102.443-28.435-32.377 5.195-62.018 14.2-89.712 26.466Zm79.866-3.533c-28.19-1.005-54.265.09-78.792 3.386 45.048-19.798 95.253-30.973 154.014-31.165.68-.002 1.36-.003 2.039-.002 39.881.104 80.893 12.918 122.59 33.876-42.653-5.033-87.786-5.202-135.33-.675a829.115 829.115 0 0 0-22.052-2.495 436.81 436.81 0 0 0-42.469-2.925ZM690.357 47c-36.506-18.43-72.507-30.65-107.699-33.592 47.973 2.322 87.422 14.996 122.309 35.545A530.17 530.17 0 0 0 690.357 47Zm.783.397c4.87.59 9.707 1.244 14.512 1.961a281.962 281.962 0 0 1 15.763 10.079c-3.016-.245-6.04-.46-9.072-.645a579.543 579.543 0 0 0-4.142-2.324 513.446 513.446 0 0 0-17.061-9.071Zm30.876 12.09a282.982 282.982 0 0 0-15.579-10.01c32.007 4.83 62.565 12.502 91.644 23.088a378.05 378.05 0 0 1 3.589 2.15c-22.182-7.006-44.553-11.47-67.339-14.03-4.091-.46-8.196-.858-12.315-1.199Zm-9.079-.358c3 .187 5.991.403 8.975.65 10.207 7.035 20.05 14.765 29.643 23.118-12.919-8.516-25.796-16.483-38.618-23.768Zm40.476 24.997-.383-.337c-9.87-8.671-20.002-16.684-30.518-23.96 3.942.33 7.87.714 11.785 1.154 23.169 2.603 45.908 7.176 68.457 14.392 30.037 18.34 57.179 40.352 81.392 65.527 9.318 10.007 18.639 20.715 28.017 32.163.597.756 1.191 1.515 1.783 2.275 16.218 20.819 30.786 43.287 43.692 67.191-20.814-17.616-42.995-35.215-66.163-53.597-11.986-9.51-24.235-19.228-36.695-29.267-33.917-27.325-67.781-53.271-101.367-75.541Zm-41.158-25.039c13.601 7.709 27.264 16.186 40.975 25.277 35.301 31.099 67.271 70.633 101.552 115.083-74.725-65.466-156.401-113.096-239.759-138.28 33.691-2.761 65.912-3.987 97.232-2.08ZM873.189 222.94a9305.358 9305.358 0 0 0-16.276-21.219 853.934 853.934 0 0 1 38.664 36.355c20.514 20.515 41.441 39.882 61.864 58.783 5.926 5.485 11.81 10.93 17.628 16.352 7.291 6.794 14.48 13.553 21.524 20.309.477 1.444.95 2.892 1.417 4.342-18.026-15.548-37.575-31.357-58.325-48.138-13.064-10.565-26.604-21.515-40.54-33.027-8.891-11.465-17.518-22.734-25.956-33.757Zm123.202 109.971c-6.914-6.627-13.967-13.256-21.117-19.919a7045.441 7045.441 0 0 0-17.632-16.355c-20.422-18.901-41.343-38.263-61.853-58.773a853.535 853.535 0 0 0-39.835-37.388c-34.114-44.268-65.909-83.727-100.91-114.906 32.984 21.994 66.238 47.494 99.548 74.33 12.465 10.043 24.718 19.765 36.705 29.276 23.383 18.553 45.757 36.305 66.731 54.078 15.077 28.032 27.872 58.032 38.363 89.657Zm.664 1.053c11.125 10.676 21.875 21.348 32.095 32.145-9.64-9.301-19.9-18.539-30.703-27.87a592.786 592.786 0 0 0-1.392-4.275ZM711.661 58.751c-31.38-1.869-63.666-.608-97.423 2.179-23.153-6.955-46.434-12.178-69.73-15.57 3.182.365 6.39.753 9.625 1.162l.017.002.016-.001c47.836-4.556 93.226-4.356 136.102.769a510.543 510.543 0 0 1 17.787 9.438c1.201.668 2.403 1.341 3.606 2.021Zm317.029 251.65c-20.87-23.507-44.587-45.442-70.425-67.339-11.445-21.273-24.203-41.415-38.266-60.275a859.016 859.016 0 0 1 5.946 7.58l.01.013.013.011c37.046 30.603 69.001 62.84 95.692 96.782a516.756 516.756 0 0 1 5.91 19.252c.37 1.321.75 2.646 1.12 3.976ZM926.172 190.17a831.068 831.068 0 0 0-13.774-17.291 436.997 436.997 0 0 0-28.035-32.185c-22.45-24.108-44.886-44.149-68.06-60.652a325.568 325.568 0 0 1 8.955 3.458c46.885 20.726 89.637 49.608 128.115 86.988a537.024 537.024 0 0 1 4.927 4.866c.494.494.986.989 1.478 1.484 27.536 28.153 47.142 65.789 61.612 109.501-26.604-33.718-58.398-65.751-95.218-96.169ZM815.23 79.647c20.012 14.162 39.471 30.957 58.859 50.727-21.271-20.642-44.653-38.948-70.124-54.61 3.76 1.22 7.514 2.513 11.265 3.883Zm-.934-.658a325.916 325.916 0 0 0-11.416-3.89 408.506 408.506 0 0 0-3.272-1.975 438.246 438.246 0 0 1 14.157 5.492l.531.373Zm-1.643-1.148a440.193 440.193 0 0 0-14.443-5.549C754.687 46.528 705.214 28.37 649.893 19.31a553.845 553.845 0 0 1 110.189 28.513c2.108.96 4.207 1.944 6.297 2.95 15.883 7.648 31.24 16.623 46.274 27.068Zm-46.144-27.338c-.87-.42-1.743-.835-2.617-1.246a550.734 550.734 0 0 1 19.93 8.034c44.565 19.024 86.129 43.718 123.787 73.177-27.534-20.841-54.8-36.18-82.232-47.244a433.765 433.765 0 0 0-11.468-4.873c-15.392-10.777-31.119-20.008-47.4-27.848Zm68.263 37.01c29.523 13.004 58.911 31.143 88.712 55.952-27.628-22.501-57.214-41.116-88.712-55.952ZM1021.93 287.03c-13.13-39.916-30.525-74.82-54.299-102.121a556.293 556.293 0 0 1 7.413 7.924c53.486 58.404 87.566 121.587 104.576 186.87-15.16-32.217-34.43-63.093-57.69-92.673Zm58.38 94.149c-12.57-49.04-34.74-96.908-67.5-142.47a553.825 553.825 0 0 1 60.94 105.083c21.85 49.653 36.07 101.858 42.64 154.83-4.77-33.824-13.16-63.652-24.65-90.626a435.948 435.948 0 0 0-11.43-26.817Zm15.03 36.445c11.78 30.282 19.79 64.151 23.29 103.11-3.6-35.74-11.4-70.095-23.29-103.11Zm-14.63-34.869c2.7 5.84 5.26 11.723 7.69 17.65a316.216 316.216 0 0 0-6.78-13.954c-.29-1.232-.6-2.464-.91-3.696Zm1.21 4.934a327.73 327.73 0 0 1 9.55 20.419c16.03 41.4 25.54 84.933 28.32 130.693-.37-3.859-.83-7.669-1.38-11.431-4.22-31.671-13.59-58.931-27.25-83.688a403.07 403.07 0 0 0-9.24-55.993ZM508.864 1116.67c11.337 2.09 23.002 3.56 35.06 4.38-64.582-2.61-128.795-16.44-189.46-41.51a553.079 553.079 0 0 1-93.143-49.49l-.001-.01c60.233 38.97 125.435 62.93 192.262 72.8 17.995 5.97 36.403 10.63 55.282 13.83Zm-56.932-14.38c-66.269-10.03-130.907-33.94-190.65-72.63l-.363-3.74c35.9 20.16 73.245 33.02 112.424 40.75 25.394 14.47 51.525 26.52 78.589 35.62Zm-191.947-85.97.898 9.23c35.657 20.05 72.742 32.89 111.639 40.65-18.043-10.33-35.714-21.88-53.086-34.46-20.575-3.23-40.425-8.14-59.451-15.42ZM43.459 723.861c2.213 16.136 5.382 31.603 9.534 46.564-21.779-50.4-35.469-105.804-39.548-165.343 3.773 43.978 14.174 83.002 30.014 118.779Zm-.146-1.074C23.434 677.541 12.254 627.093 12.162 568v-1.138c.043-37.691 6.282-71.478 17.382-103.143-7.716 60.281-4.05 121.754 10.331 181.983-.904 27.537.212 53.054 3.438 77.085ZM705.755 49.07c-33.525-19.87-71.252-32.468-116.7-35.589l.055.003c79.743 3.283 149.013 23.907 207.567 58.254-28.867-10.391-59.184-17.923-90.922-22.668ZM152.259 936.082c-40.948-44.333-70.094-87.099-88.428-134.05 22.3 47.746 51.777 92.971 88.428 134.05Zm303.048 167.008c2.045.3 4.092.58 6.141.85a309.535 309.535 0 0 0 31.277 9.31 379.425 379.425 0 0 1-37.418-10.16Zm624.723-721.809c.34 1.347.68 2.695 1.01 4.043-10.73-20.631-23.39-39.599-37.68-57.516a438.954 438.954 0 0 0-14.22-16.896c-.42-1.529-.85-3.052-1.29-4.569a505.938 505.938 0 0 0-5.65-18.479c23.37 29.809 42.68 60.932 57.83 93.417ZM815.016 79.129c.869.358 1.737.718 2.603 1.081a329.5 329.5 0 0 0-2.249-.83l-.354-.251ZM748.179 1048c17.731-15.34 34.933-32.35 52.146-50.292 31.58-10.445 61.545-23.184 89.554-38.196-7.307 8.611-14.618 16.984-21.992 25.094-36.326 28.244-74.734 51.834-114.434 70.564a837.4 837.4 0 0 1-16.912 2.58c3.908-3.17 7.786-6.42 11.638-9.75Zm196.308-155.844c-18.553 23.384-36.304 45.757-54.078 66.731-28.027 15.074-58.021 27.868-89.64 38.358 6.622-6.909 13.246-13.957 19.904-21.101 5.424-5.821 10.87-11.705 16.356-17.632 18.9-20.423 38.262-41.343 58.771-61.853 58.931-58.93 106.47-123.182 140.09-189.861.48 23.473.37 46.339-1.09 68.492-18.73 26.61-39.45 53.367-61.037 80.161-10.043 12.465-19.765 24.718-29.276 36.705Zm-53.355 66.341c17.616-20.813 35.215-42.995 53.597-66.163 9.51-11.985 19.229-24.235 29.268-36.695 21.479-26.66 42.103-53.288 60.763-79.774-.06.924-.12 1.848-.19 2.77-.87 12.039-2.16 23.863-3.97 35.457-29 40.02-63.498 78.453-101.212 116.167a675.731 675.731 0 0 1-16.019 15.499 504.251 504.251 0 0 1-22.237 12.739Zm-21.861 25.029c7.149-7.895 14.241-16.037 21.33-24.402a504.55 504.55 0 0 0 21.699-12.369 654.77 654.77 0 0 1-43.029 36.771Zm45.35-38.532a672.14 672.14 0 0 0 14.98-14.523c37.568-37.569 71.959-75.858 100.889-115.726-2.13 13.475-5 26.636-8.78 39.456-18.86 22.252-40.093 42.46-63.386 60.604-13.858 10.795-28.446 20.859-43.703 30.189Zm107.569-91.359c3.75-12.813 6.58-25.964 8.69-39.425 14.69-20.276 27.97-40.961 39.54-62.168-2.73 17.364-6.67 34.515-12.12 51.558a402.578 402.578 0 0 1-36.11 50.035Zm97.62-265.419c-3.85 58.043-21.47 111.589-48.83 162.167a404.11 404.11 0 0 0 2-15.183 431.72 431.72 0 0 0 1.89-22c.79-1.381 1.56-2.761 2.33-4.14 22.77-40.993 38.4-81.416 42.61-120.844Zm-45.27 125.578a430.753 430.753 0 0 1-1.86 21.373c-.6 5.354-1.31 10.685-2.13 15.996-11.56 21.285-24.85 42.045-39.57 62.394 1.78-11.416 3.03-23.056 3.89-34.901.08-1.086.15-2.173.22-3.263 14.53-20.637 27.85-41.188 39.45-61.599Zm-2.04-97.901c2.76 33.686 3.98 65.903 2.08 97.219-11.59 20.445-24.91 41.031-39.45 61.706 1.44-22.189 1.54-45.09 1.05-68.592 14.95-29.716 27.13-59.913 36.32-90.333ZM754.526 1054.99c38.889-18.42 76.531-41.53 112.183-69.092-19.536 21.392-39.53 40.922-61.04 58.082-.198.16-.396.32-.594.47-16.314 4.25-33.151 7.67-50.549 10.54Zm-.988.47c17.54-2.87 34.513-6.3 50.956-10.54-3.837 3.03-7.723 6-11.664 8.88-23.227 6.88-47.301 12.16-72.091 16.14l.688-.51a568.74 568.74 0 0 0 32.111-13.97Zm147.042-50.16c-32.952 21.25-68.78 36.9-106.899 48.25a389.19 389.19 0 0 0 11.53-8.82c33.935-8.83 65.613-21.18 95.369-39.43Zm-180.265 64.58c-.076.05-.152.11-.228.16-.106.02-.213.04-.32.05l.548-.21Zm.963-.71-2.872 1.14c-48.299 7.59-99.289 10.31-152.004 10.31-24.605 0-48.836-1.34-72.593-3.96 42.801-.23 87.78-3.43 135.318-7.47 37.632-3.2 73.011-6.29 106.381-10.99a393.264 393.264 0 0 1-14.23 10.97Zm1.106-.44c4.614-3.41 9.179-6.96 13.702-10.61a868.56 868.56 0 0 0 16.378-2.48 580.198 580.198 0 0 1-30.08 13.09Zm366.896-532.848c-3.25 26.189-8.84 52.378-16.61 78.407-2.26-27.174-5.5-55.303-8.89-84.684-1.75-15.199-3.54-30.733-5.25-46.642-3.66-34.034-7.91-67.443-13.44-99.36.61.692 1.21 1.385 1.81 2.079 17.24 19.926 32.36 40.518 44.36 62.548 2.39 29.068 1.66 58.36-1.98 87.652Zm-854.568 4.195a334.859 334.859 0 0 0 .009 54.485c2.476 30.484 9.059 59.806 19.196 87.412 16.122 44.003 41.842 85.284 77.16 120.602 33.341 33.342 71.997 58.129 113.241 74.363 36.127 14.254 75.346 22.369 116.374 23.059 3.266.056 6.533.063 9.8.023 43.489-.523 84.971-9.389 122.92-25.071 39.391-16.241 76.297-40.366 108.305-72.374 31.967-31.967 56.071-68.82 72.312-108.155 15.946-38.536 24.863-80.718 25.151-124.949.565-85.673-31.748-171.524-96.94-237.001l-.476-.476-.482-.482c-31.777-31.662-68.357-55.576-107.39-71.741-39.266-16.299-82.327-25.295-127.49-25.295-43.461 0-84.976 8.331-123.036 23.484-40.886 16.239-79.204 40.902-112.289 73.986-35.214 35.214-60.887 76.357-77.017 120.215-10.231 27.754-16.869 57.247-19.348 87.915Z"/>
  </g>
  <path stroke="#000" stroke-width=".5" d="m898.839 256.956.017.022.021.018c13.951 11.525 27.502 22.484 40.574 33.055 46.68 37.751 87.249 70.557 118.089 106.538 39.47 46.039 63 97.264 63 170.673 0 153.016-62.02 269.364-162.278 347.466-100.271 78.106-238.81 117.972-391.861 117.972-29.013 0-57.508 1.1-85.315 2.18-8.068.31-16.078.62-24.026.9-35.346 1.25-69.467 1.9-102.025-.45-65.11-4.71-123.944-21.47-173.762-69.634C77.058 864.939 12.26 723.668 12.26 567.262c0-306.043 248.098-554.14 554.141-554.14 79.548 0 136.316 26.998 186.364 70.968 41.607 36.554 78.562 84.828 120.097 139.084 8.444 11.03 17.077 22.307 25.977 33.782ZM233.517 567.262c0 183.847 149.037 332.885 332.884 332.885 183.848 0 332.885-149.038 332.885-332.885 0-183.847-149.037-332.884-332.885-332.884-183.847 0-332.884 149.037-332.884 332.884Z"/>
  <path stroke="#000" stroke-width=".5" d="m925.865 190.429.017.022.021.017C1053.37 295.765 1120.54 420.4 1120.54 567.262c0 153.015-62.02 269.364-162.279 347.465-100.27 78.107-238.809 117.973-391.86 117.973-29.013 0-57.508 1.1-85.315 2.18-8.068.31-16.078.62-24.026.9-35.346 1.25-69.467 1.9-102.025-.45-65.11-4.71-123.944-21.47-173.762-69.635C77.088 864.968 53.147 723.723 53.147 567.262c0-306.07 207.235-554.142 513.254-554.142 79.595 0 143.135 10.393 199.934 37.744 56.798 27.35 106.877 71.671 159.53 139.565ZM233.517 567.262c0 183.847 149.037 332.884 332.884 332.884s332.885-149.037 332.885-332.884c0-183.848-149.038-332.885-332.885-332.885-183.847 0-332.884 149.037-332.884 332.885Z"/>
  <path stroke="#000" stroke-width=".5" d="M1120.54 567.262c0 45.917-16.89 93.345-43.69 141.604-26.81 48.258-63.53 97.327-103.166 146.523-10.044 12.467-19.766 24.72-29.278 36.708-46.958 59.184-88.775 111.893-138.8 151.803-60.141 47.99-132.145 77.5-239.205 77.5-306.043 0-554.14-248.094-554.14-554.138 0-124.701 67.785-206.655 155.17-310.298C285.191 117.296 385.15 13.121 566.401 13.121c306.044 0 554.139 248.098 554.139 554.141Zm-887.023 0c0 183.847 149.037 332.885 332.884 332.885 183.848 0 332.885-149.038 332.885-332.885 0-183.847-149.037-332.884-332.885-332.884-183.847 0-332.884 149.037-332.884 332.884Z"/>
  <mask id="b" fill="#fff">
    <path d="M1120.79 567.262c0 306.182-248.207 554.388-554.389 554.388-306.181 0-554.39-248.206-554.39-554.388 0-306.181 248.209-554.39 554.39-554.39 306.182 0 554.389 248.209 554.389 554.39Zm-887.023 0c0 183.709 148.925 332.635 332.634 332.635s332.635-148.926 332.635-332.635S750.11 234.628 566.401 234.628 233.767 383.553 233.767 567.262Z"/>
  </mask>
  <path stroke="#000" d="M1120.79 567.262c0 306.182-248.207 554.388-554.389 554.388-306.181 0-554.39-248.206-554.39-554.388 0-306.181 248.209-554.39 554.39-554.39 306.182 0 554.389 248.209 554.389 554.39Zm-887.023 0c0 183.709 148.925 332.635 332.634 332.635s332.635-148.926 332.635-332.635S750.11 234.628 566.401 234.628 233.767 383.553 233.767 567.262Z" mask="url(#b)"/>
  <path stroke="#000" stroke-width=".5" d="m554.12 46.621.028.004.027-.003c164.588-15.675 300.217 24.956 404.064 128.803C1066.44 283.623 1104.85 409.747 1089.18 535.87c-15.67 126.131-85.44 252.283-193.663 360.507-20.517 20.516-39.886 41.446-58.788 61.87-5.484 5.925-10.928 11.807-16.35 17.625-24.112 25.878-47.775 50.468-72.462 71.818-49.371 42.71-102.822 72.46-172.107 73.63-144.895 2.45-261.699-80.5-372.334-191.132-216.424-216.424-245.3-538.375-28.911-754.763 56.282-56.282 108.56-93.864 168.063-114.686C402.13 39.916 468.881 35.844 554.12 46.622ZM331.017 802.647c130 129.999 340.77 129.999 470.77 0 130-130 130-340.771 0-470.77-130-130-340.77-130-470.77 0-130 129.999-130 340.77 0 470.77Z"/>
  <path stroke="#000" stroke-width=".5" d="M958.238 175.425c32.468 32.468 54.062 77.947 69.232 131.028 15.17 53.079 23.9 113.739 30.66 176.552 1.71 15.918 3.5 31.458 5.25 46.661 8.65 75.053 16.35 141.89 9.2 205.49-8.59 76.459-38.64 148.24-114.342 223.943-216.405 216.401-567.268 216.401-783.673 0C86.388 870.922 76.369 765.04 64.873 629.963c-15.492-182.03-18.472-326.374 109.692-454.538 216.405-216.406 567.268-216.406 783.673 0ZM331.016 802.647c130 129.999 340.771 129.999 470.77 0 130-130 130-340.771 0-470.77-129.999-130-340.77-130-470.77 0-129.999 129.999-129.999 340.77 0 470.77Z"/>
  <path stroke="#000" stroke-width=".5" d="M958.238 175.425c216.402 216.406 216.402 567.269 0 783.674-216.405 216.411-567.268 216.411-783.674 0-216.405-216.405-216.405-567.268 0-783.674 216.406-216.405 567.269-216.405 783.674 0ZM331.016 802.647c130 130 340.771 130 470.77 0 130-129.999 130-340.77 0-470.77-129.999-129.999-340.77-129.999-470.77 0-129.999 130-129.999 340.771 0 470.77Z"/>
  <path stroke="url(#c)" d="m189.722 207.995.044-.034.035-.042C295.06 80.499 419.629 13.37 566.401 13.37c152.94 0 269.216 61.984 347.268 162.185 78.065 100.216 117.921 238.696 117.921 391.707 0 29.019 1.1 57.521 2.18 85.329.31 8.067.62 16.075.9 24.021 1.25 35.345 1.9 69.454-.45 101.997-4.71 65.077-21.46 123.846-69.565 173.607-100.653 104.104-241.808 128.054-398.254 128.054-305.957 0-553.89-207.152-553.89-513.008 0-79.574 10.389-143.073 37.718-199.826 27.328-56.752 71.618-106.803 139.493-159.441Zm376.679 692.401c183.986 0 333.135-149.149 333.135-333.134 0-183.986-149.149-333.135-333.135-333.135-183.985 0-333.134 149.149-333.134 333.135 0 183.985 149.149 333.134 333.134 333.134Z"/>
  <path stroke="#000" stroke-width=".5" d="M566.401 13.12c45.917 0 93.346 16.889 141.604 43.698 48.258 26.808 97.327 63.525 146.523 103.16 12.467 10.045 24.72 19.767 36.708 29.278 59.184 46.958 111.884 88.776 151.804 138.801 47.99 60.14 77.5 132.145 77.5 239.204 0 306.044-248.095 554.139-554.139 554.139-124.7 0-206.654-67.78-310.297-155.168C116.435 848.472 12.26 748.512 12.26 567.261c0-306.043 248.098-554.14 554.141-554.14Zm0 887.026c183.848 0 332.885-149.038 332.885-332.885 0-183.847-149.037-332.884-332.885-332.884-183.847 0-332.884 149.037-332.884 332.884s149.037 332.885 332.884 332.885Z"/>
  <mask id="d" fill="#fff">
    <path d="M566.401 12.87c306.182 0 554.389 248.21 554.389 554.391 0 306.182-248.207 554.389-554.389 554.389-306.181 0-554.39-248.207-554.39-554.389 0-306.181 248.209-554.39 554.39-554.39Zm0 887.026c183.709 0 332.635-148.926 332.635-332.635S750.11 234.627 566.401 234.627 233.767 383.552 233.767 567.261s148.925 332.635 332.634 332.635Z"/>
  </mask>
  <path stroke="#000" d="M566.401 12.87c306.182 0 554.389 248.21 554.389 554.391 0 306.182-248.207 554.389-554.389 554.389-306.181 0-554.39-248.207-554.39-554.389 0-306.181 248.209-554.39 554.39-554.39Zm0 887.026c183.709 0 332.635-148.926 332.635-332.635S750.11 234.627 566.401 234.627 233.767 383.552 233.767 567.261s148.925 332.635 332.634 332.635Z" mask="url(#d)"/>
  <path stroke="#000" stroke-width=".5" d="m111.903 551.613.003-.028-.003-.027c-1.715-18.015-3.548-35.346-5.316-52.064-6.314-59.701-11.801-111.583-8.169-158.836 4.648-60.461 24.227-113.325 76.135-165.233C282.752 67.227 408.876 28.809 534.999 44.48c126.131 15.672 252.283 85.444 360.506 193.667 20.516 20.516 41.445 39.885 61.869 58.787 5.925 5.484 11.808 10.929 17.626 16.351 25.87 24.111 50.47 47.775 71.82 72.462 42.71 49.371 72.46 102.822 73.63 172.107 2.45 144.936-51.63 290.649-162.223 401.245-216.405 216.401-567.268 216.401-783.674 0-56.248-56.248-77.298-115.481-81.596-181.962-3.573-55.267 4.43-115.534 13.426-183.268 1.828-13.77 3.698-27.849 5.52-42.256Zm689.873 251.034c129.999-130 129.999-340.771-.001-470.77-129.999-130-340.77-130-470.77 0-129.999 129.999-129.999 340.77 0 470.77 130 130 340.771 130 470.771 0Z"/>
  <path stroke="#000" stroke-width=".5" d="m45.75 579.544.004-.028-.003-.027C30.076 414.901 70.707 279.272 174.554 175.425 282.752 67.227 408.876 28.809 534.999 44.48c126.131 15.672 252.283 85.444 360.506 193.667 20.517 20.517 41.446 39.886 61.869 58.788a6708.194 6708.194 0 0 1 17.627 16.35c25.869 24.112 50.469 47.775 71.819 72.462 42.71 49.372 72.46 102.822 73.63 172.107 2.45 144.895-80.5 261.699-191.133 372.334-216.424 216.422-538.375 245.302-754.763 28.911-56.282-56.282-93.864-108.56-114.686-168.063-20.823-59.502-24.895-126.253-14.118-211.492Zm756.026 223.103c129.999-129.999 129.999-340.77 0-470.77-130-130-340.771-130-470.77 0-130 130-130 340.771 0 470.77 129.999 130 340.77 130 470.77 0Z"/>
  <path stroke="#000" stroke-width=".5" d="M174.554 175.425c32.468-32.468 77.947-54.063 131.028-69.23 53.08-15.167 113.74-23.901 176.553-30.662 15.918-1.713 31.457-3.503 46.66-5.254 75.053-8.644 141.89-16.343 205.49-9.197 76.46 8.592 148.24 38.64 223.943 114.343 216.402 216.406 216.402 567.269 0 783.674-88.177 88.181-194.058 98.191-329.136 109.691-182.029 15.49-326.374 18.47-454.538-109.691-216.405-216.405-216.405-567.268 0-783.674Zm627.222 627.222c130-129.999 130-340.77 0-470.77-129.999-129.999-340.77-129.999-470.77 0-129.999 130-129.999 340.771 0 470.77 130 130 340.771 130 470.77 0Z"/>
  <path stroke="#000" stroke-width=".5" d="M174.554 175.425c216.406-216.405 567.269-216.405 783.674 0 216.402 216.406 216.402 567.269 0 783.674-216.405 216.401-567.268 216.401-783.674 0-216.405-216.405-216.405-567.268 0-783.674Zm627.222 627.222c130-129.999 130-340.77 0-470.77-129.999-129.999-340.77-129.999-470.77 0-129.999 130-129.999 340.771 0 470.77 130 130 340.771 130 470.77 0Z"/>
  <circle cx="1020.44" cy="285.077" r="7.816" fill="#000" stroke="#000"/>
  <circle cx="925.083" cy="188.612" r="7.816" fill="#000" stroke="#000"/>
  <circle cx="856.339" cy="197.483" r="7.816" fill="#000" stroke="#000"/>
  <circle cx="711.087" cy="101.019" r="7.816" fill="#000" stroke="#000"/>
  <circle cx="1037.07" cy="701.979" r="7.816" fill="#000" stroke="#000"/>
  <circle cx="915.105" cy="944.802" r="7.816" fill="#000" stroke="#000"/>
  <circle cx="889.048" cy="958.662" r="5.044" fill="#000" stroke="#000"/>
  <circle cx="458.839" cy="1102.8" r="5.044" fill="#000" stroke="#000"/>
  <circle cx="320.242" cy="1031.84" r="5.044" fill="#000" stroke="#000"/>
  <circle cx="151.707" cy="873.286" r="5.044" fill="#000" stroke="#000"/>
  <circle cx="77.418" cy="753.537" r="5.044" fill="#000" stroke="#000"/>
  <circle cx="86.288" cy="307.806" r="5.044" fill="#000" stroke="#000"/>
  <circle cx="324.677" cy="98.246" r="5.044" fill="#000" stroke="#000"/>
  <circle cx="445.534" cy="40.59" r="5.044" fill="#000" stroke="#000"/>
  <circle cx="410.053" cy="45.025" r="5.044" fill="#000" stroke="#000"/>
  <circle cx="1022.66" cy="857.208" r="7.816" fill="#000" stroke="#000"/>
  <circle cx="795.356" cy="1050.14" r="7.816" fill="#000" stroke="#000"/>
  <circle cx="490.44" cy="1075.64" r="7.816" fill="#000" stroke="#000"/>
  <circle cx="344.081" cy="1036.83" r="7.816" fill="#000" stroke="#000"/>
  <circle cx="113.454" cy="872.732" r="7.816" fill="#000" stroke="#000"/>
  <circle cx="93.495" cy="776.267" r="7.816" fill="#000" stroke="#000"/>
  <circle cx="192.178" cy="205.244" r="7.816" fill="#000" stroke="#000"/>
  <circle cx="49.144" cy="582.23" r="7.816" fill="#000" stroke="#000"/>
  <circle cx="375.126" cy="92.148" r="7.816" fill="#000" stroke="#000"/>
  <circle cx="615.18" cy="61.657" r="5.044" fill="#000" stroke="#000"/>
  <circle cx="751.559" cy="83.832" r="5.044" fill="#000" stroke="#000"/>
  <circle cx="851.35" cy="109.334" r="5.044" fill="#000" stroke="#000"/>
  <circle cx="1045.39" cy="384.313" r="5.044" fill="#000" stroke="#000"/>
  <circle cx="1089.74" cy="446.405" r="5.044" fill="#000" stroke="#000"/>
  <circle cx="690.021" cy="47.797" r="2.272" fill="#000" stroke="#000"/>
  <circle cx="705.543" cy="50.014" r="2.272" fill="#000" stroke="#000"/>
  <circle cx="722.177" cy="59.994" r="2.272" fill="#000" stroke="#000"/>
  <circle cx="773.18" cy="97.692" r="2.272" fill="#000" stroke="#000"/>
  <circle cx="815.314" cy="79.952" r="2.272" fill="#000" stroke="#000"/>
  <circle cx="955.019" cy="173.089" r="2.272" fill="#000" stroke="#000"/>
  <circle cx="898.472" cy="257.357" r="2.272" fill="#000" stroke="#000"/>
  <circle cx="1120.23" cy="566.707" r="2.272" fill="#000" stroke="#000"/>
  <circle cx="1074.77" cy="713.067" r="2.272" fill="#000" stroke="#000"/>
  <circle cx="1070.33" cy="751.874" r="2.272" fill="#000" stroke="#000"/>
  <circle cx="1058.14" cy="802.878" r="2.272" fill="#000" stroke="#000"/>
  <circle cx="1034.85" cy="775.159" r="2.272" fill="#000" stroke="#000"/>
  <circle cx="1030.42" cy="815.075" r="2.272" fill="#000" stroke="#000"/>
  <circle cx="867.425" cy="984.719" r="2.272" fill="#000" stroke="#000"/>
  <circle cx="735.481" cy="1057.9" r="2.272" fill="#000" stroke="#000"/>
  <circle cx="374.018" cy="1066.77" r="2.272" fill="#000" stroke="#000"/>
  <circle cx="390.65" cy="1068.99" r="2.272" fill="#000" stroke="#000"/>
  <circle cx="96.821" cy="810.639" r="2.272" fill="#000" stroke="#000"/>
  <circle cx="87.951" cy="798.443" r="2.272" fill="#000" stroke="#000"/>
  <circle cx="76.864" cy="782.92" r="2.272" fill="#000" stroke="#000"/>
  <circle cx="63.558" cy="719.719" r="2.272" fill="#000" stroke="#000"/>
  <circle cx="40.273" cy="645.431" r="2.272" fill="#000" stroke="#000"/>
  <circle cx="112.345" cy="552.293" r="2.272" fill="#000" stroke="#000"/>
  <circle cx="97.93" cy="342.733" r="2.272" fill="#000" stroke="#000"/>
  <circle cx="100.148" cy="327.21" r="2.272" fill="#000" stroke="#000"/>
  <circle cx="109.019" cy="280.641" r="2.272" fill="#000" stroke="#000"/>
  <circle cx="138.957" cy="250.704" r="2.272" fill="#000" stroke="#000"/>
  <circle cx="240.963" cy="129.847" r="2.272" fill="#000" stroke="#000"/>
  <circle cx="286.423" cy="112.106" r="2.272" fill="#000" stroke="#000"/>
  <path stroke="#000" stroke-width=".5" d="m582.05 112.774.028.003.027-.002c18.015-1.716 35.346-3.549 52.064-5.317 59.701-6.314 111.583-11.8 158.836-8.168 60.461 4.648 113.325 24.226 165.233 76.135C1066.44 283.623 1104.85 409.747 1089.18 535.87c-15.67 126.131-85.44 252.283-193.664 360.506-20.517 20.517-39.886 41.446-58.788 61.87-5.484 5.925-10.928 11.808-16.35 17.626-24.112 25.878-47.775 50.468-72.462 71.818-49.372 42.71-102.822 72.46-172.107 73.63-144.937 2.45-290.649-51.63-401.245-162.221-216.406-216.406-216.406-567.269 0-783.674 56.248-56.249 115.481-77.299 181.962-81.597 55.267-3.573 115.533 4.43 183.268 13.426 13.77 1.828 27.848 3.698 42.256 5.52ZM331.016 802.647c129.999 129.999 340.77 129.999 470.77 0 130-130 130-340.771 0-470.77-130-130-340.77-130-470.77 0-130 129.999-130 340.77 0 470.77Z"/>
  <circle cx="798.683" cy="999.133" r="7.816" fill="#000" stroke="#000"/>
  <circle cx="719.404" cy="1070.65" r="5.044" fill="#000" stroke="#000"/>
  <circle cx="53.025" cy="773.495" r="5.044" fill="#000" stroke="#000"/>
  <circle cx="582.468" cy="112.106" r="7.816" fill="#000" stroke="#000"/>
  <circle cx="1080.87" cy="384.313" r="5.044" fill="#000" stroke="#000"/>
  <circle cx="1072" cy="616.048" r="5.044" fill="#000" stroke="#000"/>
  <circle cx="256.487" cy="117.65" r="2.272" fill="#000" stroke="#000"/>
  <circle cx="297.511" cy="103.236" r="2.272" fill="#000" stroke="#000"/>
  <circle cx="314.144" cy="104.345" r="2.272" fill="#000" stroke="#000"/>
  <circle cx="357.386" cy="93.257" r="2.272" fill="#000" stroke="#000"/>
  <circle cx="380.67" cy="53.341" r="2.272" fill="#000" stroke="#000"/>
  <circle cx="396.193" cy="46.688" r="2.272" fill="#000" stroke="#000"/>
  <circle cx="361.821" cy="54.45" r="2.272" fill="#000" stroke="#000"/>
  <circle cx="77.973" cy="319.449" r="2.272" fill="#000" stroke="#000"/>
  <circle cx="89.06" cy="354.93" r="2.272" fill="#000" stroke="#000"/>
  <circle cx="64.668" cy="391.52" r="2.272" fill="#000" stroke="#000"/>
  <circle cx="61.34" cy="408.151" r="2.272" fill="#000" stroke="#000"/>
  <circle cx="50.252" cy="417.022" r="2.272" fill="#000" stroke="#000"/>
  <circle cx="43.6" cy="724.154" r="2.272" fill="#000" stroke="#000"/>
  <circle cx="753.222" cy="1055.68" r="2.272" fill="#000" stroke="#000"/>
  <path stroke="#000" stroke-width=".5" d="m256.095 234.824.022-.017.018-.021c11.525-13.951 22.484-27.503 33.055-40.574 37.75-46.68 70.556-87.246 106.538-118.09 46.039-39.466 97.264-63.002 170.673-63.002 153.015 0 269.364 62.018 347.465 162.281 78.107 100.27 117.974 238.81 117.974 391.86 0 29.014 1.1 57.509 2.18 85.315.31 8.069.62 16.079.9 24.027 1.25 35.346 1.9 69.467-.45 102.024-4.71 65.11-21.47 123.944-69.636 173.762C864.078 1056.6 722.807 1121.4 566.401 1121.4c-306.044 0-554.141-248.095-554.141-554.139 0-79.547 26.999-136.315 70.969-186.363 36.553-41.607 84.827-78.562 139.084-120.098 11.029-8.443 22.306-17.076 33.782-25.976Zm310.306 665.322c183.847 0 332.885-149.038 332.885-332.885 0-183.847-149.038-332.884-332.885-332.884-183.847 0-332.885 149.037-332.885 332.884s149.038 332.885 332.885 332.885Z"/>
  <circle cx="998.262" cy="337.189" r="7.816" fill="#000" stroke="#000"/>
  <circle cx="28.631" cy="466.362" r="5.044" fill="#000" stroke="#000"/>
  <circle cx="96.822" cy="367.127" r="7.816" fill="#000" stroke="#000"/>
  <circle cx="559.185" cy="12.316" r="7.816" fill="#000" stroke="#000"/>
  <circle cx="255.377" cy="235.181" r="2.272" fill="#000" stroke="#000"/>
  <circle cx="79.082" cy="385.976" r="2.272" fill="#000" stroke="#000"/>
  <circle cx="48.036" cy="428.109" r="2.272" fill="#000" stroke="#000"/>
  <circle cx="958.345" cy="958.108" r="2.272" fill="#000" stroke="#000"/>
  <circle cx="799.792" cy="74.408" r="2.272" fill="#000" stroke="#000"/>
  <circle cx="767.637" cy="98.801" r="2.272" fill="#000" stroke="#000"/>
  <circle cx="712.198" cy="58.885" r="2.272" fill="#000" stroke="#000"/>
  <circle cx="554.195" cy="46.134" r="5.044" fill="#000" stroke="#000"/>
  <defs>
    <linearGradient id="c" x1="-1777.18" x2="-1777.23" y1="-8.396" y2="1116.54" gradientUnits="userSpaceOnUse">
      <stop stop-color="#FF3F3F"/>
      <stop offset=".214" stop-color="#FEEB3C"/>
      <stop offset=".417" stop-color="#71FF3F"/>
      <stop offset=".62" stop-color="#3E8BFF"/>
      <stop offset=".813" stop-color="#E43EFF"/>
      <stop offset=".984" stop-color="#FF3E3E"/>
    </linearGradient>
    <filter id="a" width="1132.79" height="1132.78" x="0" y=".87" color-interpolation-filters="sRGB" filterUnits="userSpaceOnUse">
      <feFlood flood-opacity="0" result="BackgroundImageFix"/>
      <feBlend in="SourceGraphic" in2="BackgroundImageFix" result="shape"/>
      <feGaussianBlur result="effect1_foregroundBlur_542_77484" stdDeviation="6"/>
    </filter>
  </defs>
</svg>