<svg xmlns="http://www.w3.org/2000/svg" width="1111" height="1112" fill="none">
  <g clip-path="url(#a)">
    <g filter="url(#b)">
      <path stroke="#484848" stroke-width=".5" d="m881.387 251.967.017.022.02.016c13.68 11.301 26.968 22.048 39.786 32.413 45.774 37.018 85.56 69.187 115.8 104.471 38.7 45.145 61.77 95.374 61.77 167.359 0 150.044-60.81 264.133-159.124 340.718-98.324 76.59-234.173 115.684-384.251 115.684-28.452 0-56.393 1.08-83.661 2.13-7.911.31-15.765.61-23.558.89-34.66 1.22-68.118 1.87-100.043-.44-63.846-4.62-121.538-21.057-170.389-68.286-102.191-98.799-165.73-237.328-165.73-390.696 0-300.102 243.28-543.382 543.381-543.382 78.002 0 133.668 26.475 182.744 69.591 40.799 35.844 77.037 83.181 117.766 136.383 8.279 10.816 16.745 21.874 25.472 33.127ZM228.984 556.248c0 180.277 146.143 326.42 326.421 326.42 180.277 0 326.42-146.143 326.42-326.42 0-180.278-146.143-326.422-326.42-326.422-180.278 0-326.421 146.144-326.421 326.422Z"/>
      <path stroke="#484848" stroke-width=".5" d="m907.888 186.731.017.021.02.018c124.995 103.251 190.855 225.466 190.855 369.477 0 150.043-60.81 264.133-159.125 340.718-98.323 76.59-234.172 115.685-384.251 115.685-28.451 0-56.394 1.08-83.661 2.13-7.91.31-15.764.61-23.558.89-34.659 1.22-68.117 1.86-100.043-.44-63.846-4.62-121.537-21.057-170.388-68.287C75.592 848.172 52.115 709.67 52.115 556.247c0-300.127 203.212-543.382 503.289-543.382 78.049 0 140.355 10.19 196.052 37.01 55.695 26.82 104.801 70.28 156.432 136.856ZM228.983 556.247c0 180.277 146.144 326.42 326.421 326.42s326.421-146.143 326.421-326.42c0-180.278-146.144-326.422-326.421-326.422S228.983 375.969 228.983 556.247Z"/>
      <path stroke="#484848" stroke-width=".5" d="M555.405 1099.62c-300.101 0-543.382-243.272-543.382-543.372 0-122.28 66.47-202.643 152.158-304.273C279.654 115.018 377.672 12.866 555.405 12.866c300.1 0 543.375 243.28 543.375 543.382 0 45.024-16.56 91.532-42.84 138.854-26.29 47.32-62.295 95.436-101.161 143.677-9.849 12.225-19.383 24.241-28.71 35.996-46.046 58.034-87.051 109.72-136.105 148.855-58.972 47.07-129.579 75.99-234.559 75.99ZM228.984 556.248c0 180.277 146.143 326.42 326.421 326.42 180.277 0 326.42-146.143 326.42-326.42 0-180.278-146.143-326.422-326.42-326.422-180.278 0-326.421 146.144-326.421 326.422Z"/>
      <mask id="c" width="1089" height="1088" x="11" y="12" maskUnits="userSpaceOnUse" style="mask-type:alpha">
        <path fill="#fff" d="M1099.03 556.248c0 300.235-243.39 543.622-543.626 543.622-300.237 0-543.627-243.387-543.627-543.622 0-300.237 243.39-543.627 543.627-543.627 300.236 0 543.626 243.39 543.626 543.627Zm-869.802 0c0 180.142 146.033 326.175 326.176 326.175 180.142 0 326.175-146.033 326.175-326.175 0-180.142-146.033-326.176-326.175-326.176-180.143 0-326.176 146.034-326.176 326.176Z"/>
      </mask>
      <g stroke="#484848" mask="url(#c)">
        <path d="M1099.03 556.248c0 300.235-243.39 543.622-543.626 543.622-300.237 0-543.627-243.387-543.627-543.622 0-300.237 243.39-543.627 543.627-543.627 300.236 0 543.626 243.39 543.626 543.627Zm-869.802 0c0 180.142 146.033 326.175 326.176 326.175 180.142 0 326.175-146.033 326.175-326.175 0-180.142-146.033-326.176-326.175-326.176-180.143 0-326.176 146.034-326.176 326.176Z"/>
        <path stroke-width=".5" d="m543.361 45.716.026.004.028-.003c161.391-15.37 294.387 24.471 396.218 126.301C1045.73 278.115 1083.4 401.791 1068.03 525.464c-15.36 123.683-83.78 247.386-189.901 353.507-20.119 20.118-39.112 40.641-57.647 60.668-5.377 5.81-10.716 11.579-16.032 17.284-23.644 25.375-46.848 49.487-71.056 70.427-48.413 41.88-100.826 71.05-168.764 72.2-142.082 2.4-256.619-78.94-365.105-187.424-212.221-212.222-240.536-527.921-28.349-740.108 55.189-55.189 106.452-92.04 164.799-112.459 58.347-20.418 123.802-24.41 207.386-13.843ZM324.59 787.061c127.475 127.476 334.153 127.476 461.629 0 127.474-127.474 127.474-334.153 0-461.628-127.476-127.476-334.154-127.476-461.629 0-127.476 127.475-127.476 334.154 0 461.628Z"/>
        <path stroke-width=".5" d="M939.631 940.475c-212.203 212.195-556.253 212.195-768.456 0C84.71 854.01 74.886 750.184 63.613 617.73 48.423 439.235 45.5 297.693 171.175 172.018c212.203-212.204 556.253-212.204 768.456 0 31.838 31.838 53.013 76.433 67.889 128.484 14.87 52.049 23.44 111.531 30.06 173.125 1.68 15.607 3.44 30.846 5.15 45.752 8.48 73.596 16.03 139.136 9.02 201.501-8.42 74.976-37.89 145.362-112.119 219.595ZM324.588 787.061c127.476 127.475 334.155 127.475 461.629 0 127.476-127.476 127.476-334.154 0-461.629-127.474-127.476-334.153-127.476-461.629 0-127.474 127.475-127.474 334.153 0 461.629Z"/>
        <path stroke-width=".5" d="M939.633 172.019c212.197 212.203 212.197 556.253 0 768.457-212.204 212.204-556.254 212.204-768.457 0-212.203-212.204-212.203-556.254 0-768.457 212.203-212.204 556.253-212.204 768.457 0ZM324.589 787.062c127.476 127.475 334.155 127.475 461.63 0 127.475-127.476 127.475-334.154 0-461.629-127.475-127.476-334.154-127.476-461.63 0-127.474 127.475-127.474 334.153 0 461.629Z"/>
        <path d="m186.038 203.956.043-.034.035-.042C289.331 78.935 411.481 13.11 555.404 13.11c149.969 0 263.988 60.78 340.525 159.035 76.548 98.27 115.631 234.061 115.631 384.101 0 28.456 1.08 56.404 2.14 83.673.3 7.909.6 15.763.88 23.553 1.23 34.659 1.86 68.107-.44 100.018-4.62 63.812-21.045 121.44-68.216 170.235-98.699 102.085-237.113 125.565-390.52 125.565-300.017 0-543.136-203.127-543.136-503.044 0-78.029 10.187-140.295 36.986-195.945C76.05 304.65 119.48 255.572 186.038 203.956Zm369.366 678.956c180.412 0 326.665-146.254 326.665-326.666 0-180.413-146.253-326.667-326.665-326.667-180.413 0-326.666 146.254-326.666 326.667 0 180.412 146.253 326.666 326.666 326.666Z"/>
        <path stroke-width=".5" d="M1098.78 556.246c0 300.1-243.275 543.374-543.375 543.374-122.28 0-202.642-66.46-304.273-152.151C114.175 831.995 12.023 733.977 12.023 556.246c0-300.102 243.281-543.382 543.382-543.382 45.024 0 91.532 16.56 138.854 42.85C741.579 82 789.696 118.005 837.936 156.87c12.225 9.849 24.241 19.382 35.997 28.71 58.033 46.046 109.71 87.051 148.857 136.105 47.06 58.973 75.99 129.579 75.99 234.56Zm-543.375 326.42c180.277 0 326.42-146.143 326.42-326.42 0-180.277-146.143-326.421-326.42-326.421-180.278 0-326.421 146.144-326.421 326.421s146.143 326.42 326.421 326.42Z"/>
      </g>
      <mask id="d" width="1089" height="1088" x="11" y="12" maskUnits="userSpaceOnUse" style="mask-type:alpha">
        <path fill="#fff" d="M555.404 12.62c300.236 0 543.626 243.389 543.626 543.626 0 300.236-243.39 543.624-543.626 543.624-300.237 0-543.627-243.388-543.627-543.624 0-300.237 243.39-543.627 543.627-543.627Zm0 869.801c180.142 0 326.175-146.033 326.175-326.175 0-180.142-146.033-326.176-326.175-326.176-180.143 0-326.176 146.034-326.176 326.176s146.033 326.175 326.176 326.175Z"/>
      </mask>
      <g stroke="#484848" mask="url(#d)">
        <path d="M555.404 12.62c300.236 0 543.626 243.389 543.626 543.626 0 300.236-243.39 543.624-543.626 543.624-300.237 0-543.627-243.388-543.627-543.624 0-300.237 243.39-543.627 543.627-543.627Zm0 869.801c180.142 0 326.175-146.033 326.175-326.175 0-180.142-146.033-326.176-326.175-326.176-180.143 0-326.176 146.034-326.176 326.176s146.033 326.175 326.176 326.175Z"/>
        <path stroke-width=".5" d="m109.731 540.902.003-.028-.003-.026c-1.682-17.666-3.479-34.66-5.213-51.053-6.192-58.542-11.572-109.417-8.01-155.752 4.557-59.287 23.756-111.125 74.656-162.025C277.262 65.921 400.937 28.249 524.61 43.616c123.683 15.368 247.386 83.785 353.507 189.906 20.118 20.118 40.64 39.111 60.667 57.646a6943.493 6943.493 0 0 1 17.285 16.033c25.367 23.644 49.491 46.848 70.421 71.055 41.88 48.414 71.06 100.827 72.2 168.765 2.41 142.123-50.62 285.006-159.069 393.454-212.203 212.195-556.253 212.195-768.457 0-55.156-55.156-75.797-113.238-80.011-178.429-3.504-54.193 4.344-113.289 13.165-179.709 1.792-13.503 3.626-27.307 5.413-41.435Zm676.477 246.159c127.475-127.475 127.475-334.153-.001-461.629-127.475-127.474-334.153-127.474-461.629 0-127.474 127.476-127.474 334.154 0 461.629 127.476 127.476 334.154 127.476 461.63 0Z"/>
        <path stroke-width=".5" d="m44.862 568.29.003-.026-.002-.028c-15.371-161.391 24.47-294.387 126.301-396.218C277.261 65.921 400.936 28.249 524.61 43.616c123.682 15.368 247.385 83.785 353.506 189.906 20.119 20.118 40.64 39.112 60.668 57.646 5.81 5.377 11.58 10.716 17.285 16.033 25.366 23.644 49.491 46.847 70.421 71.056 41.88 48.412 71.06 100.826 72.2 168.764 2.41 142.082-78.93 256.619-187.418 365.104-212.222 212.225-527.921 240.535-740.108 28.35-55.189-55.189-92.04-106.452-112.459-164.8-20.418-58.346-24.411-123.801-13.843-207.385Zm741.345 218.771c127.475-127.475 127.475-334.153 0-461.629-127.476-127.475-334.154-127.475-461.629 0-127.475 127.476-127.475 334.154 0 461.629 127.475 127.476 334.153 127.476 461.629 0Z"/>
        <path stroke-width=".5" d="M939.621 172.018c212.199 212.204 212.199 556.254 0 768.457-86.465 86.465-190.29 96.285-322.745 107.565-178.494 15.19-320.036 18.11-445.712-107.565-212.203-212.203-212.203-556.253 0-768.457 31.838-31.837 76.434-53.013 128.484-67.886 52.049-14.872 111.531-23.437 173.125-30.066 15.609-1.68 30.846-3.435 45.754-5.152 73.595-8.477 139.135-16.026 201.5-9.018 74.975 8.424 145.361 37.89 219.594 112.122ZM786.207 787.061c127.476-127.475 127.476-334.153 0-461.629-127.475-127.474-334.153-127.474-461.629 0-127.474 127.476-127.474 334.154 0 461.629 127.476 127.476 334.154 127.476 461.629 0Z"/>
        <path stroke-width=".5" d="M171.164 172.019c212.204-212.204 556.254-212.204 768.457 0 212.199 212.203 212.199 556.253 0 768.457-212.203 212.204-556.253 212.204-768.457 0-212.203-212.204-212.203-556.254 0-768.457Zm615.043 615.043c127.476-127.476 127.476-334.154 0-461.63-127.475-127.474-334.153-127.474-461.629 0-127.474 127.476-127.474 334.154 0 461.63 127.476 127.475 334.154 127.475 461.629 0Z"/>
        <path stroke-width=".5" d="m570.748 110.584.027.003.027-.002c17.665-1.683 34.659-3.48 51.052-5.214 58.542-6.191 109.417-11.571 155.753-8.01 59.286 4.558 111.124 23.756 162.024 74.657C1045.73 278.115 1083.4 401.79 1068.03 525.464c-15.36 123.682-83.78 247.385-189.903 353.507-20.118 20.118-39.112 40.641-57.646 60.668a7138.884 7138.884 0 0 1-16.032 17.284c-23.644 25.375-46.849 49.487-71.056 70.427-48.413 41.88-100.826 71.05-168.764 72.2-142.123 2.4-285.007-50.63-393.455-159.075-212.203-212.204-212.203-556.254 0-768.457 55.157-55.156 113.238-75.797 178.429-80.012 54.194-3.503 113.29 4.345 179.71 13.165 13.503 1.794 27.307 3.626 41.435 5.413Zm-246.16 676.477c127.476 127.475 334.154 127.475 461.63 0 127.474-127.475 127.474-334.154 0-461.628-127.476-127.476-334.154-127.476-461.63 0-127.475 127.474-127.475 334.153 0 461.628Z"/>
        <path stroke-width=".5" d="m251.123 230.263.021-.017.017-.02c11.301-13.68 22.047-26.968 32.413-39.786 37.018-45.774 69.187-85.551 104.47-115.797 45.144-38.7 95.375-61.779 167.358-61.779 150.045 0 264.135 60.814 340.719 159.13 76.59 98.324 115.679 234.173 115.679 384.251 0 28.452 1.08 56.394 2.14 83.662.31 7.911.61 15.764.88 23.557 1.23 34.659 1.87 68.118-.44 100.043-4.62 63.845-21.05 121.537-68.28 170.389-98.8 102.184-237.329 165.734-390.698 165.734-300.1 0-543.38-243.284-543.38-543.385 0-78.002 26.474-133.668 69.59-182.744 35.844-40.799 83.181-77.037 136.383-117.766 10.816-8.279 21.874-16.745 33.128-25.472Zm304.279 652.403c180.278 0 326.421-146.143 326.421-326.421 0-180.277-146.143-326.42-326.421-326.42-180.277 0-326.42 146.143-326.42 326.42 0 180.278 146.143 326.421 326.42 326.421Z"/>
      </g>
    </g>
    <path stroke="#000" stroke-width=".5" d="m881.385 251.968.017.022.02.016c13.68 11.301 26.968 22.048 39.786 32.413 45.774 37.018 85.552 69.187 115.792 104.471 38.71 45.145 61.78 95.374 61.78 167.359 0 150.043-60.81 264.133-159.126 340.718-98.324 76.59-234.173 115.683-384.251 115.683-28.452 0-56.393 1.08-83.661 2.14-7.911.3-15.765.6-23.558.88-34.66 1.22-68.118 1.87-100.043-.44-63.845-4.62-121.538-21.056-170.389-68.285-102.19-98.8-165.73-237.328-165.73-390.696 0-300.102 243.28-543.382 543.381-543.382 78.002 0 133.668 26.475 182.744 69.591 40.799 35.844 77.037 83.181 117.766 136.383 8.279 10.816 16.745 21.874 25.472 33.127ZM228.982 556.249c0 180.277 146.143 326.42 326.421 326.42 180.277 0 326.42-146.143 326.42-326.42 0-180.279-146.143-326.422-326.42-326.422-180.278 0-326.421 146.143-326.421 326.422Z"/>
    <path stroke="#000" stroke-width=".5" d="m907.888 186.732.017.021.02.018c124.995 103.251 190.855 225.466 190.855 369.477 0 150.043-60.81 264.133-159.125 340.718-98.323 76.59-234.172 115.684-384.251 115.684-28.451 0-56.394 1.08-83.661 2.14-7.91.3-15.764.6-23.558.88-34.659 1.22-68.117 1.86-100.043-.44-63.846-4.62-121.537-21.056-170.388-68.286C75.592 848.173 52.115 709.671 52.115 556.248c0-300.127 203.212-543.382 503.289-543.382 78.049 0 140.355 10.19 196.052 37.01 55.695 26.82 104.801 70.28 156.432 136.856ZM228.983 556.248c0 180.277 146.144 326.42 326.421 326.42s326.421-146.143 326.421-326.42c0-180.278-146.144-326.422-326.421-326.422S228.983 375.97 228.983 556.248Z"/>
    <path stroke="#000" stroke-width=".5" d="M555.403 1099.63c-300.101 0-543.382-243.281-543.382-543.381 0-122.28 66.47-202.643 152.158-304.273C279.652 115.019 377.67 12.867 555.403 12.867c300.1 0 543.377 243.28 543.377 543.382 0 45.024-16.56 91.532-42.84 138.854-26.29 47.32-62.297 95.436-101.163 143.677-9.849 12.225-19.383 24.241-28.71 35.996-46.046 58.034-87.051 109.72-136.105 148.854-58.972 47.07-129.579 76-234.559 76ZM228.982 556.249c0 180.277 146.143 326.42 326.421 326.42 180.277 0 326.42-146.143 326.42-326.42 0-180.279-146.143-326.422-326.42-326.422-180.278 0-326.421 146.143-326.421 326.422Z"/>
    <mask id="e" width="1089" height="1088" x="11" y="12" maskUnits="userSpaceOnUse" style="mask-type:alpha">
      <path fill="#fff" d="M1099.03 556.248c0 300.235-243.39 543.622-543.626 543.622-300.237 0-543.627-243.387-543.627-543.622 0-300.237 243.39-543.627 543.627-543.627 300.236 0 543.626 243.39 543.626 543.627Zm-869.802 0c0 180.142 146.033 326.175 326.176 326.175 180.142 0 326.175-146.033 326.175-326.175 0-180.142-146.033-326.176-326.175-326.176-180.143 0-326.176 146.034-326.176 326.176Z"/>
    </mask>
    <g mask="url(#e)">
      <path stroke="#000" d="M1099.03 556.248c0 300.235-243.39 543.622-543.626 543.622-300.237 0-543.627-243.387-543.627-543.622 0-300.237 243.39-543.627 543.627-543.627 300.236 0 543.626 243.39 543.626 543.627Zm-869.802 0c0 180.142 146.033 326.175 326.176 326.175 180.142 0 326.175-146.033 326.175-326.175 0-180.142-146.033-326.176-326.175-326.176-180.143 0-326.176 146.034-326.176 326.176Z"/>
      <path stroke="#000" stroke-width=".5" d="m543.361 45.716.026.004.028-.003c161.391-15.37 294.387 24.471 396.218 126.301C1045.73 278.115 1083.4 401.791 1068.03 525.464c-15.36 123.683-83.78 247.386-189.901 353.507-20.119 20.118-39.112 40.641-57.647 60.668-5.377 5.81-10.716 11.579-16.032 17.284-23.644 25.375-46.848 49.487-71.056 70.427-48.413 41.88-100.826 71.05-168.764 72.2-142.082 2.4-256.619-78.94-365.105-187.424-212.221-212.222-240.536-527.921-28.349-740.108 55.189-55.189 106.452-92.04 164.799-112.459 58.347-20.418 123.802-24.41 207.386-13.843ZM324.59 787.061c127.475 127.476 334.153 127.476 461.629 0 127.474-127.474 127.474-334.153 0-461.628-127.476-127.476-334.154-127.476-461.629 0-127.476 127.475-127.476 334.154 0 461.628Z"/>
      <path stroke="#000" stroke-width=".5" d="M939.631 940.476c-212.203 212.194-556.253 212.194-768.456 0C84.71 854.011 74.886 750.185 63.613 617.731 48.423 439.236 45.5 297.694 171.175 172.019c212.203-212.204 556.253-212.204 768.456 0 31.838 31.837 53.013 76.433 67.889 128.484 14.87 52.049 23.44 111.531 30.06 173.124 1.68 15.608 3.44 30.847 5.15 45.753 8.48 73.596 16.03 139.136 9.02 201.501-8.42 74.976-37.89 145.362-112.119 219.595ZM324.588 787.062c127.476 127.475 334.155 127.475 461.629 0 127.476-127.476 127.476-334.154 0-461.629-127.474-127.476-334.153-127.476-461.629 0-127.474 127.475-127.474 334.153 0 461.629Z"/>
      <path stroke="#000" stroke-width=".5" d="M939.631 172.02c212.199 212.203 212.199 556.253 0 768.457-212.203 212.203-556.254 212.203-768.457 0-212.203-212.204-212.203-556.254 0-768.457 212.203-212.204 556.254-212.204 768.457 0ZM324.588 787.063c127.475 127.475 334.154 127.475 461.629 0 127.475-127.476 127.475-334.154 0-461.629-127.475-127.476-334.154-127.476-461.629 0-127.475 127.475-127.475 334.153 0 461.629Z"/>
      <path stroke="url(#f)" d="m186.038 203.955.043-.033.035-.042C289.331 78.935 411.481 13.11 555.404 13.11c149.969 0 263.988 60.78 340.525 159.035 76.548 98.269 115.631 234.06 115.631 384.1 0 28.457 1.08 56.405 2.14 83.673.3 7.911.6 15.763.88 23.555 1.23 34.658 1.86 68.105-.44 100.016-4.62 63.813-21.045 121.442-68.216 170.235-98.699 102.086-237.113 125.556-390.52 125.556-300.017 0-543.136-203.117-543.136-503.035 0-78.028 10.187-140.294 36.986-195.945 26.797-55.65 70.227-104.729 136.784-156.345Zm369.366 678.957c180.412 0 326.665-146.254 326.665-326.667 0-180.412-146.253-326.666-326.665-326.666-180.413 0-326.666 146.254-326.666 326.666 0 180.413 146.253 326.667 326.666 326.667Z"/>
      <path stroke="#000" stroke-width=".5" d="M1098.78 556.246c0 300.1-243.277 543.384-543.377 543.384-122.28 0-202.642-66.47-304.273-152.161C114.173 831.995 12.022 733.977 12.022 556.246c0-300.102 243.28-543.382 543.381-543.382 45.024 0 91.533 16.56 138.854 42.85C741.577 82 789.694 118.005 837.934 156.87c12.225 9.849 24.241 19.382 35.997 28.71 58.033 46.046 109.71 87.051 148.859 136.105 47.05 58.973 75.99 129.579 75.99 234.56Zm-543.377 326.42c180.277 0 326.42-146.143 326.42-326.42 0-180.277-146.143-326.421-326.42-326.421-180.278 0-326.421 146.144-326.421 326.421s146.143 326.42 326.421 326.42Z"/>
    </g>
    <mask id="g" width="1089" height="1088" x="11" y="12" maskUnits="userSpaceOnUse" style="mask-type:alpha">
      <path fill="#fff" d="M555.404 12.618c300.236 0 543.626 243.39 543.626 543.627 0 300.235-243.39 543.625-543.626 543.625-300.237 0-543.627-243.39-543.627-543.625 0-300.237 243.39-543.627 543.627-543.627Zm0 869.802c180.142 0 326.175-146.033 326.175-326.175 0-180.142-146.033-326.176-326.175-326.176-180.143 0-326.176 146.034-326.176 326.176S375.261 882.42 555.404 882.42Z"/>
    </mask>
    <g stroke="#000" mask="url(#g)">
      <path d="M555.404 12.618c300.236 0 543.626 243.39 543.626 543.627 0 300.235-243.39 543.625-543.626 543.625-300.237 0-543.627-243.39-543.627-543.625 0-300.237 243.39-543.627 543.627-543.627Zm0 869.802c180.142 0 326.175-146.033 326.175-326.175 0-180.142-146.033-326.176-326.175-326.176-180.143 0-326.176 146.034-326.176 326.176S375.261 882.42 555.404 882.42Z"/>
      <path stroke-width=".5" d="m109.731 540.902.003-.027-.003-.026c-1.682-17.666-3.479-34.66-5.213-51.053-6.192-58.542-11.572-109.417-8.01-155.752 4.557-59.287 23.756-111.125 74.656-162.025C277.262 65.922 400.937 28.25 524.61 43.617c123.683 15.368 247.386 83.785 353.507 189.906 20.118 20.118 40.64 39.111 60.667 57.646a6943.493 6943.493 0 0 1 17.285 16.033c25.367 23.644 49.491 46.848 70.421 71.055 41.88 48.414 71.06 100.827 72.2 168.765 2.41 142.123-50.62 285.006-159.069 393.454-212.203 212.204-556.253 212.204-768.457 0-55.156-55.156-75.797-113.238-80.011-178.429-3.504-54.193 4.344-113.289 13.165-179.709 1.792-13.503 3.626-27.307 5.413-41.436Zm676.477 246.16c127.475-127.475 127.475-334.153-.001-461.629-127.475-127.474-334.153-127.474-461.629 0-127.474 127.476-127.474 334.154 0 461.629 127.476 127.476 334.154 127.476 461.63 0Z"/>
      <path stroke-width=".5" d="m44.862 568.291.003-.026-.002-.028C29.492 406.846 69.333 273.85 171.164 172.019 277.261 65.922 400.936 28.25 524.61 43.617c123.682 15.368 247.385 83.785 353.506 189.906 20.119 20.118 40.64 39.112 60.668 57.646 5.81 5.377 11.58 10.716 17.285 16.033 25.366 23.644 49.491 46.847 70.421 71.056 41.88 48.412 71.06 100.826 72.2 168.764 2.41 142.082-78.93 256.619-187.418 365.104-212.222 212.224-527.921 240.544-740.108 28.35-55.189-55.189-92.04-106.452-112.459-164.8-20.418-58.346-24.411-123.801-13.843-207.385Zm741.345 218.771c127.475-127.475 127.475-334.153 0-461.629-127.476-127.475-334.154-127.475-461.629 0-127.475 127.476-127.475 334.154 0 461.629 127.475 127.476 334.153 127.476 461.629 0Z"/>
      <path stroke-width=".5" d="M939.621 172.019c212.199 212.204 212.199 556.254 0 768.457-86.465 86.464-190.29 96.284-322.745 107.564-178.494 15.19-320.036 18.11-445.712-107.564-212.203-212.203-212.203-556.253 0-768.457 31.838-31.837 76.434-53.013 128.484-67.886 52.049-14.872 111.531-23.436 173.125-30.066 15.609-1.68 30.846-3.435 45.754-5.152 73.595-8.477 139.135-16.026 201.5-9.018 74.975 8.424 145.361 37.89 219.594 112.122ZM786.207 787.062c127.476-127.475 127.476-334.153 0-461.629-127.475-127.474-334.153-127.474-461.629 0-127.474 127.476-127.474 334.154 0 461.629 127.476 127.476 334.154 127.476 461.629 0Z"/>
      <path stroke-width=".5" d="M171.164 172.019c212.204-212.204 556.254-212.204 768.457 0 212.199 212.203 212.199 556.253 0 768.457-212.203 212.204-556.253 212.204-768.457 0-212.203-212.204-212.203-556.254 0-768.457Zm615.043 615.043c127.476-127.476 127.476-334.154 0-461.63-127.475-127.474-334.153-127.474-461.629 0-127.474 127.476-127.474 334.154 0 461.63 127.476 127.475 334.154 127.475 461.629 0Z"/>
      <path stroke-width=".5" d="m570.748 110.584.027.003.027-.002c17.665-1.683 34.659-3.48 51.052-5.214 58.542-6.191 109.417-11.571 155.753-8.01 59.286 4.558 111.124 23.756 162.024 74.657C1045.73 278.115 1083.4 401.79 1068.03 525.464c-15.36 123.682-83.78 247.385-189.903 353.507-20.118 20.118-39.112 40.641-57.646 60.668a7138.884 7138.884 0 0 1-16.032 17.284c-23.644 25.375-46.849 49.487-71.056 70.427-48.413 41.88-100.826 71.05-168.764 72.2-142.123 2.4-285.007-50.63-393.455-159.075-212.203-212.204-212.203-556.254 0-768.457 55.157-55.156 113.238-75.797 178.429-80.012 54.194-3.503 113.29 4.345 179.71 13.165 13.503 1.794 27.307 3.626 41.435 5.413Zm-246.16 676.477c127.476 127.475 334.154 127.475 461.63 0 127.474-127.475 127.474-334.154 0-461.628-127.476-127.476-334.154-127.476-461.63 0-127.475 127.474-127.475 334.153 0 461.628Z"/>
      <path stroke-width=".5" d="m251.123 230.264.021-.017.017-.021c11.301-13.681 22.047-26.968 32.413-39.787 37.018-45.772 69.187-85.551 104.47-115.796 45.144-38.7 95.375-61.779 167.358-61.779 150.045 0 264.135 60.814 340.719 159.131 76.59 98.323 115.679 234.172 115.679 384.251 0 28.451 1.08 56.394 2.14 83.661.31 7.91.61 15.764.88 23.558 1.23 34.658 1.87 68.117-.44 100.042-4.62 63.846-21.05 121.538-68.28 170.389-98.8 102.184-237.329 165.734-390.698 165.734-300.1 0-543.38-243.284-543.38-543.384 0-78.003 26.474-133.668 69.59-182.746 35.844-40.799 83.181-77.036 136.383-117.766 10.816-8.279 21.874-16.744 33.128-25.47Zm304.279 652.402c180.278 0 326.421-146.143 326.421-326.42 0-180.277-146.143-326.421-326.421-326.421-180.277 0-326.42 146.144-326.42 326.421s146.143 326.42 326.42 326.42Z"/>
      <path fill="#000" d="M1000.63 287.205c4.23 0 7.66-3.431 7.66-7.664a7.662 7.662 0 0 0-7.66-7.664 7.664 7.664 0 1 0 0 15.328Zm-93.507-94.591a7.664 7.664 0 0 0 7.664-7.664 7.664 7.664 0 0 0-7.664-7.664 7.664 7.664 0 0 0-7.664 7.664 7.664 7.664 0 0 0 7.664 7.664Zm-67.41 8.699a7.664 7.664 0 1 0-.001-15.329 7.664 7.664 0 0 0 .001 15.329Zm-142.432-94.591a7.664 7.664 0 1 0 0-15.329 7.664 7.664 0 0 0 0 15.329Zm319.649 589.29a7.664 7.664 0 1 0 0-15.328 7.662 7.662 0 0 0-7.66 7.664 7.662 7.662 0 0 0 7.66 7.664ZM897.336 934.121a7.664 7.664 0 0 0 7.664-7.664 7.664 7.664 0 0 0-7.664-7.664 7.664 7.664 0 0 0-7.664 7.664 7.664 7.664 0 0 0 7.664 7.664Zm-25.55 10.873a4.946 4.946 0 1 0 0-9.892 4.946 4.946 0 0 0 0 9.892ZM449.93 1086.33a4.942 4.942 0 0 0 4.946-4.94c0-2.74-2.214-4.95-4.946-4.95a4.944 4.944 0 0 0-4.946 4.95c0 2.73 2.215 4.94 4.946 4.94Zm-135.906-69.58a4.944 4.944 0 0 0 4.946-4.95c0-2.73-2.214-4.94-4.946-4.94a4.942 4.942 0 0 0-4.946 4.94c0 2.74 2.215 4.95 4.946 4.95ZM148.76 861.275a4.946 4.946 0 1 0 0-9.892 4.946 4.946 0 0 0 0 9.892ZM75.915 743.852a4.946 4.946 0 1 0 0-9.891 4.946 4.946 0 0 0 0 9.891Zm8.699-437.076a4.946 4.946 0 1 0 0-9.893 4.946 4.946 0 0 0 0 9.893Zm233.758-205.491a4.947 4.947 0 1 0-.002-9.894 4.947 4.947 0 0 0 .002 9.894Zm118.511-56.537a4.946 4.946 0 1 0 0-9.891 4.946 4.946 0 0 0 0 9.891Zm-34.792 4.349a4.946 4.946 0 1 0-.001-9.891 4.946 4.946 0 0 0 .001 9.891ZM1002.8 848.228a7.664 7.664 0 1 0 0-15.328 7.663 7.663 0 0 0-7.661 7.664 7.663 7.663 0 0 0 7.661 7.664ZM779.914 1037.41a7.662 7.662 0 0 0 7.664-7.66c0-4.23-3.431-7.67-7.664-7.67s-7.664 3.44-7.664 7.67 3.431 7.66 7.664 7.66Zm-298.998 25.01a7.664 7.664 0 0 0 7.664-7.67c0-4.23-3.431-7.66-7.664-7.66a7.662 7.662 0 0 0-7.664 7.66c0 4.24 3.431 7.67 7.664 7.67Zm-143.518-38.06a7.663 7.663 0 0 0 7.665-7.66 7.665 7.665 0 1 0-7.665 7.66ZM111.25 863.45a7.664 7.664 0 1 0 0-15.329 7.664 7.664 0 0 0 0 15.329Zm-19.57-94.591a7.664 7.664 0 1 0 0-15.328 7.664 7.664 0 1 0 0 15.328Zm96.767-559.936a7.664 7.664 0 0 0 7.664-7.664 7.664 7.664 0 1 0-7.664 7.664ZM48.19 578.588a7.664 7.664 0 1 0 0-15.328 7.664 7.664 0 0 0 0 15.328ZM367.842 98.023a7.664 7.664 0 1 0 0-15.328 7.664 7.664 0 1 0 0 15.329Zm235.393-32.617a4.946 4.946 0 1 0 0-9.892 4.946 4.946 0 0 0 0 9.892ZM736.967 87.15a4.946 4.946 0 1 0 0-9.89 4.946 4.946 0 0 0 0 9.89Zm97.852 25.008a4.946 4.946 0 1 0 0-9.892 4.946 4.946 0 0 0 0 9.892Zm190.271 269.639a4.95 4.95 0 0 0 4.95-4.946 4.95 4.95 0 0 0-4.95-4.946 4.942 4.942 0 0 0-4.94 4.946 4.942 4.942 0 0 0 4.94 4.946Zm43.49 60.886a4.95 4.95 0 0 0 4.95-4.946 4.95 4.95 0 0 0-9.9 0 4.95 4.95 0 0 0 4.95 4.946ZM676.624 49.097a2.228 2.228 0 1 0 0-4.455 2.228 2.228 0 0 0 0 4.455Zm15.221 2.174a2.228 2.228 0 1 0 0-4.456 2.228 2.228 0 0 0 0 4.456Zm16.311 9.786a2.227 2.227 0 1 0 0-4.455 2.227 2.227 0 0 0 0 4.455Zm50.011 36.966a2.228 2.228 0 1 0 0-4.455 2.228 2.228 0 0 0 0 4.455Zm41.317-17.395a2.228 2.228 0 1 0 0-4.457 2.228 2.228 0 0 0 0 4.457Zm136.992 91.329a2.229 2.229 0 1 0-.001-4.457 2.229 2.229 0 0 0 .001 4.457Zm-55.449 82.631a2.228 2.228 0 1 0-.002-4.456 2.228 2.228 0 0 0 .002 4.456Zm217.453 303.344a2.23 2.23 0 0 0 2.23-2.228 2.23 2.23 0 0 0-4.46 0c0 1.23 1 2.228 2.23 2.228Zm-44.58 143.517a2.23 2.23 0 0 0 2.23-2.228 2.23 2.23 0 0 0-4.46 0c0 1.23 1 2.228 2.23 2.228Zm-4.35 38.055a2.23 2.23 0 0 0 2.23-2.228 2.23 2.23 0 0 0-4.46 0c0 1.23 1 2.228 2.23 2.228Zm-11.96 50.012a2.23 2.23 0 0 0 2.23-2.228c0-1.23-1-2.227-2.23-2.227s-2.22.997-2.22 2.227c0 1.231.99 2.228 2.22 2.228Zm-22.82-27.181c1.23 0 2.22-.997 2.22-2.228 0-1.23-.99-2.228-2.22-2.228a2.23 2.23 0 0 0-2.23 2.228c0 1.231 1 2.228 2.23 2.228Zm-4.36 39.141a2.23 2.23 0 0 0 2.23-2.228 2.23 2.23 0 0 0-4.46 0c0 1.231 1 2.228 2.23 2.228Zm-159.827 166.35a2.228 2.228 0 1 0 0-4.456 2.228 2.228 0 0 0 0 4.456Zm-129.382 71.764a2.23 2.23 0 0 0 0-4.46 2.23 2.23 0 0 0 0 4.46Zm-354.446 8.69c1.231 0 2.228-.99 2.228-2.22a2.23 2.23 0 0 0-2.228-2.23c-1.23 0-2.228 1-2.228 2.23s.998 2.22 2.228 2.22Zm16.309 2.18a2.23 2.23 0 0 0 0-4.46 2.23 2.23 0 0 0 0 4.46ZM94.94 797.127a2.228 2.228 0 1 0 .001-4.455 2.228 2.228 0 0 0 0 4.455Zm-8.697-11.96a2.228 2.228 0 1 0 .001-4.455 2.228 2.228 0 0 0 0 4.455ZM75.37 769.945a2.227 2.227 0 1 0 .001-4.455 2.227 2.227 0 0 0 0 4.455Zm-13.046-61.972a2.228 2.228 0 1 0-.001-4.456 2.228 2.228 0 0 0 0 4.456Zm-22.832-72.847a2.228 2.228 0 1 0 0-4.455 2.228 2.228 0 0 0 0 4.455Zm70.671-91.33a2.227 2.227 0 1 0 .002-4.454 2.227 2.227 0 0 0-.002 4.454Zm-14.134-205.49a2.228 2.228 0 1 0 0-4.455 2.228 2.228 0 0 0 0 4.455Zm2.174-15.221a2.228 2.228 0 1 0-.001-4.456 2.228 2.228 0 0 0 0 4.456Zm8.699-45.664a2.229 2.229 0 1 0-.001-4.457 2.229 2.229 0 0 0 .001 4.457Zm29.355-29.357a2.227 2.227 0 1 0 .001-4.455 2.227 2.227 0 0 0-.001 4.455Zm100.027-118.511a2.227 2.227 0 1 0 .001-4.455 2.227 2.227 0 0 0-.001 4.455Zm44.577-17.395a2.228 2.228 0 1 0-.002-4.456 2.228 2.228 0 0 0 .002 4.456Zm502.313 875.239a7.664 7.664 0 1 0-.001-15.329 7.664 7.664 0 0 0 .001 15.329Zm-77.74 67.413a4.95 4.95 0 0 0 0-9.9 4.95 4.95 0 0 0 0 9.9ZM51.995 763.423a4.946 4.946 0 1 0-.001-9.893 4.946 4.946 0 0 0 0 9.893Zm519.163-645.829a7.664 7.664 0 0 0 7.664-7.664 7.664 7.664 0 1 0-7.664 7.664Zm488.722 264.203a4.95 4.95 0 0 0 4.95-4.946 4.95 4.95 0 0 0-4.95-4.946 4.942 4.942 0 0 0-4.94 4.946 4.942 4.942 0 0 0 4.94 4.946Zm-8.7 227.236c2.74 0 4.95-2.215 4.95-4.946a4.944 4.944 0 0 0-4.95-4.946 4.942 4.942 0 0 0-4.94 4.946 4.942 4.942 0 0 0 4.94 4.946Zm-799.675-491.44a2.227 2.227 0 1 0 .002-4.454 2.227 2.227 0 0 0-.002 4.454Zm40.229-14.133a2.229 2.229 0 1 0-.001-4.457 2.229 2.229 0 0 0 .001 4.457Zm16.31 1.087a2.228 2.228 0 1 0 0-4.456 2.228 2.228 0 0 0 0 4.456Zm42.403-10.873a2.227 2.227 0 1 0 0-4.454 2.227 2.227 0 0 0 0 4.454Zm22.832-39.141a2.227 2.227 0 1 0 0-4.455 2.227 2.227 0 0 0 0 4.455Zm15.22-6.523a2.228 2.228 0 1 0 0-4.456 2.228 2.228 0 0 0 0 4.455Zm-33.703 7.61a2.228 2.228 0 1 0 0-4.454 2.228 2.228 0 0 0 0 4.455ZM76.458 315.474a2.228 2.228 0 1 0 0-4.455 2.228 2.228 0 0 0 0 4.455Zm10.873 34.792a2.228 2.228 0 1 0 0-4.455 2.228 2.228 0 0 0 0 4.455Zm-23.92 35.88a2.228 2.228 0 1 0 0-4.457 2.228 2.228 0 0 0 0 4.457Zm-3.261 16.309a2.228 2.228 0 1 0-.001-4.457 2.228 2.228 0 0 0 0 4.457Zm-10.873 8.697a2.227 2.227 0 1 0 0-4.455 2.227 2.227 0 0 0 0 4.455Zm-6.524 301.169a2.227 2.227 0 1 0 .001-4.455 2.227 2.227 0 0 0 0 4.455Zm695.844 325.089a2.23 2.23 0 0 0 0-4.46 2.23 2.23 0 0 0 0 4.46Zm240.281-699.104a7.664 7.664 0 1 0 0-15.329 7.664 7.664 0 0 0 0 15.329ZM28.075 462.253a4.946 4.946 0 1 0 0-9.891 4.946 4.946 0 0 0 0 9.891Zm66.867-94.591a7.664 7.664 0 1 0 0-15.328 7.664 7.664 0 0 0 0 15.328ZM548.328 19.741a7.664 7.664 0 1 0 0-15.328 7.664 7.664 0 1 0 0 15.328ZM250.417 232.842a2.227 2.227 0 1 0 .002-4.454 2.227 2.227 0 0 0-.002 4.454ZM77.546 380.709a2.228 2.228 0 1 0 0-4.455 2.228 2.228 0 0 0 0 4.455Zm-30.443 41.316a2.228 2.228 0 1 0 0-4.455 2.228 2.228 0 0 0 0 4.455Zm892.633 519.707a2.227 2.227 0 1 0 0-4.454 2.227 2.227 0 0 0 0 4.454ZM784.263 75.191a2.228 2.228 0 1 0 0-4.456 2.228 2.228 0 0 0 0 4.456Zm-31.531 23.92a2.228 2.228 0 1 0 0-4.457 2.228 2.228 0 0 0 0 4.457ZM698.37 59.97a2.228 2.228 0 1 0 0-4.456 2.228 2.228 0 0 0 0 4.455Zm-154.934-9.786a4.946 4.946 0 1 0 0-9.892 4.946 4.946 0 0 0 0 9.892Z"/>
    </g>
  </g>
  <defs>
    <linearGradient id="f" x1="-1742.67" x2="-1742.72" y1="-8.234" y2="1094.86" gradientUnits="userSpaceOnUse">
      <stop stop-color="#FF3F3F"/>
      <stop offset=".214" stop-color="#FEEB3C"/>
      <stop offset=".417" stop-color="#71FF3F"/>
      <stop offset=".62" stop-color="#3E8BFF"/>
      <stop offset=".813" stop-color="#E43EFF"/>
      <stop offset=".984" stop-color="#FF3E3E"/>
    </linearGradient>
    <clipPath id="a">
      <path fill="#fff" d="M0 0h1111v1111.98H0z"/>
    </clipPath>
    <filter id="b" width="1111.26" height="1111.26" x="-.227" y=".615" color-interpolation-filters="sRGB" filterUnits="userSpaceOnUse">
      <feFlood flood-opacity="0" result="BackgroundImageFix"/>
      <feBlend in="SourceGraphic" in2="BackgroundImageFix" result="shape"/>
      <feGaussianBlur result="effect1_foregroundBlur_635_30380" stdDeviation="6"/>
    </filter>
  </defs>
</svg>